<svg xmlns="http://www.w3.org/2000/svg" viewBox="0 0 163.67 163.67"><defs><style>.cls-1{fill:#243cb5;}.cls-2{fill:#fff;}</style></defs><g id="Graphic_Elements" data-name="Graphic Elements"><path class="cls-1" d="M149.34,75.18a67.5,67.5,0,1,0-78,66.68V94.69H54.15V75.18H71.29V60.31C71.29,43.39,81.37,34,96.78,34a103.59,103.59,0,0,1,15.11,1.32V52h-8.51c-8.38,0-11,5.21-11,10.54V75.18H111.1l-3,19.51H92.38v47.17A67.53,67.53,0,0,0,149.34,75.18Z"/><path class="cls-2" d="M108.11,94.69l3-19.51H92.38V62.51c0-5.33,2.62-10.54,11-10.54h8.51V35.36A103.59,103.59,0,0,0,96.78,34c-15.41,0-25.49,9.35-25.49,26.27V75.18H54.15V94.69H71.29v47.17a68.21,68.21,0,0,0,21.09,0V94.69Z"/></g></svg>