<svg width="35" height="34" viewBox="0 0 35 34" fill="none" xmlns="http://www.w3.org/2000/svg">
<path d="M13.6062 8.36289C14.5461 3.05043 16.2869 0.0141602 17.6559 0.0141602C19.0249 0.0141602 20.7657 3.05861 21.7056 8.36289C20.3775 8.46506 19.0249 8.51818 17.6559 8.51818C16.2869 8.51818 14.9343 8.44871 13.6062 8.36289ZM0.954346 15.8044H11.3055C11.3367 13.8091 11.4813 11.8171 11.7386 9.83812C8.86665 9.53263 6.03016 8.95521 3.26731 8.11362C1.87859 10.4493 1.08437 13.0902 0.954346 15.8044ZM22.3717 15.8044C22.351 13.8569 22.2146 11.9124 21.9631 9.98115C20.5532 10.0915 19.1025 10.1528 17.6641 10.1528C16.2256 10.1528 14.7749 10.0915 13.3651 9.98115C13.1136 11.9124 12.9771 13.8569 12.9564 15.8044H22.3717ZM11.7468 23.4053C11.4868 21.4265 11.3394 19.4345 11.3055 17.439H0.954346C1.08437 20.1533 1.87859 22.7941 3.26731 25.1298C6.03016 24.2882 8.86665 23.7108 11.7386 23.4053H11.7468ZM17.6559 24.7253C16.2869 24.7253 14.9343 24.7784 13.6062 24.8806C14.5461 30.193 16.2869 33.2293 17.6559 33.2293C19.0249 33.2293 20.7657 30.1848 21.7056 24.8806C20.3775 24.7947 19.0249 24.7253 17.6559 24.7253ZM12.9401 17.439C12.9607 19.3865 13.0972 21.331 13.3487 23.2623C14.7586 23.152 16.2093 23.0907 17.6477 23.0907C19.0862 23.0907 20.5369 23.152 21.9467 23.2623C22.1982 21.331 22.3347 19.3865 22.3554 17.439H12.9401ZM11.9879 8.21987C12.5682 4.83215 13.5163 1.9103 14.7953 0.144928C10.556 0.883297 6.7632 3.22451 4.20312 6.68334C6.74654 7.42868 9.35204 7.94294 11.9879 8.21987ZM23.3239 25.0236C22.7436 28.4113 21.7955 31.3331 20.5165 33.0985C24.7558 32.3601 28.5486 30.0189 31.1087 26.5601C28.5657 25.8128 25.9601 25.2985 23.3239 25.0236ZM34.3575 17.439H24.0063C23.9751 19.4357 23.8304 21.4291 23.5732 23.4094C26.4457 23.7092 29.2826 24.2854 32.0445 25.1298C33.4344 22.7947 34.2288 20.1535 34.3575 17.439ZM11.9879 25.0236C9.35918 25.299 6.76058 25.8106 4.22355 26.5519C6.77727 30.0094 10.5621 32.3532 14.7953 33.0985C13.5163 31.3331 12.5682 28.4113 11.9879 25.0236ZM23.3239 8.21987C25.9529 7.94636 28.5517 7.43481 31.0882 6.69151C28.5345 3.23403 24.7497 0.890264 20.5165 0.144928C21.7955 1.9103 22.7436 4.83215 23.3239 8.21987ZM23.5732 9.83403C23.8304 11.8144 23.9751 13.8077 24.0063 15.8044H34.3575C34.2288 13.0899 33.4344 10.4488 32.0445 8.11362C29.2826 8.95809 26.4457 9.53423 23.5732 9.83403Z" fill="#00A4D7"/>
</svg>
