<svg width="32" height="33" viewBox="0 0 32 33" fill="none" xmlns="http://www.w3.org/2000/svg">
<path d="M31.9616 15.371C31.9386 15.015 31.9014 14.6533 31.8554 14.2896C31.8424 14.1211 31.7784 13.9612 31.6723 13.8323C31.5663 13.7034 31.4237 13.6122 31.2646 13.5715L28.7366 12.9138C28.5903 12.3618 28.4104 11.8198 28.198 11.2912C27.9849 10.7609 27.7391 10.2453 27.462 9.74741L28.8015 7.43736H28.8006C28.8799 7.29988 28.9178 7.14114 28.9093 6.98139C28.9008 6.82163 28.8464 6.66811 28.7529 6.5404C28.3108 5.93805 27.8297 5.36727 27.3129 4.83196C26.8056 4.31006 26.2646 3.82417 25.6936 3.37762C25.5698 3.26761 25.4155 3.20063 25.2526 3.18617C25.0898 3.17172 24.9267 3.21053 24.7864 3.2971L22.5464 4.67652C22.0637 4.39135 21.5637 4.1387 21.0494 3.92015C20.538 3.70016 20.0131 3.51507 19.4781 3.36607L18.8404 0.756375H18.8385C18.8006 0.600444 18.7182 0.459816 18.602 0.352682C18.4858 0.245548 18.3411 0.176836 18.1866 0.155433C17.818 0.104282 17.4548 0.0640213 17.0935 0.0382808C16.7197 0.0128703 16.3546 0 16.0003 0C15.6461 0 15.2793 0.0128703 14.9053 0.0382808C14.5603 0.0640213 14.2083 0.100652 13.8563 0.149823C13.6932 0.162792 13.5382 0.228348 13.4132 0.337207C13.2882 0.446066 13.1996 0.592711 13.1599 0.756375L12.5225 3.36607C11.9869 3.51548 11.4614 3.70102 10.9493 3.92147C10.4357 4.14036 9.93622 4.393 9.45395 4.67784L7.2139 3.29842C7.08056 3.21662 6.92661 3.17764 6.7717 3.18646C6.61679 3.19528 6.46793 3.25149 6.34413 3.34792C5.18483 4.24752 4.15224 5.30872 3.27591 6.50113C3.16932 6.62889 3.10443 6.788 3.09041 6.95592C3.0764 7.12383 3.11398 7.29204 3.19782 7.4367L4.53545 9.74675C4.25994 10.2444 4.01497 10.7593 3.802 11.2885C3.58924 11.8179 3.40956 12.3608 3.26407 12.9138L0.733455 13.5715C0.582268 13.6106 0.445926 13.6956 0.342045 13.8154C0.238164 13.9352 0.171519 14.0844 0.150723 14.2437C0.101122 14.6239 0.0620812 15.0005 0.0390408 15.371C0.0130136 15.7569 0 16.1334 0 16.5003C0 16.8656 0.0124803 17.2422 0.0390408 17.6276C0.0620812 17.9854 0.097602 18.3457 0.145283 18.7114C0.157859 18.8796 0.221429 19.0394 0.326989 19.1683C0.432549 19.2972 0.57475 19.3886 0.733455 19.4295L3.26407 20.0868C3.40925 20.6392 3.58916 21.1812 3.80264 21.7095C4.01496 22.239 4.25994 22.754 4.53609 23.2513L3.19846 25.5613V25.5633C3.11905 25.7006 3.08133 25.8592 3.09017 26.0188C3.09901 26.1784 3.15401 26.3316 3.24806 26.4586C4.11881 27.6549 5.14745 28.7198 6.30413 29.6224C6.4282 29.7319 6.58245 29.7986 6.74518 29.8131C6.90792 29.8275 7.07095 29.789 7.21134 29.7029L9.45139 28.3215C10.4168 28.892 11.4489 29.3332 12.5225 29.6346L13.1603 32.2416C13.1978 32.3978 13.2801 32.5387 13.3963 32.6459C13.5126 32.7531 13.6575 32.8218 13.8121 32.8429C14.1808 32.8957 14.5459 32.9343 14.9053 32.9597C15.2793 32.9855 15.6442 33 16.0003 33C16.3565 33 16.7197 32.9855 17.0935 32.9597C17.4407 32.936 17.7898 32.8977 18.144 32.8502C18.3073 32.8368 18.4624 32.7709 18.5874 32.6617C18.7123 32.5525 18.8008 32.4056 18.8404 32.2416L19.4781 29.6346C20.0134 29.4835 20.5389 29.298 21.0516 29.0792C21.5652 28.8595 22.0646 28.606 22.5467 28.3202L24.7867 29.7016L24.788 29.7006C24.921 29.7824 25.0747 29.8215 25.2294 29.8127C25.384 29.8039 25.5327 29.7478 25.6562 29.6514C26.2406 29.196 26.794 28.6999 27.3125 28.1664C27.8198 27.6438 28.2916 27.0859 28.7247 26.4966C28.8311 26.3687 28.8958 26.2096 28.9098 26.0417C28.9238 25.8739 28.8864 25.7057 28.8028 25.561L27.4633 23.2509C27.7408 22.7533 27.9866 22.2377 28.1993 21.7072C28.411 21.1792 28.5905 20.638 28.7366 20.0868L31.2646 19.4291V19.4272C31.4162 19.3888 31.553 19.3041 31.657 19.1841C31.7611 19.0641 31.8275 18.9145 31.8477 18.7549C31.8989 18.3748 31.9363 18.0002 31.961 17.6276C31.9859 17.2422 32 16.8656 32 16.5003C32 16.135 31.9866 15.7568 31.9616 15.371ZM21.459 22.1296C20.196 23.4312 18.5344 24.2409 16.7574 24.4209C14.9803 24.6008 13.1978 24.1398 11.7134 23.1163C10.229 22.0929 9.13466 20.5704 8.61676 18.8082C8.09885 17.0459 8.18945 15.153 8.87312 13.452C9.55679 11.7509 10.7912 10.347 12.3661 9.47924C13.941 8.61152 15.7589 8.33377 17.5102 8.69329C19.2614 9.05281 20.8375 10.0274 21.9701 11.4509C23.1027 12.8745 23.7216 14.659 23.7214 16.5003C23.7227 17.5461 23.5235 18.5818 23.1352 19.5479C22.7469 20.514 22.1773 21.3914 21.459 22.1296Z" fill="#A6A6A6"/>
</svg>
