<svg width="30" height="33" viewBox="0 0 30 33" fill="none" xmlns="http://www.w3.org/2000/svg">
<path d="M10.6335 0.903834C7.46189 1.68273 4.28879 2.45603 1.11424 3.22372C0.838342 3.29098 0.825263 3.45228 0.825263 3.67212C0.819451 6.98867 0.811354 10.3054 0.800975 13.6224C0.79184 18.4262 0.782499 23.2295 0.772949 28.0324C0.772949 28.3208 0.838965 28.4634 1.13354 28.5624C4.71249 29.7632 8.28853 30.9728 11.8617 32.1914C11.9582 32.2238 12.0578 32.2468 12.2036 32.2873C12.216 32.0556 12.2353 31.8514 12.2372 31.6502C12.2713 28.2091 12.3043 24.768 12.3362 21.3269C12.3968 15.4843 12.4591 9.64174 12.5231 3.79917C12.5355 2.66632 12.5579 1.53409 12.576 0.401245H12.5137C11.8884 0.568775 11.2644 0.74876 10.6335 0.903834ZM11.199 17.2408C10.892 17.5522 10.4455 17.5316 10.172 17.1741C9.85629 16.7625 9.8127 16.3022 10.0157 15.8277C10.144 15.5287 10.3495 15.3045 10.8067 15.2846C10.892 15.3326 11.0745 15.393 11.199 15.5132C11.6325 15.9304 11.6225 16.8135 11.1996 17.2402L11.199 17.2408Z" fill="#FF0000"/>
<path d="M22.0181 12.1196C22.0237 12.4447 21.9172 12.5045 21.6108 12.5026C19.3048 12.4893 16.9978 12.4827 14.6898 12.4827H14.2283V20.2196C14.3528 20.2252 14.4718 20.2351 14.592 20.2351C16.9195 20.2351 19.2477 20.2351 21.5765 20.2351C22.0125 20.2351 22.0125 20.2351 22.0125 20.6804C22.0125 21.6989 22.0125 22.7174 22.0125 23.7358V24.0285C24.5659 21.4645 27.1411 18.9167 29.6777 16.3888L22.0131 8.72293C22.0131 9.85703 21.9982 10.988 22.0181 12.1196Z" fill="#FF0000"/>
<path d="M18.2796 4.07008C18.5574 4.07008 18.657 4.1361 18.6533 4.43254C18.6396 6.32457 18.6489 8.21722 18.6489 10.1099V10.7488C19.1472 10.7488 19.6522 10.7569 20.1436 10.7351C20.1909 10.7351 20.2682 10.544 20.2682 10.4406C20.2775 9.26599 20.275 8.09079 20.275 6.91622C20.275 5.54401 20.275 4.1716 20.275 2.79897C20.275 2.61214 20.275 2.46516 20.0047 2.46703C18.1127 2.47762 16.2201 2.47263 14.328 2.47388C14.2744 2.47614 14.221 2.48133 14.168 2.48945V4.07506H14.5416C15.7853 4.07506 17.0309 4.08316 18.2796 4.07008Z" fill="#FF0000"/>
<path d="M19.9403 21.9491C19.5181 21.9659 19.0859 21.9534 18.6499 21.9534V27.6164H13.9167V29.2537C14.0413 29.2593 14.1073 29.2693 14.1982 29.2693C16.1096 29.2693 18.019 29.2637 19.9279 29.2768C20.21 29.2768 20.2754 29.1908 20.2742 28.9255C20.2654 26.7125 20.2654 24.4998 20.2742 22.2872C20.2798 22.0257 20.1963 21.9416 19.9403 21.9491Z" fill="#FF0000"/>
</svg>
