<svg width="37" height="36" viewBox="0 0 37 36" fill="none" xmlns="http://www.w3.org/2000/svg">
<g id="Group">
<path id="Vector" d="M35.8247 24.1913C35.1132 23.2526 33.421 22.8886 31.6518 23.9231C31.6326 23.7315 31.5749 23.5399 31.4787 23.3292C30.9787 22.3713 29.4403 21.8157 27.8058 22.5821C27.5173 22.7353 27.2289 22.8694 26.9212 23.0227C26.6712 23.1376 26.4404 23.2717 26.1904 23.3867C25.7097 22.4288 24.2674 21.8349 22.5752 22.5054C21.8637 22.8119 21.0752 23.1568 20.1714 23.5782C20.0176 23.6549 19.8445 23.7123 19.6907 23.789C19.5753 23.8464 19.4599 23.9039 19.3445 23.9422C19.3637 23.8081 19.383 23.674 19.383 23.5399C19.383 22.333 18.4215 21.4326 16.9984 21.3368L10.691 21.1069C10.4987 21.0878 10.1717 21.0686 10.1333 21.0686C7.30646 21.0686 4.51809 23.2717 2.47969 24.881C1.69126 25.5132 0.883594 26.1454 0.36438 26.3944C0.152849 26.471 0.0566983 26.7009 0.114389 26.9308C0.114389 26.95 0.114389 26.95 0.133619 26.9691C0.210539 27.1224 0.34515 27.2182 0.498991 27.2182C0.537452 27.2182 0.595142 27.2182 0.672062 27.1799C1.2682 26.9308 2.05663 26.2986 2.96045 25.5706L2.97968 25.5515C4.90269 24.038 7.53722 21.9499 9.99868 21.9307C10.0179 21.9307 10.1141 21.9307 10.2294 21.9499C10.5179 21.969 10.6333 21.969 10.6525 21.969L16.9023 22.1989C17.6715 22.2564 18.4984 22.6395 18.4984 23.5782C18.4984 24.3637 17.8061 24.9959 16.9408 24.9959H11.6332C11.5948 24.9959 11.5563 24.9959 11.5179 25.0342C11.4986 25.0342 11.4794 25.0534 11.4602 25.0725L11.3832 25.1492C11.3448 25.1875 11.3256 25.2258 11.3256 25.2833V25.3791C11.3256 25.3982 11.3256 25.4748 11.364 25.5323C11.364 25.5323 11.364 25.5515 11.3832 25.5515C11.3832 25.5706 11.4025 25.5898 11.4025 25.5898C11.4025 25.6089 11.4217 25.6281 11.4409 25.6473L11.4794 25.6856C11.4794 25.6856 11.4794 25.6856 11.4986 25.7047C11.5179 25.7239 11.5371 25.743 11.5755 25.7622C12.0371 25.9538 12.4794 26.1454 12.9024 26.2986C13.1332 26.3944 13.3639 26.4902 13.6139 26.586C13.6716 26.6051 13.6716 26.6051 13.7678 26.6435C15.1523 27.1607 16.46 27.5055 17.7292 27.7354C17.7484 27.7354 17.7869 27.7546 17.8253 27.7546C19.0368 27.9462 20.0176 28.042 20.9022 28.042C24.2482 28.042 27.5942 27.0458 31.7672 24.7852C33.2864 23.8081 34.6325 23.9997 35.1325 24.6894C35.4594 25.13 35.2671 25.7239 34.6709 26.2028C34.6709 26.2028 34.6517 26.2028 34.6517 26.222L34.6325 26.2411C30.2672 29.2489 25.7289 31.3945 20.7675 32.793C19.6714 33.0996 18.6138 33.2528 17.5177 33.2528H15.7485C10.2487 33.272 5.07576 33.2911 3.2489 34.7088C3.17198 34.7663 3.11429 34.8812 3.09506 34.9962C3.07583 35.1111 3.11429 35.226 3.17198 35.3027C3.17198 35.3027 3.17198 35.3218 3.19121 35.3218C3.2489 35.3793 3.38351 35.4559 3.49889 35.4559C3.55658 35.4559 3.61427 35.4368 3.65273 35.4176L3.69119 35.3985C3.71042 35.3985 3.72965 35.3793 3.74888 35.3601C5.30652 34.1341 10.5948 34.1149 15.7293 34.0957H17.4984C18.6522 34.0957 19.8637 33.9425 20.9791 33.636C25.9789 32.2375 30.6134 30.0535 35.1709 26.9308L35.1901 26.9117C35.2094 26.8925 35.2286 26.8733 35.2671 26.835C36.4209 25.858 36.2863 24.8043 35.8247 24.1913ZM30.7672 24.402C26.7097 26.5285 23.4405 27.3906 20.056 27.2182C21.8637 26.5285 24.2097 25.3407 26.3058 24.2679C26.5558 24.1338 26.8058 24.0189 27.0366 23.8848C27.4212 23.6932 27.7673 23.5016 28.1327 23.3484C29.0365 22.9077 30.3442 22.9844 30.7095 23.7315C30.8249 23.9422 30.8057 24.1913 30.7672 24.402ZM14.8254 25.8388C14.5754 25.8772 14.3447 25.8963 14.1524 25.9155C14.0755 25.8963 13.9793 25.858 13.8832 25.8388H14.8254ZM17.0754 25.8772C17.0946 25.8772 17.1138 25.858 17.1138 25.858C17.1331 25.858 17.1331 25.8388 17.1523 25.8388C17.6907 25.8005 18.2292 25.5706 18.6907 25.1875C18.7099 25.1875 18.7099 25.1875 18.7292 25.1683L19.0561 25.0342C19.5368 24.8235 20.0176 24.6128 20.4983 24.3637C21.2098 24.0189 21.9983 23.674 22.8444 23.2909C23.8059 22.9269 25.0366 23.0035 25.402 23.7507C22.3829 25.3024 19.3253 26.8159 17.883 26.8925C17.1138 26.7584 16.3638 26.586 15.5946 26.3561C16.0369 26.2603 16.5177 26.0879 17.0754 25.8772Z" fill="#D17A13"/>
<path id="Vector_2" d="M18.9213 17.8309C23.7673 17.8309 27.6902 13.9228 27.6902 9.0951C27.7287 4.2674 23.7673 0.359253 18.9213 0.359253C14.0753 0.359253 10.1523 4.2674 10.1523 9.0951C10.1523 13.9228 14.0753 17.8309 18.9213 17.8309ZM15.306 12.0262L15.9983 11.0683C16.1714 10.8384 16.3252 10.8768 16.4983 10.9917C17.306 11.6047 17.979 11.9304 18.729 11.9304C19.3828 11.9304 19.8059 11.6814 19.8059 11.1258C19.8059 10.6469 19.5174 10.4361 18.8059 10.1488L17.5944 9.65067C16.3252 9.17173 15.4599 8.34796 15.4599 7.00693C15.4599 5.45516 16.5944 4.43981 18.0175 4.17161V2.44743C18.0175 2.27501 18.1521 2.16006 18.3059 2.16006H19.5174C19.6905 2.16006 19.8059 2.29417 19.8059 2.44743V4.19077C20.6905 4.38234 21.4789 4.86128 22.0558 5.57011C22.1904 5.72337 22.1327 5.85747 22.0366 5.99158L21.152 7.02609C20.9981 7.1985 20.8828 7.17935 20.6905 7.02609C20.0559 6.50883 19.4982 6.22147 18.9405 6.22147C18.3059 6.22147 18.0175 6.5663 18.0175 6.98777C18.0175 7.46671 18.4213 7.71576 18.9405 7.90733L20.3059 8.42459C21.5174 8.92268 22.4981 9.76562 22.4789 11.2407C22.4789 12.85 21.3058 13.8079 19.7866 14.0952V15.5895C19.7866 15.7619 19.652 15.8769 19.4982 15.8769H18.2867C18.1136 15.8769 17.9982 15.7428 17.9982 15.5895V14.0952C16.806 13.9036 15.8829 13.3098 15.2676 12.5818C15.1329 12.4285 15.1714 12.2369 15.306 12.0262Z" fill="#D17A13"/>
</g>
</svg>
