<svg width="34" height="45" viewBox="0 0 34 45" fill="none" xmlns="http://www.w3.org/2000/svg">
<path d="M33.3573 10.1825C33.3573 10.1141 33.3573 10.1141 33.3573 10.0456C33.3573 9.97716 33.2892 9.90871 33.2892 9.84026C33.2211 9.7718 33.2211 9.70335 33.153 9.6349C33.153 9.6349 33.153 9.6349 33.0849 9.56644C33.0849 9.56644 33.0849 9.56644 33.0168 9.56644L17.4244 0.462168C17.4244 0.462168 17.4244 0.462168 17.3563 0.462168H17.2882C17.152 0.393714 16.9477 0.393714 16.8116 0.462168H16.7435H16.6754L1.15099 9.56644C1.15099 9.56644 1.15099 9.56644 1.0829 9.56644C1.0829 9.56644 1.08291 9.56644 1.01482 9.6349C0.878637 9.7718 0.810547 9.90871 0.810547 10.0456V10.1141V10.1825V28.3226V28.3911V28.4595C0.810547 28.528 0.878637 28.5964 0.878637 28.6649C0.878637 28.7333 0.946726 28.7333 1.01482 28.8018L1.0829 28.8703C1.0829 28.8703 1.0829 28.8702 1.15099 28.9387L16.7435 37.9745C16.7435 37.9745 16.7435 37.9745 16.8116 37.9745H16.8796C16.9477 37.9745 17.0158 38.043 17.0839 38.043C17.152 38.043 17.2201 38.043 17.2882 37.9745H17.3563C17.3563 37.9745 17.3563 37.9745 17.4244 37.9745L33.0168 28.9387C33.0168 28.9387 33.0168 28.9387 33.0849 28.8703L33.153 28.8018C33.2211 28.7333 33.2892 28.5964 33.3573 28.4595V28.3911V28.3226V10.1825ZM2.17233 11.3462L8.57274 15.0427V23.394L2.17233 27.0905V11.3462ZM9.93453 15.8641L16.403 19.6291V27.1589L9.93453 23.394V15.8641ZM17.0839 10.9355L23.5524 14.7004L17.0839 18.4654L10.6154 14.7004L17.0839 10.9355ZM17.7648 19.6291L24.2333 15.8641V23.394L17.7648 27.1589V19.6291ZM24.9142 13.879L17.7648 9.70335V2.24195L31.3146 10.1825L24.9142 13.879ZM16.403 9.70335L9.25363 13.879L2.85323 10.1825L16.403 2.24195V9.70335ZM9.25363 24.6262L16.403 28.7333V36.1947L2.85323 28.3226L9.25363 24.6262ZM17.7648 28.7333L24.9142 24.6262L31.3146 28.3226L17.7648 36.1947V28.7333ZM25.5951 23.394V15.0427L31.9955 11.3462V27.0905L25.5951 23.394Z" fill="#C60000"/>
<path d="M27.4582 40.3568L22.1693 37.3056C21.6608 37.0005 21.0505 37.2039 20.7454 37.7124C20.4403 38.221 20.6437 38.8312 21.1522 39.1363L26.4411 42.1876C26.6445 42.2893 26.7462 42.2893 26.9496 42.2893C27.2548 42.2893 27.6616 42.0859 27.865 41.7808C28.0684 41.2722 27.9667 40.662 27.4582 40.3568Z" fill="#CC0000"/>
<path d="M24.8138 42.4928L21.4574 40.5603C20.9489 40.2552 20.3386 40.4586 20.0335 40.9671C19.7284 41.4757 19.9318 42.0859 20.4403 42.391L23.7967 44.3235C24.0001 44.4252 24.1018 44.4252 24.3053 44.4252C24.6104 44.4252 25.0172 44.2218 25.2206 43.9167C25.4241 43.4081 25.3223 42.7979 24.8138 42.4928Z" fill="#CC0000"/>
</svg>
