<svg xmlns="http://www.w3.org/2000/svg" viewBox="0 0 158 158"><defs><style>.cls-1{fill:#9b3727;}.cls-2{fill:#fff;}</style></defs><g id="Graphic_Elements" data-name="Graphic Elements"><circle class="cls-1" cx="79" cy="79" r="67.5"/><path class="cls-2" d="M79,44.16c11.35,0,12.69,0,17.17.25a23.4,23.4,0,0,1,7.9,1.46,14.11,14.11,0,0,1,8.06,8.06,23.4,23.4,0,0,1,1.46,7.9c.21,4.48.25,5.82.25,17.17s0,12.69-.25,17.17a23.4,23.4,0,0,1-1.46,7.9,14.11,14.11,0,0,1-8.06,8.06,23.4,23.4,0,0,1-7.9,1.46c-4.48.21-5.82.25-17.17.25s-12.69,0-17.17-.25a23.4,23.4,0,0,1-7.9-1.46,14.11,14.11,0,0,1-8.06-8.06,23.4,23.4,0,0,1-1.46-7.9c-.21-4.48-.25-5.82-.25-17.17s0-12.69.25-17.17a23.4,23.4,0,0,1,1.46-7.9,14.11,14.11,0,0,1,8.06-8.06,23.4,23.4,0,0,1,7.9-1.46c4.48-.21,5.82-.25,17.17-.25m0-7.66c-11.54,0-13,0-17.52.26a31,31,0,0,0-10.32,2A21.7,21.7,0,0,0,38.73,51.16a31,31,0,0,0-2,10.32c-.21,4.53-.26,6-.26,17.52s0,13,.26,17.52a31,31,0,0,0,2,10.32,21.7,21.7,0,0,0,12.43,12.43,31,31,0,0,0,10.32,2c4.53.21,6,.26,17.52.26s13,0,17.52-.26a31,31,0,0,0,10.32-2,21.7,21.7,0,0,0,12.43-12.43,31,31,0,0,0,2-10.32c.21-4.53.26-6,.26-17.52s0-13-.26-17.52a31,31,0,0,0-2-10.32,21.7,21.7,0,0,0-12.43-12.43,31,31,0,0,0-10.32-2c-4.53-.21-6-.26-17.52-.26Z"/><path class="cls-2" d="M79,57.18A21.82,21.82,0,1,0,100.82,79,21.82,21.82,0,0,0,79,57.18Zm0,36A14.17,14.17,0,1,1,93.17,79,14.18,14.18,0,0,1,79,93.17Z"/><circle class="cls-2" cx="101.69" cy="56.31" r="5.1"/></g></svg>