<svg xmlns="http://www.w3.org/2000/svg" viewBox="0 0 156.59 159.35"><defs><style>.cls-1{fill:#238fd8;}.cls-2{fill:#fff;}</style></defs><g id="Graphic_Elements" data-name="Graphic Elements"><circle class="cls-1" cx="77.69" cy="77.64" r="67.5"/><path class="cls-2" d="M64.05,116.51c33,0,51-27.31,51-51,0-.77,0-1.54,0-2.31a36.52,36.52,0,0,0,8.94-9.28,36.21,36.21,0,0,1-10.29,2.82,18,18,0,0,0,7.88-9.92,35.64,35.64,0,0,1-11.38,4.35,17.93,17.93,0,0,0-31,12.26,18.31,18.31,0,0,0,.46,4.09A50.88,50.88,0,0,1,42.66,48.79a17.93,17.93,0,0,0,5.55,23.93,17.85,17.85,0,0,1-8.12-2.24v.23A17.93,17.93,0,0,0,54.47,88.28a18,18,0,0,1-8.1.31A18,18,0,0,0,63.12,101a36,36,0,0,1-22.27,7.67,35.48,35.48,0,0,1-4.27-.25,50.76,50.76,0,0,0,27.47,8.05"/></g></svg>