<svg xmlns="http://www.w3.org/2000/svg" viewBox="0 0 155.48 155.48"><defs><style>.cls-1{fill:#159615;}.cls-2{fill:#fff;fill-rule:evenodd;}</style></defs><g id="Graphic_Elements" data-name="Graphic Elements"><circle class="cls-1" cx="77.74" cy="77.74" r="67.5"/><g id="WA_Logo" data-name="WA Logo"><path class="cls-2" d="M110.21,46.1A42.82,42.82,0,0,0,42.82,97.75l-6.08,22.18,22.7-6a42.79,42.79,0,0,0,20.46,5.21h0A42.82,42.82,0,0,0,110.21,46.1ZM79.92,112h0a35.56,35.56,0,0,1-18.12-5l-1.3-.77L47,109.76l3.6-13.12-.85-1.35A35.59,35.59,0,1,1,79.92,112ZM99.44,85.32c-1.07-.54-6.33-3.13-7.31-3.48s-1.69-.54-2.41.53S87,85.85,86.34,86.56s-1.25.81-2.32.27a29,29,0,0,1-8.61-5.31,32.28,32.28,0,0,1-6-7.41c-.62-1.07-.06-1.65.47-2.18s1.07-1.25,1.61-1.87a7.58,7.58,0,0,0,1.07-1.79,2,2,0,0,0-.09-1.87c-.27-.54-2.41-5.8-3.3-7.94s-1.75-1.81-2.41-1.84-1.34,0-2,0a3.94,3.94,0,0,0-2.85,1.34,12,12,0,0,0-3.75,8.93c0,5.26,3.84,10.35,4.37,11.06s7.55,11.52,18.28,16.15a61.23,61.23,0,0,0,6.1,2.25,14.67,14.67,0,0,0,6.74.43c2-.31,6.33-2.59,7.22-5.09s.89-4.64.62-5.09S100.51,85.85,99.44,85.32Z"/></g></g></svg>