<svg width="1440" height="910" viewBox="0 0 1440 910" fill="none" xmlns="http://www.w3.org/2000/svg">
<path d="M2351.07 779.4C2503.64 810.394 2659.55 909.115 2659.55 909.115L2672.97 546.244C2672.97 546.244 2504.1 403.492 2326.3 396.915C2148.51 390.339 1958.06 515.252 1710.01 435.224C1461.96 355.196 1180.34 78.2669 803.687 134.539C427.039 190.812 315.439 209.435 145.306 179.741C-24.826 150.048 -108.785 0.0354054 -108.785 0.0354054L-120.117 306.431C-120.117 306.431 -154.498 446.866 105.725 539.695C365.948 632.523 683.945 478.527 887.543 497.758C1091.14 516.989 1433.09 767.548 1666.02 809.315C1898.94 851.081 2198.5 748.405 2351.07 779.4Z" fill="#ECECEC" fill-opacity="0.52"/>
</svg>
