<svg width="1440" height="3232" viewBox="0 0 1440 3232" fill="none" xmlns="http://www.w3.org/2000/svg">
<path d="M2351.07 779.4C2503.64 810.394 2659.55 909.115 2659.55 909.115L2672.97 546.244C2672.97 546.244 2504.1 403.492 2326.3 396.915C2148.51 390.339 1958.06 515.252 1710.01 435.224C1461.96 355.196 1180.34 78.2669 803.687 134.539C427.039 190.812 315.439 209.435 145.306 179.741C-24.826 150.048 -108.785 0.0354054 -108.785 0.0354054L-120.117 306.431C-120.117 306.431 -154.498 446.866 105.725 539.695C365.948 632.523 683.945 478.527 887.543 497.758C1091.14 516.989 1433.09 767.548 1666.02 809.315C1898.94 851.081 2198.5 748.405 2351.07 779.4Z" fill="#ECECEC" fill-opacity="0.52"/>
<path d="M2344.08 3651.88C2496.33 3691.36 2651.09 3821.21 2651.09 3821.21L2669.01 3336.68C2669.01 3336.68 2501.83 3148.22 2324.03 3141.64C2146.23 3135.07 1954.15 3304.16 1706.98 3200.41C1459.81 3096.66 1181.48 2730.5 803.967 2810.27C426.449 2890.05 314.568 2916.29 144.725 2878.76C-25.1177 2841.23 -107.257 2642.04 -107.257 2642.04L-122.389 3051.16C-122.389 3051.16 -158.525 3239.04 100.668 3359.73C359.86 3480.41 679.91 3270.92 883.363 3294.07C1086.82 3317.21 1425.82 3647.43 1658.33 3700.3C1890.85 3753.16 2191.82 3612.4 2344.08 3651.88Z" fill="#ECECEC" fill-opacity="0.39"/>
<path d="M2344.08 2443.88C2496.33 2483.36 2651.09 2613.21 2651.09 2613.21L2669.01 2128.67C2669.01 2128.67 2501.83 1940.22 2324.03 1933.64C2146.23 1927.07 1954.15 2096.16 1706.98 1992.41C1459.81 1888.66 1181.48 1522.5 803.967 1602.27C426.449 1682.05 314.568 1708.29 144.725 1670.76C-25.1177 1633.23 -107.257 1434.04 -107.257 1434.04L-122.389 1843.16C-122.389 1843.16 -158.525 2031.04 100.668 2151.72C359.86 2272.41 679.91 2062.92 883.363 2086.07C1086.82 2109.21 1425.82 2439.43 1658.33 2492.3C1890.85 2545.16 2191.82 2404.4 2344.08 2443.88Z" fill="#ECECEC" fill-opacity="0.47"/>
<path d="M8.71528 1575.65C-94.4993 1622.35 -188.723 1742.13 -188.723 1742.13L-259.117 1353.32C-259.117 1353.32 -163.065 1185.07 -37.8308 1162.4C87.4035 1139.72 243.676 1257.26 406.509 1149.48C569.343 1041.7 723.015 719.349 1000.09 746.768C1277.16 774.188 1359.58 784.408 1475.49 737.562C1591.4 690.717 1625.9 522.122 1625.9 522.122L1685.34 850.425C1685.34 850.425 1733.32 998.34 1563.98 1120.95C1394.65 1243.55 1142.86 1105.96 1001.42 1144.5C859.971 1183.04 659.014 1482.34 500.51 1547.67C342.007 1613 111.93 1528.94 8.71528 1575.65Z" fill="url(#paint0_linear_218_7)"/>
<defs>
<linearGradient id="paint0_linear_218_7" x1="797.064" y1="1563.66" x2="640.787" y2="700.473" gradientUnits="userSpaceOnUse">
<stop stop-color="#709A81" stop-opacity="0.71"/>
<stop offset="0.0001" stop-color="#2D6A4B" stop-opacity="0.72"/>
<stop offset="0.494792" stop-color="#55A274"/>
</linearGradient>
</defs>
</svg>
