<svg width="5728" height="768" viewBox="0 0 5728 768" fill="none" xmlns="http://www.w3.org/2000/svg">
<path d="M5083.6 380.563C5395.5 368.792 5727.16 422.698 5727.16 422.698L5684.06 62.1455C5684.06 62.1455 5317.91 -31.4694 4960.14 11.2994C4602.36 54.0682 4244.6 229.641 3731.79 219.633C3218.99 209.626 2600.86 15.2907 1856.49 174.928C1112.12 334.566 891.946 383.783 545.081 401.697C198.217 419.61 0.926492 295.342 0.926492 295.342L37.3194 599.78C37.3194 599.78 -4.52383 747.4 535.165 766.624C1074.85 785.848 1682.76 546.354 2094.71 508.884C2506.66 471.415 3240.65 623.114 3715.75 599.685C4190.85 576.256 4771.69 392.334 5083.6 380.563Z" fill="#ECECEC" fill-opacity="0.52"/>
</svg>
