<svg width="4294" height="2189" viewBox="0 0 4294 2189" fill="none" xmlns="http://www.w3.org/2000/svg">
<path d="M561.191 1916.86C331.785 2018.55 114.681 2188.83 114.681 2188.83L0.102301 1835.9C0.102301 1835.9 226.012 1615.99 500.975 1526.73C775.938 1437.47 1104.53 1472.47 1469.84 1277.8C1835.15 1083.13 2201.87 677.933 2802.49 558.324C3403.1 438.716 3581.56 405.206 3838.63 296.627C4095.69 188.047 4187.6 0.480768 4187.6 0.480768L4284.35 298.489C4284.35 298.489 4374.11 421.494 3993.16 634.5C3612.21 847.505 3077.63 843.084 2765.79 956.883C2453.94 1070.68 1986.55 1477.86 1634.89 1627.61C1283.24 1777.37 790.597 1815.16 561.191 1916.86Z" fill="url(#paint0_linear_253_3)"/>
<defs>
<linearGradient id="paint0_linear_253_3" x1="2279.07" y1="1486.18" x2="2024.7" y2="702.65" gradientUnits="userSpaceOnUse">
<stop stop-color="#709A81" stop-opacity="0.71"/>
<stop offset="0.0001" stop-color="#2D6A4B" stop-opacity="0.72"/>
<stop offset="0.494792" stop-color="#55A274"/>
</linearGradient>
</defs>
</svg>
