<svg width="5941" height="4901" viewBox="0 0 5941 4901" fill="none" xmlns="http://www.w3.org/2000/svg">
<path d="M5284.15 667.332C5583.02 694.199 5889.21 777.787 5889.21 777.787L5911.19 474.072C5911.19 474.072 5579.12 353.542 5231.18 346.966C4883.24 340.39 4512.11 443.82 4025.86 375.327C3539.61 306.834 2985.34 73.2931 2249.09 118.137C1512.84 162.98 1294.72 177.899 961.505 152.015C628.291 126.131 462.258 0.0353647 462.258 0.0353647L443.697 256.482C443.697 256.482 378.085 373.847 888.304 453.13C1398.52 532.414 2018.87 405.402 2417.44 422.729C2816 440.055 3487.98 651.882 3944.19 688.251C4400.4 724.621 4985.27 640.465 5284.15 667.332Z" fill="#ECECEC" fill-opacity="0.6"/>
<path d="M5276.03 1858.4C5574.61 1889.39 5879.7 1988.11 5879.7 1988.11L5905.97 1625.24C5905.97 1625.24 5575.5 1482.49 5227.56 1475.92C4879.62 1469.34 4506.94 1594.25 4021.52 1514.22C3536.11 1434.2 2984.98 1157.27 2247.9 1213.54C1510.83 1269.81 1292.43 1288.44 959.497 1258.74C626.559 1229.05 462.258 1079.04 462.258 1079.04L440.081 1385.43C440.081 1385.43 372.799 1525.87 882.038 1618.69C1391.28 1711.52 2013.58 1557.53 2412 1576.76C2810.43 1595.99 3479.61 1846.55 3935.42 1888.31C4391.24 1930.08 4977.46 1827.41 5276.03 1858.4Z" fill="#ECECEC" fill-opacity="0.52"/>
<path d="M5262.34 4730.88C5560.3 4770.36 5863.14 4900.21 5863.14 4900.21L5898.21 4415.68C5898.21 4415.68 5571.05 4227.22 5223.12 4220.64C4875.18 4214.07 4499.29 4383.16 4015.6 4279.41C3531.9 4175.66 2987.23 3809.5 2248.45 3889.27C1509.67 3969.05 1290.73 3995.29 958.36 3957.76C625.988 3920.23 465.247 3721.04 465.247 3721.04L435.635 4130.16C435.635 4130.16 364.92 4318.04 872.142 4438.72C1379.36 4559.41 2005.68 4349.92 2403.83 4373.07C2801.97 4396.21 3465.38 4726.43 3920.39 4779.3C4375.41 4832.16 4964.38 4691.4 5262.34 4730.88Z" fill="#ECECEC" fill-opacity="0.39"/>
<path d="M5262.34 3522.88C5560.3 3562.36 5863.14 3692.21 5863.14 3692.21L5898.21 3207.67C5898.21 3207.67 5571.05 3019.22 5223.12 3012.64C4875.18 3006.07 4499.29 3175.16 4015.6 3071.41C3531.9 2967.66 2987.23 2601.5 2248.45 2681.27C1509.67 2761.05 1290.73 2787.29 958.36 2749.76C625.988 2712.23 465.247 2513.04 465.247 2513.04L435.635 2922.16C435.635 2922.16 364.92 3110.04 872.142 3230.72C1379.36 3351.41 2005.68 3141.92 2403.83 3165.07C2801.97 3188.21 3465.38 3518.43 3920.39 3571.3C4375.41 3624.16 4964.38 3483.4 5262.34 3522.88Z" fill="#ECECEC" fill-opacity="0.47"/>
<path d="M692.197 2654.65C490.213 2701.35 305.823 2821.13 305.823 2821.13L168.067 2432.32C168.067 2432.32 356.034 2264.07 601.109 2241.4C846.185 2218.72 1152 2336.26 1470.65 2228.48C1789.31 2120.7 2090.03 1798.35 2632.24 1825.77C3174.45 1853.19 3335.75 1863.41 3562.58 1816.56C3789.41 1769.72 3856.92 1601.12 3856.92 1601.12L3973.24 1929.43C3973.24 1929.43 4067.13 2077.34 3735.75 2199.95C3404.37 2322.55 2911.64 2184.96 2634.85 2223.5C2358.05 2262.04 1964.79 2561.34 1654.61 2626.67C1344.43 2692 894.181 2607.94 692.197 2654.65Z" fill="url(#paint0_linear_219_9)"/>
<defs>
<linearGradient id="paint0_linear_219_9" x1="2234.94" y1="2642.66" x2="2153.17" y2="1758.75" gradientUnits="userSpaceOnUse">
<stop stop-color="#709A81" stop-opacity="0.71"/>
<stop offset="0.0001" stop-color="#2D6A4B" stop-opacity="0.72"/>
<stop offset="0.494792" stop-color="#55A274"/>
</linearGradient>
</defs>
</svg>
