<svg width="205" height="228" viewBox="0 0 205 228" fill="none" xmlns="http://www.w3.org/2000/svg">
<g filter="url(#filter0_d_262_39)">
<path d="M22.2988 105.529C31.4435 77.708 90.1532 30.586 121.831 28.382C153.509 26.178 171.158 29.7226 184.592 45.8969C198.025 62.0713 180.078 188.217 134.251 206.491C88.4244 224.765 51.0573 192.938 40.1108 180.219C29.1643 167.5 13.1541 133.349 22.2988 105.529Z" fill="#EDEDED"/>
</g>
<path d="M116.182 80.6364L162.24 161.75L68.1279 160.329L116.182 80.6364Z" fill="#7FA896"/>
<path d="M164.593 163.185L65.7476 161.75L116.22 78.0521L164.593 163.185ZM70.5197 158.878L159.885 160.314L116.143 83.2779L70.5197 158.878Z" fill="#0A0A0A"/>
<path d="M127.846 118.287L126.179 119.355L141.532 149.509L143.198 148.441L127.846 118.287Z" fill="#0A0A0A"/>
<path d="M127.695 100.736C127.88 101.681 127.88 102.661 127.695 103.607C127.525 104.683 127.081 105.68 126.416 106.478C125.925 107.044 125.32 107.47 124.653 107.72C123.985 107.97 123.273 108.036 122.578 107.914C119.712 107.21 119.507 102.257 117.46 102.171C115.848 102.171 115.324 105.157 113.622 105.042C112.509 104.956 112.087 103.607 109.784 100.736C108.748 99.4579 107.225 97.7638 106.585 97.1465L116.04 80.8663L127.695 100.736Z" fill="white"/>
<path d="M123.282 109.436C122.951 109.434 122.621 109.395 122.297 109.321C120.237 108.804 119.227 106.766 118.459 105.287C118.177 104.698 117.64 103.622 117.397 103.607C117.231 103.607 116.808 104.196 116.578 104.497C116.263 105.091 115.817 105.584 115.285 105.931C114.752 106.278 114.149 106.466 113.533 106.478C112.254 106.378 111.537 105.402 110.565 104.038C110.13 103.421 109.58 102.602 108.825 101.698C107.827 100.463 106.266 98.8265 105.716 98.2092L104.91 97.3908L116.028 78.2395L128.886 100.176V100.434C129.103 101.58 129.103 102.763 128.886 103.909C128.667 105.257 128.102 106.504 127.261 107.498C126.204 108.69 124.78 109.383 123.282 109.436ZM117.41 100.736H117.499C119.188 100.736 120.058 102.444 120.723 103.88C121.389 105.316 122.003 106.292 122.86 106.507C123.344 106.573 123.834 106.513 124.294 106.331C124.753 106.15 125.169 105.851 125.508 105.459C126.007 104.864 126.332 104.113 126.442 103.306C126.551 102.636 126.551 101.951 126.442 101.281L116.002 83.4795L108.185 96.9172C108.927 97.7211 109.925 98.8409 110.744 99.7884C111.563 100.736 112.139 101.612 112.599 102.272C113.06 102.932 113.546 103.607 113.712 103.622C113.879 103.636 114.314 103.119 114.633 102.688C114.931 102.145 115.336 101.686 115.818 101.347C116.299 101.008 116.844 100.799 117.41 100.736Z" fill="#0A0A0A"/>
<path d="M56.0498 161.836L90.5933 99.2999L125.981 161.032L56.0498 161.836Z" fill="#7FA896"/>
<path d="M53.7344 163.286L90.568 96.6149L128.336 162.439L53.7344 163.286ZM90.6192 101.984L58.3658 160.314L123.615 159.568L90.6192 101.984Z" fill="#0A0A0A"/>
<path d="M78.4395 121.552C79.274 122.983 80.3629 124.205 81.6379 125.141C82.3486 125.889 83.2377 126.387 84.1967 126.577C86.2949 126.692 86.8323 124.079 89.3143 123.706C90.0099 123.573 90.7239 123.635 91.3933 123.885C92.0627 124.136 92.6668 124.567 93.1525 125.141C94.176 126.663 93.3955 128.802 94.4318 129.448C94.6621 129.592 94.982 129.649 95.7112 129.448C96.7347 129.161 98.4747 128.357 100.829 125.141C101.581 124.025 102.224 122.822 102.748 121.552L90.5937 99.2999L78.4395 121.552Z" fill="white"/>
<path d="M94.9307 131.013C94.5429 131.02 94.1598 130.917 93.8177 130.711C93.3868 130.38 93.0415 129.926 92.8169 129.397C92.5922 128.867 92.4962 128.281 92.5383 127.697C92.5476 127.104 92.415 126.518 92.1544 126.002C91.8034 125.637 91.3816 125.367 90.9221 125.215C90.4625 125.063 89.9778 125.033 89.5061 125.127C88.7387 125.303 88.0377 125.739 87.4975 126.376C87.0708 126.891 86.5541 127.302 85.9796 127.584C85.4051 127.865 84.7851 128.011 84.1582 128.012C82.951 127.829 81.8221 127.239 80.9214 126.318C79.5347 125.282 78.3471 123.944 77.4287 122.385L76.9297 121.609L90.6192 96.5576L104.219 121.552L103.579 122.887C103.106 124.029 102.513 125.103 101.814 126.089C100.392 128.339 98.3653 130.019 96.031 130.884C95.67 130.975 95.3007 131.018 94.9307 131.013ZM89.9539 122.227C90.6058 122.138 91.2672 122.207 91.893 122.431C92.5187 122.655 93.094 123.028 93.5797 123.524C94.0655 124.02 94.4502 124.628 94.7076 125.305C94.9651 125.983 95.0891 126.716 95.0714 127.452C95.0714 127.653 95.0714 127.926 95.0714 128.127L95.3401 128.055C97.1404 127.33 98.6959 125.996 99.7924 124.237C100.351 123.42 100.831 122.539 101.225 121.609L90.5424 102.042L79.9875 121.552C80.644 122.531 81.4496 123.372 82.3671 124.036C83.4546 124.897 83.864 125.199 84.2606 125.213C84.6572 125.227 85.0794 124.983 85.7959 124.28C86.7067 123.261 87.8789 122.589 89.1479 122.356C89.4133 122.29 89.6827 122.247 89.9539 122.227Z" fill="#0A0A0A"/>
<path d="M99.0903 131.877L97.397 132.89L107.631 154.425L109.325 153.412L99.0903 131.877Z" fill="#0A0A0A"/>
<path d="M70.1235 97.8641C77.1894 97.8641 82.9174 91.4365 82.9174 83.5077C82.9174 75.5789 77.1894 69.1514 70.1235 69.1514C63.0576 69.1514 57.3296 75.5789 57.3296 83.5077C57.3296 91.4365 63.0576 97.8641 70.1235 97.8641Z" fill="#D1B300"/>
<path d="M70.1231 99.2998C67.3397 99.2998 64.6187 98.3737 62.3044 96.6384C59.9901 94.9032 58.1863 92.4368 57.1211 89.5512C56.0559 86.6656 55.7772 83.4903 56.3202 80.427C56.8632 77.3636 58.2036 74.5497 60.1717 72.3412C62.1399 70.1326 64.6476 68.6286 67.3775 68.0193C70.1075 67.4099 72.9372 67.7227 75.5087 68.9179C78.0803 70.1132 80.2783 72.1373 81.8246 74.7343C83.371 77.3312 84.1964 80.3845 84.1964 83.5078C84.1964 87.6961 82.7137 91.7129 80.0745 94.6745C77.4352 97.6361 73.8556 99.2998 70.1231 99.2998ZM70.1231 70.5871C67.8457 70.5871 65.6195 71.3449 63.726 72.7646C61.8324 74.1844 60.3565 76.2023 59.485 78.5633C58.6135 80.9242 58.3855 83.5221 58.8298 86.0285C59.2741 88.5349 60.3708 90.8371 61.9811 92.6441C63.5915 94.4511 65.6432 95.6818 67.8768 96.1803C70.1104 96.6789 72.4255 96.423 74.5295 95.4451C76.6335 94.4671 78.4318 92.811 79.6971 90.6862C80.9623 88.5614 81.6376 86.0633 81.6376 83.5078C81.6376 80.081 80.4245 76.7946 78.2651 74.3715C76.1057 71.9484 73.1769 70.5871 70.1231 70.5871Z" fill="#0A0A0A"/>
<defs>
<filter id="filter0_d_262_39" x="15.5854" y="27.7899" width="177.354" height="192.228" filterUnits="userSpaceOnUse" color-interpolation-filters="sRGB">
<feFlood flood-opacity="0" result="BackgroundImageFix"/>
<feColorMatrix in="SourceAlpha" type="matrix" values="0 0 0 0 0 0 0 0 0 0 0 0 0 0 0 0 0 0 127 0" result="hardAlpha"/>
<feOffset dy="4"/>
<feGaussianBlur stdDeviation="2"/>
<feComposite in2="hardAlpha" operator="out"/>
<feColorMatrix type="matrix" values="0 0 0 0 0 0 0 0 0 0 0 0 0 0 0 0 0 0 0.25 0"/>
<feBlend mode="normal" in2="BackgroundImageFix" result="effect1_dropShadow_262_39"/>
<feBlend mode="normal" in="SourceGraphic" in2="effect1_dropShadow_262_39" result="shape"/>
</filter>
</defs>
</svg>
