<svg width="2794" height="1180" viewBox="0 0 2794 1180" fill="none" xmlns="http://www.w3.org/2000/svg">
<path d="M2469.08 1009.88C2621.33 1049.36 2776.09 1179.21 2776.09 1179.21L2794.01 694.675C2794.01 694.675 2626.83 506.218 2449.03 499.642C2271.23 493.066 2079.15 662.159 1831.98 558.409C1584.81 454.658 1306.48 88.4964 928.967 168.274C551.449 248.052 439.568 274.292 269.725 236.764C99.8821 199.235 17.7428 0.0357612 17.7428 0.0357612L2.61082 409.158C2.61082 409.158 -33.5254 597.038 225.667 717.725C484.86 838.412 804.91 628.917 1008.36 652.066C1211.82 675.214 1550.82 1005.43 1783.33 1058.3C2015.85 1111.16 2316.82 970.399 2469.08 1009.88Z" fill="url(#paint0_linear_87_245)" fill-opacity="0.39"/>
<defs>
<linearGradient id="paint0_linear_87_245" x1="1436.5" y1="1104.5" x2="1416.33" y2="51.7646" gradientUnits="userSpaceOnUse">
<stop offset="0.427083" stop-color="#ECECEC" stop-opacity="0"/>
<stop offset="1" stop-color="#ECECEC"/>
</linearGradient>
</defs>
</svg>
