<svg width="1945" height="1268" viewBox="0 0 1945 1268" fill="none" xmlns="http://www.w3.org/2000/svg">
<path d="M268.313 1093.51C92.5981 1157.86 0.480972 1267.86 0.480972 1267.86L0.48093 871.177C0.48093 871.177 96.5331 702.932 221.767 680.259C347.002 657.586 503.274 775.12 666.107 667.338C828.941 559.557 982.613 237.21 1259.68 264.63C1536.75 292.049 1619.18 302.27 1735.09 255.424C1851 208.578 1944.94 0.36107 1944.94 0.36107L1944.94 505.861C1944.94 505.861 1944.94 550.942 1823.58 638.808C1702.23 726.675 1402.46 623.819 1261.01 662.358C1119.57 700.896 918.612 1000.2 760.108 1065.53C601.605 1130.86 444.029 1029.15 268.313 1093.51Z" fill="url(#paint0_linear_260_8)"/>
<defs>
<linearGradient id="paint0_linear_260_8" x1="1056.66" y1="1081.52" x2="900.386" y2="218.334" gradientUnits="userSpaceOnUse">
<stop stop-color="#709A81" stop-opacity="0.71"/>
<stop offset="0.0001" stop-color="#2D6A4B" stop-opacity="0.72"/>
<stop offset="0.494792" stop-color="#55A274"/>
</linearGradient>
</defs>
</svg>
