<svg width="1956" height="540" viewBox="0 0 1956 540" fill="none" xmlns="http://www.w3.org/2000/svg">
<path d="M1955.74 525.12C1955.85 532.181 1906.75 554.625 1673.48 522.183C1440.21 489.74 1095.78 306.096 892.065 290.156C688.345 274.216 216.351 325.977 110.983 312.165C5.6149 298.352 4.86045 246.244 4.86045 246.244L1.43288 9.41477C-1.64734 3.70758 1.29766 0.0747506 1.29766 0.0747506L1.43288 9.41477C7.3034 20.2922 35.0602 38.7048 146.805 53.8633C317.181 76.9753 428.544 64.7508 804.463 28.2237C1180.38 -8.30343 1464.78 193.667 1713.57 253.766C1935.35 307.344 1951.35 285.881 1952.2 280.592L1952.19 279.544C1952.19 279.544 1952.31 279.948 1952.2 280.592L1955.74 525.12Z" fill="#ECECEC" fill-opacity="0.52"/>
</svg>
