<svg id="eY4zkfBVpOF1" xmlns="http://www.w3.org/2000/svg" xmlns:xlink="http://www.w3.org/1999/xlink" viewBox="0 0 557.84 604.86" shape-rendering="geometricPrecision" text-rendering="geometricPrecision"><defs><linearGradient id="eY4zkfBVpOF2-fill" x1="356.44" y1="-20.79" x2="187.44" y2="584.76" spreadMethod="pad" gradientUnits="userSpaceOnUse" gradientTransform="translate(0 0)"><stop id="eY4zkfBVpOF2-fill-0" offset="0%" stop-color="#59c785"/><stop id="eY4zkfBVpOF2-fill-1" offset="100%" stop-color="rgba(72,125,93,0.76)"/><stop id="eY4zkfBVpOF2-fill-2" offset="100%" stop-color="rgba(44,115,72,0.76)"/><stop id="eY4zkfBVpOF2-fill-3" offset="100%" stop-color="#385845"/></linearGradient></defs><path d="M9.88,254.29C39.78,163.34,231.7,9.3,335.26,2.09s161.25,4.38,205.17,57.26c43.91,52.88-14.76,465.26-164.57,524.99-149.81,59.74-271.97-44.31-307.75-85.89-35.79-41.58-88.12-153.22-58.23-244.17v.01Z" transform="matrix(.999665-.025875 0.025875 0.999665-7.702654 7.289679)" fill="url(#eY4zkfBVpOF2-fill)" stroke-width="0"/><g id="eY4zkfBVpOF3" transform="matrix(.926667 0 0 0.926667 22.475833 18.833015)"><path d="M192.22,191.07c.56-4.1-5.23-7.48-9.57-7.83-2.07-.16-4.23.15-6.2-.53-4.26-1.49-5.96-6.99-10.11-8.74-3.11-1.31-6.68-.14-9.69,1.37-3.01,1.52-5.99,3.42-9.36,3.64-2.92.19-6.1-.9-8.66.53-1.91,1.06-2.91,3.26-4.67,4.56s-3.96,1.54-6.1,1.65c-2.14.12-4.35.13-6.29,1.02s-3.59,2.95-3.14,5.05l73.78-.73.01.01Z" fill="#ebebeb" stroke-width="0"/><path d="M491.74,146.35c.61-4.49-5.69-8.14-10.44-8.53-2.25-.18-4.61.16-6.75-.58-4.63-1.62-6.49-7.62-11.02-9.53-3.39-1.43-7.29-.15-10.57,1.5s-6.53,3.74-10.19,3.97c-3.2.2-6.66-.98-9.45.57-2.08,1.17-3.17,3.59-5.09,4.98s-4.32,1.68-6.64,1.8c-2.33.12-4.74.14-6.86,1.11s-3.87,3.21-3.43,5.51l80.45-.79-.01-.01Z" fill="#f5f5f5" stroke-width="0"/><path d="M408.29,195.32c.62-4.49-5.69-8.15-10.43-8.53-2.26-.18-4.62.16-6.75-.58-4.64-1.62-6.5-7.61-11.03-9.53-3.39-1.43-7.28-.15-10.57,1.5s-6.53,3.74-10.19,3.97c-3.2.2-6.65-.98-9.45.57-2.08,1.17-3.17,3.59-5.09,4.98-1.92,1.38-4.32,1.68-6.65,1.8s-4.73.14-6.85,1.11-3.88,3.22-3.44,5.51l80.45-.79v-.01Z" fill="#f5f5f5" stroke-width="0"/><path d="M356.15,119.41c.9-6.22-7.93-11.35-14.53-11.88-3.15-.25-6.42.23-9.4-.81-6.47-2.25-9.05-10.6-15.36-13.26-4.72-1.99-10.15-.22-14.72,2.08-4.57,2.31-9.09,5.19-14.2,5.52-4.44.28-9.26-1.37-13.15.8-2.9,1.62-4.42,4.96-7.08,6.92-2.67,1.97-6.02,2.33-9.26,2.51s-6.59.21-9.55,1.56c-2.95,1.36-5.39,4.49-4.78,7.65l112.02-1.1.01.01Z" fill="#ebebeb" stroke-width="0"/><path d="M159.49,342.13c2.36-1.56,3.23-4.63,3.32-7.46s-.42-5.67-.05-8.49c.3-2.25-.12-4.62-.3-6.9-.35-4.49-2.98-5.12-4.88-9.18-1.89-4.06.9-5.07-.06-6.77-.5-.83-1.89-.55-2.76-.12-.84.49-1.58,1.15-2.15,1.93-3.05,3.67-5.7,8.17-5.26,12.92.21,2.37,1.18,4.6,1.68,6.92.8,3.64.52,7.62,2.37,10.86c1.73,3.01,4.98,4.76,8.08,6.37" fill="#ebebeb" stroke-width="0"/><path d="M163.35,356.42c-.9-6.2,2.07-13.78,6.57-18.16c1.9-1.85,4.23-3.37,5.54-5.68c1.51-2.69,1.46-6.01,3.04-8.62c2.37-3.91,7.52-4.97,12.09-5.24s14.19-5.64,13.15-3.05c-3.39,9.77-2.69,9.21-14.77,18.18-4.97,3.68-.42,14.65-14.19,18.9-3.78,1.18-8.43,1.09-11.34,3.77" fill="#ebebeb" stroke-width="0"/><path d="M165.69,419.56c.05.08.1.15.14.23l-.14-.23Z" fill="#455a64" stroke-width="0"/><path d="M147.22,402.51c7.1,2.72,13.05,7.79,16.86,14.37l1.61,2.69c-.68-1-2.2-1.07-3.46-1.22-2.36-.28-4.57-1.32-6.29-2.97-.96-1.12-2.01-2.16-3.13-3.12-1.14-.66-2.35-1.22-3.59-1.66-2.74-1.22-4.99-3.32-7.7-4.62s-5.85-1.8-8.83-2.54c-2.97-.74-6.02-1.92-7.98-4.27c6.76.26,14.92.6,22.5,3.35l.01-.01Z" fill="#ebebeb" stroke-width="0"/><path d="M136.42,364.44c2.57,1.19,4.35,3.66,6.87,4.94c2.28,1.15,4.93,1.22,7.41,1.8c5.94,1.45,13.29,12.46,17.29,17.96-1.61-.08-4.8-1.43-7.76-1.38s-6.84-.79-9.79-1.1c-9.65-1.01-14.29-5.7-21.6-11.93-4.39-3.7-9.68-5.21-12.46-10.23c6.22,2.69,13.87-2.92,20.04-.06Z" transform="translate(0-2)" fill="#ebebeb" stroke-width="0"/><path d="M163.39,361.75c-3.39-9.82-12.26-17.43-21.62-21.99-9.51-4.57-20.43-5.22-30.41-1.8c5.6,7.37,11.3,8.3,20.31,10.43c1.56.37,5.44-.79,8.26,1.23c1.13.82,1.39,4.08,7.93,5.29s11.89,2.49,15.54,6.86" fill="#ebebeb" stroke-width="0"/><path d="M156.26,321.4c.01.11.01.22,0,.32c0,.23,0,.55.04.94v1.53c0,.6.1,1.3.15,2.07.4,4.42,1.14,8.79,2.22,13.09c1.28,5.46,3.27,11.84,5.48,18.92c2.47,7.66,4.49,15.45,6.05,23.35c2.81,14.38,3.98,29.04,3.49,43.69-.15,6.1-.66,12.18-1.54,18.21-.01-.1-.01-.21,0-.31c0-.23.03-.55.08-.94.08-.84.21-2.06.36-3.59.24-3.12.65-7.65.76-13.26.4-14.62-.8-29.23-3.59-43.59-1.56-7.89-3.56-15.68-6-23.35-2.19-7.08-4.17-13.47-5.39-18.97-1.03-4.32-1.71-8.72-2.01-13.15c0-.78-.08-1.48-.11-2.09s0-1.11,0-1.53v-.94c-.02-.13-.01-.26,0-.4h.01Z" fill="#e0e0e0" stroke-width="0"/><path d="M121.15,339.16h2.17c1.97.08,3.94.27,5.89.58c2.9.44,5.75,1.12,8.54,2.03c3.43,1.08,6.71,2.59,9.77,4.49c5.5,3.55,10.36,8,14.37,13.17c1.21,1.56,2.33,3.19,3.36,4.88.37.59.62,1.07.8,1.39.1.16.19.33.25.5-.12-.14-.24-.3-.33-.46-.21-.31-.49-.76-.9-1.34-.76-1.17-1.91-2.83-3.47-4.77-4.06-5.07-8.91-9.46-14.37-12.98-3.03-1.88-6.27-3.39-9.66-4.49-2.76-.92-5.59-1.62-8.46-2.11-2.45-.41-4.49-.62-5.85-.72-.69-.06-1.24-.08-1.6-.11-.18,0-.35-.02-.52-.06h.01Z" fill="#e0e0e0" stroke-width="0"/><path d="M193.78,323.65c-.14.08-.28.14-.43.19l-1.26.5c-1.53.61-3,1.35-4.41,2.2-.97.57-1.83,1.31-2.55,2.17-.75,1.06-1.4,2.18-1.96,3.36-.6,1.23-1.18,2.57-1.7,3.97-.43,1.5-.96,2.98-1.56,4.42-.75,1.4-1.75,2.65-2.96,3.68-1.14,1.02-2.33,1.86-3.46,2.69-2,1.4-3.9,2.96-5.66,4.65-1.16,1.17-2.26,2.39-3.29,3.68l-.84,1.04c-.09.13-.2.25-.31.35.06-.15.14-.28.24-.4l.76-1.11c.98-1.34,2.05-2.61,3.21-3.81c1.74-1.74,3.63-3.34,5.64-4.77c2.2-1.64,4.8-3.39,6.29-6.21.59-1.43,1.11-2.88,1.54-4.36.51-1.37,1.09-2.71,1.74-4.01.58-1.19,1.26-2.33,2.04-3.4.76-.89,1.67-1.64,2.69-2.21c1.43-.84,2.93-1.54,4.49-2.09.56-.2.99-.33,1.28-.42.15-.05.3-.09.46-.1l.01-.01Z" fill="#e0e0e0" stroke-width="0"/><path d="M129.58,369.27c.15.07.3.15.43.24l1.19.76c1.03.67,2.51,1.64,4.37,2.78c2.17,1.34,4.45,2.5,6.81,3.48c2.69,1.09,5.74,1.94,8.92,3c5.43,1.86,10.5,4.65,14.98,8.24c1.74,1.34,3.11,2.47,4.05,3.26l1.07.9c.24.21.37.33.35.34-.15-.07-.29-.16-.41-.27l-1.12-.9c-.97-.74-2.37-1.8-4.13-3.12-4.5-3.49-9.55-6.22-14.93-8.08-3.15-1.05-6.23-1.92-8.93-3.05-2.37-1-4.66-2.2-6.82-3.59-1.85-1.18-3.3-2.2-4.29-2.92l-1.14-.84c-.14-.07-.26-.15-.38-.25l-.02.02Z" fill="#e0e0e0" stroke-width="0"/><path d="M173.29,386.53c4.49-4.78,3.34-13.14,8.14-17.59c2.98-2.77,7.52-3.26,10.64-5.89c2.03-1.71,3.27-4.19,5.21-6.02c3.65-3.44,9.06-4.01,14.05-4.39-.46,4.83-2.18,9.45-4.97,13.41-2.8,3.96-6.58,7.12-10.97,9.17-2.12.95-4.44,1.69-6.05,3.35-1.12,1.17-1.8,2.69-2.83,3.93-1.66,1.87-3.85,3.17-6.29,3.73-2.43.54-4.91.83-7.4.85" fill="#ebebeb" stroke-width="0"/><path d="M202.24,358.7c-.04.14-.09.29-.15.42-.16.39-.34.77-.56,1.14-.77,1.36-1.73,2.6-2.86,3.68-1.67,1.6-3.47,3.05-5.39,4.33-2.13,1.48-4.49,3.07-6.78,4.98-3.91,3.27-7.57,6.83-10.94,10.66l-3.06,3.48-.84.9c-.09.12-.2.22-.31.31c0,0,.07-.14.24-.38l.76-1c.68-.9,1.68-2.09,2.96-3.59c3.31-3.9,6.95-7.51,10.88-10.78c2.32-1.92,4.7-3.51,6.83-4.98c1.91-1.25,3.71-2.66,5.39-4.2c1.12-1.05,2.11-2.24,2.93-3.54.59-.9.83-1.46.88-1.45l.02.02Z" fill="#e0e0e0" stroke-width="0"/><path d="M178.46,411.31c.13-3.55,1.26-7.27,4.2-9.18c1.27-.83,2.75-1.32,3.87-2.33c1-1.09,1.86-2.29,2.57-3.59c2.37-3.53,6.17-5.78,9.83-7.92l4.35-2.54c.41-.31.92-.46,1.44-.41.24.07.45.21.61.39.17.18.28.4.34.64.09.48.09.98,0,1.46-.35,2.95-.92,5.86-1.71,8.73-.67,2.47-1.57,4.99-3.39,6.8-2.03,2.02-4.9,2.87-7.37,4.32-2.09,1.23-3.93,2.93-6.21,3.75-2.69.96-5.76.22-8.55-.16" fill="#ebebeb" stroke-width="0"/><path d="M200,393.24c-.21.4-.46.78-.74,1.14-.5.71-1.24,1.74-2.19,2.97-2.41,3.31-5.31,6.22-8.61,8.63-1.91,1.15-3.88,2.21-5.9,3.15-1.8.9-3.48,1.8-4.82,2.55-1.07.6-2.08,1.29-3.04,2.05-.34.3-.68.59-1.05.85c0,0,.06-.11.22-.28.22-.26.45-.5.71-.72.93-.82,1.93-1.55,2.99-2.19c1.32-.83,2.96-1.71,4.8-2.69c2-.97,3.96-2.04,5.85-3.21c3.25-2.4,6.15-5.23,8.62-8.43.9-1.17,1.7-2.14,2.3-2.88.26-.34.55-.65.86-.94Z" fill="#e0e0e0" stroke-width="0"/><path d="M148.16,405.67c.45.17.88.37,1.29.6.82.4,1.98,1.05,3.37,1.91c1.63,1.02,3.2,2.13,4.71,3.31c3.71,2.91,7.02,6.29,9.88,10.04c1.16,1.53,2.24,3.12,3.22,4.77.84,1.41,1.47,2.58,1.86,3.4.24.41.43.85.57,1.3-.28-.38-.52-.79-.73-1.21-.44-.81-1.11-1.94-1.99-3.32-.87-1.38-1.97-2.97-3.29-4.68-1.44-1.84-2.98-3.6-4.61-5.27-1.65-1.66-3.38-3.23-5.19-4.7-1.69-1.34-3.26-2.48-4.62-3.37s-2.49-1.58-3.28-2.04c-.43-.22-.83-.47-1.21-.76l.02.02Z" fill="#e0e0e0" stroke-width="0"/><path d="M424.45,377.12c-1.54-1.07-2.11-3.16-2.17-5.09s.29-3.87.05-5.78c-.09-1.57-.03-3.14.19-4.7.23-3.04,1.94-3.49,3.18-6.29c1.24-2.79-.61-3.46.04-4.62.32-.58,1.23-.38,1.8-.08.55.34,1.03.78,1.4,1.31c1.99,2.51,3.72,5.57,3.44,8.81-.26,1.59-.61,3.17-1.06,4.71-.52,2.49-.33,5.2-1.54,7.41-1.12,2.05-3.24,3.24-5.25,4.33" fill="#ebebeb" stroke-width="0"/><path d="M421.92,386.88c.62-4.22-1.35-9.39-4.28-12.36-1.24-1.27-2.76-2.3-3.59-3.87-.99-1.8-.95-4.1-1.98-5.87-1.55-2.69-4.9-3.39-7.88-3.59s-9.25-3.84-8.58-2.08c2.21,6.65,1.73,6.29,9.63,12.39c3.24,2.51.27,9.98,9.25,12.88c2.47.8,5.5.74,7.4,2.57" fill="#ebebeb" stroke-width="0"/><path d="M420.41,429.88c-.03.05-.06.11-.09.16l.09-.16Z" fill="#455a64" stroke-width="0"/><path d="M432.46,418.26c-4.69,1.89-8.59,5.34-11.03,9.77l-1.05,1.85c.45-.67,1.44-.73,2.25-.84c1.55-.2,2.98-.91,4.08-2.02.62-.76,1.3-1.47,2.05-2.12.75-.45,1.55-.83,2.37-1.13c1.8-.84,3.26-2.27,5.02-3.16c1.85-.77,3.78-1.35,5.76-1.72c2-.39,3.83-1.41,5.21-2.92-4.39.19-9.72.42-14.66,2.29Z" fill="#ebebeb" stroke-width="0"/><path d="M439.49,392.34c-1.67.81-2.83,2.5-4.49,3.37-1.48.78-3.21.83-4.82,1.24-3.88.98-8.67,8.49-11.28,12.24c1.05-.05,3.13-.97,5.06-.94c2.14-.13,4.27-.38,6.38-.75c6.29-.68,9.32-3.89,14.08-8.13c2.87-2.54,6.29-3.59,8.14-7.01-4.05,1.85-9.04-1.98-13.07-.02Z" fill="#ebebeb" stroke-width="0"/><path d="M421.91,390.49c2.21-6.72,7.99-11.87,14.1-14.99c3.05-1.54,6.38-2.44,9.79-2.66c3.41-.21,6.83.27,10.04,1.42-3.65,5.03-7.37,5.66-13.24,7.11-1.01.25-3.55-.54-5.39.85-.74.55-.9,2.77-5.17,3.59s-7.76,1.71-10.13,4.68Z" fill="#ebebeb" stroke-width="0"/><path d="M426.56,363.02c0,.07,0,.14,0,.22v.65c0,.56,0,1.39-.05,2.46-.19,3.02-.61,6.03-1.28,8.98-1.53,7.52-5.39,17.43-7.42,28.9-1.81,9.77-2.61,19.7-2.37,29.63.07,3.82.33,6.9.48,8.98.09,1.03.17,1.85.22,2.45c0,.25,0,.47.04.64.01.07.01.14,0,.21c0,0,0-.07-.04-.21s-.05-.39-.09-.64c-.07-.59-.18-1.41-.31-2.44-.21-2.13-.51-5.21-.63-9.03-.33-9.97.42-19.95,2.24-29.76c2.07-11.52,5.95-21.42,7.55-28.87.69-2.93,1.16-5.91,1.43-8.91.09-1.07.13-1.9.14-2.45v-.65c.02-.06.05-.11.09-.16Z" fill="#e0e0e0" stroke-width="0"/><path d="M449.45,375.1c-.47.09-.95.14-1.43.15-1.29.11-2.58.28-3.85.52-4.22.73-8.24,2.29-11.85,4.59-3.53,2.42-6.65,5.39-9.25,8.79-1,1.3-1.74,2.41-2.24,3.19-.24.42-.51.81-.81,1.18.03-.12.08-.24.15-.34.11-.21.26-.55.49-.94.65-1.13,1.36-2.23,2.13-3.29c2.56-3.5,5.69-6.53,9.26-8.98c4.8-3,10.3-4.69,15.96-4.91h1.07c.12,0,.25,0,.37.04Z" fill="#e0e0e0" stroke-width="0"/><path d="M402.09,364.51c.4.06.8.18,1.18.34c1.05.37,2.06.85,3.01,1.44.69.4,1.3.92,1.8,1.54.5.74.93,1.51,1.31,2.32.42.88.8,1.78,1.12,2.69.28.99.61,1.97,1,2.93.9,1.89,2.6,3.1,4.05,4.23c1.32.99,2.55,2.09,3.69,3.28.75.82,1.44,1.69,2.07,2.61.24.33.46.67.63,1.04-.08.06-1.01-1.42-2.94-3.42-1.15-1.15-2.4-2.21-3.72-3.17-1.45-1.11-3.22-2.34-4.2-4.36-.4-.97-.73-1.97-1.01-2.98-.33-.94-.7-1.8-1.09-2.69-.35-.79-.77-1.55-1.24-2.27-.45-.59-1-1.1-1.62-1.49-.92-.6-1.89-1.11-2.89-1.55-.39-.13-.77-.29-1.14-.48l-.01-.01Z" fill="#e0e0e0" stroke-width="0"/><path d="M443.95,395.61c-.3.3-.62.57-.97.81-.64.49-1.58,1.19-2.78,2-1.42.96-2.92,1.79-4.49,2.48-1.8.77-3.79,1.37-5.85,2.09-3.52,1.28-6.81,3.13-9.73,5.48l-2.69,2.1c-.32.28-.65.52-1.01.74.27-.33.57-.63.9-.9.6-.54,1.48-1.31,2.6-2.23c2.89-2.45,6.2-4.37,9.77-5.66c2.09-.73,4.1-1.31,5.85-2.05c1.54-.66,3.03-1.45,4.45-2.36c1.22-.76,2.18-1.43,2.85-1.87.35-.25.72-.46,1.11-.64l-.01.01Z" fill="#e0e0e0" stroke-width="0"/><path d="M415.45,407.38c-2.91-3.25-2.17-8.98-5.3-11.99-1.95-1.89-4.91-2.22-6.94-4.01-1.33-1.17-2.14-2.86-3.39-4.1-2.38-2.33-5.91-2.69-9.17-2.99.27,3.24,1.36,6.36,3.18,9.05s4.3,4.87,7.21,6.33c1.38.65,2.89,1.15,3.94,2.29.74.79,1.18,1.8,1.85,2.69c1.07,1.26,2.51,2.15,4.12,2.54c1.59.36,3.21.56,4.83.58" fill="#ebebeb" stroke-width="0"/><path d="M396.57,388.41c.67,1.23,1.51,2.36,2.5,3.35c1.1,1.05,2.28,2.01,3.54,2.86c1.4,1,2.97,2.09,4.49,3.4c2.58,2.25,4.95,4.72,7.08,7.39.83,1.02,1.46,1.86,1.9,2.44.24.3.45.62.64.95-.29-.25-.55-.53-.77-.83l-2.01-2.35c-2.2-2.58-4.59-5-7.14-7.24-1.5-1.3-3.05-2.39-4.44-3.41-1.26-.88-2.45-1.88-3.53-2.98-.71-.75-1.32-1.6-1.8-2.52-.13-.25-.24-.51-.34-.77-.05-.09-.09-.19-.12-.29Z" fill="#e0e0e0" stroke-width="0"/><path d="M412.08,424.26c-.09-2.42-.82-4.96-2.69-6.29-.88-.46-1.73-.99-2.52-1.58-.66-.74-1.22-1.55-1.68-2.42-1.54-2.4-4.02-3.94-6.41-5.39l-2.84-1.73c-.26-.2-.58-.3-.9-.28-.16.05-.3.14-.41.26s-.18.27-.21.44c-.06.33-.06.67,0,1.01.22,2,.59,3.99,1.1,5.93.33,1.71,1.09,3.31,2.21,4.64c1.32,1.37,3.2,1.95,4.8,2.94c1.37.84,2.57,2,4.06,2.56c1.72.65,3.75.15,5.58-.11" fill="#ebebeb" stroke-width="0"/><path d="M398.03,411.92c.76.82,1.46,1.69,2.1,2.61c1.6,2.15,3.48,4.07,5.6,5.71c1.24.8,2.51,1.53,3.82,2.2c1.2.66,2.28,1.27,3.15,1.84.7.44,1.35.95,1.94,1.52.23.2.43.43.58.69-.86-.7-1.76-1.35-2.69-1.93-.9-.53-1.96-1.1-3.18-1.73-1.34-.65-2.64-1.39-3.89-2.21-2.16-1.66-4.04-3.65-5.58-5.89-.61-.83-1.08-1.54-1.39-2.02-.19-.24-.34-.5-.46-.78v-.01Z" fill="#e0e0e0" stroke-width="0"/><path d="M431.84,420.42c0,.07-1.14.73-2.93,1.97-2.31,1.62-4.45,3.48-6.39,5.54-1.93,2.07-3.65,4.33-5.13,6.73-1.13,1.85-1.73,3.06-1.8,3.03.08-.31.19-.61.34-.9.24-.57.65-1.36,1.18-2.31c1.41-2.49,3.12-4.8,5.07-6.89s4.15-3.93,6.55-5.49c.72-.47,1.47-.91,2.24-1.31.27-.16.56-.29.86-.38l.01.01Z" fill="#e0e0e0" stroke-width="0"/><path d="M503.23,443.62c0,.13-88.09.23-196.73.23s-196.75-.11-196.75-.23s88.08-.23,196.75-.23s196.73.14,196.73.23Z" fill="#263238" stroke-width="0"/><path d="M459.59,397.17c1.07.51,2.02,1.23,2.8,2.11.78.89,1.38,1.92,1.75,3.04.73,2.25.94,4.64.6,6.98-.51,4.49-3.09,9.1-5.85,12.72-3.82-3.32-4.69-9.13-4.95-12.1-.41-4.7,1.7-13.47,5.65-12.74v-.01Z" fill="#ff725e" stroke-width="0"/><path d="M463.32,429.49c-.26-1.29-.17-2.63.25-3.88s1.17-2.37,2.17-3.24c1.01-.85,2.18-1.49,3.44-1.88s2.58-.53,3.9-.41c.61,0,1.21.12,1.77.37s1.05.62,1.45,1.08c.3.49.46,1.04.47,1.61s-.13,1.13-.41,1.63c-.58.99-1.41,1.81-2.41,2.37-3.3,2.07-6.88,3.48-10.61,2.35h-.02Z" fill="#ff725e" stroke-width="0"/><path d="M458.43,443.38c.01-.3.06-.6.14-.9.12-.66.28-1.5.46-2.51.43-2.8,1.31-5.52,2.6-8.04c1.34-2.52,3.33-4.64,5.77-6.12.74-.44,1.53-.79,2.34-1.04.22-.07.45-.13.68-.17.08-.01.16-.01.24,0-1.1.37-2.15.86-3.15,1.45-2.35,1.52-4.27,3.62-5.59,6.09-1.29,2.49-2.2,5.16-2.69,7.92-.23,1.05-.42,1.9-.57,2.5-.05.28-.13.56-.22.83l-.01-.01Z" fill="#263238" stroke-width="0"/><path d="M458.57,403.96c.03.14.04.27.04.41c0,.3,0,.68.07,1.17.05,1.01.12,2.48.17,4.29.12,3.59.21,8.65.19,14.19s-.16,10.55-.31,14.18c-.07,1.8-.14,3.29-.21,4.29c0,.48-.05.9-.08,1.17c0,.14-.02.28-.05.41-.02-.14-.02-.28,0-.41v-1.17c0-1.06.06-2.51.1-4.3.09-3.59.19-8.64.22-14.18s0-10.54-.09-14.17c0-1.8-.05-3.24-.06-4.3v-1.17c-.01-.14,0-.28,0-.41h.01Z" fill="#263238" stroke-width="0"/><path d="M456.72,432.25c-.46-2.74-1.57-5.34-3.23-7.57s-3.83-4.04-6.33-5.26c-1.27-.61-2.94-1.01-3.99-.06-1.05.94-.82,2.69-.31,3.98c1.12,2.73,3.03,5.08,5.48,6.73s5.33,2.54,8.29,2.56" fill="#ff725e" stroke-width="0"/><path d="M447.78,423.71c.28.09.55.21.81.36.31.14.61.31.9.48.34.22.75.42,1.16.73.46.31.9.65,1.32,1.01.49.4.96.83,1.41,1.29c1.03,1.05,1.93,2.21,2.69,3.47.75,1.26,1.35,2.6,1.8,4.01.18.61.34,1.24.45,1.87.1.55.18,1.1.22,1.65.05.46.07.92.06,1.37.02.34.02.69,0,1.03c0,.3-.04.6-.1.9-.07,0,.05-1.27-.17-3.27-.06-.54-.15-1.08-.26-1.62-.11-.58-.29-1.2-.47-1.8-.88-2.76-2.38-5.27-4.4-7.35-.47-.47-.9-.9-1.37-1.29-.41-.36-.85-.7-1.29-1.02-1.64-1.23-2.79-1.76-2.76-1.82Z" fill="#263238" stroke-width="0"/><path d="M339.96,275.51c-.05-.68-.3-1.32-.73-1.85-.39-.53-.95-.92-1.58-1.12-.54-.15-1.12-.13-1.64.08-.52.2-.97.58-1.26,1.05-.16-.35-.4-.66-.7-.9-.28-.22-.59-.38-.93-.47s-.69-.11-1.04-.06c-.65.11-1.25.43-1.71.9-.49.47-.82,1.07-.96,1.73-.16.85-.04,1.73.33,2.51.45.79,1.08,1.46,1.84,1.96c1.22.85,2.84,1.92,2.84,1.92s1.49-.97,2.82-1.65c.82-.39,1.53-.98,2.07-1.71.47-.71.7-1.54.66-2.39h-.01Z" fill="#ff725e" stroke-width="0"/><path d="M449.48,228.74c-.05-.67-.3-1.31-.73-1.84-.4-.53-.95-.93-1.59-1.12-.54-.15-1.11-.13-1.64.07-.52.2-.96.57-1.26,1.05-.17-.35-.41-.65-.71-.9-.27-.21-.59-.37-.93-.46s-.69-.11-1.04-.06c-.65.11-1.25.43-1.71.9-.49.46-.83,1.07-.96,1.73-.16.85-.05,1.72.33,2.5.43.79,1.05,1.46,1.8,1.96c1.23.85,2.85,1.93,2.85,1.93s1.49-.97,2.81-1.66c.82-.39,1.53-.97,2.07-1.7.48-.7.73-1.54.7-2.4h.01Z" fill="#ff725e" stroke-width="0"/><path d="M431.36,162.64l1.58.9c.05.03.1.07.13.12s.05.11.05.17-.02.12-.05.17-.07.09-.13.12l-1.57.9c-.06.02-.11.07-.14.13l-.85,1.58c-.03.05-.07.1-.12.13s-.11.05-.17.05-.12-.02-.17-.05-.09-.07-.12-.13l-.9-1.57c-.03-.06-.08-.1-.13-.13l-1.58-.9c-.05-.03-.1-.07-.13-.12s-.05-.11-.05-.17.02-.12.05-.17.08-.09.13-.12l1.57-.9c.05-.03.1-.08.13-.14l.9-1.58c.03-.05.07-.1.12-.13s.11-.05.17-.05.12.02.17.05.09.07.12.13l.9,1.57c.02.05.05.1.1.14h-.01Z" fill="#ff725e" stroke-width="0"/><path d="M335.65,228.16l1.57.9c.05.03.1.07.13.12s.05.11.05.17-.02.12-.05.17-.07.1-.13.12l-1.57.9c-.06.03-.1.07-.13.13l-.85,1.58c-.03.05-.07.1-.12.13s-.11.05-.17.05-.12-.02-.17-.05-.09-.07-.12-.13l-.9-1.57c-.03-.06-.08-.11-.14-.13l-1.58-.85c-.05-.03-.1-.07-.13-.12s-.05-.11-.05-.17.02-.12.05-.17.07-.09.13-.12l1.57-.9c.05-.04.1-.08.14-.14l.85-1.58c.03-.05.07-.1.12-.13s.11-.05.17-.05.12.02.17.05.09.07.12.13l.9,1.57c0,0,.09.08.14.09Z" fill="#ff725e" stroke-width="0"/><path d="M326.03,218.56l.83.45c0,0,.05.04.07.06.02.03.02.06.02.09s0,.06-.02.09-.04.05-.07.06l-.82.45c0,0-.06.04-.07.07l-.44.82c0,0-.04.05-.06.07-.03.02-.06.03-.09.03s-.06,0-.09-.03c-.03-.02-.05-.04-.06-.07l-.46-.82c0,0-.01-.03-.02-.04s-.02-.02-.04-.02l-.83-.45c0,0-.05-.04-.06-.07s-.02-.06-.02-.09s0-.06.02-.09.04-.05.06-.07l.82-.45c0,0,.05-.04.07-.07l.44-.83c0,0,.04-.05.07-.06s.06-.02.09-.02.06,0,.09.02.05.04.07.06l.46.82c0,0,.03.06.06.07l-.02.02Z" fill="#ff725e" stroke-width="0"/><path d="M413.8,282.21l.83.45c0,0,.05.04.06.07s.02.06.02.09s0,.06-.02.09-.04.05-.06.07l-.82.45c0,0-.05.04-.07.07l-.44.82c0,0-.04.05-.06.07-.03.02-.06.03-.09.03s-.06,0-.09-.03c-.03-.02-.05-.04-.06-.07l-.46-.83c0,0-.04-.05-.07-.06l-.82-.45c0,0-.05-.04-.07-.06-.02-.03-.02-.06-.02-.09s0-.06.02-.09.04-.05.07-.06l.82-.45c0,0,.05-.04.06-.07l.45-.82c0,0,.04-.05.06-.07.03-.02.06-.02.09-.02s.06,0,.09.02.05.04.06.07l.45.82c0,0,.04.06.07.07v-.02Z" fill="#ff725e" stroke-width="0"/><path d="M151.72,112.01c7.84,0,14.2-6.19,14.2-13.82s-6.36-13.82-14.2-13.82-14.2,6.19-14.2,13.82s6.36,13.82,14.2,13.82Z" fill="#ff725e" stroke-width="0"/><path d="M149.7,129.09c-.15-1.9-.21-3.8-.15-5.7-.06-1.9,0-3.81.15-5.7.15,1.9.19,3.8.14,5.7.05,1.9,0,3.8-.14,5.7Z" fill="#ff725e" stroke-width="0"/><path d="M141.51,114.48c.07,0-1.27,2.41-2.98,5.32s-3.17,5.21-3.24,5.17s1.27-2.43,2.98-5.33c.99-1.77,2.07-3.5,3.24-5.16Z" fill="#ff725e" stroke-width="0"/><path d="M133.12,109.38c-1.04,1-2.15,1.93-3.31,2.78-1.11.92-2.28,1.76-3.5,2.52c1.03-1,2.12-1.93,3.28-2.78c1.12-.92,2.3-1.76,3.54-2.52h-.01Z" fill="#ff725e" stroke-width="0"/><path d="M163.86,123.47c-.17-.46-.3-.93-.38-1.42-.21-.9-.49-2.07-.9-3.38-.4-1.31-.74-2.5-1.01-3.35-.16-.44-.28-.89-.35-1.36.25.42.44.86.59,1.33.32.84.73,2.01,1.1,3.33s.62,2.52.79,3.42c.1.47.15.94.15,1.42l.01.01Z" fill="#ff725e" stroke-width="0"/><path d="M178.25,113.52c-1.46-1.05-2.86-2.18-4.19-3.38-1.4-1.13-2.73-2.32-4.01-3.59c1.46,1.05,2.87,2.18,4.2,3.38c1.4,1.12,2.73,2.32,4,3.59Z" fill="#ff725e" stroke-width="0"/><path d="M183.77,99.86c-.58-.03-1.15-.11-1.72-.23-1.05-.17-2.5-.4-4.11-.57-1.61-.18-3.09-.29-4.15-.35-.58,0-1.15-.05-1.72-.14.57-.07,1.15-.1,1.73-.06c1.07,0,2.55.09,4.17.27s3.08.43,4.13.65c.57.09,1.13.24,1.67.44v-.01Z" fill="#ff725e" stroke-width="0"/><path d="M183.78,86.42c0,.08-3.05.9-6.86,1.8s-6.93,1.55-6.93,1.5s3.05-.9,6.87-1.8s6.91-1.58,6.92-1.5Z" fill="#ff725e" stroke-width="0"/><path d="M167.75,70.76c.06.04-1.4,2.33-3.29,5.1-1.88,2.77-3.47,4.98-3.53,4.94s1.4-2.33,3.28-5.1s3.47-4.97,3.54-4.94Z" fill="#ff725e" stroke-width="0"/><path d="M151.82,67.49c.05.63.05,1.26,0,1.89v4.57c0,1.78,0,3.4.05,4.57.05.63.05,1.26,0,1.9-.13-.62-.19-1.25-.2-1.89-.07-1.17-.13-2.78-.13-4.58s.05-3.4.13-4.57c0-.63.05-1.27.15-1.89Z" fill="#ff725e" stroke-width="0"/><path d="M139.77,82.11c-.07,0-1.57-2.22-3.34-5.05s-3.15-5.15-3.09-5.19c1.2,1.62,2.31,3.3,3.34,5.04c1.12,1.68,2.15,3.42,3.09,5.2Z" fill="#ff725e" stroke-width="0"/><path d="M132.57,88.07c-.51-.03-1.02-.1-1.51-.23-.9-.19-2.19-.49-3.59-.9-1.4-.4-2.61-.81-3.49-1.14-.48-.14-.94-.33-1.37-.57.5.1.99.24,1.46.41.9.28,2.13.66,3.51,1.05c1.38.4,2.62.73,3.53.97.5.09.99.22,1.46.4v.01Z" fill="#ff725e" stroke-width="0"/><path d="M129.42,98.7c-1.48.28-2.98.47-4.49.57-1.51.2-3.04.29-4.56.29c1.48-.29,2.98-.48,4.49-.57c1.51-.19,3.04-.28,4.56-.28v-.01Z" fill="#ff725e" stroke-width="0"/></g><g id="eY4zkfBVpOF64" transform="matrix(1.016 0 0 1.016-5.231286-4.945685)"><path d="M253.15,218.29L213.29,155.8c-.74-.07-1.48.02-2.18.28s-1.32.67-1.83,1.21-.89,1.18-1.12,1.89-.29,1.45-.18,2.19c-6.67.32-12.38,6.9-11.76,13.55-2.57.24-5.05,1.08-7.23,2.46-2.19,1.38-4.02,3.24-5.35,5.46-1.33,2.21-2.12,4.71-2.31,7.28-.19,2.58.23,5.16,1.23,7.54-.93,1.73-1.39,3.67-1.34,5.63.06,1.96.63,3.87,1.67,5.54c1.03,1.67,2.49,3.03,4.22,3.96c1.73.92,3.67,1.37,5.63,1.31-.88,2.41-.94,5.04-.19,7.5.75,2.45,2.28,4.6,4.35,6.11c2.08,1.51,4.59,2.3,7.15,2.26c2.57-.04,5.05-.91,7.08-2.49.81,1.6,1.96,3,3.38,4.09s3.07,1.85,4.82,2.22s3.57.34,5.3-.08c1.74-.42,3.36-1.24,4.74-2.37c1.85,1.37,4.13,2.04,6.42,1.9c2.3-.14,4.48-1.08,6.15-2.66c1.17-1.17,2.05-2.69,3.48-3.49s3.03-.9,4.49-1.53c1.3-.64,2.34-1.71,2.93-3.03s.7-2.81.3-4.2l.01-.04Z" fill="#263238" stroke-width="0"/><path d="M242.34,212.59c0,1.17-.35,2.31-.99,3.28-.65.97-1.57,1.73-2.65,2.17-1.08.45-2.26.56-3.41.34-1.14-.23-2.2-.79-3.02-1.62s-1.39-1.88-1.61-3.02c-.23-1.14-.11-2.33.33-3.41.45-1.08,1.2-2,2.17-2.65s2.11-.99,3.28-.99c1.57,0,3.07.62,4.17,1.73c1.11,1.11,1.73,2.61,1.73,4.17Z" fill="#ff725e" stroke-width="0"/><path d="M234.32,215.13c-2.46,3.79-3.84,8.18-3.97,12.69-.14,4.52.97,8.98,3.2,12.91c1.29-3.89,2.2-7.89,2.69-11.96.36-4.09.08-10.07-1.94-13.64" fill="#ff725e" stroke-width="0"/><path d="M221.49,180.61c-1.43-1.84-2.17-4.13-2.09-6.46s.98-4.56,2.53-6.3c-1.9-2.23-1.37-5.77.39-8.08c1.77-2.31,4.49-3.72,7.08-5.04c1.22-6.74,20-17.06,26.71-15.67.3-2.9,8.38-2.6,9.61,1.38.65-.89,1.54-1.58,2.58-1.98c1.03-.4,2.15-.49,3.23-.26c9.88,1.53,8.7,7.7,8.7,7.7s3.01-1.2,6.11,2.19c2.86,3.12,1.71,5.16,1.71,5.16c1.12.81,2.05,1.86,2.73,3.06s1.09,2.54,1.21,3.92c.18,2.34-.48,4.84.58,6.92.53,1.05,1.46,1.88,1.88,2.97c1.22,3.17-2.22,6.57-1.45,9.88.16.67.49,1.29.7,1.96.43,1.37.36,2.84-.21,4.16-.44,1.01-1.18,1.93-1.19,3.03.08.83.27,1.64.57,2.41.48,1.98-3.55,9.8-5.23,10.94l-51.36,2.27c-1.96-.37-3.76-1.34-5.14-2.77s-2.29-3.26-2.58-5.24c0-.66-.19-1.31-.55-1.87-.41-.4-.89-.7-1.43-.9-3.38-1.66-3.93-6.19-3.72-9.94.07-.52.04-1.06-.08-1.57-.29-.71-.73-1.35-1.28-1.88l-.01.01Z" fill="#263238" stroke-width="0"/><path d="M236.22,180.17c-.48-9.09,4.86-19.76,13.74-24.5c5.59-3,10.03-3.18,13.01-3.59c4.19-.55,8.45.18,12.2,2.11c2.85.57,13.57,9.71,14.48,20c1,11.43,1.8,25.43.62,34.01-2.31,17.25-15.42,19.76-15.42,19.76l2.23,28.46-35.65-12.57-5.21-63.67v-.01Z" fill="#ffbf9d" stroke-width="0"/><path d="M265.82,206.46c.06-.82.42-1.59,1-2.16.53-.54,1.23-.88,1.98-.99.75-.1,1.51.05,2.17.42c1.33.77,1.61,2.24,1.5,3.91-.63,1.03-1.08,2.04-2.26,2.24-.19,0-.38.05-.57.06-.94.07-1.86-.22-2.6-.8-.39-.33-.71-.74-.92-1.2s-.31-.97-.3-1.48Z" fill="#ff9a6c" stroke-width="0"/><path d="M283.71,188.09c.02.57-.18,1.13-.57,1.56s-.92.68-1.5.72c-.28.03-.56,0-.83-.08s-.52-.22-.73-.4c-.22-.18-.39-.4-.52-.65s-.21-.52-.23-.8c-.02-.58.18-1.14.57-1.56.39-.43.92-.68,1.5-.72.28-.03.56,0,.83.08s.52.22.73.4c.22.18.39.4.52.65s.21.52.23.8Z" fill="#263238" stroke-width="0"/><path d="M285.83,180.84c-.26.29-1.97-.9-4.34-.83-2.37.06-4.08,1.29-4.34,1.01-.13-.13.14-.66.9-1.22c1.01-.74,2.22-1.14,3.47-1.17c1.23-.03,2.44.33,3.46,1.03.75.54,1.01,1.05.85,1.18Z" fill="#263238" stroke-width="0"/><path d="M272.44,199.9c0-.14,1.45-.43,3.83-.79.61-.08,1.18-.21,1.27-.63.04-.63-.12-1.26-.45-1.8-.6-1.45-1.23-2.97-1.9-4.56-2.64-6.51-4.57-11.86-4.31-11.96s2.62,5.08,5.27,11.58c.64,1.6,1.24,3.13,1.8,4.6.4.72.54,1.55.38,2.36-.09.21-.22.4-.39.56-.17.15-.37.27-.59.34-.33.1-.68.15-1.02.16-2.37.21-3.86.27-3.88.14h-.01Z" fill="#263238" stroke-width="0"/><path d="M274.85,227.91c-8.11.33-16.16-1.6-23.24-5.57c0,0,6.39,11.95,23.58,9.93l-.34-4.36Z" fill="#ff9a6c" stroke-width="0"/><path d="M284.04,171.44c-.39.59-2.21.25-4.33.48-2.12.22-3.86.83-4.34.32-.21-.25,0-.83.73-1.43.99-.75,2.17-1.2,3.4-1.29c1.24-.14,2.48.09,3.59.66.83.41,1.14.93.94,1.27l.01-.01Z" fill="#263238" stroke-width="0"/><path d="M258.89,189.09c.03.57.28,1.11.7,1.5s.97.61,1.55.6c.28,0,.56-.05.82-.15.26-.11.5-.26.7-.46s.36-.43.47-.69.16-.54.16-.82c-.03-.57-.28-1.11-.7-1.5s-.98-.6-1.55-.59c-.28,0-.56.05-.82.15s-.49.26-.69.46-.36.43-.46.69-.16.53-.16.81h-.02Z" fill="#263238" stroke-width="0"/><path d="M253.44,182.56c.3.27,1.89-1.07,4.25-1.21s4.17.94,4.42.63c.12-.13-.19-.63-.98-1.14-1.08-.65-2.33-.95-3.59-.85-1.23.07-2.41.53-3.36,1.32-.67.6-.88,1.13-.74,1.26v-.01Z" fill="#263238" stroke-width="0"/><path d="M253.12,173.23c.49.51,2.29-.16,4.49-.32s4.08.11,4.49-.49c.17-.28-.15-.8-1-1.26-1.15-.56-2.43-.79-3.71-.66-1.27.09-2.49.54-3.51,1.3-.77.64-.99,1.2-.76,1.42v.01Z" fill="#263238" stroke-width="0"/><path d="M239.38,196.38c0-1.28-1.59-4.26-2.86-4.43-3.39-.44-9.46,0-9.31,8.55.21,11.67,11.93,9.09,11.94,8.75s.34-8.45.22-12.87h.01Z" fill="#ffbf9d" stroke-width="0"/><path d="M235.85,205.03c-.05,0-.2.15-.55.31-.48.22-1.02.24-1.52.05-1.25-.43-2.33-2.37-2.43-4.49-.04-1.01.13-2.01.52-2.94.1-.37.29-.7.56-.98s.59-.49.95-.61c.23-.07.48-.05.7.04.22.1.4.27.51.49.16.33.1.57.16.58.06.02.24-.2.14-.68-.07-.29-.24-.55-.48-.73-.33-.24-.73-.34-1.13-.28-.48.1-.93.33-1.29.65-.37.33-.65.74-.81,1.21-.49,1.02-.71,2.15-.65,3.28.12,2.35,1.36,4.54,3.06,5c.32.08.65.1.97.04s.63-.19.89-.38c.36-.29.42-.55.38-.58l.02.02Z" fill="#ff9a6c" stroke-width="0"/><path d="M292.24,174.25c-2.4-1.42-3.96-3.39-3.88-6.19-1.56.5-3.2-1.47-4.16-2.81s-2.08-1.99-2.06-3.59c.04-.32-.01-.65-.14-.95-.24-.44-.81-.57-1.29-.71-1.26-.37-2.4-1.06-3.33-1.99s-1.61-2.08-1.98-3.34c-2.5,1.16-5.24,1.68-7.99,1.53-.59.9-1.39,1.64-2.35,2.15-.95.51-2.02.76-3.1.74s-2.13-.31-3.07-.85c-.93-.54-1.71-1.31-2.27-2.24-.38.72-.91,1.36-1.55,1.86s-1.39.86-2.18,1.04c-1.59.36-3.22.49-4.85.39.34,1.58.1,3.23-.68,4.65s-2.04,2.51-3.56,3.07c-.41.14-.9.28-1.07.67-.05.22-.06.45-.03.67.04.22.12.44.24.63.24.67.34,1.38.3,2.09s-.23,1.4-.54,2.04c-.32.64-.76,1.2-1.29,1.66-.54.46-1.17.81-1.84,1.03.46.38.82.87,1.06,1.41s.36,1.14.34,1.73c-.02.6-.17,1.18-.45,1.71s-.67.99-1.15,1.34c-.42.27-.97.59-.9,1.09.05.18.14.36.27.49.99,1.06,1.67,2.39,1.94,3.82.14,1.45-.79,3.1-2.24,3.2.42.29.77.67,1.03,1.1.27.43.44.92.52,1.42c0,1.02-.96,2.08-1.92,1.74-.41-.14-6.29-1.15-6.54-1.49-3.43-4.42.62-9.49.81-15.08.3-5.61,1.89-11.07,4.66-15.95c1.08-2.09,2.43-4.02,4.02-5.76c1.9-1.86,4.01-3.51,6.29-4.9c2.92-1.91,5.92-3.83,9.29-4.71c6.29-1.65,12.91.48,18.86,3.06c2.31.9,4.48,2.11,6.46,3.59c2.24,1.94,4.12,4.26,5.54,6.86c2.35,3.59,3.93,7.63,4.64,11.86" fill="#263238" stroke-width="0"/><path d="M265.38,204.25c.29-.19,1.44,1.8,3.92,2.14s4.42-1.06,4.6-.8c.1.11-.23.65-1.1,1.19-1.13.7-2.46.97-3.77.77-1.26-.18-2.39-.85-3.16-1.86-.56-.76-.63-1.37-.49-1.45v.01Z" fill="#263238" stroke-width="0"/><path d="M209.92,149.2c0,15.79,11.03,41.49,20.31,42.98l-.09-.67c-.43-10.02-.83-20.32,2.44-29.8c3.66-10.61,13.17-18.3,23.52-22.66-15.54-3.36-37.04,4.44-46.18,10.16v-.01Z" fill="#ff725e" stroke-width="0"/><path d="M250.21,138.3c-1.81.43-3.46,1.36-4.78,2.68s-2.24,2.97-2.68,4.78c-2.37.47-4.49,1.79-5.96,3.7-1.48,1.92-2.2,4.3-2.06,6.71-1.27.41-2.44,1.11-3.4,2.04s-1.7,2.07-2.15,3.33-.61,2.61-.45,3.94c.15,1.33.61,2.61,1.34,3.73-1.21,1.64-1.92,3.59-2.04,5.63s.37,4.06,1.4,5.82c-.82.76-1.46,1.69-1.85,2.73s-.55,2.16-.43,3.27c.11,1.11.48,2.18,1.08,3.12s1.4,1.73,2.36,2.31l4.1.05-.14-17.01l2.91-9.99l6.18-10.87l6.36-5.81l10.17-6.67c-1.18-1.44-2.73-2.53-4.48-3.15-1.76-.62-3.65-.74-5.47-.35l-.01.01Z" fill="#263238" stroke-width="0"/><path d="M234.16,213.48c-1.09-2.34-6.47-3.46-10.67-2.51-4.21,1.06-7.92,3.55-10.49,7.05-2.54,3.48-4.3,7.46-5.18,11.67c10.64.18,21.29-6.88,26.34-16.25" fill="#ff725e" stroke-width="0"/><path d="M239.27,217.88c0,0-.16.15-.53.33-.53.24-1.1.38-1.68.43-.97.11-1.94-.01-2.85-.37s-1.71-.93-2.34-1.67-1.07-1.62-1.28-2.57-.18-1.94.08-2.87c.13-.57.36-1.1.68-1.59.22-.33.39-.49.41-.48-.33.68-.59,1.4-.77,2.14-.21.88-.2,1.8.01,2.68.22.88.63,1.7,1.22,2.39s1.33,1.23,2.17,1.58s1.74.5,2.65.43c.75-.07,1.5-.21,2.23-.43Z" fill="#263238" stroke-width="0"/><path d="M221.18,217.67c2.74-2.07,5.96-3.4,9.37-3.85c0,.14-2.17.68-4.76,1.8-2.59,1.11-4.61,2.18-4.61,2.06v-.01Z" fill="#263238" stroke-width="0"/><path d="M233.59,229.05c-.12-1.84-.12-3.68,0-5.51-.02-1.84.07-3.68.29-5.51.25,1.83.31,3.68.18,5.52.03,1.84-.12,3.69-.47,5.5Z" fill="#263238" stroke-width="0"/><path d="M224.9,149.26c-.18.58-.4,1.16-.65,1.72-.6,1.54-1.11,3.11-1.53,4.71-1.41,5.28-1.72,10.79-.92,16.2.81,5.41,2.71,10.59,5.6,15.23.87,1.41,1.82,2.77,2.84,4.08.4.46.77.94,1.12,1.45-.12-.09-.24-.2-.34-.32-.21-.22-.54-.55-.9-1.01-1.09-1.26-2.08-2.6-2.98-4.01-3-4.65-4.97-9.88-5.78-15.35-.82-5.47-.45-11.05,1.06-16.37.46-1.6,1.02-3.18,1.68-4.71.23-.55.45-.95.58-1.23.06-.13.13-.26.22-.39Z" fill="#263238" stroke-width="0"/><path d="M213.54,467.83h18.56l.54-23.52c0,0-8.43-1.52-12.97,4.43-4.53,5.95-6.13,19.09-6.13,19.09Z" fill="#ff725e" stroke-width="0"/><path d="M207.46,392.67c0,13.79,1.62,47.05,44.21,50.29h-19.47l-.83,28.74c0,0,119.87,2.93,123.6,2.98c7.18.12,24.44-8.6,27.68-30.1s-14.6-28.38-19.87-32.47c-5.27-4.1-64.49-24.74-87.2-28.79l-66.51,6.48-1.62,2.87h.01Z" fill="#263238" stroke-width="0"/><path d="M381.33,312.72c-1.49-2.04-3.39-3.76-5.57-5.04-2.18-1.29-4.6-2.12-7.1-2.44-9.64-1.4-19.45.69-27.69,5.89-13.16,8.45-64.02,74.81-64.02,74.81l86.37,33.3c0,0,21.29-65.51,23.76-76.55c2.08-9.25,1.61-19.86-5.76-29.97h.01Z" fill="#263238" stroke-width="0"/><path d="M321.33,396.27c.03-.26.08-.53.16-.78.13-.55.32-1.29.55-2.23.23-.93.55-2.15.96-3.51.41-1.37.82-2.91,1.38-4.6.57-1.69,1.14-3.59,1.87-5.53s1.51-4.06,2.36-6.29c1.8-4.36,3.91-9.1,6.4-13.94c2.5-4.84,5.17-9.29,7.72-13.25c1.3-1.97,2.54-3.84,3.78-5.52c1.24-1.69,2.4-3.27,3.48-4.68c1.09-1.41,2.12-2.69,3.01-3.75s1.7-2.02,2.36-2.77l1.53-1.71c.17-.2.36-.39.56-.58-.14.23-.3.44-.49.64l-1.46,1.8c-.64.75-1.43,1.69-2.29,2.8s-1.91,2.35-2.95,3.79-2.25,2.97-3.43,4.71c-1.18,1.73-2.44,3.59-3.73,5.53-2.53,3.97-5.17,8.42-7.68,13.24s-4.62,9.54-6.41,13.88c-.9,2.19-1.71,4.26-2.41,6.23-.69,1.98-1.36,3.81-1.91,5.5-.56,1.69-1.03,3.22-1.45,4.58s-.75,2.51-1.02,3.48-.49,1.66-.64,2.2c-.07.26-.15.51-.25.76Z" fill="#455a64" stroke-width="0"/><path d="M217.93,343.57c0,0-2.76-46.26-3.59-57.71-.83-11.46-1.54-33.6,7.94-43.48s16.08-11.47,16.08-11.47l38.61,17.2c0,0,21.92,31.08,21.92,44.9s-14.31,55.33-14.31,55.33l-66.65-4.77Z" fill="#455a64" stroke-width="0"/><path d="M264.1,281.24l-.21-1.72l35.02,1.15c0,0,3.86,12.71-1.62,33.33-2.19,8.24-10.15,39.06-10.15,39.06l4.07,25.04l28.59,17.92c0,0-19.49,1.8-30.96,14.82s-19.76,34.78-19.76,34.78-63.38.33-62.54-40.17c0-6.14.9-12.25,2.69-18.12l9.47-29.1l1.15-14.48c0,0,20.39-2.21,22.97-9.63s21.26-52.87,21.26-52.87l.02-.01Z" fill="#ff725e" stroke-width="0"/><path d="M368.77,416.04c-.18-.06-.35-.12-.52-.21l-1.43-.67c-1.25-.58-3.05-1.42-5.31-2.4-4.49-1.99-10.78-4.49-17.8-7.18s-13.41-4.95-18.04-6.59l-5.48-1.96-1.49-.55c-.18-.05-.34-.13-.5-.23.18.02.37.07.54.14l1.51.47c1.31.41,3.21,1.02,5.53,1.8c4.66,1.57,11.08,3.81,18.1,6.47s13.3,5.26,17.76,7.32c2.24,1.02,4.02,1.9,5.24,2.54.57.3,1.04.55,1.4.74.17.08.33.18.48.31h.01Z" fill="#455a64" stroke-width="0"/><path d="M334.66,449.82c0,.13-14.65-.99-32.71-2.5-18.05-1.51-32.69-2.84-32.67-2.96.02-.13,14.65.99,32.71,2.5s32.68,2.79,32.67,2.96Z" fill="#455a64" stroke-width="0"/><path d="M247.02,400.47c.07-.16.17-.31.28-.45l.9-1.22c.39-.54.9-1.17,1.45-1.9.56-.74,1.24-1.56,2-2.46c5.94-7.58,14.34-12.85,23.75-14.91c2.69-.6,5.42-1.01,8.17-1.24l3.17-.21h3.92c.17-.02.35-.02.52,0-.17.04-.35.06-.52.06l-1.51.08-2.39.1-3.15.28c-2.72.27-5.42.71-8.08,1.33-3.27.78-6.44,1.91-9.46,3.38-5.41,2.82-10.22,6.68-14.15,11.35-.77.9-1.46,1.68-2.05,2.41-.58.73-1.11,1.34-1.52,1.85l-.95,1.18c-.12.14-.24.27-.39.39l.01-.02Z" fill="#263238" stroke-width="0"/><path d="M219.54,358.87c.11.11-.83,1.33-2.82,3.3-2.82,2.76-5.89,5.26-9.17,7.46-1.03.71-2.15,1.41-3.31,2.12-.58.35-1.2.7-1.8,1.05-.67.4-1.37.73-2.1,1-.44.14-.89.22-1.35.24-.52.02-1.04-.07-1.52-.28-.5-.21-.95-.55-1.29-.97-.4-.49-.61-1.1-.6-1.73.03-.59.24-1.17.59-1.64.26-.38.57-.72.9-1.04l1.8-1.68c2.49-2.49,5.27-4.66,8.29-6.48c3.38-2.03,7.31-2.97,11.24-2.69h.18l-.45,2.29c-6.9-1.9-13.61-4.44-20.03-7.6-.37-.18-.74-.36-1.1-.55s-.73-.35-1.15-.61c-.5-.3-.92-.73-1.2-1.24-.15-.29-.24-.61-.26-.94-.03-.33.02-.66.12-.97.17-.54.48-1.03.9-1.41.4-.33.86-.58,1.36-.73.81-.22,1.65-.3,2.49-.25c2.81.03,5.6.6,8.19,1.69c3.74,1.52,6.99,4.04,9.39,7.29c1.64,2.31,2.09,3.83,1.98,3.87-.11.05-.9-1.27-2.69-3.3-2.53-2.85-5.74-5.02-9.32-6.31-2.42-.9-4.99-1.34-7.58-1.28-.64-.03-1.28.04-1.9.21-.23.07-.44.18-.62.34-.15.13-.26.3-.32.49-.02.06-.04.11-.04.18s.01.12.04.17c.13.17.29.31.48.41.25.15.61.31.98.49l1.09.51c6.36,2.99,12.97,5.42,19.76,7.28l-.44,2.29h-.15c-3.46-.23-6.9.6-9.88,2.37-2.87,1.7-5.54,3.73-7.94,6.05l-1.8,1.64c-.57.5-.9.98-.9,1.23s.21.59.65.79c.21.1.43.15.67.14.28,0,.55-.05.82-.13.62-.21,1.23-.47,1.8-.8.61-.32,1.21-.64,1.8-.96c1.18-.65,2.28-1.29,3.32-1.94c3.3-2.05,6.46-4.31,9.46-6.76c2.16-1.75,3.32-2.76,3.44-2.63l-.01.02Z" fill="#ff725e" stroke-width="0"/><path d="M233.48,232.98c0-.07.17-.21.57-.39.25-.12.51-.23.77-.31l1.1-.26c2.42-.3,4.88.09,7.08,1.12c3.22,1.48,6.15,3.52,8.65,6.03c3.05,2.99,5.76,6.3,8.08,9.88c4.24,6.46,7.52,13.49,9.74,20.89c1.66,5.68,1.99,9.34,1.71,9.39-.29.05-1.25-3.43-3.28-8.86-2.62-7.06-6.02-13.82-10.13-20.13-4.8-7.33-10.45-13.17-15.48-15.72-1.93-1.05-4.09-1.64-6.29-1.71h-1.05c-.3,0-.56.06-.77.07-.45.11-.69.09-.72,0h.02Z" fill="#ff725e" stroke-width="0"/><path d="M289.51,367.82h-.25l-.74-.04c-.65,0-1.62-.14-2.87-.16-3.51-.15-7.03-.08-10.53.22-5.2.44-10.35,1.36-15.37,2.76-2.83.8-5.77,1.74-8.76,2.91-2.98,1.17-6.01,2.52-9.03,4.06-13.5,7.01-24.97,17.35-33.33,30.06-.71,1.03-1.19,1.87-1.55,2.42l-.41.63c-.04.07-.09.14-.15.21l.12-.23.37-.65c.34-.57.79-1.42,1.48-2.47c1.88-2.98,3.95-5.84,6.21-8.56c7.46-9,16.66-16.41,27.05-21.77c3.05-1.55,6.09-2.9,9.09-4.08c2.89-1.11,5.83-2.08,8.81-2.89c5.05-1.39,10.23-2.29,15.46-2.69c3.52-.27,7.05-.29,10.58-.06c1.25.05,2.21.2,2.86.25l.74.08.27.03-.05-.03Z" fill="#fff" stroke-width="0"/><path d="M287.89,357.89c-.25.04-.49.06-.74.07l-2.15.12c-.9.04-2.07.11-3.39.2s-2.83.17-4.49.32c-3.33.24-7.28.65-11.67,1.16s-9.18,1.24-14.19,2.12-9.76,1.88-14.06,2.87-8.14,1.98-11.36,2.88c-1.62.43-3.05.9-4.33,1.24-1.27.34-2.37.7-3.26.98l-2.06.61c-.24.09-.48.15-.73.19.22-.11.45-.2.69-.28l2.04-.7c.9-.31,1.97-.67,3.23-1.05c1.27-.39,2.69-.85,4.32-1.3c3.21-.95,7.05-1.96,11.35-2.99s9.06-2.01,14.08-2.91s9.88-1.55,14.22-2.07s8.36-.9,11.67-1.07c1.67-.13,3.18-.19,4.49-.25s2.47-.1,3.4-.12h2.15c.26-.03.52-.03.78,0l.01-.02Z" fill="#fff" stroke-width="0"/><path d="M287.48,349.56c0,.14-15.32.66-34.22,1.18s-34.24.83-34.25.7c0-.13,15.32-.65,34.23-1.17c18.91-.51,34.24-.83,34.24-.71Z" fill="#fff" stroke-width="0"/><path d="M289.54,334.55c0,.12-10.96.9-24.47,1.68-13.52.78-24.49,1.33-24.5,1.2c0-.12,10.95-.9,24.47-1.67s24.49-1.34,24.5-1.21Z" fill="#fff" stroke-width="0"/><path d="M300.34,290.75c0,.13-8.17.11-18.25-.05-10.08-.15-18.25-.39-18.25-.52s8.17-.11,18.26.05s18.25.38,18.24.51v.01Z" fill="#fff" stroke-width="0"/><path d="M298.95,302.85c-.5.07-1,.1-1.51.09-.97,0-2.37.04-4.1.04-3.48,0-8.27-.1-13.55-.39-5.28-.3-10.08-.71-13.52-1.09-1.72-.19-3.12-.36-4.08-.49-.51-.04-1.01-.13-1.5-.26.5-.02,1.01,0,1.51.07l4.09.35c3.46.29,8.23.66,13.47.9s10.07.45,13.53.53l4.1.11c.52,0,1.04.06,1.55.14h.01Z" fill="#fff" stroke-width="0"/><path d="M297.21,315.12c0,.13-9.88-.08-22.08-.48s-22.06-.83-22.06-.95s9.88.09,22.08.48c12.2.4,22.06.77,22.06.94v.01Z" fill="#fff" stroke-width="0"/><path d="M259.49,386.34c-.16.13-.34.25-.52.36l-1.52.96c-.66.41-1.47.9-2.39,1.55s-1.98,1.3-3.12,2.13l-1.8,1.27-1.89,1.45c-1.32.98-2.69,2.12-4.08,3.29-2.8,2.41-5.78,5.16-8.72,8.24-2.74,2.92-5.32,5.98-7.75,9.16-1.08,1.5-2.15,2.89-3.04,4.27L223.35,421c-.4.65-.78,1.27-1.15,1.87-.76,1.18-1.36,2.29-1.9,3.25s-1,1.8-1.35,2.51-.63,1.19-.83,1.59c-.09.19-.2.38-.32.55.05-.2.13-.4.23-.58l.76-1.64c.32-.72.75-1.57,1.28-2.55.54-.98,1.11-2.11,1.84-3.3l1.13-1.89c.4-.66.84-1.31,1.29-2c.9-1.39,1.94-2.8,3.02-4.31c2.41-3.22,5-6.3,7.75-9.23c2.78-2.9,5.71-5.66,8.78-8.25c1.44-1.16,2.78-2.29,4.12-3.26.66-.49,1.28-.98,1.9-1.43l1.8-1.26c1.14-.82,2.23-1.47,3.16-2.08.93-.6,1.8-1.1,2.43-1.48l1.57-.9c.19-.11.38-.21.59-.27h.04Z" fill="#fff" stroke-width="0"/><path d="M295.89,381.47c-.06.05-.13.08-.2.11l-.61.25-2.34.9-1.69.67-1.97.9c-1.41.66-3.04,1.34-4.75,2.29l-2.69,1.43c-.9.5-1.88,1.1-2.86,1.68-2,1.13-4.01,2.55-6.16,3.98-9.2,6.44-17.28,14.37-23.89,23.45-1.46,2.13-2.92,4.1-4.08,6.1-.59.98-1.2,1.91-1.72,2.84l-1.46,2.69c-.97,1.7-1.67,3.32-2.34,4.72l-.9,1.96-.68,1.7-.95,2.33-.26.6c-.03.07-.06.14-.11.21.02-.07.04-.14.06-.21.05-.17.13-.37.22-.62l.9-2.37.65-1.71c.25-.62.57-1.27.9-1.98.65-1.42,1.33-3.06,2.29-4.77l1.44-2.69c.52-.9,1.12-1.87,1.71-2.86c1.15-2,2.6-4.01,4.06-6.14c6.59-9.14,14.68-17.11,23.93-23.55c2.16-1.43,4.19-2.85,6.21-3.96c1-.58,1.94-1.17,2.89-1.67l2.74-1.4c1.72-.9,3.38-1.6,4.79-2.23.72-.31,1.37-.61,1.99-.9l1.72-.63l2.38-.85.62-.13.18-.1-.02-.04Z" fill="#fff" stroke-width="0"/><path d="M308.84,389.28c-.24.13-.48.24-.74.33l-2.14.9-1.54.6c-.56.23-1.15.53-1.8.82-1.28.61-2.77,1.22-4.32,2.1l-2.46,1.32c-.9.46-1.7,1.02-2.6,1.56-1.8,1.05-3.59,2.37-5.56,3.72-4.1,3.04-7.94,6.43-11.47,10.12-3.47,3.74-6.63,7.77-9.45,12.03-1.24,1.99-2.45,3.88-3.4,5.75-.48.9-1.01,1.8-1.43,2.69l-1.19,2.42c-.81,1.59-1.35,3.12-1.89,4.42-.26.66-.52,1.27-.73,1.8l-.54,1.57c-.31.9-.57,1.63-.75,2.17-.08.26-.18.51-.3.74.05-.26.12-.52.21-.77.16-.55.39-1.28.67-2.2l.49-1.59c.2-.57.45-1.18.7-1.85.53-1.32,1.04-2.85,1.8-4.49l1.17-2.55c.4-.9.9-1.8,1.41-2.69.9-1.88,2.15-3.78,3.38-5.8c2.81-4.3,5.98-8.35,9.46-12.11c3.55-3.71,7.42-7.11,11.56-10.15c1.95-1.35,3.77-2.69,5.6-3.7.9-.53,1.75-1.1,2.62-1.55l2.49-1.3c1.57-.9,3.08-1.45,4.37-2.05.65-.28,1.25-.56,1.8-.78l1.56-.57l2.17-.77c.27-.07.54-.12.82-.15l.03.01Z" fill="#fff" stroke-width="0"/><g opacity="0.3"><path d="M226.77,294.55c0,0,20.75,60.84,27.95,65.21c7.19,4.37,32.71-4.77,32.71-4.77l1.38-8.52-46.51-56.29-15.53,4.36v.01Z" stroke-width="0"/></g><path d="M214.51,470.97l-4.89-2.16c0,0-40.58,16.16-46.7,11.23l54.36-59.47l18.4,26.39c-12.21,5.04-16,10.04-21.17,24.01Z" fill="#263238" stroke-width="0"/><g opacity="0.6"><path d="M224.77,439.94c.34-.74.4-1.59.17-2.37s-.75-1.46-1.45-1.89c-.72-.39-1.56-.48-2.34-.26-.79.22-1.45.73-1.87,1.43-.76,1.43-.13,3.84,1.37,4.49s3.85-.13,4.24-1.7" fill="#fff" stroke-width="0"/></g><g opacity="0.6"><path d="M217.31,420.57l3.68,5.21L168.2,480.5c0,0-3.59,1.57-5.21-.46l54.32-59.47Z" fill="#fff" stroke-width="0"/></g><path d="M207.22,469.38c-.29-.28.9-1.85,1.27-4.15s-.19-4.18.17-4.35c.36-.16,1.67,1.8,1.19,4.6s-2.42,4.21-2.63,3.9Z" fill="#455a64" stroke-width="0"/><path d="M200.06,471.79c-.34-.19.3-1.9-.05-4.03s-1.4-3.59-1.13-3.9s2.12,1.06,2.5,3.72-1.03,4.46-1.32,4.21Z" fill="#455a64" stroke-width="0"/><path d="M189.64,468.18c.18-.32,2.03.62,2.96,2.85s.33,4.17,0,4.07-.45-1.73-1.25-3.55c-.8-1.81-1.95-3.05-1.72-3.37h.01Z" fill="#455a64" stroke-width="0"/><path d="M393.38,189.22c-2.49-1.65-3.41-4.88-3.5-7.88-.09-2.99.45-5.99.06-8.98-.31-2.38.13-4.88.32-7.27.36-4.71,3.14-5.39,5.14-9.68c1.99-4.29-1-5.39.07-7.18.52-.9,1.99-.57,2.91-.12.89.51,1.66,1.21,2.26,2.04c3.22,3.87,6.02,8.61,5.57,13.63-.23,2.5-1.25,4.84-1.8,7.29-.83,3.83-.54,8.08-2.5,11.45-1.8,3.18-5.24,5.03-8.49,6.72" fill="#455a64" stroke-width="0"/><path d="M389.31,204.32c1-6.54-2.18-14.54-6.93-19.15-2.01-1.96-4.49-3.59-5.85-5.99-1.59-2.81-1.55-6.34-3.21-9.1-2.5-4.13-7.93-5.25-12.74-5.53s-14.97-5.94-13.88-3.22c3.59,10.31,2.8,9.73,15.58,19.18c5.24,3.88.45,15.45,14.97,19.94c4,1.24,8.9,1.15,11.96,3.98" fill="#455a64" stroke-width="0"/><path d="M406.34,252.91c-7.45,2.92-13.71,8.25-17.79,15.13l-1.71,2.86c.73-1.04,2.33-1.13,3.65-1.28c2.48-.31,4.79-1.41,6.59-3.13c1.01-1.19,2.12-2.29,3.31-3.29c1.21-.71,2.48-1.32,3.8-1.8c2.88-1.28,5.26-3.5,8.08-4.88c2.82-1.37,6.18-1.89,9.32-2.69c3.14-.81,6.34-2.02,8.41-4.49-7.88.39-16.29.74-23.68,3.57h.02Z" fill="#455a64" stroke-width="0"/><path d="M417.72,212.74c-2.69,1.26-4.59,3.87-7.25,5.22-2.41,1.21-5.2,1.28-7.81,1.92-6.29,1.52-14.03,13.14-18.25,18.96c1.7-.09,5.07-1.51,8.19-1.46s7.23-.83,10.33-1.16c10.18-1.06,15.08-6.02,22.78-12.57c4.63-3.94,10.21-5.53,13.15-10.87-6.56,2.9-14.63-3.04-21.14-.04Z" fill="#455a64" stroke-width="0"/><path d="M389.27,209.92c3.59-10.4,12.93-18.39,22.81-23.2c10.03-4.82,21.55-5.51,32.08-1.92-5.92,7.78-11.92,8.76-21.43,11.01-1.63.39-5.73-.83-8.7,1.3-1.19.85-1.47,4.29-8.37,5.57s-12.57,2.63-16.39,7.25v-.01Z" fill="#455a64" stroke-width="0"/><path d="M396.79,167.39c.01.11.01.22,0,.33v2.61c0,.64-.06,1.37-.11,2.2-.33,4.67-1.04,9.31-2.13,13.86-1.29,5.79-3.38,12.57-5.68,20.02-2.58,8.09-4.69,16.31-6.33,24.64-2.95,15.14-4.23,30.57-3.82,45.99.14,5.92.57,10.69.82,13.99.17,1.62.3,2.9.39,3.79c0,.41.06.75.08.99c0,.11,0,.23,0,.34-.92-6.33-1.47-12.71-1.62-19.1-.52-15.45.72-30.91,3.68-46.09c1.64-8.34,3.77-16.58,6.38-24.68c2.33-7.47,4.45-14.2,5.77-19.96c1.11-4.54,1.87-9.16,2.27-13.81.05-.82.11-1.55.15-2.19.05-.64,0-1.17.05-1.61s0-.75,0-1c.03-.11.06-.22.1-.33v.01Z" fill="#263238" stroke-width="0"/><path d="M433.83,186.09c-.2.04-.39.07-.59.07-.39,0-.95,0-1.69.11-1.46.11-3.59.32-6.17.76-3.03.51-6.01,1.25-8.93,2.22-3.58,1.16-7,2.75-10.19,4.73-5.74,3.73-10.85,8.35-15.11,13.7-1.64,2.06-2.85,3.8-3.65,5.03-.42.61-.71,1.11-.9,1.42-.1.17-.22.34-.35.48.07-.18.16-.36.27-.53.19-.34.46-.84.85-1.46c1.08-1.78,2.26-3.5,3.54-5.14c4.22-5.45,9.34-10.15,15.12-13.89c3.23-2.01,6.69-3.6,10.31-4.74c2.93-.96,5.93-1.67,8.98-2.15c2.06-.32,4.13-.53,6.21-.61h1.7c.2-.02.4-.02.59,0h.01Z" fill="#263238" stroke-width="0"/><path d="M357.22,169.72c.17.01.33.05.48.11.31.09.77.23,1.36.44c1.65.59,3.25,1.33,4.76,2.22c1.07.6,2.03,1.39,2.83,2.33.82,1.13,1.54,2.33,2.15,3.59.67,1.38,1.27,2.79,1.8,4.23.47,1.56,1.01,3.1,1.64,4.6c1.53,2.99,4.28,4.83,6.6,6.56c2.12,1.51,4.11,3.19,5.94,5.03c1.24,1.26,2.38,2.61,3.42,4.04l.81,1.17c.11.13.2.27.26.43-.12-.11-.24-.24-.33-.38l-.9-1.11c-1.08-1.36-2.24-2.66-3.48-3.89-1.86-1.79-3.85-3.43-5.96-4.91-1.26-.88-2.48-1.82-3.65-2.82-1.28-1.09-2.34-2.4-3.12-3.88-.63-1.52-1.18-3.08-1.65-4.66-.53-1.43-1.12-2.83-1.8-4.19-.59-1.24-1.28-2.42-2.06-3.54-.76-.91-1.67-1.69-2.69-2.29-1.49-.9-3.05-1.68-4.66-2.33l-1.32-.52c-.15-.06-.29-.14-.42-.22l-.01-.01Z" fill="#263238" stroke-width="0"/><path d="M424.93,217.85c-.12.12-.26.23-.4.33l-1.2.9c-1.05.74-2.58,1.8-4.54,3.07-2.28,1.47-4.69,2.74-7.18,3.8-2.85,1.18-6.09,2.09-9.42,3.21-5.69,1.95-11.02,4.82-15.78,8.5-1.86,1.37-3.33,2.52-4.36,3.31-.48.36-.9.66-1.19.9-.14.11-.28.21-.44.29.11-.14.24-.26.38-.37l1.13-.96c1-.83,2.43-2.02,4.27-3.43c4.72-3.79,10.07-6.73,15.79-8.69c3.35-1.12,6.59-2.02,9.4-3.17c2.49-1.03,4.89-2.26,7.18-3.68c1.97-1.2,3.52-2.24,4.61-2.94l1.25-.81c.15-.11.31-.19.49-.25l.01-.01Z" fill="#263238" stroke-width="0"/><path d="M378.84,236.09c-4.72-5.05-3.53-13.86-8.58-18.57-3.14-2.92-7.94-3.43-11.23-6.21-2.15-1.8-3.46-4.43-5.5-6.35-3.84-3.59-9.55-4.22-14.83-4.63.49,5.09,2.3,9.97,5.25,14.14c2.95,4.18,6.94,7.51,11.58,9.67c2.23,1.01,4.67,1.8,6.38,3.54c1.18,1.22,1.9,2.83,2.99,4.14c1.76,1.98,4.09,3.36,6.67,3.93c2.56.57,5.18.87,7.8.9" fill="#455a64" stroke-width="0"/><path d="M348.3,206.69c0,0,.3.58.9,1.55.86,1.38,1.89,2.63,3.08,3.74c1.78,1.63,3.68,3.12,5.7,4.45c2.25,1.54,4.77,3.22,7.18,5.23c4.15,3.46,7.99,7.28,11.49,11.4c1.36,1.57,2.41,2.87,3.12,3.78.33.42.59.77.82,1.05.1.12.19.26.26.4c0,0-.14-.11-.33-.33l-.9-1-3.23-3.68c-3.55-4.04-7.41-7.79-11.53-11.24-2.42-2.01-4.9-3.69-7.18-5.25-2.02-1.35-3.93-2.87-5.68-4.55-1.18-1.15-2.2-2.46-3.02-3.89-.23-.39-.42-.79-.58-1.2-.05-.14-.08-.29-.09-.44l-.01-.02Z" fill="#263238" stroke-width="0"/><path d="M373.38,262.19c-.14-3.74-1.32-7.67-4.44-9.68-1.33-.9-2.89-1.38-4.08-2.44-1.05-1.14-1.95-2.4-2.69-3.76-2.51-3.72-6.51-6.1-10.38-8.35l-4.58-2.69c-.43-.33-.97-.49-1.51-.44-.25.08-.47.22-.65.41s-.3.43-.36.68c-.1.51-.1,1.04,0,1.55.37,3.11.97,6.18,1.8,9.2.71,2.61,1.65,5.27,3.59,7.18c2.14,2.13,5.18,3.02,7.78,4.55c2.21,1.29,4.15,3.09,6.56,3.96c2.79,1.01,6.07.23,8.98-.18" fill="#455a64" stroke-width="0"/><path d="M350.65,243.09c.33.34.63.7.9,1.09l2.42,3.04c2.6,3.38,5.65,6.38,9.09,8.91c2,1.23,4.06,2.36,6.17,3.38c1.94.99,3.66,1.92,5.07,2.79c1.12.67,2.17,1.45,3.15,2.31.27.23.52.48.75.75.09.09.17.18.23.29c0,0-.39-.33-1.11-.9-1.01-.8-2.08-1.53-3.21-2.16-1.41-.83-3.14-1.72-5.09-2.69-2.14-1.01-4.22-2.13-6.23-3.38-3.48-2.54-6.55-5.61-9.1-9.09-1-1.3-1.8-2.39-2.31-3.13-.28-.38-.53-.78-.74-1.2l.01-.01Z" fill="#263238" stroke-width="0"/><path d="M405.34,256.24c-.4.3-.82.57-1.27.8-.42.23-.9.53-1.51.9s-1.25.76-1.96,1.25c-1.45.9-3.1,2.14-4.88,3.55-1.92,1.55-3.74,3.2-5.48,4.96-1.72,1.76-3.34,3.62-4.86,5.56-1.38,1.8-2.56,3.48-3.47,4.94-.49.72-.9,1.4-1.21,1.99-.31.58-.65,1.1-.9,1.52-.21.45-.47.88-.77,1.29.17-.47.37-.93.61-1.37.21-.44.48-.97.81-1.57s.7-1.29,1.16-2.02c1.05-1.74,2.18-3.41,3.4-5.03c1.51-1.97,3.14-3.85,4.87-5.63c1.75-1.76,3.6-3.42,5.55-4.96c1.59-1.25,3.25-2.42,4.97-3.49.72-.48,1.41-.85,2-1.19s1.11-.62,1.55-.83c.44-.25.9-.46,1.37-.64l.02-.03Z" fill="#263238" stroke-width="0"/><path d="M390.58,300.44c-1.25-3.35-2.76-6.61-4.49-9.74-1.74-2.97-4.27-5.91-7.69-6.29-1.28-.08-2.56.11-3.76.57s-2.29,1.17-3.19,2.08c-1.79,1.83-3.3,3.92-4.49,6.19-2.17,3.7-4.35,7.4-6.53,11.1l3.59,4.88c6.49,2.5,13.6,2.95,20.36,1.29c3.23-.81,6.85-2.74,7.1-6.06c0-1.39-.3-2.77-.91-4.02h.01Z" fill="#a87058" stroke-width="0"/><path d="M381.5,298.12c0,0-5.96-2.11-8.38-2.64s-13.07-.66-14.58-.53c-1.52.13-17.57,11.33-17.57,11.33l5.93,13.62l3.3-1.23c0,0,13.47,3.17,19.28,3.8s12.57.9,15.72,0s9.23-4.66,9.23-4.66.25-1.8-3.17-1.65c-3.42.14-6.72,1.14-8.24,1.14s-7.1-.5-7.1-.5l12.3-1.14l9.88-6.65-1.02-2.23c0,0,2.28-1.39,2.03-2.54s-1.9-2.41-4.06-2.15c-2.15.25-8.98,1.53-8.98,1.53s-9.88.5-14.58-.25c-4.71-.75-6.47-1.9-6.47-1.9l6.85-.12c0,0,5.2,1.52,8.24.25s1.39-3.46,1.39-3.46v-.02Z" fill="#ffbf9d" stroke-width="0"/><path d="M372.71,311.11c.32-.08.65-.12.99-.11l2.69-.16c2.27-.15,5.39-.46,8.83-1.02c3.44-.57,6.48-1.3,8.68-1.9l2.6-.72c.31-.12.64-.19.97-.22-.28.17-.58.3-.9.39-.59.23-1.47.52-2.57.9-5.71,1.73-11.62,2.71-17.58,2.93h-2.69c-.34,0-.69-.03-1.02-.1v.01Z" fill="#ff9a6c" stroke-width="0"/><path d="M222.9,269.5c0,0,25.14,83.61,39.17,85.43s84.8-35.02,84.8-35.02l-5.9-13.62-65.39,17.25c0,0-14.08-51.76-16.34-60.39s-13.62-29.98-21.8-26.8-17.71,16.34-14.53,33.15h-.01Z" fill="#ffbf9d" stroke-width="0"/><path d="M223.47,295.48l44.95-12.63c0,0-12.57-59.75-38.61-45.2-18.23,10.12-6.34,57.83-6.34,57.83Z" fill="#455a64" stroke-width="0"/><path d="M223.14,296.03l-.11-.45c-1.92-8.28-3.14-16.71-3.65-25.19-.94-17.69,2.49-28.84,10.19-33.15c4.89-2.69,9.67-3.07,14.21-1c7.04,3.21,13.42,12.01,18.93,26.19c2.54,6.62,4.6,13.43,6.15,20.35l.09.41-45.81,12.83v.01Zm14.64-60.22c-2.74.06-5.43.82-7.8,2.22-16.75,9.36-7.33,52.02-6.19,56.89l44.07-12.38c-1.55-6.72-3.57-13.32-6.05-19.76-3.73-9.59-9.96-21.83-18.45-25.69-1.75-.82-3.65-1.26-5.59-1.27l.01-.01Z" fill="#263238" stroke-width="0"/></g>
<script><![CDATA[
!function(t,n){"object"==typeof exports&&"undefined"!=typeof module?module.exports=n():"function"==typeof __SVGATOR_DEFINE__&&__SVGATOR_DEFINE__.amd?__SVGATOR_DEFINE__(n):((t="undefined"!=typeof globalThis?globalThis:t||self).__SVGATOR_PLAYER__=t.__SVGATOR_PLAYER__||{},t.__SVGATOR_PLAYER__["5c7f360c"]=n())}(this,(function(){"use strict";function t(t,n){var e=Object.keys(t);if(Object.getOwnPropertySymbols){var r=Object.getOwnPropertySymbols(t);n&&(r=r.filter((function(n){return Object.getOwnPropertyDescriptor(t,n).enumerable}))),e.push.apply(e,r)}return e}function n(n){for(var e=1;e<arguments.length;e++){var r=null!=arguments[e]?arguments[e]:{};e%2?t(Object(r),!0).forEach((function(t){u(n,t,r[t])})):Object.getOwnPropertyDescriptors?Object.defineProperties(n,Object.getOwnPropertyDescriptors(r)):t(Object(r)).forEach((function(t){Object.defineProperty(n,t,Object.getOwnPropertyDescriptor(r,t))}))}return n}function e(t){return(e="function"==typeof Symbol&&"symbol"==typeof Symbol.iterator?function(t){return typeof t}:function(t){return t&&"function"==typeof Symbol&&t.constructor===Symbol&&t!==Symbol.prototype?"symbol":typeof t})(t)}function r(t,n){if(!(t instanceof n))throw new TypeError("Cannot call a class as a function")}function i(t,n){for(var e=0;e<n.length;e++){var r=n[e];r.enumerable=r.enumerable||!1,r.configurable=!0,"value"in r&&(r.writable=!0),Object.defineProperty(t,r.key,r)}}function o(t,n,e){return n&&i(t.prototype,n),e&&i(t,e),t}function u(t,n,e){return n in t?Object.defineProperty(t,n,{value:e,enumerable:!0,configurable:!0,writable:!0}):t[n]=e,t}function a(t){return(a=Object.setPrototypeOf?Object.getPrototypeOf:function(t){return t.__proto__||Object.getPrototypeOf(t)})(t)}function l(t,n){return(l=Object.setPrototypeOf||function(t,n){return t.__proto__=n,t})(t,n)}function s(){if("undefined"==typeof Reflect||!Reflect.construct)return!1;if(Reflect.construct.sham)return!1;if("function"==typeof Proxy)return!0;try{return Boolean.prototype.valueOf.call(Reflect.construct(Boolean,[],(function(){}))),!0}catch(t){return!1}}function f(t,n,e){return(f=s()?Reflect.construct:function(t,n,e){var r=[null];r.push.apply(r,n);var i=new(Function.bind.apply(t,r));return e&&l(i,e.prototype),i}).apply(null,arguments)}function c(t,n){if(n&&("object"==typeof n||"function"==typeof n))return n;if(void 0!==n)throw new TypeError("Derived constructors may only return object or undefined");return function(t){if(void 0===t)throw new ReferenceError("this hasn't been initialised - super() hasn't been called");return t}(t)}function h(t,n,e){return(h="undefined"!=typeof Reflect&&Reflect.get?Reflect.get:function(t,n,e){var r=function(t,n){for(;!Object.prototype.hasOwnProperty.call(t,n)&&null!==(t=a(t)););return t}(t,n);if(r){var i=Object.getOwnPropertyDescriptor(r,n);return i.get?i.get.call(e):i.value}})(t,n,e||t)}function v(t){return function(t){if(Array.isArray(t))return y(t)}(t)||function(t){if("undefined"!=typeof Symbol&&null!=t[Symbol.iterator]||null!=t["@@iterator"])return Array.from(t)}(t)||function(t,n){if(!t)return;if("string"==typeof t)return y(t,n);var e=Object.prototype.toString.call(t).slice(8,-1);"Object"===e&&t.constructor&&(e=t.constructor.name);if("Map"===e||"Set"===e)return Array.from(t);if("Arguments"===e||/^(?:Ui|I)nt(?:8|16|32)(?:Clamped)?Array$/.test(e))return y(t,n)}(t)||function(){throw new TypeError("Invalid attempt to spread non-iterable instance.\nIn order to be iterable, non-array objects must have a [Symbol.iterator]() method.")}()}function y(t,n){(null==n||n>t.length)&&(n=t.length);for(var e=0,r=new Array(n);e<n;e++)r[e]=t[e];return r}function g(t,n,e){if(Number.isInteger(t))return t;var r=Math.pow(10,n);return Math[e]((+t+Number.EPSILON)*r)/r}Number.isInteger||(Number.isInteger=function(t){return"number"==typeof t&&isFinite(t)&&Math.floor(t)===t}),Number.EPSILON||(Number.EPSILON=2220446049250313e-31);var d=p(Math.pow(10,-6));function p(t){var n=arguments.length>1&&void 0!==arguments[1]?arguments[1]:6;return g(t,n,"round")}function m(t,n){var e=arguments.length>2&&void 0!==arguments[2]?arguments[2]:d;return Math.abs(t-n)<e}p(Math.pow(10,-2)),p(Math.pow(10,-4));var b=Math.PI/180;function w(t){return t}function A(t,n,e){var r=1-e;return 3*e*r*(t*r+n*e)+e*e*e}function _(){var t=arguments.length>0&&void 0!==arguments[0]?arguments[0]:0,n=arguments.length>1&&void 0!==arguments[1]?arguments[1]:0,e=arguments.length>2&&void 0!==arguments[2]?arguments[2]:1,r=arguments.length>3&&void 0!==arguments[3]?arguments[3]:1;return t<0||t>1||e<0||e>1?null:m(t,n)&&m(e,r)?w:function(i){if(i<=0)return t>0?i*n/t:0===n&&e>0?i*r/e:0;if(i>=1)return e<1?1+(i-1)*(r-1)/(e-1):1===e&&t<1?1+(i-1)*(n-1)/(t-1):1;for(var o,u=0,a=1;u<a;){var l=A(t,e,o=(u+a)/2);if(m(i,l))break;l<i?u=o:a=o}return A(n,r,o)}}function x(){return 1}function k(t){return 1===t?1:0}function S(){var t=arguments.length>0&&void 0!==arguments[0]?arguments[0]:1,n=arguments.length>1&&void 0!==arguments[1]?arguments[1]:0;if(1===t){if(0===n)return k;if(1===n)return x}var e=1/t;return function(t){return t>=1?1:(t+=n*e)-t%e}}var O=Math.sin,j=Math.cos,M=Math.acos,E=Math.asin,P=Math.tan,I=Math.atan2,R=Math.PI/180,F=180/Math.PI,N=Math.sqrt,T=function(){function t(){var n=arguments.length>0&&void 0!==arguments[0]?arguments[0]:1,e=arguments.length>1&&void 0!==arguments[1]?arguments[1]:0,i=arguments.length>2&&void 0!==arguments[2]?arguments[2]:0,o=arguments.length>3&&void 0!==arguments[3]?arguments[3]:1,u=arguments.length>4&&void 0!==arguments[4]?arguments[4]:0,a=arguments.length>5&&void 0!==arguments[5]?arguments[5]:0;r(this,t),this.m=[n,e,i,o,u,a],this.i=null,this.w=null,this.s=null}return o(t,[{key:"determinant",get:function(){var t=this.m;return t[0]*t[3]-t[1]*t[2]}},{key:"isIdentity",get:function(){if(null===this.i){var t=this.m;this.i=1===t[0]&&0===t[1]&&0===t[2]&&1===t[3]&&0===t[4]&&0===t[5]}return this.i}},{key:"point",value:function(t,n){var e=this.m;return{x:e[0]*t+e[2]*n+e[4],y:e[1]*t+e[3]*n+e[5]}}},{key:"translateSelf",value:function(){var t=arguments.length>0&&void 0!==arguments[0]?arguments[0]:0,n=arguments.length>1&&void 0!==arguments[1]?arguments[1]:0;if(!t&&!n)return this;var e=this.m;return e[4]+=e[0]*t+e[2]*n,e[5]+=e[1]*t+e[3]*n,this.w=this.s=this.i=null,this}},{key:"rotateSelf",value:function(){var t=arguments.length>0&&void 0!==arguments[0]?arguments[0]:0;if(t%=360){var n=O(t*=R),e=j(t),r=this.m,i=r[0],o=r[1];r[0]=i*e+r[2]*n,r[1]=o*e+r[3]*n,r[2]=r[2]*e-i*n,r[3]=r[3]*e-o*n,this.w=this.s=this.i=null}return this}},{key:"scaleSelf",value:function(){var t=arguments.length>0&&void 0!==arguments[0]?arguments[0]:1,n=arguments.length>1&&void 0!==arguments[1]?arguments[1]:1;if(1!==t||1!==n){var e=this.m;e[0]*=t,e[1]*=t,e[2]*=n,e[3]*=n,this.w=this.s=this.i=null}return this}},{key:"skewSelf",value:function(t,n){if(n%=360,(t%=360)||n){var e=this.m,r=e[0],i=e[1],o=e[2],u=e[3];t&&(t=P(t*R),e[2]+=r*t,e[3]+=i*t),n&&(n=P(n*R),e[0]+=o*n,e[1]+=u*n),this.w=this.s=this.i=null}return this}},{key:"resetSelf",value:function(){var t=arguments.length>0&&void 0!==arguments[0]?arguments[0]:1,n=arguments.length>1&&void 0!==arguments[1]?arguments[1]:0,e=arguments.length>2&&void 0!==arguments[2]?arguments[2]:0,r=arguments.length>3&&void 0!==arguments[3]?arguments[3]:1,i=arguments.length>4&&void 0!==arguments[4]?arguments[4]:0,o=arguments.length>5&&void 0!==arguments[5]?arguments[5]:0,u=this.m;return u[0]=t,u[1]=n,u[2]=e,u[3]=r,u[4]=i,u[5]=o,this.w=this.s=this.i=null,this}},{key:"recomposeSelf",value:function(){var t=arguments.length>0&&void 0!==arguments[0]?arguments[0]:null,n=arguments.length>1&&void 0!==arguments[1]?arguments[1]:null,e=arguments.length>2&&void 0!==arguments[2]?arguments[2]:null,r=arguments.length>3&&void 0!==arguments[3]?arguments[3]:null,i=arguments.length>4&&void 0!==arguments[4]?arguments[4]:null;return this.isIdentity||this.resetSelf(),t&&(t.x||t.y)&&this.translateSelf(t.x,t.y),n&&this.rotateSelf(n),e&&(e.x&&this.skewSelf(e.x,0),e.y&&this.skewSelf(0,e.y)),!r||1===r.x&&1===r.y||this.scaleSelf(r.x,r.y),i&&(i.x||i.y)&&this.translateSelf(i.x,i.y),this}},{key:"decompose",value:function(){var t=arguments.length>0&&void 0!==arguments[0]?arguments[0]:0,n=arguments.length>1&&void 0!==arguments[1]?arguments[1]:0,e=this.m,r=e[0]*e[0]+e[1]*e[1],i=[[e[0],e[1]],[e[2],e[3]]],o=N(r);if(0===o)return{origin:{x:p(e[4]),y:p(e[5])},translate:{x:p(t),y:p(n)},scale:{x:0,y:0},skew:{x:0,y:0},rotate:0};i[0][0]/=o,i[0][1]/=o;var u=e[0]*e[3]-e[1]*e[2]<0;u&&(o=-o);var a=i[0][0]*i[1][0]+i[0][1]*i[1][1];i[1][0]-=i[0][0]*a,i[1][1]-=i[0][1]*a;var l=N(i[1][0]*i[1][0]+i[1][1]*i[1][1]);if(0===l)return{origin:{x:p(e[4]),y:p(e[5])},translate:{x:p(t),y:p(n)},scale:{x:p(o),y:0},skew:{x:0,y:0},rotate:0};i[1][0]/=l,i[1][1]/=l,a/=l;var s=0;return i[1][1]<0?(s=M(i[1][1])*F,i[0][1]<0&&(s=360-s)):s=E(i[0][1])*F,u&&(s=-s),a=I(a,N(i[0][0]*i[0][0]+i[0][1]*i[0][1]))*F,u&&(a=-a),{origin:{x:p(e[4]),y:p(e[5])},translate:{x:p(t),y:p(n)},scale:{x:p(o),y:p(l)},skew:{x:p(a),y:0},rotate:p(s)}}},{key:"clone",value:function(){var t=this.m;return new this.constructor(t[0],t[1],t[2],t[3],t[4],t[5])}},{key:"toString",value:function(){var t=arguments.length>0&&void 0!==arguments[0]?arguments[0]:" ";if(null===this.s){var n=this.m.map((function(t){return p(t)}));1===n[0]&&0===n[1]&&0===n[2]&&1===n[3]?this.s="translate("+n[4]+t+n[5]+")":this.s="matrix("+n.join(t)+")"}return this.s}}],[{key:"create",value:function(t){return t?Array.isArray(t)?f(this,v(t)):t instanceof this?t.clone():(new this).recomposeSelf(t.origin,t.rotate,t.skew,t.scale,t.translate):new this}}]),t}();function q(t,n,e){return t>=.5?e:n}function B(t,n,e){return 0===t||n===e?n:t*(e-n)+n}function D(t,n,e){var r=B(t,n,e);return r<=0?0:r}function L(t,n,e){var r=B(t,n,e);return r<=0?0:r>=1?1:r}function C(t,n,e){return 0===t?n:1===t?e:{x:B(t,n.x,e.x),y:B(t,n.y,e.y)}}function V(t,n,e){var r=function(t,n,e){return Math.round(B(t,n,e))}(t,n,e);return r<=0?0:r>=255?255:r}function G(t,n,e){return 0===t?n:1===t?e:{r:V(t,n.r,e.r),g:V(t,n.g,e.g),b:V(t,n.b,e.b),a:B(t,null==n.a?1:n.a,null==e.a?1:e.a)}}function z(t,n){for(var e=[],r=0;r<t;r++)e.push(n);return e}function Y(t,n){if(--n<=0)return t;var e=(t=Object.assign([],t)).length;do{for(var r=0;r<e;r++)t.push(t[r])}while(--n>0);return t}var $,U=function(){function t(n){r(this,t),this.list=n,this.length=n.length}return o(t,[{key:"setAttribute",value:function(t,n){for(var e=this.list,r=0;r<this.length;r++)e[r].setAttribute(t,n)}},{key:"removeAttribute",value:function(t){for(var n=this.list,e=0;e<this.length;e++)n[e].removeAttribute(t)}},{key:"style",value:function(t,n){for(var e=this.list,r=0;r<this.length;r++)e[r].style[t]=n}}]),t}(),Q=/-./g,H=function(t,n){return n.toUpperCase()};function J(t){return"function"==typeof t?t:q}function Z(t){return t?"function"==typeof t?t:Array.isArray(t)?function(t){var n=arguments.length>1&&void 0!==arguments[1]?arguments[1]:w;if(!Array.isArray(t))return n;switch(t.length){case 1:return S(t[0])||n;case 2:return S(t[0],t[1])||n;case 4:return _(t[0],t[1],t[2],t[3])||n}return n}(t,null):function(t,n){var e=arguments.length>2&&void 0!==arguments[2]?arguments[2]:w;switch(t){case"linear":return w;case"steps":return S(n.steps||1,n.jump||0)||e;case"bezier":case"cubic-bezier":return _(n.x1||0,n.y1||0,n.x2||0,n.y2||0)||e}return e}(t.type,t.value,null):null}function K(t,n,e){var r=arguments.length>3&&void 0!==arguments[3]&&arguments[3],i=n.length-1;if(t<=n[0].t)return r?[0,0,n[0].v]:n[0].v;if(t>=n[i].t)return r?[i,1,n[i].v]:n[i].v;var o,u=n[0],a=null;for(o=1;o<=i;o++){if(!(t>n[o].t)){a=n[o];break}u=n[o]}return null==a?r?[i,1,n[i].v]:n[i].v:u.t===a.t?r?[o,1,a.v]:a.v:(t=(t-u.t)/(a.t-u.t),u.e&&(t=u.e(t)),r?[o,t,e(t,u.v,a.v)]:e(t,u.v,a.v))}function W(t,n){var e=arguments.length>2&&void 0!==arguments[2]?arguments[2]:null;return t&&t.length?"function"!=typeof n?null:("function"!=typeof e&&(e=null),function(r){var i=K(r,t,n);return null!=i&&e&&(i=e(i)),i}):null}function X(t,n){return t.t-n.t}function tt(t,n,r,i,o){var u,a="@"===r[0],l="#"===r[0],s=$[r],f=q;switch(a?(u=r.substr(1),r=u.replace(Q,H)):l&&(r=r.substr(1)),e(s)){case"function":if(f=s(i,o,K,Z,r,a,n,t),l)return f;break;case"string":f=W(i,J(s));break;case"object":if((f=W(i,J(s.i),s.f))&&"function"==typeof s.u)return s.u(n,f,r,a,t)}return f?function(t,n,e){if(arguments.length>3&&void 0!==arguments[3]&&arguments[3])return t instanceof U?function(r){return t.style(n,e(r))}:function(r){return t.style[n]=e(r)};if(Array.isArray(n)){var r=n.length;return function(i){var o=e(i);if(null==o)for(var u=0;u<r;u++)t[u].removeAttribute(n);else for(var a=0;a<r;a++)t[a].setAttribute(n,o)}}return function(r){var i=e(r);null==i?t.removeAttribute(n):t.setAttribute(n,i)}}(n,r,f,a):null}function nt(t,n,r,i){if(!i||"object"!==e(i))return null;var o=null,u=null;return Array.isArray(i)?u=function(t){if(!t||!t.length)return null;for(var n=0;n<t.length;n++)t[n].e&&(t[n].e=Z(t[n].e));return t.sort(X)}(i):(u=i.keys,o=i.data||null),u?tt(t,n,r,u,o):null}function et(t,n,e){if(!e)return null;var r=[];for(var i in e)if(e.hasOwnProperty(i)){var o=nt(t,n,i,e[i]);o&&r.push(o)}return r.length?r:null}function rt(t,n){if(!n.settings.duration||n.settings.duration<0)return null;var e,r,i,o,u,a=function(t,n){if(!n)return null;var e=[];if(Array.isArray(n))for(var r=n.length,i=0;i<r;i++){var o=n[i];if(2===o.length){var u=null;if("string"==typeof o[0])u=t.getElementById(o[0]);else if(Array.isArray(o[0])){u=[];for(var a=0;a<o[0].length;a++)if("string"==typeof o[0][a]){var l=t.getElementById(o[0][a]);l&&u.push(l)}u=u.length?1===u.length?u[0]:new U(u):null}if(u){var s=et(t,u,o[1]);s&&(e=e.concat(s))}}}else for(var f in n)if(n.hasOwnProperty(f)){var c=t.getElementById(f);if(c){var h=et(t,c,n[f]);h&&(e=e.concat(h))}}return e.length?e:null}(t,n.elements);return a?(e=a,r=n.settings,i=r.duration,o=e.length,u=null,function(t,n){var a=r.iterations||1/0,l=(r.alternate&&a%2==0)^r.direction>0?i:0,s=t%i,f=1+(t-s)/i;n*=r.direction,r.alternate&&f%2==0&&(n=-n);var c=!1;if(f>a)s=l,c=!0,-1===r.fill&&(s=r.direction>0?0:i);else if(n<0&&(s=i-s),s===u)return!1;u=s;for(var h=0;h<o;h++)e[h](s);return c}):null}function it(t,n){for(var e=n.querySelectorAll("svg"),r=0;r<e.length;r++)if(e[r].id===t.root&&!e[r].svgatorAnimation)return e[r].svgatorAnimation=!0,e[r];return null}function ot(t){var n=function(t){return t.shadowRoot};return document?Array.from(t.querySelectorAll(":not("+["a","area","audio","br","canvas","circle","datalist","embed","g","head","hr","iframe","img","input","link","object","path","polygon","rect","script","source","style","svg","title","track","video"].join()+")")).filter(n).map(n):[]}function ut(t){var n=arguments.length>1&&void 0!==arguments[1]?arguments[1]:document,e=arguments.length>2&&void 0!==arguments[2]?arguments[2]:0,r=it(t,n);if(r)return r;if(e>=20)return null;for(var i=ot(n),o=0;o<i.length;o++){var u=ut(t,i[o],e+1);if(u)return u}return null}function at(t,n){if($=n,!t||!t.root||!Array.isArray(t.animations))return null;var e=ut(t);if(!e)return null;var r=t.animations.map((function(t){return rt(e,t)})).filter((function(t){return!!t}));return r.length?{svg:e,animations:r,animationSettings:t.animationSettings,options:t.options||void 0}:null}function lt(t){var n=arguments.length>1&&void 0!==arguments[1]?arguments[1]:null,e=arguments.length>2&&void 0!==arguments[2]?arguments[2]:Number,r=arguments.length>3&&void 0!==arguments[3]?arguments[3]:"undefined"!=typeof BigInt&&BigInt,i="0x"+(t.replace(/[^0-9a-fA-F]+/g,"")||27);return n&&r&&e.isSafeInteger&&!e.isSafeInteger(+i)?e(r(i))%n+n:+i}function st(t,n,e){return!t||!e||n>t.length?t:t.substring(0,n)+st(t.substring(n+1),e,e)}function ft(t){var n=arguments.length>1&&void 0!==arguments[1]?arguments[1]:27;return!t||t%n?t%n:[0,1].includes(n)?n:ft(t/n,n)}function ct(t,n,e){if(t&&t.length){var r=lt(e),i=ft(r)+5,o=st(t,ft(r,5),i);return o=o.replace(/\x7c$/g,"==").replace(/\x2f$/g,"="),o=function(t,n,e){var r=+("0x"+t.substring(0,4));t=t.substring(4);for(var i=lt(n,r)%r+e%27,o=[],u=0;u<t.length;u+=2)if("|"!==t[u]){var a=+("0x"+t[u]+t[u+1])-i;o.push(a)}else{var l=+("0x"+t.substring(u+1,u+1+4))-i;u+=3,o.push(l)}return String.fromCharCode.apply(String,o)}(o=(o=atob(o)).replace(/[\x41-\x5A]/g,""),n,r),o=JSON.parse(o)}}var ht=[{key:"alternate",def:!1},{key:"fill",def:1},{key:"iterations",def:0},{key:"direction",def:1},{key:"speed",def:1},{key:"fps",def:100}],vt=function(){function t(n,e){var i=this,o=arguments.length>2&&void 0!==arguments[2]?arguments[2]:null;r(this,t),this._id=0,this._running=!1,this._rollingBack=!1,this._animations=n,this._settings=e,(!o||o<"2022-05-02")&&delete this._settings.speed,ht.forEach((function(t){i._settings[t.key]=i._settings[t.key]||t.def})),this.duration=e.duration,this.offset=e.offset||0,this.rollbackStartOffset=0}return o(t,[{key:"alternate",get:function(){return this._settings.alternate}},{key:"fill",get:function(){return this._settings.fill}},{key:"iterations",get:function(){return this._settings.iterations}},{key:"direction",get:function(){return this._settings.direction}},{key:"speed",get:function(){return this._settings.speed}},{key:"fps",get:function(){return this._settings.fps}},{key:"maxFiniteDuration",get:function(){return this.iterations>0?this.iterations*this.duration:this.duration}},{key:"_apply",value:function(t){for(var n=arguments.length>1&&void 0!==arguments[1]?arguments[1]:{},e=this._animations,r=e.length,i=0,o=0;o<r;o++)n[o]?i++:(n[o]=e[o](t,1),n[o]&&i++);return i}},{key:"_rollback",value:function(t){var n=this,e=1/0,r=null;this.rollbackStartOffset=t,this._rollingBack=!0,this._running=!0;this._id=window.requestAnimationFrame((function i(o){if(n._rollingBack){null==r&&(r=o);var u=Math.round(t-(o-r)*n.speed);if(u>n.duration&&e!==1/0){var a=!!n.alternate&&u/n.duration%2>1,l=u%n.duration;u=(l+=a?n.duration:0)||n.duration}var s=(n.fps?1e3/n.fps:0)*n.speed,f=Math.max(0,u);f<=e-s&&(n.offset=f,e=f,n._apply(f));var c=n.iterations>0&&-1===n.fill&&u>=n.maxFiniteDuration;(u<=0||n.offset<u||c)&&n.stop(),n._id=window.requestAnimationFrame(i)}}))}},{key:"_start",value:function(){var t=this,n=arguments.length>0&&void 0!==arguments[0]?arguments[0]:0,e=-1/0,r=null,i={};this._running=!0;var o=function o(u){null==r&&(r=u);var a=Math.round((u-r)*t.speed+n),l=(t.fps?1e3/t.fps:0)*t.speed;if(a>=e+l&&!t._rollingBack&&(t.offset=a,e=a,t._apply(a,i)===t._animations.length))return void t.pause(!0);t._id=window.requestAnimationFrame(o)};this._id=window.requestAnimationFrame(o)}},{key:"_pause",value:function(){this._id&&window.cancelAnimationFrame(this._id),this._running=!1}},{key:"play",value:function(){if(!this._running)return this._rollingBack?this._rollback(this.offset):this._start(this.offset)}},{key:"stop",value:function(){this._pause(),this.offset=0,this.rollbackStartOffset=0,this._rollingBack=!1,this._apply(0)}},{key:"reachedToEnd",value:function(){return this.iterations>0&&this.offset>=this.iterations*this.duration}},{key:"restart",value:function(){var t=arguments.length>0&&void 0!==arguments[0]&&arguments[0];this.stop(t),this.play(t)}},{key:"pause",value:function(){this._pause()}},{key:"reverse",value:function(){this.direction=-this.direction}}],[{key:"build",value:function(t,n){delete t.animationSettings,t.options=ct(t.options,t.root,"5c7f360c"),t.animations.map((function(n){n.settings=ct(n.s,t.root,"5c7f360c"),delete n.s,t.animationSettings||(t.animationSettings=n.settings)}));var e=t.version;if(!(t=at(t,n)))return null;var r=t.options||{},i=new this(t.animations,t.animationSettings,e);return{el:t.svg,options:r,player:i}}},{key:"push",value:function(t){return this.build(t)}},{key:"init",value:function(){var t=this,n=window.__SVGATOR_PLAYER__&&window.__SVGATOR_PLAYER__["5c7f360c"];Array.isArray(n)&&n.splice(0).forEach((function(n){return t.build(n)}))}}]),t}();function yt(t){return p(t)+""}function gt(t){var n=arguments.length>1&&void 0!==arguments[1]?arguments[1]:" ";return t&&t.length?t.map(yt).join(n):""}function dt(t){if(!t)return"transparent";if(null==t.a||t.a>=1){var n=function(t){return 1===(t=parseInt(t).toString(16)).length?"0"+t:t},e=function(t){return t.charAt(0)===t.charAt(1)},r=n(t.r),i=n(t.g),o=n(t.b);return e(r)&&e(i)&&e(o)&&(r=r.charAt(0),i=i.charAt(0),o=o.charAt(0)),"#"+r+i+o}return"rgba("+t.r+","+t.g+","+t.b+","+t.a+")"}function pt(t){return t?"url(#"+t+")":"none"}!function(){for(var t=0,n=["ms","moz","webkit","o"],e=0;e<n.length&&!window.requestAnimationFrame;++e)window.requestAnimationFrame=window[n[e]+"RequestAnimationFrame"],window.cancelAnimationFrame=window[n[e]+"CancelAnimationFrame"]||window[n[e]+"CancelRequestAnimationFrame"];window.requestAnimationFrame||(window.requestAnimationFrame=function(n){var e=Date.now(),r=Math.max(0,16-(e-t)),i=window.setTimeout((function(){n(e+r)}),r);return t=e+r,i},window.cancelAnimationFrame=window.clearTimeout)}();var mt={f:null,i:function(t,n,e){return 0===t?n:1===t?e:{x:D(t,n.x,e.x),y:D(t,n.y,e.y)}},u:function(t,n){return function(e){var r=n(e);t.setAttribute("rx",yt(r.x)),t.setAttribute("ry",yt(r.y))}}},bt={f:null,i:function(t,n,e){return 0===t?n:1===t?e:{width:D(t,n.width,e.width),height:D(t,n.height,e.height)}},u:function(t,n){return function(e){var r=n(e);t.setAttribute("width",yt(r.width)),t.setAttribute("height",yt(r.height))}}};Object.freeze({M:2,L:2,Z:0,H:1,V:1,C:6,Q:4,T:2,S:4,A:7});var wt={},At=null;function _t(t){var n=function(){if(At)return At;if("object"!==("undefined"==typeof document?"undefined":e(document))||!document.createElementNS)return{};var t=document.createElementNS("http://www.w3.org/2000/svg","svg");return t&&t.style?(t.style.position="absolute",t.style.opacity="0.01",t.style.zIndex="-9999",t.style.left="-9999px",t.style.width="1px",t.style.height="1px",At={svg:t}):{}}().svg;if(!n)return function(t){return null};var r=document.createElementNS(n.namespaceURI,"path");r.setAttributeNS(null,"d",t),r.setAttributeNS(null,"fill","none"),r.setAttributeNS(null,"stroke","none"),n.appendChild(r);var i=r.getTotalLength();return function(t){var n=r.getPointAtLength(i*t);return{x:n.x,y:n.y}}}function xt(t){return wt[t]?wt[t]:wt[t]=_t(t)}function kt(t,n,e,r){if(!t||!r)return!1;var i=["M",t.x,t.y];if(n&&e&&(i.push("C"),i.push(n.x),i.push(n.y),i.push(e.x),i.push(e.y)),n?!e:e){var o=n||e;i.push("Q"),i.push(o.x),i.push(o.y)}return n||e||i.push("L"),i.push(r.x),i.push(r.y),i.join(" ")}function St(t,n,e,r){var i=arguments.length>4&&void 0!==arguments[4]?arguments[4]:1,o=kt(t,n,e,r),u=xt(o);try{return u(i)}catch(t){return null}}function Ot(t,n,e){return t+(n-t)*e}function jt(t,n,e){var r=arguments.length>3&&void 0!==arguments[3]&&arguments[3],i={x:Ot(t.x,n.x,e),y:Ot(t.y,n.y,e)};return r&&(i.a=Mt(t,n)),i}function Mt(t,n){return Math.atan2(n.y-t.y,n.x-t.x)}function Et(t,n,e,r){var i=1-r;return i*i*t+2*i*r*n+r*r*e}function Pt(t,n,e,r){return 2*(1-r)*(n-t)+2*r*(e-n)}function It(t,n,e,r){var i=arguments.length>4&&void 0!==arguments[4]&&arguments[4],o=St(t,n,null,e,r);return o||(o={x:Et(t.x,n.x,e.x,r),y:Et(t.y,n.y,e.y,r)}),i&&(o.a=Rt(t,n,e,r)),o}function Rt(t,n,e,r){return Math.atan2(Pt(t.y,n.y,e.y,r),Pt(t.x,n.x,e.x,r))}function Ft(t,n,e,r,i){var o=i*i;return i*o*(r-t+3*(n-e))+3*o*(t+e-2*n)+3*i*(n-t)+t}function Nt(t,n,e,r,i){var o=1-i;return 3*(o*o*(n-t)+2*o*i*(e-n)+i*i*(r-e))}function Tt(t,n,e,r,i){var o=arguments.length>5&&void 0!==arguments[5]&&arguments[5],u=St(t,n,e,r,i);return u||(u={x:Ft(t.x,n.x,e.x,r.x,i),y:Ft(t.y,n.y,e.y,r.y,i)}),o&&(u.a=qt(t,n,e,r,i)),u}function qt(t,n,e,r,i){return Math.atan2(Nt(t.y,n.y,e.y,r.y,i),Nt(t.x,n.x,e.x,r.x,i))}function Bt(t,n,e){var r=arguments.length>3&&void 0!==arguments[3]&&arguments[3];if(Lt(n)){if(Ct(e))return It(n,e.start,e,t,r)}else if(Lt(e)){if(Vt(n))return It(n,n.end,e,t,r)}else{if(Vt(n))return Ct(e)?Tt(n,n.end,e.start,e,t,r):It(n,n.end,e,t,r);if(Ct(e))return It(n,e.start,e,t,r)}return jt(n,e,t,r)}function Dt(t,n,e){var r=Bt(t,n,e,!0);return r.a=function(t){return arguments.length>1&&void 0!==arguments[1]&&arguments[1]?t+Math.PI:t}(r.a)/b,r}function Lt(t){return!t.type||"corner"===t.type}function Ct(t){return null!=t.start&&!Lt(t)}function Vt(t){return null!=t.end&&!Lt(t)}var Gt=new T;var zt={f:yt,i:B},Yt={f:yt,i:L};function $t(t,n,e){return t.map((function(t){return function(t,n,e){var r=t.v;if(!r||"g"!==r.t||r.s||!r.v||!r.r)return t;var i=e.getElementById(r.r),o=i&&i.querySelectorAll("stop")||[];return r.s=r.v.map((function(t,n){var e=o[n]&&o[n].getAttribute("offset");return{c:t,o:e=p(parseInt(e)/100)}})),delete r.v,t}(t,0,e)}))}var Ut={gt:"gradientTransform",c:{x:"cx",y:"cy"},rd:"r",f:{x:"x1",y:"y1"},to:{x:"x2",y:"y2"}};function Qt(t,n,r,i,o,u,a,l){return $t(t,0,l),n=function(t,n,e){for(var r,i,o,u=t.length-1,a={},l=0;l<=u;l++)(r=t[l]).e&&(r.e=n(r.e)),r.v&&"g"===(i=r.v).t&&i.r&&(o=e.getElementById(i.r))&&(a[i.r]={e:o,s:o.querySelectorAll("stop")});return a}(t,i,l),function(i){var o=r(i,t,Ht);if(!o)return"none";if("c"===o.t)return dt(o.v);if("g"===o.t){if(!n[o.r])return pt(o.r);var u=n[o.r];return function(t,n){for(var e=t.s,r=e.length;r<n.length;r++){var i=e[e.length-1].cloneNode();i.id=Kt(i.id),t.e.appendChild(i),e=t.s=t.e.querySelectorAll("stop")}for(var o=0,u=e.length,a=n.length-1;o<u;o++)e[o].setAttribute("stop-color",dt(n[Math.min(o,a)].c)),e[o].setAttribute("offset",n[Math.min(o,a)].o)}(u,o.s),Object.keys(Ut).forEach((function(t){if(void 0!==o[t])if("object"!==e(Ut[t])){var n,r="gt"===t?(n=o[t],Array.isArray(n)?"matrix("+n.join(" ")+")":""):o[t],i=Ut[t];u.e.setAttribute(i,r)}else Object.keys(Ut[t]).forEach((function(n){if(void 0!==o[t][n]){var e=o[t][n],r=Ut[t][n];u.e.setAttribute(r,e)}}))})),pt(o.r)}return"none"}}function Ht(t,e,r){if(0===t)return e;if(1===t)return r;if(e&&r){var i=e.t;if(i===r.t)switch(e.t){case"c":return{t:i,v:G(t,e.v,r.v)};case"g":if(e.r===r.r){var o={t:i,s:Jt(t,e.s,r.s),r:e.r};return e.gt&&r.gt&&(o.gt=function(t,n,e){var r=n.length;if(r!==e.length)return q(t,n,e);for(var i=new Array(r),o=0;o<r;o++)i[o]=B(t,n[o],e[o]);return i}(t,e.gt,r.gt)),e.c?(o.c=C(t,e.c,r.c),o.rd=D(t,e.rd,r.rd)):e.f&&(o.f=C(t,e.f,r.f),o.to=C(t,e.to,r.to)),o}}if("c"===e.t&&"g"===r.t||"c"===r.t&&"g"===e.t){var u="c"===e.t?e:r,a="g"===e.t?n({},e):n({},r),l=a.s.map((function(t){return{c:u.v,o:t.o}}));return a.s="c"===e.t?Jt(t,l,a.s):Jt(t,a.s,l),a}}return q(t,e,r)}function Jt(t,n,e){if(n.length===e.length)return n.map((function(n,r){return Zt(t,n,e[r])}));for(var r=Math.max(n.length,e.length),i=[],o=0;o<r;o++){var u=Zt(t,n[Math.min(o,n.length-1)],e[Math.min(o,e.length-1)]);i.push(u)}return i}function Zt(t,n,e){return{o:L(t,n.o,e.o||0),c:G(t,n.c,e.c||{})}}function Kt(t){return t.replace(/-fill-([0-9]+)$/,(function(t,n){return"-fill-"+(+n+1)}))}var Wt={fill:Qt,"fill-opacity":Yt,stroke:Qt,"stroke-opacity":Yt,"stroke-width":zt,"stroke-dashoffset":{f:yt,i:B},"stroke-dasharray":{f:function(t){var n=arguments.length>1&&void 0!==arguments[1]?arguments[1]:" ";return t&&t.length>0&&(t=t.map((function(t){return p(t,4)}))),gt(t,n)},i:function(t,n,e){var r,i,o,u=n.length,a=e.length;if(u!==a)if(0===u)n=z(u=a,0);else if(0===a)a=u,e=z(u,0);else{var l=(o=(r=u)*(i=a)/function(t,n){for(var e;n;)e=n,n=t%n,t=e;return t||1}(r,i))<0?-o:o;n=Y(n,Math.floor(l/u)),e=Y(e,Math.floor(l/a)),u=a=l}for(var s=[],f=0;f<u;f++)s.push(p(D(t,n[f],e[f])));return s}},opacity:Yt,transform:function(t,n,r,i){if(!(t=function(t,n){if(!t||"object"!==e(t))return null;var r=!1;for(var i in t)t.hasOwnProperty(i)&&(t[i]&&t[i].length?(t[i].forEach((function(t){t.e&&(t.e=n(t.e))})),r=!0):delete t[i]);return r?t:null}(t,i)))return null;var o=function(e,i,o){var u=arguments.length>3&&void 0!==arguments[3]?arguments[3]:null;return t[e]?r(i,t[e],o):n&&n[e]?n[e]:u};return n&&n.a&&t.o?function(n){var e=r(n,t.o,Dt);return Gt.recomposeSelf(e,o("r",n,B,0)+e.a,o("k",n,C),o("s",n,C),o("t",n,C)).toString()}:function(t){return Gt.recomposeSelf(o("o",t,Bt,null),o("r",t,B,0),o("k",t,C),o("s",t,C),o("t",t,C)).toString()}},r:zt,"#size":bt,"#radius":mt,_:function(t,n){if(Array.isArray(t))for(var e=0;e<t.length;e++)this[t[e]]=n;else this[t]=n}},Xt=function(t){!function(t,n){if("function"!=typeof n&&null!==n)throw new TypeError("Super expression must either be null or a function");t.prototype=Object.create(n&&n.prototype,{constructor:{value:t,writable:!0,configurable:!0}}),n&&l(t,n)}(u,t);var n,e,i=(n=u,e=s(),function(){var t,r=a(n);if(e){var i=a(this).constructor;t=Reflect.construct(r,arguments,i)}else t=r.apply(this,arguments);return c(this,t)});function u(){return r(this,u),i.apply(this,arguments)}return o(u,null,[{key:"build",value:function(t){var n=h(a(u),"build",this).call(this,t,Wt);if(!n)return null;n.el,n.options,function(t,n,e){t.play()}(n.player)}}]),u}(vt);return Xt.init(),Xt}));
(function(s,i,o,w,d,a,b){w[o]=w[o]||{};w[o][s]=w[o][s]||[];w[o][s].push(i);})('5c7f360c',{"root":"eY4zkfBVpOF1","version":"2022-05-04","animations":[{"elements":{"eY4zkfBVpOF3":{"transform":{"data":{"s":{"x":0.926667,"y":0.926667},"t":{"x":-306.490005,"y":-256.81501}},"keys":{"o":[{"t":0,"v":{"x":306.490006,"y":256.81501,"type":"corner"}},{"t":1500,"v":{"x":292.240001,"y":256.81501,"type":"corner"}},{"t":3000,"v":{"x":306.490005,"y":256.81501,"type":"corner"}}]}}},"eY4zkfBVpOF64":{"transform":{"data":{"s":{"x":1.016,"y":1.016},"t":{"x":-303.540023,"y":-309.105286}},"keys":{"o":[{"t":0,"v":{"x":303.165377,"y":309.105286,"type":"corner"}},{"t":1500,"v":{"x":303.540024,"y":290.688847,"type":"corner"}},{"t":3000,"v":{"x":303.540024,"y":309.094723,"type":"corner"}}]}}}},"s":"MXDA1ZGFlNTU5N2E4YTJU5NGE3OWNhMmExNTUK2ZDY2NjM2MzYzNWZLPNTU5N0w5Y2E1OTg5NOmE3OWNhMlROYTE1NTQZkNjQ1ZjU1OWNhNzkI4YTU5NGE3OWNhMmExPYTY1NTZkNjM1Zlg1NEVE5OUE5YzlmOWY1NVUY2ZDY0NWY1NTk0OWZRhN085OGE1YTFGOTRhANzk4NTU2ZFc5OTk0OBWZhNjk4NWY1NWE2YTLM5ODk4OTc1NTZkNjQB1ZjU1OTlhM01hNkM1LNTZkNjRFNjM2M2Iw"}],"options":"MQDAxMDg4MmY4MDgxNmXU3ZjgxMmY0NzJmNzkI3Y1k2ZTcxMmY4YQ|"},'__SVGATOR_PLAYER__',window,document)
]]></script>
</svg>
