<?xml version="1.0" encoding="UTF-8"?>
<svg id="Camada_1" data-name="Camada 1" xmlns="http://www.w3.org/2000/svg" xmlns:xlink="http://www.w3.org/1999/xlink" viewBox="0 0 557.84 604.86">
  <defs>
    <style>
      .cls-1 {
        fill: #a87058;
      }

      .cls-1, .cls-2, .cls-3, .cls-4, .cls-5, .cls-6, .cls-7, .cls-8, .cls-9, .cls-10, .cls-11, .cls-12 {
        stroke-width: 0px;
      }

      .cls-3 {
        fill: #e0e0e0;
      }

      .cls-4 {
        fill: #f5f5f5;
      }

      .cls-13 {
        opacity: .3;
      }

      .cls-5 {
        fill: #fff;
      }

      .cls-14 {
        opacity: .6;
      }

      .cls-6 {
        fill: #263238;
      }

      .cls-7 {
        fill: url(#Gradiente_sem_nome);
      }

      .cls-8 {
        fill: #ff725e;
      }

      .cls-9 {
        fill: #ebebeb;
      }

      .cls-10 {
        fill: #ff9a6c;
      }

      .cls-11 {
        fill: #455a64;
      }

      .cls-12 {
        fill: #ffbf9d;
      }
    </style>
    <linearGradient id="Gradiente_sem_nome" data-name="Gradiente sem nome" x1="356.44" y1="585.41" x2="187.44" y2="-20.14" gradientTransform="translate(0 564.62) scale(1 -1)" gradientUnits="userSpaceOnUse">
      <stop offset="0" stop-color="#59c785"/>
      <stop offset="1" stop-color="#487d5d" stop-opacity=".76"/>
      <stop offset="1" stop-color="#2c7348" stop-opacity=".76"/>
      <stop offset="1" stop-color="#385845"/>
    </linearGradient>
  </defs>
  <path class="cls-7" d="m9.88,254.29C39.78,163.34,231.7,9.3,335.26,2.09c103.56-7.21,161.25,4.38,205.17,57.26,43.91,52.88-14.76,465.26-164.57,524.99-149.81,59.74-271.97-44.31-307.75-85.89-35.79-41.58-88.12-153.22-58.23-244.17Z"/>
  <path class="cls-9" d="m192.22,191.07c.56-4.1-5.23-7.48-9.57-7.83-2.07-.16-4.23.15-6.2-.53-4.26-1.49-5.96-6.99-10.11-8.74-3.11-1.31-6.68-.14-9.69,1.37-3.01,1.52-5.99,3.42-9.36,3.64-2.92.19-6.1-.9-8.66.53-1.91,1.06-2.91,3.26-4.67,4.56s-3.96,1.54-6.1,1.65c-2.14.12-4.35.13-6.29,1.02-1.94.89-3.59,2.95-3.14,5.05l73.78-.73Z"/>
  <path class="cls-4" d="m491.74,146.35c.61-4.49-5.69-8.14-10.44-8.53-2.25-.18-4.61.16-6.75-.58-4.63-1.62-6.49-7.62-11.02-9.53-3.39-1.43-7.29-.15-10.57,1.5-3.28,1.65-6.53,3.74-10.19,3.97-3.2.2-6.66-.98-9.45.57-2.08,1.17-3.17,3.59-5.09,4.98s-4.32,1.68-6.64,1.8c-2.33.12-4.74.14-6.86,1.11-2.12.97-3.87,3.21-3.43,5.51l80.45-.79Z"/>
  <path class="cls-4" d="m408.29,195.32c.62-4.49-5.69-8.15-10.43-8.53-2.26-.18-4.62.16-6.75-.58-4.64-1.62-6.5-7.61-11.03-9.53-3.39-1.43-7.28-.15-10.57,1.5-3.29,1.65-6.53,3.74-10.19,3.97-3.2.2-6.65-.98-9.45.57-2.08,1.17-3.17,3.59-5.09,4.98-1.92,1.38-4.32,1.68-6.65,1.8-2.33.12-4.73.14-6.85,1.11-2.12.97-3.88,3.22-3.44,5.51l80.45-.79Z"/>
  <path class="cls-9" d="m356.15,119.41c.9-6.22-7.93-11.35-14.53-11.88-3.15-.25-6.42.23-9.4-.81-6.47-2.25-9.05-10.6-15.36-13.26-4.72-1.99-10.15-.22-14.72,2.08-4.57,2.31-9.09,5.19-14.2,5.52-4.44.28-9.26-1.37-13.15.8-2.9,1.62-4.42,4.96-7.08,6.92-2.67,1.97-6.02,2.33-9.26,2.51-3.24.18-6.59.21-9.55,1.56-2.95,1.36-5.39,4.49-4.78,7.65l112.02-1.1Z"/>
  <path class="cls-9" d="m159.49,342.13c2.36-1.56,3.23-4.63,3.32-7.46.09-2.83-.42-5.67-.05-8.49.3-2.25-.12-4.62-.3-6.9-.35-4.49-2.98-5.12-4.88-9.18-1.89-4.06.9-5.07-.06-6.77-.5-.83-1.89-.55-2.76-.12-.84.49-1.58,1.15-2.15,1.93-3.05,3.67-5.7,8.17-5.26,12.92.21,2.37,1.18,4.6,1.68,6.92.8,3.64.52,7.62,2.37,10.86,1.73,3.01,4.98,4.76,8.08,6.37"/>
  <path class="cls-9" d="m163.35,356.42c-.9-6.2,2.07-13.78,6.57-18.16,1.9-1.85,4.23-3.37,5.54-5.68,1.51-2.69,1.46-6.01,3.04-8.62,2.37-3.91,7.52-4.97,12.09-5.24,4.57-.27,14.19-5.64,13.15-3.05-3.39,9.77-2.69,9.21-14.77,18.18-4.97,3.68-.42,14.65-14.19,18.9-3.78,1.18-8.43,1.09-11.34,3.77"/>
  <path class="cls-11" d="m165.69,419.56c.05.08.1.15.14.23l-.14-.23Z"/>
  <path class="cls-9" d="m147.22,402.51c7.1,2.72,13.05,7.79,16.86,14.37l1.61,2.69c-.68-1-2.2-1.07-3.46-1.22-2.36-.28-4.57-1.32-6.29-2.97-.96-1.12-2.01-2.16-3.13-3.12-1.14-.66-2.35-1.22-3.59-1.66-2.74-1.22-4.99-3.32-7.7-4.62s-5.85-1.8-8.83-2.54c-2.97-.74-6.02-1.92-7.98-4.27,6.76.26,14.92.6,22.5,3.35Z"/>
  <path class="cls-9" d="m136.42,364.44c2.57,1.19,4.35,3.66,6.87,4.94,2.28,1.15,4.93,1.22,7.41,1.8,5.94,1.45,13.29,12.46,17.29,17.96-1.61-.08-4.8-1.43-7.76-1.38-2.96.05-6.84-.79-9.79-1.1-9.65-1.01-14.29-5.7-21.6-11.93-4.39-3.7-9.68-5.21-12.46-10.23,6.22,2.69,13.87-2.92,20.04-.06Z"/>
  <path class="cls-9" d="m163.39,361.75c-3.39-9.82-12.26-17.43-21.62-21.99-9.51-4.57-20.43-5.22-30.41-1.8,5.6,7.37,11.3,8.3,20.31,10.43,1.56.37,5.44-.79,8.26,1.23,1.13.82,1.39,4.08,7.93,5.29,6.54,1.21,11.89,2.49,15.54,6.86"/>
  <path class="cls-3" d="m156.26,321.4c.01.11.01.22,0,.32,0,.23,0,.55.04.94v1.53c0,.6.1,1.3.15,2.07.4,4.42,1.14,8.79,2.22,13.09,1.28,5.46,3.27,11.84,5.48,18.92,2.47,7.66,4.49,15.45,6.05,23.35,2.81,14.38,3.98,29.04,3.49,43.69-.15,6.1-.66,12.18-1.54,18.21-.01-.1-.01-.21,0-.31,0-.23.03-.55.08-.94.08-.84.21-2.06.36-3.59.24-3.12.65-7.65.76-13.26.4-14.62-.8-29.23-3.59-43.59-1.56-7.89-3.56-15.68-6-23.35-2.19-7.08-4.17-13.47-5.39-18.97-1.03-4.32-1.71-8.72-2.01-13.15,0-.78-.08-1.48-.11-2.09-.03-.61,0-1.11,0-1.53v-.94c-.02-.13-.01-.26,0-.4Z"/>
  <path class="cls-3" d="m121.15,339.16h2.17c1.97.08,3.94.27,5.89.58,2.9.44,5.75,1.12,8.54,2.03,3.43,1.08,6.71,2.59,9.77,4.49,5.5,3.55,10.36,8,14.37,13.17,1.21,1.56,2.33,3.19,3.36,4.88.37.59.62,1.07.8,1.39.1.16.19.33.25.5-.12-.14-.24-.3-.33-.46-.21-.31-.49-.76-.9-1.34-.76-1.17-1.91-2.83-3.47-4.77-4.06-5.07-8.91-9.46-14.37-12.98-3.03-1.88-6.27-3.39-9.66-4.49-2.76-.92-5.59-1.62-8.46-2.11-2.45-.41-4.49-.62-5.85-.72-.69-.06-1.24-.08-1.6-.11-.18,0-.35-.02-.52-.06Z"/>
  <path class="cls-3" d="m193.78,323.65c-.14.08-.28.14-.43.19l-1.26.5c-1.53.61-3,1.35-4.41,2.2-.97.57-1.83,1.31-2.55,2.17-.75,1.06-1.4,2.18-1.96,3.36-.6,1.23-1.18,2.57-1.7,3.97-.43,1.5-.96,2.98-1.56,4.42-.75,1.4-1.75,2.65-2.96,3.68-1.14,1.02-2.33,1.86-3.46,2.69-2,1.4-3.9,2.96-5.66,4.65-1.16,1.17-2.26,2.39-3.29,3.68l-.84,1.04c-.09.13-.2.25-.31.35.06-.15.14-.28.24-.4l.76-1.11c.98-1.34,2.05-2.61,3.21-3.81,1.74-1.74,3.63-3.34,5.64-4.77,2.2-1.64,4.8-3.39,6.29-6.21.59-1.43,1.11-2.88,1.54-4.36.51-1.37,1.09-2.71,1.74-4.01.58-1.19,1.26-2.33,2.04-3.4.76-.89,1.67-1.64,2.69-2.21,1.43-.84,2.93-1.54,4.49-2.09.56-.2.99-.33,1.28-.42.15-.05.3-.09.46-.1Z"/>
  <path class="cls-3" d="m129.58,369.27c.15.07.3.15.43.24l1.19.76c1.03.67,2.51,1.64,4.37,2.78,2.17,1.34,4.45,2.5,6.81,3.48,2.69,1.09,5.74,1.94,8.92,3,5.43,1.86,10.5,4.65,14.98,8.24,1.74,1.34,3.11,2.47,4.05,3.26l1.07.9c.24.21.37.33.35.34-.15-.07-.29-.16-.41-.27l-1.12-.9c-.97-.74-2.37-1.8-4.13-3.12-4.5-3.49-9.55-6.22-14.93-8.08-3.15-1.05-6.23-1.92-8.93-3.05-2.37-1-4.66-2.2-6.82-3.59-1.85-1.18-3.3-2.2-4.29-2.92l-1.14-.84c-.14-.07-.26-.15-.38-.25Z"/>
  <path class="cls-9" d="m173.29,386.53c4.49-4.78,3.34-13.14,8.14-17.59,2.98-2.77,7.52-3.26,10.64-5.89,2.03-1.71,3.27-4.19,5.21-6.02,3.65-3.44,9.06-4.01,14.05-4.39-.46,4.83-2.18,9.45-4.97,13.41-2.8,3.96-6.58,7.12-10.97,9.17-2.12.95-4.44,1.69-6.05,3.35-1.12,1.17-1.8,2.69-2.83,3.93-1.66,1.87-3.85,3.17-6.29,3.73-2.43.54-4.91.83-7.4.85"/>
  <path class="cls-3" d="m202.24,358.7c-.04.14-.09.29-.15.42-.16.39-.34.77-.56,1.14-.77,1.36-1.73,2.6-2.86,3.68-1.67,1.6-3.47,3.05-5.39,4.33-2.13,1.48-4.49,3.07-6.78,4.98-3.91,3.27-7.57,6.83-10.94,10.66l-3.06,3.48-.84.9c-.09.12-.2.22-.31.31,0,0,.07-.14.24-.38l.76-1c.68-.9,1.68-2.09,2.96-3.59,3.31-3.9,6.95-7.51,10.88-10.78,2.32-1.92,4.7-3.51,6.83-4.98,1.91-1.25,3.71-2.66,5.39-4.2,1.12-1.05,2.11-2.24,2.93-3.54.59-.9.83-1.46.88-1.45Z"/>
  <path class="cls-9" d="m178.46,411.31c.13-3.55,1.26-7.27,4.2-9.18,1.27-.83,2.75-1.32,3.87-2.33,1-1.09,1.86-2.29,2.57-3.59,2.37-3.53,6.17-5.78,9.83-7.92l4.35-2.54c.41-.31.92-.46,1.44-.41.24.07.45.21.61.39.17.18.28.4.34.64.09.48.09.98,0,1.46-.35,2.95-.92,5.86-1.71,8.73-.67,2.47-1.57,4.99-3.39,6.8-2.03,2.02-4.9,2.87-7.37,4.32-2.09,1.23-3.93,2.93-6.21,3.75-2.69.96-5.76.22-8.55-.16"/>
  <path class="cls-3" d="m200,393.24c-.21.4-.46.78-.74,1.14-.5.71-1.24,1.74-2.19,2.97-2.41,3.31-5.31,6.22-8.61,8.63-1.91,1.15-3.88,2.21-5.9,3.15-1.8.9-3.48,1.8-4.82,2.55-1.07.6-2.08,1.29-3.04,2.05-.34.3-.68.59-1.05.85,0,0,.06-.11.22-.28.22-.26.45-.5.71-.72.93-.82,1.93-1.55,2.99-2.19,1.32-.83,2.96-1.71,4.8-2.69,2-.97,3.96-2.04,5.85-3.21,3.25-2.4,6.15-5.23,8.62-8.43.9-1.17,1.7-2.14,2.3-2.88.26-.34.55-.65.86-.94Z"/>
  <path class="cls-3" d="m148.16,405.67c.45.17.88.37,1.29.6.82.4,1.98,1.05,3.37,1.91,1.63,1.02,3.2,2.13,4.71,3.31,3.71,2.91,7.02,6.29,9.88,10.04,1.16,1.53,2.24,3.12,3.22,4.77.84,1.41,1.47,2.58,1.86,3.4.24.41.43.85.57,1.3-.28-.38-.52-.79-.73-1.21-.44-.81-1.11-1.94-1.99-3.32-.87-1.38-1.97-2.97-3.29-4.68-1.44-1.84-2.98-3.6-4.61-5.27-1.65-1.66-3.38-3.23-5.19-4.7-1.69-1.34-3.26-2.48-4.62-3.37s-2.49-1.58-3.28-2.04c-.43-.22-.83-.47-1.21-.76Z"/>
  <path class="cls-9" d="m424.45,377.12c-1.54-1.07-2.11-3.16-2.17-5.09-.06-1.93.29-3.87.05-5.78-.09-1.57-.03-3.14.19-4.7.23-3.04,1.94-3.49,3.18-6.29,1.24-2.79-.61-3.46.04-4.62.32-.58,1.23-.38,1.8-.08.55.34,1.03.78,1.4,1.31,1.99,2.51,3.72,5.57,3.44,8.81-.26,1.59-.61,3.17-1.06,4.71-.52,2.49-.33,5.2-1.54,7.41-1.12,2.05-3.24,3.24-5.25,4.33"/>
  <path class="cls-9" d="m421.92,386.88c.62-4.22-1.35-9.39-4.28-12.36-1.24-1.27-2.76-2.3-3.59-3.87-.99-1.8-.95-4.1-1.98-5.87-1.55-2.69-4.9-3.39-7.88-3.59-2.98-.2-9.25-3.84-8.58-2.08,2.21,6.65,1.73,6.29,9.63,12.39,3.24,2.51.27,9.98,9.25,12.88,2.47.8,5.5.74,7.4,2.57"/>
  <path class="cls-11" d="m420.41,429.88c-.03.05-.06.11-.09.16l.09-.16Z"/>
  <path class="cls-9" d="m432.46,418.26c-4.69,1.89-8.59,5.34-11.03,9.77l-1.05,1.85c.45-.67,1.44-.73,2.25-.84,1.55-.2,2.98-.91,4.08-2.02.62-.76,1.3-1.47,2.05-2.12.75-.45,1.55-.83,2.37-1.13,1.8-.84,3.26-2.27,5.02-3.16,1.85-.77,3.78-1.35,5.76-1.72,2-.39,3.83-1.41,5.21-2.92-4.39.19-9.72.42-14.66,2.29Z"/>
  <path class="cls-9" d="m439.49,392.34c-1.67.81-2.83,2.5-4.49,3.37-1.48.78-3.21.83-4.82,1.24-3.88.98-8.67,8.49-11.28,12.24,1.05-.05,3.13-.97,5.06-.94,2.14-.13,4.27-.38,6.38-.75,6.29-.68,9.32-3.89,14.08-8.13,2.87-2.54,6.29-3.59,8.14-7.01-4.05,1.85-9.04-1.98-13.07-.02Z"/>
  <path class="cls-9" d="m421.91,390.49c2.21-6.72,7.99-11.87,14.1-14.99,3.05-1.54,6.38-2.44,9.79-2.66,3.41-.21,6.83.27,10.04,1.42-3.65,5.03-7.37,5.66-13.24,7.11-1.01.25-3.55-.54-5.39.85-.74.55-.9,2.77-5.17,3.59-4.27.82-7.76,1.71-10.13,4.68Z"/>
  <path class="cls-3" d="m426.56,363.02c0,.07,0,.14,0,.22v.65c0,.56,0,1.39-.05,2.46-.19,3.02-.61,6.03-1.28,8.98-1.53,7.52-5.39,17.43-7.42,28.9-1.81,9.77-2.61,19.7-2.37,29.63.07,3.82.33,6.9.48,8.98.09,1.03.17,1.85.22,2.45,0,.25,0,.47.04.64.01.07.01.14,0,.21,0,0,0-.07-.04-.21-.04-.14-.05-.39-.09-.64-.07-.59-.18-1.41-.31-2.44-.21-2.13-.51-5.21-.63-9.03-.33-9.97.42-19.95,2.24-29.76,2.07-11.52,5.95-21.42,7.55-28.87.69-2.93,1.16-5.91,1.43-8.91.09-1.07.13-1.9.14-2.45v-.65c.02-.06.05-.11.09-.16Z"/>
  <path class="cls-3" d="m449.45,375.1c-.47.09-.95.14-1.43.15-1.29.11-2.58.28-3.85.52-4.22.73-8.24,2.29-11.85,4.59-3.53,2.42-6.65,5.39-9.25,8.79-1,1.3-1.74,2.41-2.24,3.19-.24.42-.51.81-.81,1.18.03-.12.08-.24.15-.34.11-.21.26-.55.49-.94.65-1.13,1.36-2.23,2.13-3.29,2.56-3.5,5.69-6.53,9.26-8.98,4.8-3,10.3-4.69,15.96-4.91h1.07c.12,0,.25,0,.37.04Z"/>
  <path class="cls-3" d="m402.09,364.51c.4.06.8.18,1.18.34,1.05.37,2.06.85,3.01,1.44.69.4,1.3.92,1.8,1.54.5.74.93,1.51,1.31,2.32.42.88.8,1.78,1.12,2.69.28.99.61,1.97,1,2.93.9,1.89,2.6,3.1,4.05,4.23,1.32.99,2.55,2.09,3.69,3.28.75.82,1.44,1.69,2.07,2.61.24.33.46.67.63,1.04-.08.06-1.01-1.42-2.94-3.42-1.15-1.15-2.4-2.21-3.72-3.17-1.45-1.11-3.22-2.34-4.2-4.36-.4-.97-.73-1.97-1.01-2.98-.33-.94-.7-1.8-1.09-2.69-.35-.79-.77-1.55-1.24-2.27-.45-.59-1-1.1-1.62-1.49-.92-.6-1.89-1.11-2.89-1.55-.39-.13-.77-.29-1.14-.48Z"/>
  <path class="cls-3" d="m443.95,395.61c-.3.3-.62.57-.97.81-.64.49-1.58,1.19-2.78,2-1.42.96-2.92,1.79-4.49,2.48-1.8.77-3.79,1.37-5.85,2.09-3.52,1.28-6.81,3.13-9.73,5.48l-2.69,2.1c-.32.28-.65.52-1.01.74.27-.33.57-.63.9-.9.6-.54,1.48-1.31,2.6-2.23,2.89-2.45,6.2-4.37,9.77-5.66,2.09-.73,4.1-1.31,5.85-2.05,1.54-.66,3.03-1.45,4.45-2.36,1.22-.76,2.18-1.43,2.85-1.87.35-.25.72-.46,1.11-.64Z"/>
  <path class="cls-9" d="m415.45,407.38c-2.91-3.25-2.17-8.98-5.3-11.99-1.95-1.89-4.91-2.22-6.94-4.01-1.33-1.17-2.14-2.86-3.39-4.1-2.38-2.33-5.91-2.69-9.17-2.99.27,3.24,1.36,6.36,3.18,9.05,1.82,2.69,4.3,4.87,7.21,6.33,1.38.65,2.89,1.15,3.94,2.29.74.79,1.18,1.8,1.85,2.69,1.07,1.26,2.51,2.15,4.12,2.54,1.59.36,3.21.56,4.83.58"/>
  <path class="cls-3" d="m396.57,388.41c.67,1.23,1.51,2.36,2.5,3.35,1.1,1.05,2.28,2.01,3.54,2.86,1.4,1,2.97,2.09,4.49,3.4,2.58,2.25,4.95,4.72,7.08,7.39.83,1.02,1.46,1.86,1.9,2.44.24.3.45.62.64.95-.29-.25-.55-.53-.77-.83l-2.01-2.35c-2.2-2.58-4.59-5-7.14-7.24-1.5-1.3-3.05-2.39-4.44-3.41-1.26-.88-2.45-1.88-3.53-2.98-.71-.75-1.32-1.6-1.8-2.52-.13-.25-.24-.51-.34-.77-.05-.09-.09-.19-.12-.29Z"/>
  <path class="cls-9" d="m412.08,424.26c-.09-2.42-.82-4.96-2.69-6.29-.88-.46-1.73-.99-2.52-1.58-.66-.74-1.22-1.55-1.68-2.42-1.54-2.4-4.02-3.94-6.41-5.39l-2.84-1.73c-.26-.2-.58-.3-.9-.28-.16.05-.3.14-.41.26-.11.12-.18.27-.21.44-.06.33-.06.67,0,1.01.22,2,.59,3.99,1.1,5.93.33,1.71,1.09,3.31,2.21,4.64,1.32,1.37,3.2,1.95,4.8,2.94,1.37.84,2.57,2,4.06,2.56,1.72.65,3.75.15,5.58-.11"/>
  <path class="cls-3" d="m398.03,411.92c.76.82,1.46,1.69,2.1,2.61,1.6,2.15,3.48,4.07,5.6,5.71,1.24.8,2.51,1.53,3.82,2.2,1.2.66,2.28,1.27,3.15,1.84.7.44,1.35.95,1.94,1.52.23.2.43.43.58.69-.86-.7-1.76-1.35-2.69-1.93-.9-.53-1.96-1.1-3.18-1.73-1.34-.65-2.64-1.39-3.89-2.21-2.16-1.66-4.04-3.65-5.58-5.89-.61-.83-1.08-1.54-1.39-2.02-.19-.24-.34-.5-.46-.78Z"/>
  <path class="cls-3" d="m431.84,420.42c0,.07-1.14.73-2.93,1.97-2.31,1.62-4.45,3.48-6.39,5.54-1.93,2.07-3.65,4.33-5.13,6.73-1.13,1.85-1.73,3.06-1.8,3.03.08-.31.19-.61.34-.9.24-.57.65-1.36,1.18-2.31,1.41-2.49,3.12-4.8,5.07-6.89,1.95-2.09,4.15-3.93,6.55-5.49.72-.47,1.47-.91,2.24-1.31.27-.16.56-.29.86-.38Z"/>
  <path class="cls-6" d="m503.23,443.62c0,.13-88.09.23-196.73.23s-196.75-.11-196.75-.23,88.08-.23,196.75-.23,196.73.14,196.73.23Z"/>
  <path class="cls-8" d="m459.59,397.17c1.07.51,2.02,1.23,2.8,2.11.78.89,1.38,1.92,1.75,3.04.73,2.25.94,4.64.6,6.98-.51,4.49-3.09,9.1-5.85,12.72-3.82-3.32-4.69-9.13-4.95-12.1-.41-4.7,1.7-13.47,5.65-12.74Z"/>
  <path class="cls-8" d="m463.32,429.49c-.26-1.29-.17-2.63.25-3.88.42-1.25,1.17-2.37,2.17-3.24,1.01-.85,2.18-1.49,3.44-1.88s2.58-.53,3.9-.41c.61,0,1.21.12,1.77.37.56.25,1.05.62,1.45,1.08.3.49.46,1.04.47,1.61.01.57-.13,1.13-.41,1.63-.58.99-1.41,1.81-2.41,2.37-3.3,2.07-6.88,3.48-10.61,2.35Z"/>
  <path class="cls-6" d="m458.43,443.38c.01-.3.06-.6.14-.9.12-.66.28-1.5.46-2.51.43-2.8,1.31-5.52,2.6-8.04,1.34-2.52,3.33-4.64,5.77-6.12.74-.44,1.53-.79,2.34-1.04.22-.07.45-.13.68-.17.08-.01.16-.01.24,0-1.1.37-2.15.86-3.15,1.45-2.35,1.52-4.27,3.62-5.59,6.09-1.29,2.49-2.2,5.16-2.69,7.92-.23,1.05-.42,1.9-.57,2.5-.05.28-.13.56-.22.83Z"/>
  <path class="cls-6" d="m458.57,403.96c.03.14.04.27.04.41,0,.3,0,.68.07,1.17.05,1.01.12,2.48.17,4.29.12,3.59.21,8.65.19,14.19-.02,5.54-.16,10.55-.31,14.18-.07,1.8-.14,3.29-.21,4.29,0,.48-.05.9-.08,1.17,0,.14-.02.28-.05.41-.02-.14-.02-.28,0-.41v-1.17c0-1.06.06-2.51.1-4.3.09-3.59.19-8.64.22-14.18.03-5.54,0-10.54-.09-14.17,0-1.8-.05-3.24-.06-4.3v-1.17c-.01-.14,0-.28,0-.41Z"/>
  <path class="cls-8" d="m456.72,432.25c-.46-2.74-1.57-5.34-3.23-7.57-1.66-2.23-3.83-4.04-6.33-5.26-1.27-.61-2.94-1.01-3.99-.06-1.05.94-.82,2.69-.31,3.98,1.12,2.73,3.03,5.08,5.48,6.73,2.45,1.65,5.33,2.54,8.29,2.56"/>
  <path class="cls-6" d="m447.78,423.71c.28.09.55.21.81.36.31.14.61.31.9.48.34.22.75.42,1.16.73.46.31.9.65,1.32,1.01.49.4.96.83,1.41,1.29,1.03,1.05,1.93,2.21,2.69,3.47.75,1.26,1.35,2.6,1.8,4.01.18.61.34,1.24.45,1.87.1.55.18,1.1.22,1.65.05.46.07.92.06,1.37.02.34.02.69,0,1.03,0,.3-.04.6-.1.9-.07,0,.05-1.27-.17-3.27-.06-.54-.15-1.08-.26-1.62-.11-.58-.29-1.2-.47-1.8-.88-2.76-2.38-5.27-4.4-7.35-.47-.47-.9-.9-1.37-1.29-.41-.36-.85-.7-1.29-1.02-1.64-1.23-2.79-1.76-2.76-1.82Z"/>
  <path class="cls-8" d="m339.96,275.51c-.05-.68-.3-1.32-.73-1.85-.39-.53-.95-.92-1.58-1.12-.54-.15-1.12-.13-1.64.08-.52.2-.97.58-1.26,1.05-.16-.35-.4-.66-.7-.9-.28-.22-.59-.38-.93-.47-.34-.09-.69-.11-1.04-.06-.65.11-1.25.43-1.71.9-.49.47-.82,1.07-.96,1.73-.16.85-.04,1.73.33,2.51.45.79,1.08,1.46,1.84,1.96,1.22.85,2.84,1.92,2.84,1.92,0,0,1.49-.97,2.82-1.65.82-.39,1.53-.98,2.07-1.71.47-.71.7-1.54.66-2.39Z"/>
  <path class="cls-8" d="m449.48,228.74c-.05-.67-.3-1.31-.73-1.84-.4-.53-.95-.93-1.59-1.12-.54-.15-1.11-.13-1.64.07-.52.2-.96.57-1.26,1.05-.17-.35-.41-.65-.71-.9-.27-.21-.59-.37-.93-.46-.34-.09-.69-.11-1.04-.06-.65.11-1.25.43-1.71.9-.49.46-.83,1.07-.96,1.73-.16.85-.05,1.72.33,2.5.43.79,1.05,1.46,1.8,1.96,1.23.85,2.85,1.93,2.85,1.93,0,0,1.49-.97,2.81-1.66.82-.39,1.53-.97,2.07-1.7.48-.7.73-1.54.7-2.4Z"/>
  <path class="cls-8" d="m431.36,162.64l1.58.9c.05.03.1.07.13.12.03.05.05.11.05.17s-.02.12-.05.17c-.03.05-.07.09-.13.12l-1.57.9c-.06.02-.11.07-.14.13l-.85,1.58c-.03.05-.07.1-.12.13-.05.03-.11.05-.17.05s-.12-.02-.17-.05c-.05-.03-.09-.07-.12-.13l-.9-1.57c-.03-.06-.08-.1-.13-.13l-1.58-.9c-.05-.03-.1-.07-.13-.12-.03-.05-.05-.11-.05-.17s.02-.12.05-.17c.03-.05.08-.09.13-.12l1.57-.9c.05-.03.1-.08.13-.14l.9-1.58c.03-.05.07-.1.12-.13.05-.03.11-.05.17-.05s.12.02.17.05c.05.03.09.07.12.13l.9,1.57c.02.05.05.1.1.14Z"/>
  <path class="cls-8" d="m335.65,228.16l1.57.9c.05.03.1.07.13.12.03.05.05.11.05.17s-.02.12-.05.17c-.03.05-.07.1-.13.12l-1.57.9c-.06.03-.1.07-.13.13l-.85,1.58c-.03.05-.07.1-.12.13-.05.03-.11.05-.17.05s-.12-.02-.17-.05c-.05-.03-.09-.07-.12-.13l-.9-1.57c-.03-.06-.08-.11-.14-.13l-1.58-.85c-.05-.03-.1-.07-.13-.12-.03-.05-.05-.11-.05-.17s.02-.12.05-.17c.03-.05.07-.09.13-.12l1.57-.9c.05-.04.1-.08.14-.14l.85-1.58c.03-.05.07-.1.12-.13.05-.03.11-.05.17-.05s.12.02.17.05c.05.03.09.07.12.13l.9,1.57s.09.08.14.09Z"/>
  <path class="cls-8" d="m326.03,218.56l.83.45s.05.04.07.06c.02.03.02.06.02.09s0,.06-.02.09c-.02.03-.04.05-.07.06l-.82.45s-.06.04-.07.07l-.44.82s-.04.05-.06.07c-.03.02-.06.03-.09.03s-.06,0-.09-.03c-.03-.02-.05-.04-.06-.07l-.46-.82s-.01-.03-.02-.04c-.01-.01-.02-.02-.04-.02l-.83-.45s-.05-.04-.06-.07c-.01-.03-.02-.06-.02-.09s0-.06.02-.09c.02-.03.04-.05.06-.07l.82-.45s.05-.04.07-.07l.44-.83s.04-.05.07-.06c.03-.01.06-.02.09-.02s.06,0,.09.02c.03.02.05.04.07.06l.46.82s.03.06.06.07Z"/>
  <path class="cls-8" d="m413.8,282.21l.83.45s.05.04.06.07c.01.03.02.06.02.09s0,.06-.02.09c-.02.03-.04.05-.06.07l-.82.45s-.05.04-.07.07l-.44.82s-.04.05-.06.07c-.03.02-.06.03-.09.03s-.06,0-.09-.03c-.03-.02-.05-.04-.06-.07l-.46-.83s-.04-.05-.07-.06l-.82-.45s-.05-.04-.07-.06c-.02-.03-.02-.06-.02-.09s0-.06.02-.09c.02-.03.04-.05.07-.06l.82-.45s.05-.04.06-.07l.45-.82s.04-.05.06-.07c.03-.02.06-.02.09-.02s.06,0,.09.02c.03.02.05.04.06.07l.45.82s.04.06.07.07Z"/>
  <path class="cls-8" d="m151.72,112.01c7.84,0,14.2-6.19,14.2-13.82s-6.36-13.82-14.2-13.82-14.2,6.19-14.2,13.82,6.36,13.82,14.2,13.82Z"/>
  <path class="cls-8" d="m149.7,129.09c-.15-1.9-.21-3.8-.15-5.7-.06-1.9,0-3.81.15-5.7.15,1.9.19,3.8.14,5.7.05,1.9,0,3.8-.14,5.7Z"/>
  <path class="cls-8" d="m141.51,114.48c.07,0-1.27,2.41-2.98,5.32s-3.17,5.21-3.24,5.17c-.07-.04,1.27-2.43,2.98-5.33.99-1.77,2.07-3.5,3.24-5.16Z"/>
  <path class="cls-8" d="m133.12,109.38c-1.04,1-2.15,1.93-3.31,2.78-1.11.92-2.28,1.76-3.5,2.52,1.03-1,2.12-1.93,3.28-2.78,1.12-.92,2.3-1.76,3.54-2.52Z"/>
  <path class="cls-8" d="m163.86,123.47c-.17-.46-.3-.93-.38-1.42-.21-.9-.49-2.07-.9-3.38-.4-1.31-.74-2.5-1.01-3.35-.16-.44-.28-.89-.35-1.36.25.42.44.86.59,1.33.32.84.73,2.01,1.1,3.33.37,1.32.62,2.52.79,3.42.1.47.15.94.15,1.42Z"/>
  <path class="cls-8" d="m178.25,113.52c-1.46-1.05-2.86-2.18-4.19-3.38-1.4-1.13-2.73-2.32-4.01-3.59,1.46,1.05,2.87,2.18,4.2,3.38,1.4,1.12,2.73,2.32,4,3.59Z"/>
  <path class="cls-8" d="m183.77,99.86c-.58-.03-1.15-.11-1.72-.23-1.05-.17-2.5-.4-4.11-.57-1.61-.18-3.09-.29-4.15-.35-.58,0-1.15-.05-1.72-.14.57-.07,1.15-.1,1.73-.06,1.07,0,2.55.09,4.17.27,1.62.18,3.08.43,4.13.65.57.09,1.13.24,1.67.44Z"/>
  <path class="cls-8" d="m183.78,86.42c0,.08-3.05.9-6.86,1.8-3.81.9-6.93,1.55-6.93,1.5s3.05-.9,6.87-1.8c3.82-.9,6.91-1.58,6.92-1.5Z"/>
  <path class="cls-8" d="m167.75,70.76c.06.04-1.4,2.33-3.29,5.1-1.88,2.77-3.47,4.98-3.53,4.94-.06-.04,1.4-2.33,3.28-5.1,1.88-2.77,3.47-4.97,3.54-4.94Z"/>
  <path class="cls-8" d="m151.82,67.49c.05.63.05,1.26,0,1.89v4.57c0,1.78,0,3.4.05,4.57.05.63.05,1.26,0,1.9-.13-.62-.19-1.25-.2-1.89-.07-1.17-.13-2.78-.13-4.58s.05-3.4.13-4.57c0-.63.05-1.27.15-1.89Z"/>
  <path class="cls-8" d="m139.77,82.11c-.07,0-1.57-2.22-3.34-5.05-1.77-2.83-3.15-5.15-3.09-5.19,1.2,1.62,2.31,3.3,3.34,5.04,1.12,1.68,2.15,3.42,3.09,5.2Z"/>
  <path class="cls-8" d="m132.57,88.07c-.51-.03-1.02-.1-1.51-.23-.9-.19-2.19-.49-3.59-.9-1.4-.4-2.61-.81-3.49-1.14-.48-.14-.94-.33-1.37-.57.5.1.99.24,1.46.41.9.28,2.13.66,3.51,1.05,1.38.4,2.62.73,3.53.97.5.09.99.22,1.46.4Z"/>
  <path class="cls-8" d="m129.42,98.7c-1.48.28-2.98.47-4.49.57-1.51.2-3.04.29-4.56.29,1.48-.29,2.98-.48,4.49-.57,1.51-.19,3.04-.28,4.56-.28Z"/>
  <path class="cls-6" d="m253.15,218.29l-39.86-62.49c-.74-.07-1.48.02-2.18.28-.7.26-1.32.67-1.83,1.21-.51.54-.89,1.18-1.12,1.89-.23.71-.29,1.45-.18,2.19-6.67.32-12.38,6.9-11.76,13.55-2.57.24-5.05,1.08-7.23,2.46-2.19,1.38-4.02,3.24-5.35,5.46-1.33,2.21-2.12,4.71-2.31,7.28-.19,2.58.23,5.16,1.23,7.54-.93,1.73-1.39,3.67-1.34,5.63.06,1.96.63,3.87,1.67,5.54,1.03,1.67,2.49,3.03,4.22,3.96,1.73.92,3.67,1.37,5.63,1.31-.88,2.41-.94,5.04-.19,7.5.75,2.45,2.28,4.6,4.35,6.11,2.08,1.51,4.59,2.3,7.15,2.26,2.57-.04,5.05-.91,7.08-2.49.81,1.6,1.96,3,3.38,4.09,1.42,1.09,3.07,1.85,4.82,2.22,1.75.37,3.57.34,5.3-.08,1.74-.42,3.36-1.24,4.74-2.37,1.85,1.37,4.13,2.04,6.42,1.9,2.3-.14,4.48-1.08,6.15-2.66,1.17-1.17,2.05-2.69,3.48-3.49,1.43-.8,3.03-.9,4.49-1.53,1.3-.64,2.34-1.71,2.93-3.03.59-1.32.7-2.81.3-4.2Z"/>
  <path class="cls-8" d="m242.34,212.59c0,1.17-.35,2.31-.99,3.28-.65.97-1.57,1.73-2.65,2.17-1.08.45-2.26.56-3.41.34-1.14-.23-2.2-.79-3.02-1.62s-1.39-1.88-1.61-3.02c-.23-1.14-.11-2.33.33-3.41.45-1.08,1.2-2,2.17-2.65.97-.65,2.11-.99,3.28-.99,1.57,0,3.07.62,4.17,1.73,1.11,1.11,1.73,2.61,1.73,4.17Z"/>
  <path class="cls-8" d="m234.32,215.13c-2.46,3.79-3.84,8.18-3.97,12.69-.14,4.52.97,8.98,3.2,12.91,1.29-3.89,2.2-7.89,2.69-11.96.36-4.09.08-10.07-1.94-13.64"/>
  <path class="cls-6" d="m221.49,180.61c-1.43-1.84-2.17-4.13-2.09-6.46.08-2.33.98-4.56,2.53-6.3-1.9-2.23-1.37-5.77.39-8.08,1.77-2.31,4.49-3.72,7.08-5.04,1.22-6.74,20-17.06,26.71-15.67.3-2.9,8.38-2.6,9.61,1.38.65-.89,1.54-1.58,2.58-1.98,1.03-.4,2.15-.49,3.23-.26,9.88,1.53,8.7,7.7,8.7,7.7,0,0,3.01-1.2,6.11,2.19,2.86,3.12,1.71,5.16,1.71,5.16,1.12.81,2.05,1.86,2.73,3.06.68,1.2,1.09,2.54,1.21,3.92.18,2.34-.48,4.84.58,6.92.53,1.05,1.46,1.88,1.88,2.97,1.22,3.17-2.22,6.57-1.45,9.88.16.67.49,1.29.7,1.96.43,1.37.36,2.84-.21,4.16-.44,1.01-1.18,1.93-1.19,3.03.08.83.27,1.64.57,2.41.48,1.98-3.55,9.8-5.23,10.94l-51.36,2.27c-1.96-.37-3.76-1.34-5.14-2.77-1.38-1.43-2.29-3.26-2.58-5.24,0-.66-.19-1.31-.55-1.87-.41-.4-.89-.7-1.43-.9-3.38-1.66-3.93-6.19-3.72-9.94.07-.52.04-1.06-.08-1.57-.29-.71-.73-1.35-1.28-1.88Z"/>
  <path class="cls-12" d="m236.22,180.17c-.48-9.09,4.86-19.76,13.74-24.5,5.59-3,10.03-3.18,13.01-3.59,4.19-.55,8.45.18,12.2,2.11,2.85.57,13.57,9.71,14.48,20,1,11.43,1.8,25.43.62,34.01-2.31,17.25-15.42,19.76-15.42,19.76l2.23,28.46-35.65-12.57-5.21-63.67Z"/>
  <path class="cls-10" d="m265.82,206.46c.06-.82.42-1.59,1-2.16.53-.54,1.23-.88,1.98-.99.75-.1,1.51.05,2.17.42,1.33.77,1.61,2.24,1.5,3.91-.63,1.03-1.08,2.04-2.26,2.24-.19,0-.38.05-.57.06-.94.07-1.86-.22-2.6-.8-.39-.33-.71-.74-.92-1.2s-.31-.97-.3-1.48Z"/>
  <path class="cls-6" d="m283.71,188.09c.02.57-.18,1.13-.57,1.56-.39.43-.92.68-1.5.72-.28.03-.56,0-.83-.08-.27-.08-.52-.22-.73-.4-.22-.18-.39-.4-.52-.65-.13-.25-.21-.52-.23-.8-.02-.58.18-1.14.57-1.56.39-.43.92-.68,1.5-.72.28-.03.56,0,.83.08.27.08.52.22.73.4.22.18.39.4.52.65.13.25.21.52.23.8Z"/>
  <path class="cls-6" d="m285.83,180.84c-.26.29-1.97-.9-4.34-.83-2.37.06-4.08,1.29-4.34,1.01-.13-.13.14-.66.9-1.22,1.01-.74,2.22-1.14,3.47-1.17,1.23-.03,2.44.33,3.46,1.03.75.54,1.01,1.05.85,1.18Z"/>
  <path class="cls-6" d="m272.44,199.9c0-.14,1.45-.43,3.83-.79.61-.08,1.18-.21,1.27-.63.04-.63-.12-1.26-.45-1.8-.6-1.45-1.23-2.97-1.9-4.56-2.64-6.51-4.57-11.86-4.31-11.96.26-.1,2.62,5.08,5.27,11.58.64,1.6,1.24,3.13,1.8,4.6.4.72.54,1.55.38,2.36-.09.21-.22.4-.39.56-.17.15-.37.27-.59.34-.33.1-.68.15-1.02.16-2.37.21-3.86.27-3.88.14Z"/>
  <path class="cls-10" d="m274.85,227.91c-8.11.33-16.16-1.6-23.24-5.57,0,0,6.39,11.95,23.58,9.93l-.34-4.36Z"/>
  <path class="cls-6" d="m284.04,171.44c-.39.59-2.21.25-4.33.48-2.12.22-3.86.83-4.34.32-.21-.25,0-.83.73-1.43.99-.75,2.17-1.2,3.4-1.29,1.24-.14,2.48.09,3.59.66.83.41,1.14.93.94,1.27Z"/>
  <path class="cls-6" d="m258.89,189.09c.03.57.28,1.11.7,1.5.42.39.97.61,1.55.6.28,0,.56-.05.82-.15.26-.11.5-.26.7-.46.2-.2.36-.43.47-.69.11-.26.16-.54.16-.82-.03-.57-.28-1.11-.7-1.5-.42-.39-.98-.6-1.55-.59-.28,0-.56.05-.82.15-.26.1-.49.26-.69.46-.2.2-.36.43-.46.69s-.16.53-.16.81Z"/>
  <path class="cls-6" d="m253.44,182.56c.3.27,1.89-1.07,4.25-1.21,2.36-.14,4.17.94,4.42.63.12-.13-.19-.63-.98-1.14-1.08-.65-2.33-.95-3.59-.85-1.23.07-2.41.53-3.36,1.32-.67.6-.88,1.13-.74,1.26Z"/>
  <path class="cls-6" d="m253.12,173.23c.49.51,2.29-.16,4.49-.32,2.2-.16,4.08.11,4.49-.49.17-.28-.15-.8-1-1.26-1.15-.56-2.43-.79-3.71-.66-1.27.09-2.49.54-3.51,1.3-.77.64-.99,1.2-.76,1.42Z"/>
  <path class="cls-12" d="m239.38,196.38c0-1.28-1.59-4.26-2.86-4.43-3.39-.44-9.46,0-9.31,8.55.21,11.67,11.93,9.09,11.94,8.75s.34-8.45.22-12.87Z"/>
  <path class="cls-10" d="m235.85,205.03c-.05,0-.2.15-.55.31-.48.22-1.02.24-1.52.05-1.25-.43-2.33-2.37-2.43-4.49-.04-1.01.13-2.01.52-2.94.1-.37.29-.7.56-.98s.59-.49.95-.61c.23-.07.48-.05.7.04.22.1.4.27.51.49.16.33.1.57.16.58.06.02.24-.2.14-.68-.07-.29-.24-.55-.48-.73-.33-.24-.73-.34-1.13-.28-.48.1-.93.33-1.29.65-.37.33-.65.74-.81,1.21-.49,1.02-.71,2.15-.65,3.28.12,2.35,1.36,4.54,3.06,5,.32.08.65.1.97.04.32-.06.63-.19.89-.38.36-.29.42-.55.38-.58Z"/>
  <path class="cls-6" d="m292.24,174.25c-2.4-1.42-3.96-3.39-3.88-6.19-1.56.5-3.2-1.47-4.16-2.81s-2.08-1.99-2.06-3.59c.04-.32-.01-.65-.14-.95-.24-.44-.81-.57-1.29-.71-1.26-.37-2.4-1.06-3.33-1.99-.93-.93-1.61-2.08-1.98-3.34-2.5,1.16-5.24,1.68-7.99,1.53-.59.9-1.39,1.64-2.35,2.15-.95.51-2.02.76-3.1.74-1.08-.02-2.13-.31-3.07-.85-.93-.54-1.71-1.31-2.27-2.24-.38.72-.91,1.36-1.55,1.86-.64.5-1.39.86-2.18,1.04-1.59.36-3.22.49-4.85.39.34,1.58.1,3.23-.68,4.65-.78,1.42-2.04,2.51-3.56,3.07-.41.14-.9.28-1.07.67-.05.22-.06.45-.03.67.04.22.12.44.24.63.24.67.34,1.38.3,2.09-.04.71-.23,1.4-.54,2.04-.32.64-.76,1.2-1.29,1.66-.54.46-1.17.81-1.84,1.03.46.38.82.87,1.06,1.41.24.54.36,1.14.34,1.73-.02.6-.17,1.18-.45,1.71-.28.53-.67.99-1.15,1.34-.42.27-.97.59-.9,1.09.05.18.14.36.27.49.99,1.06,1.67,2.39,1.94,3.82.14,1.45-.79,3.1-2.24,3.2.42.29.77.67,1.03,1.1.27.43.44.92.52,1.42,0,1.02-.96,2.08-1.92,1.74-.41-.14-6.29-1.15-6.54-1.49-3.43-4.42.62-9.49.81-15.08.3-5.61,1.89-11.07,4.66-15.95,1.08-2.09,2.43-4.02,4.02-5.76,1.9-1.86,4.01-3.51,6.29-4.9,2.92-1.91,5.92-3.83,9.29-4.71,6.29-1.65,12.91.48,18.86,3.06,2.31.9,4.48,2.11,6.46,3.59,2.24,1.94,4.12,4.26,5.54,6.86,2.35,3.59,3.93,7.63,4.64,11.86"/>
  <path class="cls-6" d="m265.38,204.25c.29-.19,1.44,1.8,3.92,2.14,2.48.34,4.42-1.06,4.6-.8.1.11-.23.65-1.1,1.19-1.13.7-2.46.97-3.77.77-1.26-.18-2.39-.85-3.16-1.86-.56-.76-.63-1.37-.49-1.45Z"/>
  <path class="cls-8" d="m209.92,149.2c0,15.79,11.03,41.49,20.31,42.98l-.09-.67c-.43-10.02-.83-20.32,2.44-29.8,3.66-10.61,13.17-18.3,23.52-22.66-15.54-3.36-37.04,4.44-46.18,10.16Z"/>
  <path class="cls-6" d="m250.21,138.3c-1.81.43-3.46,1.36-4.78,2.68-1.32,1.32-2.24,2.97-2.68,4.78-2.37.47-4.49,1.79-5.96,3.7-1.48,1.92-2.2,4.3-2.06,6.71-1.27.41-2.44,1.11-3.4,2.04-.96.93-1.7,2.07-2.15,3.33-.45,1.26-.61,2.61-.45,3.94.15,1.33.61,2.61,1.34,3.73-1.21,1.64-1.92,3.59-2.04,5.63s.37,4.06,1.4,5.82c-.82.76-1.46,1.69-1.85,2.73s-.55,2.16-.43,3.27c.11,1.11.48,2.18,1.08,3.12.6.94,1.4,1.73,2.36,2.31l4.1.05-.14-17.01,2.91-9.99,6.18-10.87,6.36-5.81,10.17-6.67c-1.18-1.44-2.73-2.53-4.48-3.15-1.76-.62-3.65-.74-5.47-.35Z"/>
  <path class="cls-8" d="m234.16,213.48c-1.09-2.34-6.47-3.46-10.67-2.51-4.21,1.06-7.92,3.55-10.49,7.05-2.54,3.48-4.3,7.46-5.18,11.67,10.64.18,21.29-6.88,26.34-16.25"/>
  <path class="cls-6" d="m239.27,217.88s-.16.15-.53.33c-.53.24-1.1.38-1.68.43-.97.11-1.94-.01-2.85-.37s-1.71-.93-2.34-1.67c-.63-.74-1.07-1.62-1.28-2.57s-.18-1.94.08-2.87c.13-.57.36-1.1.68-1.59.22-.33.39-.49.41-.48-.33.68-.59,1.4-.77,2.14-.21.88-.2,1.8.01,2.68.22.88.63,1.7,1.22,2.39.59.69,1.33,1.23,2.17,1.58s1.74.5,2.65.43c.75-.07,1.5-.21,2.23-.43Z"/>
  <path class="cls-6" d="m221.18,217.67c2.74-2.07,5.96-3.4,9.37-3.85,0,.14-2.17.68-4.76,1.8-2.59,1.11-4.61,2.18-4.61,2.06Z"/>
  <path class="cls-6" d="m233.59,229.05c-.12-1.84-.12-3.68,0-5.51-.02-1.84.07-3.68.29-5.51.25,1.83.31,3.68.18,5.52.03,1.84-.12,3.69-.47,5.5Z"/>
  <path class="cls-6" d="m224.9,149.26c-.18.58-.4,1.16-.65,1.72-.6,1.54-1.11,3.11-1.53,4.71-1.41,5.28-1.72,10.79-.92,16.2.81,5.41,2.71,10.59,5.6,15.23.87,1.41,1.82,2.77,2.84,4.08.4.46.77.94,1.12,1.45-.12-.09-.24-.2-.34-.32-.21-.22-.54-.55-.9-1.01-1.09-1.26-2.08-2.6-2.98-4.01-3-4.65-4.97-9.88-5.78-15.35-.82-5.47-.45-11.05,1.06-16.37.46-1.6,1.02-3.18,1.68-4.71.23-.55.45-.95.58-1.23.06-.13.13-.26.22-.39Z"/>
  <path class="cls-8" d="m213.54,467.83h18.56l.54-23.52s-8.43-1.52-12.97,4.43c-4.53,5.95-6.13,19.09-6.13,19.09Z"/>
  <path class="cls-6" d="m207.46,392.67c0,13.79,1.62,47.05,44.21,50.29h-19.47l-.83,28.74s119.87,2.93,123.6,2.98c7.18.12,24.44-8.6,27.68-30.1,3.24-21.5-14.6-28.38-19.87-32.47-5.27-4.1-64.49-24.74-87.2-28.79l-66.51,6.48-1.62,2.87Z"/>
  <path class="cls-6" d="m381.33,312.72c-1.49-2.04-3.39-3.76-5.57-5.04-2.18-1.29-4.6-2.12-7.1-2.44-9.64-1.4-19.45.69-27.69,5.89-13.16,8.45-64.02,74.81-64.02,74.81l86.37,33.3s21.29-65.51,23.76-76.55c2.08-9.25,1.61-19.86-5.76-29.97Z"/>
  <path class="cls-11" d="m321.33,396.27c.03-.26.08-.53.16-.78.13-.55.32-1.29.55-2.23.23-.93.55-2.15.96-3.51.41-1.37.82-2.91,1.38-4.6.57-1.69,1.14-3.59,1.87-5.53.73-1.94,1.51-4.06,2.36-6.29,1.8-4.36,3.91-9.1,6.4-13.94,2.5-4.84,5.17-9.29,7.72-13.25,1.3-1.97,2.54-3.84,3.78-5.52,1.24-1.69,2.4-3.27,3.48-4.68,1.09-1.41,2.12-2.69,3.01-3.75s1.7-2.02,2.36-2.77l1.53-1.71c.17-.2.36-.39.56-.58-.14.23-.3.44-.49.64l-1.46,1.8c-.64.75-1.43,1.69-2.29,2.8-.86,1.11-1.91,2.35-2.95,3.79-1.04,1.44-2.25,2.97-3.43,4.71-1.18,1.73-2.44,3.59-3.73,5.53-2.53,3.97-5.17,8.42-7.68,13.24-2.51,4.82-4.62,9.54-6.41,13.88-.9,2.19-1.71,4.26-2.41,6.23-.69,1.98-1.36,3.81-1.91,5.5-.56,1.69-1.03,3.22-1.45,4.58-.42,1.36-.75,2.51-1.02,3.48s-.49,1.66-.64,2.2c-.07.26-.15.51-.25.76Z"/>
  <path class="cls-11" d="m217.93,343.57s-2.76-46.26-3.59-57.71c-.83-11.46-1.54-33.6,7.94-43.48,9.48-9.88,16.08-11.47,16.08-11.47l38.61,17.2s21.92,31.08,21.92,44.9-14.31,55.33-14.31,55.33l-66.65-4.77Z"/>
  <path class="cls-8" d="m264.1,281.24l-.21-1.72,35.02,1.15s3.86,12.71-1.62,33.33c-2.19,8.24-10.15,39.06-10.15,39.06l4.07,25.04,28.59,17.92s-19.49,1.8-30.96,14.82c-11.47,13.02-19.76,34.78-19.76,34.78,0,0-63.38.33-62.54-40.17,0-6.14.9-12.25,2.69-18.12l9.47-29.1,1.15-14.48s20.39-2.21,22.97-9.63c2.58-7.42,21.26-52.87,21.26-52.87Z"/>
  <path class="cls-11" d="m368.77,416.04c-.18-.06-.35-.12-.52-.21l-1.43-.67c-1.25-.58-3.05-1.42-5.31-2.4-4.49-1.99-10.78-4.49-17.8-7.18-7.02-2.69-13.41-4.95-18.04-6.59l-5.48-1.96-1.49-.55c-.18-.05-.34-.13-.5-.23.18.02.37.07.54.14l1.51.47c1.31.41,3.21,1.02,5.53,1.8,4.66,1.57,11.08,3.81,18.1,6.47,7.02,2.66,13.3,5.26,17.76,7.32,2.24,1.02,4.02,1.9,5.24,2.54.57.3,1.04.55,1.4.74.17.08.33.18.48.31Z"/>
  <path class="cls-11" d="m334.66,449.82c0,.13-14.65-.99-32.71-2.5-18.05-1.51-32.69-2.84-32.67-2.96.02-.13,14.65.99,32.71,2.5,18.06,1.51,32.68,2.79,32.67,2.96Z"/>
  <path class="cls-6" d="m247.02,400.47c.07-.16.17-.31.28-.45l.9-1.22c.39-.54.9-1.17,1.45-1.9.56-.74,1.24-1.56,2-2.46,5.94-7.58,14.34-12.85,23.75-14.91,2.69-.6,5.42-1.01,8.17-1.24l3.17-.21h3.92c.17-.02.35-.02.52,0-.17.04-.35.06-.52.06l-1.51.08-2.39.1-3.15.28c-2.72.27-5.42.71-8.08,1.33-3.27.78-6.44,1.91-9.46,3.38-5.41,2.82-10.22,6.68-14.15,11.35-.77.9-1.46,1.68-2.05,2.41-.58.73-1.11,1.34-1.52,1.85l-.95,1.18c-.12.14-.24.27-.39.39Z"/>
  <path class="cls-8" d="m219.54,358.87c.11.11-.83,1.33-2.82,3.3-2.82,2.76-5.89,5.26-9.17,7.46-1.03.71-2.15,1.41-3.31,2.12-.58.35-1.2.7-1.8,1.05-.67.4-1.37.73-2.1,1-.44.14-.89.22-1.35.24-.52.02-1.04-.07-1.52-.28-.5-.21-.95-.55-1.29-.97-.4-.49-.61-1.1-.6-1.73.03-.59.24-1.17.59-1.64.26-.38.57-.72.9-1.04l1.8-1.68c2.49-2.49,5.27-4.66,8.29-6.48,3.38-2.03,7.31-2.97,11.24-2.69h.18l-.45,2.29c-6.9-1.9-13.61-4.44-20.03-7.6-.37-.18-.74-.36-1.1-.55-.36-.19-.73-.35-1.15-.61-.5-.3-.92-.73-1.2-1.24-.15-.29-.24-.61-.26-.94-.03-.33.02-.66.12-.97.17-.54.48-1.03.9-1.41.4-.33.86-.58,1.36-.73.81-.22,1.65-.3,2.49-.25,2.81.03,5.6.6,8.19,1.69,3.74,1.52,6.99,4.04,9.39,7.29,1.64,2.31,2.09,3.83,1.98,3.87-.11.05-.9-1.27-2.69-3.3-2.53-2.85-5.74-5.02-9.32-6.31-2.42-.9-4.99-1.34-7.58-1.28-.64-.03-1.28.04-1.9.21-.23.07-.44.18-.62.34-.15.13-.26.3-.32.49-.02.06-.04.11-.04.18s.01.12.04.17c.13.17.29.31.48.41.25.15.61.31.98.49l1.09.51c6.36,2.99,12.97,5.42,19.76,7.28l-.44,2.29h-.15c-3.46-.23-6.9.6-9.88,2.37-2.87,1.7-5.54,3.73-7.94,6.05l-1.8,1.64c-.57.5-.9.98-.9,1.23s.21.59.65.79c.21.1.43.15.67.14.28,0,.55-.05.82-.13.62-.21,1.23-.47,1.8-.8.61-.32,1.21-.64,1.8-.96,1.18-.65,2.28-1.29,3.32-1.94,3.3-2.05,6.46-4.31,9.46-6.76,2.16-1.75,3.32-2.76,3.44-2.63Z"/>
  <path class="cls-8" d="m233.48,232.98c0-.07.17-.21.57-.39.25-.12.51-.23.77-.31l1.1-.26c2.42-.3,4.88.09,7.08,1.12,3.22,1.48,6.15,3.52,8.65,6.03,3.05,2.99,5.76,6.3,8.08,9.88,4.24,6.46,7.52,13.49,9.74,20.89,1.66,5.68,1.99,9.34,1.71,9.39-.29.05-1.25-3.43-3.28-8.86-2.62-7.06-6.02-13.82-10.13-20.13-4.8-7.33-10.45-13.17-15.48-15.72-1.93-1.05-4.09-1.64-6.29-1.71h-1.05c-.3,0-.56.06-.77.07-.45.11-.69.09-.72,0Z"/>
  <path class="cls-5" d="m289.51,367.82h-.25l-.74-.04c-.65,0-1.62-.14-2.87-.16-3.51-.15-7.03-.08-10.53.22-5.2.44-10.35,1.36-15.37,2.76-2.83.8-5.77,1.74-8.76,2.91-2.98,1.17-6.01,2.52-9.03,4.06-13.5,7.01-24.97,17.35-33.33,30.06-.71,1.03-1.19,1.87-1.55,2.42l-.41.63c-.04.07-.09.14-.15.21l.12-.23.37-.65c.34-.57.79-1.42,1.48-2.47,1.88-2.98,3.95-5.84,6.21-8.56,7.46-9,16.66-16.41,27.05-21.77,3.05-1.55,6.09-2.9,9.09-4.08,2.89-1.11,5.83-2.08,8.81-2.89,5.05-1.39,10.23-2.29,15.46-2.69,3.52-.27,7.05-.29,10.58-.06,1.25.05,2.21.2,2.86.25l.74.08.27.03Z"/>
  <path class="cls-5" d="m287.89,357.89c-.25.04-.49.06-.74.07l-2.15.12c-.9.04-2.07.11-3.39.2s-2.83.17-4.49.32c-3.33.24-7.28.65-11.67,1.16-4.39.51-9.18,1.24-14.19,2.12-5.01.88-9.76,1.88-14.06,2.87-4.3.99-8.14,1.98-11.36,2.88-1.62.43-3.05.9-4.33,1.24-1.27.34-2.37.7-3.26.98l-2.06.61c-.24.09-.48.15-.73.19.22-.11.45-.2.69-.28l2.04-.7c.9-.31,1.97-.67,3.23-1.05,1.27-.39,2.69-.85,4.32-1.3,3.21-.95,7.05-1.96,11.35-2.99,4.3-1.03,9.06-2.01,14.08-2.91,5.02-.9,9.88-1.55,14.22-2.07,4.34-.52,8.36-.9,11.67-1.07,1.67-.13,3.18-.19,4.49-.25,1.31-.06,2.47-.1,3.4-.12h2.15c.26-.03.52-.03.78,0Z"/>
  <path class="cls-5" d="m287.48,349.56c0,.14-15.32.66-34.22,1.18-18.9.52-34.24.83-34.25.7,0-.13,15.32-.65,34.23-1.17,18.91-.51,34.24-.83,34.24-.71Z"/>
  <path class="cls-5" d="m289.54,334.55c0,.12-10.96.9-24.47,1.68-13.52.78-24.49,1.33-24.5,1.2,0-.12,10.95-.9,24.47-1.67,13.52-.77,24.49-1.34,24.5-1.21Z"/>
  <path class="cls-5" d="m300.34,290.75c0,.13-8.17.11-18.25-.05-10.08-.15-18.25-.39-18.25-.52s8.17-.11,18.26.05c10.09.16,18.25.38,18.24.51Z"/>
  <path class="cls-5" d="m298.95,302.85c-.5.07-1,.1-1.51.09-.97,0-2.37.04-4.1.04-3.48,0-8.27-.1-13.55-.39-5.28-.3-10.08-.71-13.52-1.09-1.72-.19-3.12-.36-4.08-.49-.51-.04-1.01-.13-1.5-.26.5-.02,1.01,0,1.51.07l4.09.35c3.46.29,8.23.66,13.47.9,5.24.24,10.07.45,13.53.53l4.1.11c.52,0,1.04.06,1.55.14Z"/>
  <path class="cls-5" d="m297.21,315.12c0,.13-9.88-.08-22.08-.48s-22.06-.83-22.06-.95,9.88.09,22.08.48c12.2.4,22.06.77,22.06.94Z"/>
  <path class="cls-5" d="m259.49,386.34c-.16.13-.34.25-.52.36l-1.52.96c-.66.41-1.47.9-2.39,1.55-.92.65-1.98,1.3-3.12,2.13l-1.8,1.27-1.89,1.45c-1.32.98-2.69,2.12-4.08,3.29-2.8,2.41-5.78,5.16-8.72,8.24-2.74,2.92-5.32,5.98-7.75,9.16-1.08,1.5-2.15,2.89-3.04,4.27l-1.31,1.98c-.4.65-.78,1.27-1.15,1.87-.76,1.18-1.36,2.29-1.9,3.25s-1,1.8-1.35,2.51c-.35.71-.63,1.19-.83,1.59-.09.19-.2.38-.32.55.05-.2.13-.4.23-.58l.76-1.64c.32-.72.75-1.57,1.28-2.55.54-.98,1.11-2.11,1.84-3.3l1.13-1.89c.4-.66.84-1.31,1.29-2,.9-1.39,1.94-2.8,3.02-4.31,2.41-3.22,5-6.3,7.75-9.23,2.78-2.9,5.71-5.66,8.78-8.25,1.44-1.16,2.78-2.29,4.12-3.26.66-.49,1.28-.98,1.9-1.43l1.8-1.26c1.14-.82,2.23-1.47,3.16-2.08.93-.6,1.8-1.1,2.43-1.48l1.57-.9c.19-.11.38-.21.59-.27Z"/>
  <path class="cls-5" d="m295.89,381.47c-.06.05-.13.08-.2.11l-.61.25-2.34.9-1.69.67-1.97.9c-1.41.66-3.04,1.34-4.75,2.29l-2.69,1.43c-.9.5-1.88,1.1-2.86,1.68-2,1.13-4.01,2.55-6.16,3.98-9.2,6.44-17.28,14.37-23.89,23.45-1.46,2.13-2.92,4.1-4.08,6.1-.59.98-1.2,1.91-1.72,2.84l-1.46,2.69c-.97,1.7-1.67,3.32-2.34,4.72l-.9,1.96-.68,1.7-.95,2.33-.26.6c-.03.07-.06.14-.11.21.02-.07.04-.14.06-.21.05-.17.13-.37.22-.62l.9-2.37.65-1.71c.25-.62.57-1.27.9-1.98.65-1.42,1.33-3.06,2.29-4.77l1.44-2.69c.52-.9,1.12-1.87,1.71-2.86,1.15-2,2.6-4.01,4.06-6.14,6.59-9.14,14.68-17.11,23.93-23.55,2.16-1.43,4.19-2.85,6.21-3.96,1-.58,1.94-1.17,2.89-1.67l2.74-1.4c1.72-.9,3.38-1.6,4.79-2.23.72-.31,1.37-.61,1.99-.9l1.72-.63,2.38-.85.62-.13.18-.1Z"/>
  <path class="cls-5" d="m308.84,389.28c-.24.13-.48.24-.74.33l-2.14.9-1.54.6c-.56.23-1.15.53-1.8.82-1.28.61-2.77,1.22-4.32,2.1l-2.46,1.32c-.9.46-1.7,1.02-2.6,1.56-1.8,1.05-3.59,2.37-5.56,3.72-4.1,3.04-7.94,6.43-11.47,10.12-3.47,3.74-6.63,7.77-9.45,12.03-1.24,1.99-2.45,3.88-3.4,5.75-.48.9-1.01,1.8-1.43,2.69l-1.19,2.42c-.81,1.59-1.35,3.12-1.89,4.42-.26.66-.52,1.27-.73,1.8l-.54,1.57c-.31.9-.57,1.63-.75,2.17-.08.26-.18.51-.3.74.05-.26.12-.52.21-.77.16-.55.39-1.28.67-2.2l.49-1.59c.2-.57.45-1.18.7-1.85.53-1.32,1.04-2.85,1.8-4.49l1.17-2.55c.4-.9.9-1.8,1.41-2.69.9-1.88,2.15-3.78,3.38-5.8,2.81-4.3,5.98-8.35,9.46-12.11,3.55-3.71,7.42-7.11,11.56-10.15,1.95-1.35,3.77-2.69,5.6-3.7.9-.53,1.75-1.1,2.62-1.55l2.49-1.3c1.57-.9,3.08-1.45,4.37-2.05.65-.28,1.25-.56,1.8-.78l1.56-.57,2.17-.77c.27-.07.54-.12.82-.15Z"/>
  <g class="cls-13">
    <path class="cls-2" d="m226.77,294.55s20.75,60.84,27.95,65.21c7.19,4.37,32.71-4.77,32.71-4.77l1.38-8.52-46.51-56.29-15.53,4.36Z"/>
  </g>
  <path class="cls-6" d="m214.51,470.97l-4.89-2.16s-40.58,16.16-46.7,11.23l54.36-59.47,18.4,26.39c-12.21,5.04-16,10.04-21.17,24.01Z"/>
  <g class="cls-14">
    <path class="cls-5" d="m224.77,439.94c.34-.74.4-1.59.17-2.37-.23-.78-.75-1.46-1.45-1.89-.72-.39-1.56-.48-2.34-.26-.79.22-1.45.73-1.87,1.43-.76,1.43-.13,3.84,1.37,4.49,1.5.65,3.85-.13,4.24-1.7"/>
  </g>
  <g class="cls-14">
    <path class="cls-5" d="m217.31,420.57l3.68,5.21-52.79,54.72s-3.59,1.57-5.21-.46l54.32-59.47Z"/>
  </g>
  <path class="cls-11" d="m207.22,469.38c-.29-.28.9-1.85,1.27-4.15.37-2.3-.19-4.18.17-4.35.36-.16,1.67,1.8,1.19,4.6-.48,2.8-2.42,4.21-2.63,3.9Z"/>
  <path class="cls-11" d="m200.06,471.79c-.34-.19.3-1.9-.05-4.03-.35-2.13-1.4-3.59-1.13-3.9.27-.31,2.12,1.06,2.5,3.72.38,2.66-1.03,4.46-1.32,4.21Z"/>
  <path class="cls-11" d="m189.64,468.18c.18-.32,2.03.62,2.96,2.85s.33,4.17,0,4.07c-.33-.1-.45-1.73-1.25-3.55-.8-1.81-1.95-3.05-1.72-3.37Z"/>
  <path class="cls-11" d="m393.38,189.22c-2.49-1.65-3.41-4.88-3.5-7.88-.09-2.99.45-5.99.06-8.98-.31-2.38.13-4.88.32-7.27.36-4.71,3.14-5.39,5.14-9.68,1.99-4.29-1-5.39.07-7.18.52-.9,1.99-.57,2.91-.12.89.51,1.66,1.21,2.26,2.04,3.22,3.87,6.02,8.61,5.57,13.63-.23,2.5-1.25,4.84-1.8,7.29-.83,3.83-.54,8.08-2.5,11.45-1.8,3.18-5.24,5.03-8.49,6.72"/>
  <path class="cls-11" d="m389.31,204.32c1-6.54-2.18-14.54-6.93-19.15-2.01-1.96-4.49-3.59-5.85-5.99-1.59-2.81-1.55-6.34-3.21-9.1-2.5-4.13-7.93-5.25-12.74-5.53-4.81-.28-14.97-5.94-13.88-3.22,3.59,10.31,2.8,9.73,15.58,19.18,5.24,3.88.45,15.45,14.97,19.94,4,1.24,8.9,1.15,11.96,3.98"/>
  <path class="cls-11" d="m406.34,252.91c-7.45,2.92-13.71,8.25-17.79,15.13l-1.71,2.86c.73-1.04,2.33-1.13,3.65-1.28,2.48-.31,4.79-1.41,6.59-3.13,1.01-1.19,2.12-2.29,3.31-3.29,1.21-.71,2.48-1.32,3.8-1.8,2.88-1.28,5.26-3.5,8.08-4.88,2.82-1.37,6.18-1.89,9.32-2.69,3.14-.81,6.34-2.02,8.41-4.49-7.88.39-16.29.74-23.68,3.57Z"/>
  <path class="cls-11" d="m417.72,212.74c-2.69,1.26-4.59,3.87-7.25,5.22-2.41,1.21-5.2,1.28-7.81,1.92-6.29,1.52-14.03,13.14-18.25,18.96,1.7-.09,5.07-1.51,8.19-1.46,3.12.05,7.23-.83,10.33-1.16,10.18-1.06,15.08-6.02,22.78-12.57,4.63-3.94,10.21-5.53,13.15-10.87-6.56,2.9-14.63-3.04-21.14-.04Z"/>
  <path class="cls-11" d="m389.27,209.92c3.59-10.4,12.93-18.39,22.81-23.2,10.03-4.82,21.55-5.51,32.08-1.92-5.92,7.78-11.92,8.76-21.43,11.01-1.63.39-5.73-.83-8.7,1.3-1.19.85-1.47,4.29-8.37,5.57-6.9,1.28-12.57,2.63-16.39,7.25Z"/>
  <path class="cls-6" d="m396.79,167.39c.01.11.01.22,0,.33v2.61c0,.64-.06,1.37-.11,2.2-.33,4.67-1.04,9.31-2.13,13.86-1.29,5.79-3.38,12.57-5.68,20.02-2.58,8.09-4.69,16.31-6.33,24.64-2.95,15.14-4.23,30.57-3.82,45.99.14,5.92.57,10.69.82,13.99.17,1.62.3,2.9.39,3.79,0,.41.06.75.08.99,0,.11,0,.23,0,.34-.92-6.33-1.47-12.71-1.62-19.1-.52-15.45.72-30.91,3.68-46.09,1.64-8.34,3.77-16.58,6.38-24.68,2.33-7.47,4.45-14.2,5.77-19.96,1.11-4.54,1.87-9.16,2.27-13.81.05-.82.11-1.55.15-2.19.05-.64,0-1.17.05-1.61.05-.44,0-.75,0-1,.03-.11.06-.22.1-.33Z"/>
  <path class="cls-6" d="m433.83,186.09c-.2.04-.39.07-.59.07-.39,0-.95,0-1.69.11-1.46.11-3.59.32-6.17.76-3.03.51-6.01,1.25-8.93,2.22-3.58,1.16-7,2.75-10.19,4.73-5.74,3.73-10.85,8.35-15.11,13.7-1.64,2.06-2.85,3.8-3.65,5.03-.42.61-.71,1.11-.9,1.42-.1.17-.22.34-.35.48.07-.18.16-.36.27-.53.19-.34.46-.84.85-1.46,1.08-1.78,2.26-3.5,3.54-5.14,4.22-5.45,9.34-10.15,15.12-13.89,3.23-2.01,6.69-3.6,10.31-4.74,2.93-.96,5.93-1.67,8.98-2.15,2.06-.32,4.13-.53,6.21-.61h1.7c.2-.02.4-.02.59,0Z"/>
  <path class="cls-6" d="m357.22,169.72c.17.01.33.05.48.11.31.09.77.23,1.36.44,1.65.59,3.25,1.33,4.76,2.22,1.07.6,2.03,1.39,2.83,2.33.82,1.13,1.54,2.33,2.15,3.59.67,1.38,1.27,2.79,1.8,4.23.47,1.56,1.01,3.1,1.64,4.6,1.53,2.99,4.28,4.83,6.6,6.56,2.12,1.51,4.11,3.19,5.94,5.03,1.24,1.26,2.38,2.61,3.42,4.04l.81,1.17c.11.13.2.27.26.43-.12-.11-.24-.24-.33-.38l-.9-1.11c-1.08-1.36-2.24-2.66-3.48-3.89-1.86-1.79-3.85-3.43-5.96-4.91-1.26-.88-2.48-1.82-3.65-2.82-1.28-1.09-2.34-2.4-3.12-3.88-.63-1.52-1.18-3.08-1.65-4.66-.53-1.43-1.12-2.83-1.8-4.19-.59-1.24-1.28-2.42-2.06-3.54-.76-.91-1.67-1.69-2.69-2.29-1.49-.9-3.05-1.68-4.66-2.33l-1.32-.52c-.15-.06-.29-.14-.42-.22Z"/>
  <path class="cls-6" d="m424.93,217.85c-.12.12-.26.23-.4.33l-1.2.9c-1.05.74-2.58,1.8-4.54,3.07-2.28,1.47-4.69,2.74-7.18,3.8-2.85,1.18-6.09,2.09-9.42,3.21-5.69,1.95-11.02,4.82-15.78,8.5-1.86,1.37-3.33,2.52-4.36,3.31-.48.36-.9.66-1.19.9-.14.11-.28.21-.44.29.11-.14.24-.26.38-.37l1.13-.96c1-.83,2.43-2.02,4.27-3.43,4.72-3.79,10.07-6.73,15.79-8.69,3.35-1.12,6.59-2.02,9.4-3.17,2.49-1.03,4.89-2.26,7.18-3.68,1.97-1.2,3.52-2.24,4.61-2.94l1.25-.81c.15-.11.31-.19.49-.25Z"/>
  <path class="cls-11" d="m378.84,236.09c-4.72-5.05-3.53-13.86-8.58-18.57-3.14-2.92-7.94-3.43-11.23-6.21-2.15-1.8-3.46-4.43-5.5-6.35-3.84-3.59-9.55-4.22-14.83-4.63.49,5.09,2.3,9.97,5.25,14.14,2.95,4.18,6.94,7.51,11.58,9.67,2.23,1.01,4.67,1.8,6.38,3.54,1.18,1.22,1.9,2.83,2.99,4.14,1.76,1.98,4.09,3.36,6.67,3.93,2.56.57,5.18.87,7.8.9"/>
  <path class="cls-6" d="m348.3,206.69s.3.58.9,1.55c.86,1.38,1.89,2.63,3.08,3.74,1.78,1.63,3.68,3.12,5.7,4.45,2.25,1.54,4.77,3.22,7.18,5.23,4.15,3.46,7.99,7.28,11.49,11.4,1.36,1.57,2.41,2.87,3.12,3.78.33.42.59.77.82,1.05.1.12.19.26.26.4,0,0-.14-.11-.33-.33l-.9-1-3.23-3.68c-3.55-4.04-7.41-7.79-11.53-11.24-2.42-2.01-4.9-3.69-7.18-5.25-2.02-1.35-3.93-2.87-5.68-4.55-1.18-1.15-2.2-2.46-3.02-3.89-.23-.39-.42-.79-.58-1.2-.05-.14-.08-.29-.09-.44Z"/>
  <path class="cls-11" d="m373.38,262.19c-.14-3.74-1.32-7.67-4.44-9.68-1.33-.9-2.89-1.38-4.08-2.44-1.05-1.14-1.95-2.4-2.69-3.76-2.51-3.72-6.51-6.1-10.38-8.35l-4.58-2.69c-.43-.33-.97-.49-1.51-.44-.25.08-.47.22-.65.41-.18.19-.3.43-.36.68-.1.51-.1,1.04,0,1.55.37,3.11.97,6.18,1.8,9.2.71,2.61,1.65,5.27,3.59,7.18,2.14,2.13,5.18,3.02,7.78,4.55,2.21,1.29,4.15,3.09,6.56,3.96,2.79,1.01,6.07.23,8.98-.18"/>
  <path class="cls-6" d="m350.65,243.09c.33.34.63.7.9,1.09l2.42,3.04c2.6,3.38,5.65,6.38,9.09,8.91,2,1.23,4.06,2.36,6.17,3.38,1.94.99,3.66,1.92,5.07,2.79,1.12.67,2.17,1.45,3.15,2.31.27.23.52.48.75.75.09.09.17.18.23.29,0,0-.39-.33-1.11-.9-1.01-.8-2.08-1.53-3.21-2.16-1.41-.83-3.14-1.72-5.09-2.69-2.14-1.01-4.22-2.13-6.23-3.38-3.48-2.54-6.55-5.61-9.1-9.09-1-1.3-1.8-2.39-2.31-3.13-.28-.38-.53-.78-.74-1.2Z"/>
  <path class="cls-6" d="m405.34,256.24c-.4.3-.82.57-1.27.8-.42.23-.9.53-1.51.9-.61.37-1.25.76-1.96,1.25-1.45.9-3.1,2.14-4.88,3.55-1.92,1.55-3.74,3.2-5.48,4.96-1.72,1.76-3.34,3.62-4.86,5.56-1.38,1.8-2.56,3.48-3.47,4.94-.49.72-.9,1.4-1.21,1.99-.31.58-.65,1.1-.9,1.52-.21.45-.47.88-.77,1.29.17-.47.37-.93.61-1.37.21-.44.48-.97.81-1.57.33-.6.7-1.29,1.16-2.02,1.05-1.74,2.18-3.41,3.4-5.03,1.51-1.97,3.14-3.85,4.87-5.63,1.75-1.76,3.6-3.42,5.55-4.96,1.59-1.25,3.25-2.42,4.97-3.49.72-.48,1.41-.85,2-1.19.59-.34,1.11-.62,1.55-.83.44-.25.9-.46,1.37-.64Z"/>
  <path class="cls-1" d="m390.58,300.44c-1.25-3.35-2.76-6.61-4.49-9.74-1.74-2.97-4.27-5.91-7.69-6.29-1.28-.08-2.56.11-3.76.57-1.2.46-2.29,1.17-3.19,2.08-1.79,1.83-3.3,3.92-4.49,6.19-2.17,3.7-4.35,7.4-6.53,11.1l3.59,4.88c6.49,2.5,13.6,2.95,20.36,1.29,3.23-.81,6.85-2.74,7.1-6.06,0-1.39-.3-2.77-.91-4.02Z"/>
  <path class="cls-12" d="m381.5,298.12s-5.96-2.11-8.38-2.64c-2.42-.53-13.07-.66-14.58-.53-1.52.13-17.57,11.33-17.57,11.33l5.93,13.62,3.3-1.23s13.47,3.17,19.28,3.8c5.81.63,12.57.9,15.72,0,3.15-.9,9.23-4.66,9.23-4.66,0,0,.25-1.8-3.17-1.65-3.42.14-6.72,1.14-8.24,1.14s-7.1-.5-7.1-.5l12.3-1.14,9.88-6.65-1.02-2.23s2.28-1.39,2.03-2.54c-.25-1.15-1.9-2.41-4.06-2.15-2.15.25-8.98,1.53-8.98,1.53,0,0-9.88.5-14.58-.25-4.71-.75-6.47-1.9-6.47-1.9l6.85-.12s5.2,1.52,8.24.25c3.04-1.27,1.39-3.46,1.39-3.46Z"/>
  <path class="cls-10" d="m372.71,311.11c.32-.08.65-.12.99-.11l2.69-.16c2.27-.15,5.39-.46,8.83-1.02,3.44-.57,6.48-1.3,8.68-1.9l2.6-.72c.31-.12.64-.19.97-.22-.28.17-.58.3-.9.39-.59.23-1.47.52-2.57.9-5.71,1.73-11.62,2.71-17.58,2.93h-2.69c-.34,0-.69-.03-1.02-.1Z"/>
  <path class="cls-12" d="m222.9,269.5s25.14,83.61,39.17,85.43c14.03,1.82,84.8-35.02,84.8-35.02l-5.9-13.62-65.39,17.25s-14.08-51.76-16.34-60.39-13.62-29.98-21.8-26.8c-8.18,3.18-17.71,16.34-14.53,33.15Z"/>
  <path class="cls-11" d="m223.47,295.48l44.95-12.63s-12.57-59.75-38.61-45.2c-18.23,10.12-6.34,57.83-6.34,57.83Z"/>
  <path class="cls-6" d="m223.14,296.03l-.11-.45c-1.92-8.28-3.14-16.71-3.65-25.19-.94-17.69,2.49-28.84,10.19-33.15,4.89-2.69,9.67-3.07,14.21-1,7.04,3.21,13.42,12.01,18.93,26.19,2.54,6.62,4.6,13.43,6.15,20.35l.09.41-45.81,12.83Zm14.64-60.22c-2.74.06-5.43.82-7.8,2.22-16.75,9.36-7.33,52.02-6.19,56.89l44.07-12.38c-1.55-6.72-3.57-13.32-6.05-19.76-3.73-9.59-9.96-21.83-18.45-25.69-1.75-.82-3.65-1.26-5.59-1.27Z"/>
</svg>