<svg width="670" height="746" viewBox="0 0 670 746" fill="none" xmlns="http://www.w3.org/2000/svg">
<path d="M72.8961 344.981C102.791 254.033 294.717 99.9879 398.275 92.7829C501.833 85.5778 559.528 97.1653 603.443 150.04C647.358 202.916 588.688 615.296 438.877 675.034C289.065 734.773 166.91 630.727 131.125 589.148C95.34 547.569 43.0015 435.929 72.8961 344.981Z" fill="url(#paint0_linear_192_3)"/>
<path d="M255.238 281.758C255.795 277.654 250.012 274.278 245.666 273.928C243.591 273.766 241.436 274.08 239.469 273.398C235.213 271.907 233.507 266.411 229.358 264.66C226.251 263.349 222.677 264.517 219.669 266.034C216.66 267.552 213.679 269.456 210.311 269.671C207.393 269.86 204.214 268.773 201.655 270.201C199.742 271.261 198.745 273.461 196.985 274.763C195.225 276.065 193.025 276.298 190.888 276.415C188.75 276.532 186.541 276.55 184.602 277.439C182.662 278.328 181.01 280.384 181.459 282.486L255.238 281.758Z" fill="#EBEBEB"/>
<path d="M554.749 237.038C555.359 232.548 549.055 228.893 544.305 228.507C542.051 228.327 539.698 228.669 537.552 227.923C532.918 226.307 531.059 220.308 526.533 218.395C523.148 216.968 519.242 218.243 515.964 219.895C512.686 221.547 509.435 223.631 505.772 223.864C502.575 224.062 499.108 222.885 496.325 224.439C494.241 225.606 493.155 228.031 491.233 229.414C489.311 230.797 486.914 231.093 484.588 231.21C482.262 231.327 479.846 231.354 477.727 232.323C475.608 233.293 473.857 235.538 474.297 237.828L554.749 237.038Z" fill="#F5F5F5"/>
<path d="M471.306 286.015C471.926 281.525 465.613 277.87 460.871 277.484C458.608 277.304 456.255 277.645 454.118 276.9C449.476 275.284 447.617 269.285 443.091 267.372C439.705 265.944 435.808 267.22 432.521 268.872C429.235 270.524 425.993 272.608 422.329 272.841C419.132 273.039 415.675 271.862 412.882 273.416C410.799 274.583 409.712 277.008 407.79 278.391C405.869 279.774 403.471 280.07 401.145 280.187C398.819 280.304 396.413 280.33 394.293 281.3C392.174 282.27 390.414 284.515 390.854 286.805L471.306 286.015Z" fill="#F5F5F5"/>
<path d="M419.168 210.098C420.066 203.875 411.239 198.747 404.639 198.217C401.487 197.966 398.218 198.442 395.237 197.409C388.771 195.155 386.185 186.804 379.881 184.146C375.166 182.152 369.733 183.921 365.163 186.229C360.592 188.537 356.075 191.419 350.965 191.752C346.529 192.03 341.707 190.387 337.818 192.551C334.918 194.167 333.4 197.508 330.733 199.475C328.066 201.441 324.717 201.809 321.475 201.989C318.233 202.169 314.883 202.195 311.929 203.551C308.975 204.907 306.541 208.041 307.152 211.202L419.168 210.098Z" fill="#EBEBEB"/>
<path d="M222.506 432.82C224.868 431.257 225.739 428.186 225.829 425.357C225.919 422.529 225.407 419.682 225.775 416.871C226.071 414.617 225.658 412.247 225.479 409.975C225.128 405.485 222.497 404.856 220.602 400.797C218.708 396.738 221.5 395.723 220.54 394.026C220.037 393.191 218.645 393.478 217.783 393.91C216.941 394.4 216.208 395.057 215.628 395.84C212.583 399.513 209.925 404.012 210.365 408.762C210.572 411.133 211.542 413.36 212.045 415.677C212.844 419.314 212.565 423.301 214.415 426.534C216.148 429.542 219.39 431.293 222.497 432.901" fill="#EBEBEB"/>
<path d="M226.368 447.116C225.47 440.911 228.433 433.332 232.941 428.958C234.845 427.109 237.171 425.591 238.482 423.283C239.99 420.589 239.946 417.275 241.526 414.662C243.897 410.747 249.042 409.687 253.613 409.418C258.184 409.149 267.801 403.779 266.76 406.365C263.374 416.135 264.066 415.578 251.988 424.549C247.022 428.231 251.566 439.196 237.799 443.452C234.019 444.629 229.367 444.539 226.458 447.224" fill="#EBEBEB"/>
<path d="M228.702 510.254C228.755 510.329 228.803 510.407 228.846 510.488L228.702 510.254Z" fill="#455A64"/>
<path d="M210.231 493.201C217.33 495.92 223.283 500.992 227.095 507.569L228.703 510.263C228.02 509.267 226.502 509.195 225.245 509.042C222.882 508.761 220.675 507.718 218.959 506.07C217.999 504.949 216.951 503.907 215.825 502.954C214.681 502.292 213.478 501.736 212.233 501.292C209.494 500.071 207.24 497.97 204.537 496.668C201.834 495.366 198.682 494.872 195.71 494.126C192.738 493.381 189.693 492.205 187.727 489.852C194.489 490.112 202.652 490.454 210.231 493.201Z" fill="#EBEBEB"/>
<path d="M199.437 455.135C202.005 456.329 203.783 458.799 206.306 460.074C208.587 461.224 211.236 461.295 213.715 461.87C219.651 463.316 227.005 474.334 231.001 479.83C229.394 479.749 226.206 478.402 223.243 478.447C220.279 478.492 216.4 477.657 213.454 477.352C203.801 476.346 199.167 471.649 191.858 465.426C187.466 461.726 182.177 460.218 179.393 455.198C185.616 457.892 193.267 452.279 199.437 455.135Z" fill="#EBEBEB"/>
<path d="M226.404 452.441C223.018 442.626 214.146 435.011 204.78 430.449C195.271 425.878 184.345 425.233 174.365 428.653C179.968 436.026 185.661 436.951 194.677 439.088C196.24 439.456 200.119 438.298 202.939 440.318C204.07 441.135 204.331 444.395 210.868 445.607C217.406 446.82 222.758 448.095 226.404 452.468" fill="#EBEBEB"/>
<path d="M219.273 412.094C219.284 412.201 219.284 412.31 219.273 412.417C219.273 412.651 219.273 412.965 219.318 413.36V414.887C219.318 415.488 219.417 416.189 219.471 416.961C219.873 421.376 220.614 425.753 221.689 430.054C222.964 435.514 224.958 441.89 227.167 448.975C229.634 456.634 231.655 464.43 233.219 472.323C236.027 486.707 237.196 501.363 236.704 516.011C236.556 522.107 236.04 528.188 235.159 534.222C235.145 534.118 235.145 534.012 235.159 533.908C235.159 533.674 235.186 533.36 235.24 532.965C235.321 532.121 235.446 530.908 235.599 529.373C235.841 526.248 236.246 521.722 236.362 516.109C236.765 501.492 235.56 486.875 232.77 472.52C231.21 464.632 229.207 456.837 226.772 449.172C224.581 442.087 222.605 435.702 221.384 430.198C220.352 425.878 219.679 421.481 219.372 417.051C219.372 416.27 219.291 415.569 219.264 414.959C219.237 414.348 219.264 413.854 219.264 413.432V412.489C219.248 412.358 219.251 412.225 219.273 412.094Z" fill="#E0E0E0"/>
<path d="M184.162 429.856H184.727C185.096 429.856 185.625 429.856 186.335 429.856C188.308 429.933 190.275 430.125 192.226 430.431C195.123 430.871 197.98 431.55 200.766 432.461C204.197 433.544 207.479 435.053 210.536 436.951C216.035 440.498 220.893 444.953 224.904 450.124C226.116 451.684 227.237 453.312 228.262 455C228.631 455.593 228.882 456.069 229.062 456.392C229.166 456.549 229.251 456.718 229.313 456.895C229.189 456.752 229.078 456.599 228.981 456.437C228.774 456.132 228.496 455.674 228.083 455.099C227.319 453.932 226.17 452.27 224.617 450.331C220.559 445.256 215.707 440.871 210.249 437.346C207.219 435.467 203.975 433.959 200.586 432.856C197.824 431.938 194.996 431.232 192.127 430.745C189.675 430.332 187.637 430.126 186.281 430.027C185.589 429.964 185.042 429.946 184.682 429.919C184.507 429.919 184.332 429.898 184.162 429.856Z" fill="#E0E0E0"/>
<path d="M256.792 414.339C256.654 414.414 256.51 414.477 256.361 414.528L255.104 415.03C253.575 415.639 252.1 416.375 250.694 417.231C249.727 417.804 248.864 418.539 248.144 419.404C247.397 420.465 246.742 421.589 246.187 422.762C245.585 423.993 245.01 425.331 244.489 426.731C244.055 428.233 243.533 429.708 242.927 431.15C242.18 432.552 241.174 433.802 239.963 434.831C238.823 435.846 237.629 436.69 236.506 437.525C234.502 438.926 232.61 440.481 230.849 442.177C229.686 443.342 228.589 444.572 227.562 445.859L226.718 446.9C226.627 447.029 226.522 447.147 226.404 447.251C226.463 447.104 226.545 446.968 226.646 446.847L227.409 445.733C228.391 444.393 229.462 443.121 230.615 441.926C232.359 440.182 234.245 438.587 236.255 437.157C238.455 435.514 241.059 433.763 242.541 430.943C243.131 429.516 243.647 428.059 244.085 426.579C244.595 425.211 245.176 423.871 245.827 422.565C246.408 421.374 247.09 420.235 247.866 419.161C248.626 418.271 249.538 417.523 250.56 416.952C251.986 416.113 253.49 415.412 255.05 414.86C255.607 414.662 256.038 414.528 256.334 414.438C256.481 414.383 256.635 414.349 256.792 414.339Z" fill="#E0E0E0"/>
<path d="M192.594 459.966C192.745 460.033 192.89 460.114 193.025 460.209L194.21 460.972C195.243 461.637 196.716 462.615 198.584 463.756C200.757 465.096 203.033 466.261 205.39 467.24C208.084 468.327 211.129 469.18 214.308 470.239C219.74 472.099 224.809 474.888 229.286 478.483C231.028 479.821 232.393 480.953 233.336 481.743L234.405 482.641C234.647 482.856 234.773 482.973 234.755 482.982C234.605 482.912 234.466 482.822 234.342 482.713L233.22 481.815C232.25 481.078 230.849 480.019 229.089 478.69C224.586 475.198 219.541 472.468 214.155 470.608C211.003 469.557 207.923 468.686 205.229 467.563C202.856 466.563 200.573 465.361 198.404 463.971C196.554 462.795 195.108 461.771 194.112 461.053L192.971 460.218C192.835 460.15 192.709 460.066 192.594 459.966Z" fill="#E0E0E0"/>
<path d="M236.3 477.226C240.79 472.449 239.64 464.088 244.436 459.634C247.417 456.859 251.961 456.374 255.077 453.743C257.106 452.028 258.346 449.55 260.285 447.727C263.931 444.287 269.346 443.722 274.339 443.335C273.877 448.161 272.162 452.783 269.365 456.743C266.567 460.702 262.784 463.863 258.39 465.911C256.271 466.863 253.954 467.599 252.338 469.261C251.215 470.428 250.542 471.955 249.509 473.194C247.852 475.06 245.655 476.362 243.223 476.921C240.794 477.465 238.313 477.751 235.824 477.774" fill="#EBEBEB"/>
<path d="M265.251 449.388C265.213 449.533 265.162 449.674 265.098 449.81C264.94 450.203 264.754 450.584 264.542 450.95C263.774 452.31 262.812 453.55 261.686 454.632C260.021 456.23 258.218 457.679 256.298 458.961C254.17 460.442 251.808 462.032 249.518 463.936C245.609 467.208 241.953 470.771 238.581 474.595L235.518 478.079L234.683 478.977C234.591 479.093 234.485 479.199 234.369 479.291C234.369 479.291 234.441 479.148 234.611 478.914L235.375 477.917C236.057 477.019 237.054 475.825 238.338 474.325C241.647 470.425 245.288 466.819 249.222 463.549C251.539 461.628 253.918 460.038 256.056 458.574C257.964 457.324 259.766 455.918 261.444 454.372C262.565 453.321 263.549 452.132 264.371 450.834C264.964 449.936 265.197 449.37 265.251 449.388Z" fill="#E0E0E0"/>
<path d="M241.472 502.002C241.607 498.455 242.729 494.728 245.675 492.824C246.941 491.998 248.423 491.504 249.545 490.498C250.544 489.41 251.407 488.204 252.113 486.906C254.484 483.377 258.283 481.123 261.946 478.986L266.293 476.445C266.704 476.133 267.216 475.986 267.73 476.032C267.966 476.104 268.178 476.238 268.345 476.419C268.513 476.601 268.629 476.823 268.681 477.064C268.771 477.548 268.771 478.044 268.681 478.528C268.329 481.476 267.759 484.393 266.975 487.257C266.302 489.726 265.404 492.249 263.59 494.054C261.56 496.075 258.687 496.928 256.217 498.374C254.125 499.604 252.284 501.301 250.003 502.128C247.309 503.088 244.247 502.352 241.454 501.966" fill="#EBEBEB"/>
<path d="M263.015 483.934C262.806 484.336 262.559 484.718 262.279 485.074C261.776 485.784 261.039 486.817 260.088 488.047C257.682 491.353 254.777 494.265 251.476 496.677C249.567 497.832 247.598 498.884 245.576 499.829C243.78 500.727 242.092 501.625 240.754 502.379C239.686 502.98 238.669 503.665 237.709 504.426C237.374 504.729 237.024 505.014 236.659 505.279C236.659 505.279 236.722 505.172 236.883 505.001C237.1 504.743 237.337 504.503 237.593 504.283C238.521 503.463 239.522 502.73 240.583 502.092C241.903 501.265 243.546 500.385 245.378 499.398C247.383 498.429 249.337 497.359 251.233 496.192C254.486 493.796 257.387 490.958 259.854 487.759C260.752 486.592 261.551 485.622 262.153 484.877C262.412 484.538 262.701 484.223 263.015 483.934Z" fill="#E0E0E0"/>
<path d="M211.174 496.362C211.62 496.528 212.052 496.729 212.467 496.964C213.284 497.368 214.442 498.015 215.834 498.877C217.463 499.898 219.036 501.004 220.549 502.19C224.254 505.104 227.573 508.478 230.427 512.23C231.586 513.76 232.662 515.352 233.651 516.998C234.495 518.408 235.123 519.576 235.509 520.402C235.744 520.815 235.937 521.252 236.084 521.704C235.808 521.321 235.564 520.916 235.357 520.492C234.917 519.683 234.243 518.552 233.372 517.169C232.501 515.786 231.397 514.197 230.085 512.49C228.643 510.654 227.106 508.894 225.479 507.219C223.834 505.561 222.102 503.994 220.288 502.523C218.6 501.185 217.029 500.044 215.664 499.155C214.299 498.266 213.176 497.575 212.386 497.117C211.96 496.901 211.555 496.649 211.174 496.362Z" fill="#E0E0E0"/>
<path d="M487.461 467.815C485.917 466.746 485.351 464.654 485.288 462.723C485.225 460.793 485.575 458.853 485.333 456.94C485.239 455.372 485.302 453.799 485.521 452.244C485.746 449.208 487.461 448.75 488.7 445.958C489.94 443.165 488.09 442.5 488.745 441.342C489.069 440.767 489.976 440.965 490.541 441.261C491.093 441.598 491.569 442.044 491.942 442.572C493.936 445.078 495.66 448.14 495.381 451.382C495.123 452.973 494.769 454.547 494.322 456.096C493.801 458.583 493.99 461.295 492.777 463.505C491.655 465.552 489.535 466.746 487.524 467.833" fill="#EBEBEB"/>
<path d="M484.938 477.567C485.558 473.347 483.591 468.174 480.655 465.202C479.415 463.936 477.898 462.903 477.063 461.331C476.075 459.535 476.111 457.236 475.078 455.458C473.533 452.764 470.175 452.064 467.194 451.866C464.212 451.669 457.944 448.023 458.618 449.783C460.827 456.437 460.351 456.069 468.253 462.175C471.495 464.681 468.523 472.152 477.503 475.053C479.972 475.852 483.007 475.798 484.902 477.621" fill="#EBEBEB"/>
<path d="M483.42 520.572C483.387 520.624 483.357 520.678 483.331 520.733L483.42 520.572Z" fill="#455A64"/>
<path d="M495.471 508.952C490.78 510.842 486.885 514.293 484.444 518.723L483.393 520.572C483.842 519.899 484.83 519.845 485.647 519.737C487.193 519.536 488.628 518.825 489.724 517.717C490.344 516.952 491.029 516.243 491.771 515.597C492.524 515.146 493.318 514.767 494.142 514.466C495.938 513.631 497.402 512.194 499.162 511.305C501.015 510.531 502.944 509.953 504.918 509.581C506.922 509.19 508.747 508.167 510.127 506.662C505.735 506.851 500.41 507.084 495.471 508.952Z" fill="#EBEBEB"/>
<path d="M502.503 483.036C500.832 483.844 499.674 485.532 498.013 486.403C496.531 487.185 494.807 487.23 493.19 487.643C489.311 488.622 484.516 496.129 481.912 499.882C482.962 499.829 485.046 498.913 486.976 498.94C489.114 498.811 491.243 498.563 493.352 498.194C499.638 497.512 502.673 494.306 507.433 490.067C510.306 487.526 513.719 486.475 515.569 483.054C511.519 484.904 506.526 481.069 502.503 483.036Z" fill="#EBEBEB"/>
<path d="M484.92 481.177C487.129 474.46 492.912 469.306 499.019 466.19C502.069 464.65 505.4 463.746 508.81 463.533C512.22 463.32 515.637 463.802 518.855 464.95C515.2 469.979 511.483 470.608 505.61 472.062C504.595 472.314 502.063 471.524 500.222 472.907C499.485 473.454 499.324 475.681 495.049 476.499C490.775 477.316 487.291 478.205 484.92 481.177Z" fill="#EBEBEB"/>
<path d="M489.571 453.707C489.579 453.779 489.579 453.851 489.571 453.923C489.571 454.102 489.571 454.309 489.571 454.569C489.571 455.126 489.571 455.961 489.517 457.03C489.331 460.053 488.902 463.056 488.233 466.01C486.707 473.526 482.845 483.44 480.816 494.908C479.002 504.677 478.208 514.608 478.445 524.542C478.517 528.358 478.777 531.438 478.921 533.522C479.011 534.554 479.092 535.371 479.137 535.973C479.137 536.225 479.137 536.44 479.181 536.611C479.193 536.682 479.193 536.755 479.181 536.826C479.181 536.826 479.181 536.754 479.137 536.62C479.092 536.485 479.083 536.233 479.047 535.982C478.975 535.389 478.867 534.572 478.741 533.539C478.535 531.411 478.23 528.331 478.113 524.506C477.778 514.534 478.531 504.555 480.358 494.746C482.423 483.225 486.312 473.329 487.91 465.875C488.597 462.944 489.074 459.967 489.338 456.967C489.428 455.898 489.464 455.072 489.482 454.516C489.482 454.255 489.482 454.049 489.482 453.869C489.504 453.811 489.534 453.757 489.571 453.707Z" fill="#E0E0E0"/>
<path d="M512.462 465.794C511.99 465.88 511.513 465.931 511.034 465.947C509.742 466.056 508.456 466.229 507.181 466.468C502.965 467.198 498.936 468.758 495.328 471.057C491.799 473.48 488.678 476.447 486.078 479.848C485.082 481.15 484.336 482.255 483.842 483.036C483.605 483.452 483.335 483.849 483.034 484.221C483.067 484.1 483.118 483.985 483.187 483.88C483.295 483.665 483.447 483.332 483.681 482.937C484.329 481.803 485.039 480.706 485.809 479.651C488.364 476.154 491.495 473.118 495.067 470.671C499.867 467.669 505.368 465.976 511.025 465.758C511.492 465.758 511.851 465.758 512.093 465.758C512.217 465.749 512.342 465.761 512.462 465.794Z" fill="#E0E0E0"/>
<path d="M465.101 455.198C465.506 455.26 465.902 455.375 466.277 455.539C467.329 455.908 468.338 456.39 469.286 456.976C469.974 457.377 470.583 457.9 471.082 458.521C471.578 459.258 472.016 460.032 472.393 460.837C472.814 461.715 473.189 462.614 473.515 463.531C473.796 464.524 474.129 465.501 474.512 466.459C475.41 468.345 477.107 469.557 478.562 470.688C479.881 471.677 481.116 472.773 482.253 473.966C483.003 474.787 483.693 475.66 484.318 476.579C484.562 476.905 484.773 477.254 484.947 477.621C484.866 477.684 483.932 476.202 482.01 474.2C480.857 473.046 479.614 471.986 478.293 471.03C476.847 469.925 475.069 468.686 474.09 466.665C473.693 465.693 473.358 464.698 473.084 463.684C472.752 462.741 472.384 461.888 471.998 460.99C471.644 460.202 471.229 459.443 470.758 458.718C470.31 458.128 469.76 457.623 469.133 457.227C468.213 456.632 467.246 456.112 466.242 455.674C465.85 455.543 465.469 455.384 465.101 455.198Z" fill="#E0E0E0"/>
<path d="M506.966 486.305C506.668 486.604 506.344 486.874 505.996 487.113C505.358 487.607 504.415 488.307 503.212 489.115C501.792 490.073 500.289 490.902 498.722 491.594C496.926 492.366 494.933 492.968 492.867 493.686C489.347 494.966 486.061 496.817 483.142 499.164L480.448 501.265C480.132 501.541 479.793 501.787 479.433 502.002C479.701 501.673 480.002 501.372 480.331 501.104C480.933 500.565 481.813 499.793 482.935 498.877C485.829 496.423 489.137 494.507 492.706 493.219C494.798 492.492 496.809 491.908 498.552 491.172C500.096 490.509 501.583 489.719 502.997 488.81C504.218 488.047 505.179 487.382 505.852 486.942C506.201 486.692 506.574 486.479 506.966 486.305Z" fill="#E0E0E0"/>
<path d="M478.463 498.068C475.554 494.818 476.29 489.089 473.165 486.08C471.217 484.194 468.253 483.862 466.224 482.066C464.895 480.899 464.086 479.21 462.829 477.962C460.45 475.627 456.92 475.268 453.661 474.972C453.927 478.213 455.024 481.331 456.846 484.025C458.667 486.719 461.151 488.899 464.059 490.355C465.442 491.01 466.951 491.504 468.002 492.645C468.738 493.435 469.187 494.441 469.852 495.339C470.921 496.601 472.365 497.491 473.973 497.88C475.559 498.245 477.178 498.441 478.805 498.464" fill="#EBEBEB"/>
<path d="M459.587 479.103C460.258 480.331 461.099 481.458 462.084 482.452C463.183 483.502 464.366 484.461 465.622 485.317C467.023 486.314 468.594 487.409 470.112 488.72C472.688 490.969 475.059 493.442 477.197 496.111C478.023 497.126 478.661 497.97 479.092 498.553C479.333 498.851 479.546 499.17 479.73 499.505C479.441 499.257 479.182 498.977 478.957 498.67L476.946 496.317C474.744 493.736 472.358 491.317 469.807 489.08C468.307 487.777 466.762 486.691 465.371 485.667C464.107 484.782 462.925 483.784 461.841 482.686C461.128 481.932 460.524 481.083 460.045 480.162C459.917 479.912 459.803 479.654 459.704 479.39C459.652 479.3 459.613 479.204 459.587 479.103Z" fill="#E0E0E0"/>
<path d="M475.096 514.951C475.006 512.535 474.279 509.994 472.402 508.665C471.52 508.206 470.676 507.678 469.878 507.084C469.222 506.347 468.658 505.533 468.199 504.66C466.655 502.262 464.176 500.718 461.787 499.272L458.95 497.539C458.694 497.341 458.375 497.242 458.052 497.26C457.894 497.309 457.753 497.4 457.644 497.524C457.534 497.647 457.461 497.798 457.432 497.961C457.369 498.293 457.369 498.634 457.432 498.967C457.655 500.969 458.024 502.953 458.537 504.902C458.868 506.612 459.628 508.209 460.746 509.545C462.066 510.919 463.943 511.494 465.55 512.481C466.915 513.326 468.118 514.484 469.609 515.041C471.333 515.696 473.363 515.193 475.186 514.933" fill="#EBEBEB"/>
<path d="M461.042 502.612C461.797 503.435 462.499 504.305 463.143 505.217C464.742 507.364 466.624 509.286 468.738 510.928C469.974 511.728 471.251 512.462 472.563 513.128C473.767 513.784 474.844 514.394 475.715 514.969C476.413 515.406 477.063 515.915 477.655 516.487C477.886 516.683 478.083 516.917 478.239 517.178C477.384 516.475 476.484 515.831 475.545 515.247C474.647 514.717 473.587 514.143 472.366 513.514C471.025 512.859 469.727 512.121 468.477 511.305C466.318 509.647 464.433 507.659 462.892 505.414C462.281 504.579 461.814 503.879 461.5 503.394C461.312 503.155 461.158 502.892 461.042 502.612Z" fill="#E0E0E0"/>
<path d="M494.852 511.107C494.852 511.179 493.711 511.835 491.924 513.074C489.612 514.698 487.473 516.555 485.539 518.615C483.61 520.684 481.893 522.94 480.412 525.35C479.28 527.2 478.679 528.412 478.616 528.376C478.693 528.064 478.808 527.763 478.957 527.478C479.199 526.912 479.604 526.122 480.133 525.17C481.546 522.681 483.249 520.369 485.207 518.282C487.158 516.194 489.356 514.352 491.753 512.796C492.476 512.322 493.223 511.884 493.989 511.485C494.259 511.322 494.549 511.195 494.852 511.107Z" fill="#E0E0E0"/>
<path d="M566.243 534.312C566.243 534.438 478.149 534.545 369.509 534.545C260.869 534.545 172.757 534.438 172.757 534.312C172.757 534.186 260.833 534.078 369.509 534.078C478.185 534.078 566.243 534.222 566.243 534.312Z" fill="#263238"/>
<path d="M522.6 487.858C523.667 488.367 524.619 489.086 525.402 489.972C526.184 490.857 526.78 491.892 527.153 493.013C527.887 495.262 528.093 497.649 527.755 499.99C527.243 504.48 524.666 509.087 521.9 512.706C518.083 509.383 517.212 503.573 516.952 500.601C516.539 495.904 518.649 487.131 522.6 487.858Z" fill="#FF725E"/>
<path d="M526.336 520.186C526.075 518.892 526.161 517.551 526.585 516.301C527.009 515.05 527.757 513.934 528.751 513.065C529.762 512.217 530.931 511.578 532.19 511.185C533.449 510.792 534.774 510.652 536.088 510.775C536.697 510.767 537.3 510.893 537.855 511.142C538.411 511.392 538.905 511.76 539.303 512.221C539.598 512.708 539.759 513.265 539.768 513.835C539.778 514.404 539.636 514.966 539.357 515.463C538.778 516.452 537.948 517.27 536.95 517.834C533.645 519.908 530.071 521.309 526.336 520.186Z" fill="#FF725E"/>
<path d="M521.442 534.069C521.457 533.766 521.503 533.466 521.577 533.171C521.693 532.516 521.855 531.672 522.035 530.657C522.464 527.855 523.343 525.141 524.639 522.62C525.978 520.099 527.969 517.984 530.404 516.495C531.142 516.058 531.929 515.709 532.748 515.454C532.971 515.383 533.199 515.326 533.43 515.283C533.51 515.269 533.592 515.269 533.673 515.283C532.575 515.655 531.519 516.14 530.521 516.729C528.171 518.253 526.247 520.348 524.926 522.817C523.636 525.307 522.727 527.977 522.232 530.738C521.999 531.788 521.81 532.642 521.666 533.234C521.616 533.518 521.54 533.798 521.442 534.069Z" fill="#263238"/>
<path d="M521.586 494.656C521.614 494.792 521.629 494.93 521.63 495.069C521.63 495.366 521.63 495.752 521.702 496.237C521.756 497.251 521.819 498.715 521.873 500.529C521.99 504.121 522.079 509.177 522.061 514.717C522.044 520.258 521.9 525.269 521.747 528.897C521.675 530.693 521.603 532.184 521.541 533.189C521.541 533.674 521.487 534.087 521.46 534.357C521.458 534.496 521.443 534.634 521.415 534.77C521.396 534.633 521.396 534.494 521.415 534.357C521.415 534.051 521.415 533.665 521.415 533.189C521.415 532.13 521.478 530.675 521.514 528.888C521.603 525.296 521.702 520.249 521.729 514.708C521.756 509.168 521.729 504.166 521.639 500.538C521.639 498.742 521.586 497.296 521.577 496.237C521.577 495.761 521.577 495.339 521.577 495.069C521.566 494.932 521.569 494.793 521.586 494.656Z" fill="#263238"/>
<path d="M519.736 522.943C519.274 520.199 518.166 517.604 516.503 515.372C514.84 513.141 512.67 511.337 510.172 510.111C508.897 509.5 507.235 509.105 506.185 510.048C505.134 510.991 505.368 512.742 505.879 514.026C507 516.76 508.906 519.101 511.356 520.754C513.806 522.406 516.691 523.296 519.646 523.311" fill="#FF725E"/>
<path d="M510.791 514.403C511.071 514.498 511.342 514.618 511.6 514.762C511.908 514.906 512.208 515.068 512.498 515.247C512.839 515.463 513.252 515.669 513.656 515.975C514.113 516.287 514.553 516.623 514.976 516.98C515.468 517.383 515.939 517.812 516.386 518.265C517.412 519.314 518.316 520.477 519.08 521.731C519.832 522.992 520.435 524.336 520.876 525.736C521.061 526.35 521.211 526.973 521.325 527.604C521.43 528.15 521.505 528.702 521.549 529.256C521.595 529.713 521.616 530.171 521.612 530.63C521.632 530.974 521.632 531.319 521.612 531.663C521.604 531.964 521.571 532.265 521.513 532.561C521.442 532.561 521.567 531.295 521.343 529.292C521.285 528.749 521.198 528.209 521.082 527.676C520.975 527.092 520.795 526.481 520.615 525.88C519.739 523.122 518.233 520.607 516.215 518.534C515.748 518.067 515.317 517.636 514.841 517.241C514.428 516.881 513.996 516.542 513.548 516.226C511.905 514.996 510.755 514.466 510.791 514.403Z" fill="#263238"/>
<path d="M402.978 366.197C402.932 365.52 402.678 364.874 402.25 364.347C401.855 363.816 401.302 363.423 400.67 363.225C400.129 363.07 399.552 363.097 399.028 363.301C398.504 363.505 398.062 363.876 397.769 364.356C397.61 364.006 397.37 363.698 397.069 363.458C396.792 363.241 396.475 363.082 396.135 362.991C395.796 362.9 395.441 362.879 395.093 362.929C394.442 363.043 393.843 363.357 393.378 363.827C392.89 364.294 392.555 364.898 392.417 365.56C392.26 366.409 392.377 367.286 392.749 368.065C393.202 368.853 393.832 369.523 394.59 370.023C395.811 370.876 397.428 371.944 397.428 371.944C397.428 371.944 398.919 370.975 400.248 370.292C401.067 369.899 401.778 369.314 402.322 368.586C402.788 367.879 403.018 367.043 402.978 366.197Z" fill="#FF725E"/>
<path d="M512.498 319.429C512.448 318.756 512.195 318.114 511.77 317.588C511.373 317.055 510.816 316.662 510.181 316.466C509.642 316.311 509.068 316.336 508.546 316.539C508.023 316.742 507.582 317.111 507.289 317.588C507.12 317.242 506.878 316.936 506.58 316.69C506.305 316.475 505.988 316.317 505.65 316.228C505.312 316.138 504.959 316.118 504.613 316.17C503.962 316.283 503.362 316.597 502.898 317.068C502.403 317.53 502.067 318.136 501.937 318.801C501.775 319.647 501.892 320.523 502.269 321.297C502.703 322.084 503.319 322.755 504.065 323.255C505.296 324.108 506.912 325.186 506.912 325.186C506.912 325.186 508.403 324.216 509.723 323.524C510.541 323.134 511.253 322.552 511.797 321.827C512.28 321.123 512.525 320.283 512.498 319.429Z" fill="#FF725E"/>
<path d="M494.376 253.328L495.956 254.226C496.009 254.254 496.053 254.296 496.083 254.348C496.114 254.399 496.13 254.458 496.13 254.517C496.13 254.577 496.114 254.636 496.083 254.687C496.053 254.739 496.009 254.781 495.956 254.809L494.385 255.707C494.326 255.731 494.278 255.776 494.25 255.833L493.397 257.413C493.369 257.466 493.326 257.51 493.275 257.54C493.224 257.571 493.165 257.587 493.105 257.587C493.046 257.587 492.987 257.571 492.936 257.54C492.884 257.51 492.842 257.466 492.813 257.413L491.915 255.842C491.885 255.785 491.838 255.738 491.781 255.707L490.2 254.809C490.148 254.781 490.104 254.739 490.073 254.687C490.043 254.636 490.027 254.577 490.027 254.517C490.027 254.458 490.043 254.399 490.073 254.348C490.104 254.296 490.148 254.254 490.2 254.226L491.772 253.328C491.825 253.294 491.868 253.248 491.898 253.193L492.796 251.612C492.824 251.56 492.866 251.516 492.918 251.486C492.969 251.455 493.028 251.439 493.087 251.439C493.147 251.439 493.206 251.455 493.257 251.486C493.308 251.516 493.351 251.56 493.379 251.612L494.277 253.184C494.298 253.239 494.332 253.289 494.376 253.328Z" fill="#FF725E"/>
<path d="M398.667 318.855L400.239 319.753C400.291 319.782 400.334 319.826 400.365 319.878C400.395 319.93 400.411 319.989 400.411 320.049C400.411 320.109 400.395 320.168 400.365 320.22C400.334 320.272 400.291 320.316 400.239 320.345L398.667 321.243C398.61 321.27 398.563 321.314 398.532 321.369L397.679 322.95C397.651 323.002 397.609 323.046 397.557 323.076C397.506 323.107 397.447 323.123 397.388 323.123C397.328 323.123 397.269 323.107 397.218 323.076C397.166 323.046 397.124 323.002 397.096 322.95L396.198 321.378C396.17 321.319 396.122 321.271 396.063 321.243L394.483 320.39C394.43 320.362 394.386 320.32 394.356 320.268C394.325 320.217 394.309 320.158 394.309 320.098C394.309 320.039 394.325 319.98 394.356 319.929C394.386 319.877 394.43 319.835 394.483 319.807L396.054 318.909C396.107 318.873 396.153 318.827 396.189 318.774L397.042 317.193C397.07 317.141 397.113 317.097 397.164 317.067C397.215 317.036 397.274 317.02 397.334 317.02C397.393 317.02 397.452 317.036 397.503 317.067C397.555 317.097 397.597 317.141 397.626 317.193L398.524 318.765C398.56 318.81 398.611 318.842 398.667 318.855Z" fill="#FF725E"/>
<path d="M389.04 309.255L389.867 309.704C389.895 309.718 389.919 309.74 389.936 309.767C389.952 309.794 389.961 309.825 389.961 309.857C389.961 309.888 389.952 309.919 389.936 309.946C389.919 309.973 389.895 309.995 389.867 310.009L389.049 310.458C389.019 310.475 388.994 310.5 388.978 310.53L388.538 311.347C388.523 311.376 388.502 311.4 388.475 311.416C388.448 311.433 388.417 311.442 388.385 311.442C388.353 311.442 388.322 311.433 388.295 311.416C388.268 311.4 388.246 311.376 388.232 311.347L387.774 310.53C387.769 310.516 387.76 310.503 387.75 310.492C387.739 310.481 387.726 310.473 387.711 310.467L386.885 310.018C386.859 310.002 386.838 309.98 386.823 309.953C386.808 309.926 386.8 309.896 386.8 309.866C386.8 309.835 386.808 309.805 386.823 309.778C386.838 309.752 386.859 309.729 386.885 309.713L387.702 309.264C387.731 309.245 387.755 309.22 387.774 309.192L388.214 308.366C388.23 308.34 388.253 308.319 388.28 308.304C388.306 308.289 388.336 308.281 388.367 308.281C388.398 308.281 388.428 308.289 388.454 308.304C388.481 308.319 388.504 308.34 388.52 308.366L388.978 309.183C388.988 309.214 389.011 309.24 389.04 309.255Z" fill="#FF725E"/>
<path d="M476.811 372.905L477.637 373.354C477.663 373.37 477.685 373.393 477.7 373.42C477.714 373.446 477.722 373.476 477.722 373.507C477.722 373.538 477.714 373.568 477.7 373.594C477.685 373.621 477.663 373.644 477.637 373.66L476.82 374.109C476.79 374.125 476.765 374.15 476.748 374.18L476.308 374.998C476.294 375.026 476.272 375.05 476.245 375.067C476.218 375.083 476.187 375.092 476.156 375.092C476.124 375.092 476.093 375.083 476.066 375.067C476.039 375.05 476.017 375.026 476.003 374.998L475.545 374.171C475.527 374.144 475.503 374.122 475.473 374.109L474.656 373.66C474.628 373.645 474.604 373.624 474.587 373.597C474.57 373.57 474.562 373.539 474.562 373.507C474.562 373.475 474.57 373.444 474.587 373.417C474.604 373.39 474.628 373.368 474.656 373.354L475.473 372.905C475.501 372.888 475.523 372.863 475.536 372.833L475.985 372.016C475.999 371.988 476.021 371.964 476.048 371.947C476.075 371.931 476.106 371.922 476.138 371.922C476.169 371.922 476.2 371.931 476.227 371.947C476.254 371.964 476.276 371.988 476.29 372.016L476.739 372.833C476.756 372.864 476.781 372.889 476.811 372.905Z" fill="#FF725E"/>
<path d="M214.73 202.698C222.571 202.698 228.927 196.511 228.927 188.878C228.927 181.245 222.571 175.058 214.73 175.058C206.889 175.058 200.532 181.245 200.532 188.878C200.532 196.511 206.889 202.698 214.73 202.698Z" fill="#FF725E"/>
<path d="M212.709 219.778C212.554 217.882 212.503 215.978 212.557 214.076C212.502 212.174 212.553 210.27 212.709 208.374C212.854 210.271 212.902 212.174 212.853 214.076C212.901 215.978 212.853 217.881 212.709 219.778Z" fill="#FF725E"/>
<path d="M204.528 205.168C204.6 205.168 203.262 207.583 201.547 210.484C199.832 213.385 198.377 215.692 198.305 215.657C198.233 215.621 199.571 213.232 201.287 210.331C202.28 208.557 203.362 206.834 204.528 205.168Z" fill="#FF725E"/>
<path d="M196.132 200.076C195.092 201.078 193.985 202.008 192.819 202.86C191.712 203.782 190.541 204.625 189.316 205.383C190.343 204.38 191.438 203.45 192.594 202.6C193.715 201.68 194.897 200.837 196.132 200.076Z" fill="#FF725E"/>
<path d="M226.871 214.157C226.7 213.697 226.573 213.222 226.493 212.738C226.287 211.84 226 210.673 225.595 209.362C225.191 208.05 224.859 206.865 224.59 206.012C224.43 205.572 224.313 205.118 224.24 204.656C224.486 205.076 224.685 205.521 224.832 205.985C225.155 206.82 225.56 207.997 225.928 209.317C226.296 210.637 226.547 211.84 226.718 212.738C226.82 213.204 226.871 213.68 226.871 214.157Z" fill="#FF725E"/>
<path d="M241.266 204.216C239.808 203.167 238.408 202.04 237.072 200.839C235.675 199.713 234.338 198.514 233.067 197.247C234.529 198.295 235.932 199.422 237.27 200.624C238.668 201.746 240.002 202.945 241.266 204.216Z" fill="#FF725E"/>
<path d="M246.779 190.548C246.202 190.517 245.629 190.439 245.064 190.315C244.013 190.144 242.559 189.92 240.951 189.74C239.344 189.561 237.862 189.453 236.803 189.39C236.225 189.387 235.648 189.339 235.078 189.246C235.653 189.172 236.233 189.151 236.812 189.183C237.88 189.183 239.362 189.273 240.978 189.453C242.595 189.632 244.058 189.884 245.109 190.108C245.678 190.202 246.238 190.35 246.779 190.548Z" fill="#FF725E"/>
<path d="M246.797 177.114C246.797 177.195 243.744 178.012 239.937 178.91C236.129 179.808 233.004 180.464 233.004 180.41C233.004 180.356 236.057 179.512 239.874 178.614C243.69 177.716 246.779 177.034 246.797 177.114Z" fill="#FF725E"/>
<path d="M230.759 161.453C230.822 161.498 229.358 163.788 227.472 166.554C225.587 169.32 224.006 171.538 223.943 171.493C223.88 171.448 225.344 169.167 227.221 166.392C229.098 163.617 230.687 161.417 230.759 161.453Z" fill="#FF725E"/>
<path d="M214.837 158.185C214.884 158.815 214.884 159.449 214.837 160.079C214.837 161.256 214.837 162.872 214.837 164.65C214.837 166.428 214.837 168.054 214.891 169.221C214.939 169.852 214.939 170.485 214.891 171.116C214.765 170.495 214.699 169.863 214.694 169.23C214.622 168.063 214.559 166.446 214.559 164.65C214.559 162.854 214.613 161.247 214.685 160.079C214.685 159.445 214.736 158.811 214.837 158.185Z" fill="#FF725E"/>
<path d="M202.786 172.804C202.715 172.804 201.215 170.586 199.446 167.757C197.677 164.928 196.294 162.612 196.357 162.567C197.554 164.189 198.669 165.87 199.697 167.605C200.814 169.285 201.845 171.02 202.786 172.804Z" fill="#FF725E"/>
<path d="M195.585 178.758C195.075 178.731 194.569 178.653 194.076 178.524C193.178 178.336 191.885 178.03 190.484 177.626C189.083 177.222 187.871 176.818 186.991 176.486C186.513 176.35 186.052 176.16 185.617 175.92C186.114 176.02 186.604 176.158 187.08 176.333C187.978 176.611 189.209 176.989 190.592 177.384C191.975 177.779 193.214 178.111 194.121 178.354C194.621 178.441 195.111 178.576 195.585 178.758Z" fill="#FF725E"/>
<path d="M192.432 189.39C190.949 189.673 189.45 189.862 187.942 189.956C186.43 190.151 184.906 190.247 183.381 190.243C184.863 189.955 186.363 189.763 187.871 189.668C189.384 189.478 190.907 189.385 192.432 189.39Z" fill="#FF725E"/>
<path d="M316.168 308.977L276.306 246.485C275.568 246.413 274.824 246.51 274.129 246.768C273.434 247.027 272.808 247.44 272.296 247.976C271.785 248.513 271.402 249.159 271.178 249.865C270.953 250.571 270.891 251.319 270.999 252.052C264.326 252.376 258.615 258.949 259.235 265.603C256.665 265.845 254.187 266.687 252.003 268.062C249.818 269.437 247.987 271.307 246.658 273.52C245.329 275.732 244.538 278.227 244.35 280.801C244.163 283.376 244.582 285.958 245.576 288.341C244.643 290.066 244.183 292.007 244.241 293.967C244.299 295.927 244.874 297.837 245.907 299.504C246.941 301.171 248.396 302.535 250.126 303.459C251.856 304.383 253.799 304.833 255.759 304.765C254.884 307.178 254.817 309.81 255.568 312.264C256.318 314.719 257.847 316.862 259.922 318.372C261.998 319.882 264.508 320.677 267.074 320.636C269.641 320.595 272.124 319.721 274.15 318.145C274.956 319.744 276.112 321.142 277.531 322.234C278.95 323.326 280.596 324.086 282.349 324.455C284.101 324.825 285.914 324.797 287.653 324.371C289.393 323.946 291.014 323.135 292.398 321.998C294.25 323.365 296.524 324.038 298.822 323.899C301.121 323.759 303.297 322.816 304.97 321.234C306.137 320.067 307.017 318.54 308.445 317.741C309.873 316.942 311.471 316.843 312.935 316.215C314.236 315.577 315.272 314.504 315.863 313.181C316.454 311.859 316.562 310.371 316.168 308.977Z" fill="#263238"/>
<path d="M305.356 303.283C305.356 304.45 305.01 305.591 304.362 306.561C303.713 307.531 302.792 308.288 301.714 308.734C300.636 309.181 299.449 309.297 298.305 309.07C297.161 308.842 296.109 308.28 295.284 307.455C294.459 306.63 293.897 305.579 293.67 304.434C293.442 303.29 293.559 302.104 294.005 301.026C294.452 299.948 295.208 299.026 296.178 298.378C297.148 297.73 298.289 297.383 299.456 297.383C301.021 297.383 302.521 298.005 303.628 299.112C304.734 300.218 305.356 301.719 305.356 303.283Z" fill="#FF725E"/>
<path d="M297.337 305.825C294.875 309.612 293.5 314.002 293.364 318.517C293.228 323.032 294.335 327.498 296.564 331.427C297.857 327.539 298.759 323.532 299.258 319.465C299.618 315.379 299.339 309.39 297.319 305.825" fill="#FF725E"/>
<path d="M284.504 271.306C283.071 269.464 282.33 267.178 282.41 264.845C282.491 262.513 283.387 260.283 284.944 258.545C283.041 256.318 283.57 252.771 285.339 250.463C287.108 248.155 289.829 246.745 292.416 245.425C293.637 238.69 312.414 228.363 319.122 229.755C319.418 226.855 327.5 227.151 328.731 231.138C329.381 230.245 330.275 229.559 331.306 229.162C332.336 228.765 333.46 228.675 334.541 228.902C344.419 230.429 343.242 236.598 343.242 236.598C343.242 236.598 346.251 235.395 349.349 238.789C352.204 241.905 351.064 243.952 351.064 243.952C352.182 244.765 353.112 245.809 353.791 247.013C354.469 248.217 354.881 249.553 354.997 250.93C355.177 253.265 354.521 255.77 355.581 257.854C356.111 258.904 357.036 259.73 357.458 260.826C358.679 263.996 355.24 267.399 356.012 270.704C356.174 271.377 356.506 271.997 356.712 272.662C357.146 274.028 357.069 275.505 356.497 276.819C356.057 277.825 355.321 278.75 355.303 279.846C355.386 280.672 355.576 281.484 355.868 282.261C356.344 284.237 352.321 292.058 350.642 293.199L299.285 295.471C297.326 295.102 295.53 294.132 294.147 292.697C292.763 291.262 291.86 289.432 291.563 287.461C291.566 286.798 291.375 286.149 291.015 285.593C290.608 285.195 290.122 284.889 289.587 284.695C286.21 283.033 285.654 278.508 285.869 274.754C285.937 274.229 285.91 273.697 285.788 273.182C285.493 272.476 285.056 271.837 284.504 271.306Z" fill="#263238"/>
<path d="M299.232 270.857C298.756 261.769 304.09 251.101 312.971 246.359C318.565 243.36 323.002 243.18 325.983 242.767C330.171 242.213 334.428 242.949 338.187 244.877C341.042 245.443 351.756 254.585 352.663 264.876C353.659 276.307 354.459 290.307 353.282 298.883C350.974 316.134 337.864 318.639 337.864 318.639L340.091 347.097L304.44 334.525L299.232 270.857Z" fill="#FFBF9D"/>
<path d="M328.83 297.15C328.891 296.332 329.245 295.564 329.826 294.986C330.359 294.448 331.055 294.101 331.805 293.999C332.555 293.897 333.318 294.045 333.975 294.42C335.304 295.192 335.582 296.656 335.475 298.335C334.846 299.368 334.397 300.374 333.212 300.571C333.023 300.571 332.835 300.625 332.646 300.634C331.709 300.699 330.781 300.414 330.042 299.835C329.648 299.509 329.335 299.098 329.125 298.633C328.915 298.168 328.814 297.66 328.83 297.15Z" fill="#FF9A6C"/>
<path d="M346.727 278.777C346.749 279.352 346.545 279.912 346.159 280.339C345.773 280.765 345.235 281.023 344.661 281.058C344.382 281.086 344.1 281.059 343.831 280.976C343.562 280.894 343.313 280.759 343.097 280.58C342.881 280.4 342.703 280.179 342.574 279.929C342.445 279.68 342.367 279.407 342.344 279.127C342.322 278.552 342.526 277.992 342.912 277.566C343.298 277.139 343.836 276.881 344.41 276.846C344.689 276.818 344.972 276.846 345.24 276.928C345.509 277.01 345.758 277.145 345.974 277.325C346.19 277.504 346.368 277.725 346.497 277.975C346.626 278.224 346.704 278.497 346.727 278.777Z" fill="#263238"/>
<path d="M348.846 271.53C348.586 271.817 346.88 270.632 344.509 270.695C342.138 270.758 340.432 271.988 340.171 271.701C340.037 271.575 340.306 271.045 341.069 270.479C342.077 269.743 343.288 269.336 344.536 269.312C345.768 269.281 346.979 269.643 347.993 270.345C348.747 270.884 349.008 271.395 348.846 271.53Z" fill="#263238"/>
<path d="M335.457 290.595C335.457 290.46 336.912 290.164 339.291 289.804C339.902 289.724 340.468 289.589 340.558 289.176C340.597 288.545 340.44 287.918 340.109 287.38C339.507 285.934 338.878 284.407 338.205 282.818C335.565 276.307 333.634 270.955 333.894 270.857C334.155 270.758 336.517 275.939 339.166 282.441C339.806 284.039 340.405 285.572 340.962 287.039C341.365 287.756 341.499 288.593 341.339 289.4C341.253 289.613 341.12 289.805 340.951 289.96C340.782 290.115 340.58 290.231 340.36 290.298C340.027 290.393 339.683 290.448 339.336 290.46C336.966 290.675 335.475 290.729 335.457 290.595Z" fill="#263238"/>
<path d="M337.864 318.603C329.751 318.931 321.707 317.003 314.623 313.036C314.623 313.036 321.008 324.988 338.205 322.968L337.864 318.603Z" fill="#FF9A6C"/>
<path d="M347.05 262.128C346.664 262.721 344.841 262.379 342.722 262.604C340.602 262.828 338.86 263.43 338.384 262.927C338.169 262.676 338.384 262.101 339.112 261.499C340.098 260.749 341.28 260.3 342.515 260.206C343.751 260.067 345 260.295 346.107 260.862C346.942 261.275 347.248 261.796 347.05 262.128Z" fill="#263238"/>
<path d="M321.906 279.783C321.936 280.355 322.187 280.894 322.605 281.286C323.024 281.677 323.578 281.892 324.151 281.884C324.432 281.889 324.711 281.837 324.972 281.733C325.232 281.628 325.47 281.473 325.67 281.276C325.87 281.078 326.028 280.843 326.136 280.583C326.244 280.324 326.298 280.046 326.297 279.765C326.267 279.191 326.015 278.652 325.594 278.262C325.173 277.871 324.617 277.66 324.043 277.672C323.764 277.669 323.487 277.721 323.227 277.825C322.968 277.93 322.732 278.085 322.534 278.281C322.335 278.477 322.177 278.711 322.069 278.969C321.961 279.227 321.906 279.503 321.906 279.783Z" fill="#263238"/>
<path d="M316.455 273.254C316.751 273.524 318.341 272.186 320.703 272.042C323.064 271.898 324.878 272.985 325.121 272.671C325.238 272.536 324.932 272.042 324.142 271.53C323.061 270.882 321.807 270.584 320.55 270.677C319.318 270.746 318.141 271.208 317.191 271.997C316.518 272.599 316.311 273.129 316.455 273.254Z" fill="#263238"/>
<path d="M316.132 263.924C316.626 264.436 318.422 263.762 320.622 263.601C322.822 263.439 324.699 263.708 325.112 263.116C325.283 262.837 324.959 262.317 324.115 261.859C322.965 261.295 321.68 261.068 320.406 261.203C319.136 261.293 317.917 261.745 316.895 262.505C316.123 263.143 315.907 263.708 316.132 263.924Z" fill="#263238"/>
<path d="M302.392 287.074C302.392 285.79 300.803 282.818 299.537 282.647C296.151 282.207 290.072 282.647 290.225 291.196C290.44 302.87 302.159 300.284 302.168 299.943C302.177 299.602 302.509 291.493 302.392 287.074Z" fill="#FFBF9D"/>
<path d="M298.863 295.722C298.809 295.722 298.666 295.875 298.315 296.036C297.837 296.255 297.291 296.274 296.798 296.09C295.55 295.659 294.472 293.72 294.373 291.6C294.329 290.595 294.507 289.593 294.894 288.664C294.997 288.296 295.188 287.959 295.451 287.682C295.714 287.405 296.041 287.196 296.403 287.074C296.635 287.005 296.884 287.02 297.106 287.117C297.328 287.214 297.508 287.387 297.615 287.604C297.777 287.937 297.714 288.17 297.777 288.188C297.84 288.206 298.019 287.99 297.92 287.505C297.85 287.216 297.682 286.959 297.444 286.778C297.118 286.54 296.712 286.44 296.313 286.5C295.833 286.603 295.387 286.829 295.019 287.154C294.651 287.48 294.373 287.895 294.212 288.359C293.727 289.38 293.505 290.507 293.565 291.636C293.682 293.989 294.93 296.18 296.627 296.638C296.943 296.722 297.274 296.735 297.595 296.676C297.916 296.617 298.221 296.488 298.486 296.297C298.845 296.01 298.908 295.749 298.863 295.722Z" fill="#FF9A6C"/>
<path d="M355.258 264.939C352.86 263.52 351.298 261.544 351.378 258.752C349.816 259.254 348.173 257.279 347.221 255.941C346.269 254.603 345.137 253.947 345.164 252.349C345.204 252.024 345.154 251.695 345.021 251.397C344.778 250.957 344.212 250.822 343.727 250.687C342.468 250.314 341.323 249.631 340.396 248.701C339.468 247.771 338.789 246.623 338.42 245.362C335.923 246.523 333.177 247.047 330.428 246.889C329.841 247.794 329.034 248.534 328.081 249.04C327.129 249.546 326.063 249.802 324.985 249.782C323.907 249.762 322.851 249.468 321.918 248.927C320.985 248.387 320.205 247.617 319.652 246.691C319.273 247.414 318.744 248.047 318.099 248.547C317.455 249.048 316.71 249.404 315.916 249.592C314.327 249.954 312.694 250.084 311.067 249.978C311.408 251.56 311.167 253.211 310.388 254.63C309.61 256.048 308.346 257.139 306.829 257.701C306.416 257.836 305.931 257.979 305.76 258.374C305.706 258.595 305.697 258.824 305.734 259.048C305.771 259.271 305.853 259.485 305.975 259.676C306.214 260.345 306.315 261.055 306.274 261.763C306.232 262.472 306.048 263.165 305.733 263.801C305.418 264.437 304.978 265.003 304.44 265.465C303.901 265.927 303.275 266.277 302.599 266.492C303.055 266.876 303.418 267.358 303.66 267.902C303.903 268.446 304.019 269.038 304 269.634C303.981 270.229 303.827 270.813 303.551 271.34C303.274 271.868 302.881 272.326 302.401 272.68C301.979 272.949 301.432 273.272 301.503 273.766C301.549 273.951 301.642 274.121 301.773 274.26C302.768 275.323 303.44 276.646 303.713 278.076C303.856 279.522 302.922 281.175 301.477 281.273C301.892 281.567 302.244 281.942 302.511 282.376C302.778 282.81 302.955 283.293 303.03 283.797C303.03 284.82 302.069 285.88 301.108 285.539C300.695 285.395 294.822 284.389 294.571 284.048C291.141 279.63 295.191 274.556 295.379 268.971C295.675 263.365 297.271 257.905 300.04 253.022C301.119 250.934 302.472 248.998 304.063 247.266C305.968 245.402 308.077 243.758 310.349 242.363C313.267 240.45 316.267 238.538 319.634 237.649C325.92 235.996 332.547 238.133 338.492 240.711C340.798 241.609 342.97 242.817 344.949 244.303C347.189 246.242 349.065 248.565 350.489 251.163C352.84 254.754 354.421 258.793 355.132 263.026" fill="#263238"/>
<path d="M328.39 294.941C328.677 294.752 329.835 296.737 332.314 297.078C334.792 297.419 336.732 296.019 336.912 296.279C337.01 296.387 336.678 296.934 335.816 297.473C334.69 298.169 333.353 298.442 332.044 298.246C330.788 298.063 329.654 297.395 328.883 296.387C328.327 295.623 328.255 295.013 328.39 294.941Z" fill="#263238"/>
<path d="M272.938 239.894C272.938 255.689 283.965 281.381 293.251 282.872L293.161 282.198C292.73 272.177 292.335 261.877 295.604 252.394C299.267 241.779 308.777 234.092 319.122 229.737C303.587 226.379 282.08 234.173 272.938 239.894Z" fill="#FF725E"/>
<path d="M313.222 228.992C311.413 229.427 309.759 230.353 308.442 231.668C307.126 232.984 306.197 234.636 305.76 236.445C303.39 236.918 301.271 238.234 299.797 240.15C298.322 242.065 297.592 244.45 297.741 246.862C296.467 247.271 295.304 247.968 294.343 248.898C293.381 249.829 292.647 250.968 292.196 252.227C291.746 253.487 291.591 254.834 291.744 256.163C291.898 257.492 292.355 258.768 293.08 259.892C291.865 261.529 291.157 263.486 291.044 265.521C290.931 267.556 291.417 269.58 292.443 271.341C291.621 272.096 290.987 273.032 290.59 274.075C290.193 275.118 290.044 276.239 290.156 277.349C290.267 278.459 290.636 279.528 291.232 280.471C291.829 281.414 292.637 282.206 293.592 282.782L297.696 282.836L297.552 265.828L300.462 255.842L306.64 244.976L312.998 239.166L323.172 232.494C321.996 231.052 320.445 229.962 318.69 229.344C316.934 228.726 315.042 228.604 313.222 228.992Z" fill="#263238"/>
<path d="M297.175 304.172C296.088 301.829 290.709 300.715 286.507 301.658C282.299 302.72 278.591 305.212 276.018 308.707C273.482 312.186 271.715 316.166 270.837 320.381C281.478 320.561 292.128 313.503 297.175 304.136" fill="#FF725E"/>
<path d="M302.285 308.573C302.285 308.573 302.123 308.725 301.755 308.905C301.223 309.14 300.655 309.286 300.076 309.336C299.11 309.448 298.131 309.321 297.226 308.966C296.321 308.611 295.517 308.039 294.885 307.3C294.253 306.561 293.813 305.677 293.603 304.728C293.393 303.779 293.42 302.792 293.682 301.856C293.815 301.29 294.046 300.752 294.364 300.266C294.589 299.934 294.75 299.772 294.777 299.79C294.446 300.474 294.188 301.19 294.005 301.927C293.8 302.81 293.805 303.728 294.02 304.609C294.236 305.489 294.654 306.306 295.243 306.995C295.832 307.683 296.575 308.224 297.411 308.573C298.247 308.922 299.154 309.069 300.058 309.004C300.812 308.935 301.559 308.79 302.285 308.573Z" fill="#263238"/>
<path d="M284.19 308.366C286.926 306.292 290.153 304.965 293.556 304.514C293.556 304.657 291.383 305.196 288.797 306.31C286.21 307.423 284.19 308.492 284.19 308.366Z" fill="#263238"/>
<path d="M296.6 319.744C296.477 317.908 296.477 316.066 296.6 314.23C296.579 312.391 296.675 310.552 296.888 308.725C297.137 310.555 297.197 312.406 297.067 314.248C297.1 316.091 296.944 317.933 296.6 319.744Z" fill="#263238"/>
<path d="M287.917 239.947C287.736 240.532 287.52 241.104 287.27 241.663C286.668 243.202 286.158 244.777 285.744 246.377C284.334 251.658 284.021 257.171 284.826 262.577C285.631 267.983 287.535 273.166 290.422 277.807C291.29 279.219 292.238 280.58 293.26 281.884C293.661 282.345 294.035 282.827 294.382 283.33C294.257 283.236 294.142 283.127 294.041 283.007C293.826 282.782 293.502 282.459 293.143 282.001C292.057 280.737 291.06 279.399 290.162 277.996C287.165 273.347 285.193 268.113 284.379 262.642C283.564 257.171 283.926 251.59 285.438 246.269C285.893 244.665 286.454 243.093 287.118 241.564C287.351 241.016 287.567 240.612 287.701 240.334C287.763 240.2 287.835 240.07 287.917 239.947Z" fill="#263238"/>
<path d="M276.557 558.522H295.119L295.658 535.003C295.658 535.003 287.225 533.486 282.69 539.43C278.156 545.375 276.557 558.522 276.557 558.522Z" fill="#FF725E"/>
<path d="M270.469 483.359C270.469 497.153 272.094 530.405 314.677 533.647H295.208L294.382 562.383C294.382 562.383 414.247 565.311 417.983 565.365C425.167 565.481 442.427 556.762 445.668 535.264C448.91 513.766 431.067 506.887 425.796 502.792C420.524 498.697 361.31 478.052 338.6 474.002L272.094 480.486L270.469 483.359Z" fill="#263238"/>
<path d="M444.339 403.41C442.845 401.369 440.951 399.654 438.773 398.368C436.595 397.082 434.177 396.252 431.669 395.93C422.033 394.532 412.215 396.621 403.983 401.821C390.819 410.271 339.965 476.633 339.965 476.633L426.334 509.931C426.334 509.931 447.626 444.422 450.096 433.377C452.179 424.127 451.703 413.513 444.339 403.41Z" fill="#263238"/>
<path d="M384.344 486.96C384.374 486.695 384.428 486.434 384.506 486.179C384.64 485.631 384.829 484.886 385.053 483.952C385.278 483.018 385.601 481.806 386.014 480.441C386.427 479.076 386.831 477.531 387.397 475.843C387.963 474.155 388.538 472.251 389.265 470.311C389.992 468.372 390.774 466.252 391.627 464.025C393.423 459.661 395.533 454.929 398.03 450.088C400.526 445.248 403.202 440.803 405.752 436.834C407.054 434.867 408.294 432.999 409.533 431.311C410.772 429.623 411.931 428.042 413.017 426.633C414.104 425.223 415.136 423.939 416.025 422.879C416.914 421.819 417.723 420.858 418.387 420.113L419.914 418.407C420.088 418.205 420.274 418.013 420.471 417.832C420.33 418.06 420.168 418.274 419.986 418.47L418.522 420.266C417.884 421.02 417.094 421.954 416.232 423.068C415.37 424.181 414.319 425.42 413.278 426.857C412.236 428.294 411.033 429.83 409.847 431.563C408.662 433.296 407.405 435.155 406.12 437.094C403.588 441.063 400.948 445.509 398.443 450.331C395.937 455.153 393.827 459.868 392.031 464.214C391.133 466.405 390.316 468.47 389.624 470.446C388.933 472.422 388.268 474.254 387.711 475.942C387.155 477.63 386.679 479.166 386.257 480.522C385.835 481.878 385.502 483.036 385.233 483.997C384.964 484.958 384.748 485.658 384.595 486.197C384.527 486.456 384.443 486.711 384.344 486.96Z" fill="#455A64"/>
<path d="M280.939 434.266C280.939 434.266 278.174 388.01 277.347 376.551C276.521 365.093 275.803 342.948 285.286 333.07C294.769 323.192 301.369 321.603 301.369 321.603L339.983 338.799C339.983 338.799 361.903 369.879 361.903 383.699C361.903 397.519 347.589 439.034 347.589 439.034L280.939 434.266Z" fill="#455A64"/>
<path d="M327.114 371.935L326.908 370.211L361.93 371.361C361.93 371.361 365.791 384.076 360.314 404.686C358.122 412.929 350.166 443.749 350.166 443.749L354.234 468.785L382.826 486.7C382.826 486.7 363.331 488.496 351.863 501.517C340.396 514.538 332.107 536.296 332.107 536.296C332.107 536.296 268.727 536.629 269.562 496.129C269.558 489.988 270.466 483.881 272.256 478.007L281.73 448.912L282.879 434.427C282.879 434.427 303.273 432.218 305.85 424.801C308.427 417.383 327.114 371.935 327.114 371.935Z" fill="#FF725E"/>
<path d="M431.785 506.734C431.607 506.679 431.433 506.61 431.265 506.528L429.837 505.863C428.589 505.279 426.784 504.444 424.53 503.466C420.04 501.481 413.754 498.976 406.731 496.282C399.709 493.588 393.324 491.334 388.69 489.69L383.213 487.733L381.722 487.185C381.546 487.13 381.377 487.054 381.219 486.96C381.404 486.981 381.585 487.026 381.758 487.095L383.266 487.562C384.578 487.975 386.472 488.586 388.798 489.358C393.459 490.929 399.879 493.165 406.902 495.824C413.924 498.482 420.201 501.086 424.664 503.142C426.909 504.166 428.687 505.046 429.909 505.684C430.483 505.98 430.95 506.231 431.309 506.429C431.481 506.51 431.641 506.612 431.785 506.734Z" fill="#455A64"/>
<path d="M397.67 540.508C397.67 540.634 383.015 539.52 364.965 538.012C346.915 536.503 332.278 535.174 332.296 535.048C332.314 534.922 346.942 536.036 365.001 537.545C383.06 539.053 397.679 540.337 397.67 540.508Z" fill="#455A64"/>
<path d="M310.034 491.163C310.106 491.001 310.2 490.85 310.313 490.714L311.211 489.493C311.597 488.954 312.109 488.325 312.666 487.589C313.222 486.853 313.905 486.026 314.668 485.128C320.611 477.547 329.01 472.273 338.42 470.213C341.113 469.614 343.843 469.2 346.592 468.973L349.762 468.767H352.16H353.677C353.85 468.746 354.025 468.746 354.198 468.767C354.028 468.808 353.853 468.83 353.677 468.83L352.169 468.91L349.78 469.009L346.628 469.288C343.908 469.558 341.209 470.002 338.546 470.617C335.28 471.394 332.109 472.526 329.09 473.993C323.676 476.815 318.868 480.671 314.938 485.344C314.165 486.242 313.474 487.023 312.89 487.751C312.306 488.478 311.777 489.089 311.372 489.6L310.421 490.777C310.305 490.918 310.176 491.047 310.034 491.163Z" fill="#263238"/>
<path d="M282.556 449.559C282.664 449.666 281.721 450.888 279.736 452.854C276.911 455.613 273.842 458.11 270.567 460.317C269.535 461.026 268.421 461.726 267.254 462.436C266.67 462.786 266.059 463.136 265.458 463.487C264.792 463.887 264.088 464.221 263.357 464.483C262.921 464.626 262.468 464.707 262.01 464.726C261.489 464.749 260.97 464.654 260.492 464.447C259.989 464.232 259.546 463.9 259.199 463.478C258.802 462.988 258.589 462.375 258.597 461.744C258.628 461.15 258.834 460.578 259.19 460.101C259.455 459.726 259.756 459.377 260.088 459.059L261.884 457.38C264.376 454.894 267.159 452.717 270.172 450.897C273.554 448.865 277.48 447.924 281.415 448.203H281.595L281.146 450.492C274.243 448.597 267.535 446.054 261.112 442.895C260.743 442.716 260.375 442.536 260.016 442.348C259.657 442.159 259.289 441.997 258.867 441.737C258.363 441.437 257.948 441.009 257.663 440.498C257.513 440.205 257.423 439.884 257.398 439.556C257.373 439.227 257.415 438.897 257.52 438.585C257.685 438.042 257.996 437.555 258.418 437.175C258.817 436.841 259.282 436.593 259.782 436.448C260.593 436.231 261.433 436.146 262.27 436.196C265.083 436.223 267.865 436.796 270.46 437.885C274.202 439.404 277.452 441.928 279.853 445.176C281.496 447.484 281.945 449.002 281.837 449.047C281.73 449.092 280.939 447.781 279.143 445.751C276.609 442.905 273.405 440.735 269.822 439.438C267.399 438.537 264.828 438.101 262.243 438.154C261.604 438.126 260.965 438.198 260.348 438.369C260.119 438.436 259.907 438.553 259.729 438.711C259.581 438.844 259.473 439.015 259.414 439.205C259.39 439.26 259.378 439.319 259.378 439.38C259.378 439.44 259.39 439.5 259.414 439.555C259.541 439.726 259.703 439.867 259.89 439.968C260.142 440.121 260.501 440.282 260.869 440.462L261.956 440.974C268.32 443.962 274.93 446.399 281.712 448.256L281.272 450.546H281.119C277.662 450.319 274.218 451.145 271.241 452.917C268.369 454.62 265.705 456.651 263.303 458.97L261.507 460.613C260.932 461.116 260.609 461.592 260.609 461.843C260.609 462.095 260.815 462.436 261.255 462.633C261.462 462.733 261.69 462.782 261.92 462.777C262.197 462.773 262.472 462.731 262.737 462.651C263.361 462.445 263.962 462.178 264.533 461.852C265.144 461.529 265.745 461.215 266.329 460.891C267.505 460.245 268.61 459.598 269.651 458.952C272.946 456.899 276.107 454.641 279.116 452.19C281.272 450.439 282.439 449.433 282.556 449.559Z" fill="#FF725E"/>
<path d="M296.493 323.668C296.493 323.596 296.663 323.461 297.067 323.273C297.315 323.149 297.574 323.047 297.84 322.968L298.944 322.707C301.365 322.408 303.82 322.797 306.029 323.83C309.249 325.305 312.178 327.346 314.677 329.855C317.723 332.844 320.433 336.156 322.759 339.733C326.995 346.191 330.277 353.226 332.502 360.621C334.164 366.305 334.496 369.96 334.209 370.014C333.921 370.068 332.96 366.583 330.931 361.15C328.308 354.086 324.911 347.334 320.802 341.017C315.997 333.69 310.349 327.844 305.32 325.293C303.387 324.242 301.234 323.657 299.034 323.587H297.983C297.678 323.587 297.427 323.65 297.211 323.659C296.762 323.767 296.52 323.749 296.493 323.668Z" fill="#FF725E"/>
<path d="M352.519 458.512H352.267L351.522 458.467C350.867 458.467 349.897 458.332 348.649 458.305C345.136 458.15 341.618 458.222 338.115 458.521C332.916 458.961 327.769 459.884 322.741 461.277C319.912 462.077 316.967 463.02 313.986 464.187C311.004 465.354 307.978 466.71 304.952 468.246C291.455 475.252 279.979 485.6 271.618 498.302C270.909 499.335 270.424 500.17 270.065 500.718L269.651 501.346C269.608 501.421 269.557 501.49 269.499 501.553L269.616 501.319L269.984 500.673C270.325 500.107 270.774 499.254 271.465 498.203C273.346 495.219 275.418 492.36 277.671 489.645C285.127 480.641 294.328 473.237 304.718 467.878C307.763 466.324 310.807 464.977 313.806 463.801C316.692 462.69 319.632 461.725 322.615 460.909C327.669 459.519 332.844 458.616 338.07 458.215C341.59 457.948 345.125 457.927 348.649 458.152C349.897 458.206 350.858 458.35 351.513 458.404L352.249 458.485L352.519 458.512Z" fill="white"/>
<path d="M350.902 448.58C350.655 448.617 350.407 448.641 350.157 448.652L348.011 448.768C347.113 448.813 345.936 448.876 344.616 448.966C343.296 449.056 341.788 449.137 340.126 449.289C336.795 449.532 332.844 449.936 328.452 450.448C324.061 450.959 319.275 451.687 314.264 452.567C309.253 453.447 304.503 454.444 300.201 455.432C295.9 456.419 292.056 457.416 288.842 458.314C287.225 458.745 285.788 459.212 284.513 459.553C283.238 459.895 282.143 460.254 281.254 460.532L279.197 461.143C278.961 461.229 278.718 461.293 278.47 461.331C278.692 461.219 278.923 461.126 279.161 461.053L281.2 460.353C282.098 460.047 283.166 459.688 284.432 459.302C285.699 458.916 287.126 458.449 288.752 458C291.958 457.048 295.801 456.042 300.103 455.009C304.404 453.977 309.163 452.998 314.183 452.1C319.203 451.202 324.061 450.546 328.399 450.026C332.736 449.505 336.759 449.128 340.073 448.957C341.743 448.831 343.251 448.768 344.563 448.705C345.874 448.643 347.032 448.607 347.966 448.589H350.121C350.381 448.56 350.642 448.557 350.902 448.58Z" fill="white"/>
<path d="M350.498 440.255C350.498 440.39 335.179 440.911 316.276 441.432C297.373 441.953 282.035 442.267 282.026 442.132C282.017 441.997 297.346 441.477 316.258 440.965C335.17 440.453 350.498 440.13 350.498 440.255Z" fill="white"/>
<path d="M352.555 425.241C352.555 425.366 341.599 426.139 328.084 426.92C314.569 427.701 303.596 428.249 303.587 428.123C303.578 427.998 314.534 427.225 328.057 426.453C341.581 425.681 352.546 425.115 352.555 425.241Z" fill="white"/>
<path d="M363.349 381.445C363.349 381.571 355.177 381.553 345.101 381.4C335.026 381.248 326.854 381.014 326.854 380.88C326.854 380.745 335.026 380.772 345.11 380.933C355.195 381.095 363.358 381.311 363.349 381.445Z" fill="white"/>
<path d="M361.966 393.541C361.466 393.614 360.962 393.644 360.457 393.631C359.487 393.631 358.086 393.676 356.353 393.676C352.878 393.676 348.083 393.577 342.802 393.281C337.522 392.985 332.727 392.572 329.278 392.194C327.554 392.006 326.162 391.835 325.202 391.7C324.695 391.66 324.193 391.573 323.702 391.44C324.206 391.424 324.71 391.448 325.211 391.512L329.305 391.862C332.763 392.149 337.531 392.518 342.775 392.76C348.02 393.003 352.842 393.209 356.308 393.29L360.412 393.398C360.933 393.406 361.452 393.454 361.966 393.541Z" fill="white"/>
<path d="M360.224 405.808C360.224 405.943 350.346 405.727 338.142 405.332C325.938 404.937 316.078 404.506 316.078 404.38C316.078 404.254 325.956 404.47 338.16 404.865C350.364 405.26 360.224 405.637 360.224 405.808Z" fill="white"/>
<path d="M322.499 477.028C322.335 477.162 322.161 477.282 321.978 477.388L320.46 478.348C319.796 478.762 318.988 479.246 318.072 479.893C317.156 480.54 316.087 481.195 314.955 482.021L313.159 483.296L311.274 484.742C309.954 485.721 308.58 486.861 307.197 488.029C304.395 490.436 301.414 493.192 298.477 496.273C295.741 499.193 293.154 502.25 290.727 505.432C289.65 506.932 288.581 508.324 287.692 509.707L286.381 511.682C285.977 512.329 285.6 512.948 285.232 513.55C284.477 514.726 283.876 515.84 283.328 516.801C282.78 517.762 282.331 518.597 281.981 519.306C281.631 520.016 281.352 520.492 281.146 520.896C281.056 521.089 280.948 521.272 280.823 521.443C280.877 521.24 280.955 521.044 281.056 520.86L281.819 519.225C282.143 518.507 282.565 517.654 283.103 516.675C283.642 515.696 284.208 514.565 284.944 513.379L286.076 511.494C286.48 510.838 286.92 510.183 287.369 509.491C288.267 508.099 289.309 506.689 290.386 505.181C292.8 501.965 295.387 498.883 298.136 495.949C300.918 493.048 303.85 490.293 306.918 487.697C308.355 486.538 309.702 485.407 311.04 484.437C311.696 483.943 312.324 483.458 312.944 483.009L314.74 481.752C315.88 480.935 316.967 480.279 317.901 479.677C318.835 479.076 319.697 478.582 320.335 478.196L321.906 477.298C322.092 477.184 322.291 477.093 322.499 477.028Z" fill="white"/>
<path d="M358.904 472.161C358.843 472.207 358.777 472.243 358.706 472.269L358.095 472.52L355.752 473.418L354.063 474.083L352.088 474.981C350.678 475.637 349.044 476.319 347.337 477.271L344.643 478.699C343.745 479.202 342.766 479.803 341.779 480.378C339.776 481.509 337.765 482.928 335.618 484.356C326.415 490.798 318.343 498.721 311.732 507.803C310.268 509.931 308.813 511.907 307.655 513.9C307.062 514.879 306.451 515.813 305.931 516.738L304.467 519.432C303.497 521.129 302.797 522.755 302.132 524.155L301.234 526.113L300.552 527.81L299.6 530.136L299.339 530.738C299.312 530.811 299.275 530.88 299.231 530.944C299.248 530.871 299.269 530.799 299.294 530.729C299.348 530.558 299.42 530.361 299.51 530.109L300.408 527.738L301.054 526.032C301.306 525.413 301.62 524.757 301.952 524.048C302.599 522.629 303.281 520.985 304.242 519.279L305.679 516.585C306.2 515.687 306.802 514.717 307.385 513.721C308.535 511.718 309.981 509.716 311.444 507.578C318.034 498.434 326.126 490.473 335.376 484.033C337.54 482.605 339.57 481.186 341.59 480.073C342.587 479.498 343.53 478.905 344.482 478.402L347.221 477.001C348.945 476.103 350.597 475.403 352.016 474.774C352.734 474.46 353.39 474.164 354.009 473.876L355.725 473.248L358.104 472.395L358.724 472.26L358.904 472.161Z" fill="white"/>
<path d="M371.853 479.974C371.615 480.101 371.369 480.212 371.116 480.306L368.979 481.204L367.435 481.806C366.878 482.039 366.285 482.336 365.639 482.623C364.363 483.234 362.873 483.844 361.319 484.724L358.859 486.044C357.961 486.502 357.162 487.068 356.264 487.607C354.468 488.657 352.672 489.978 350.705 491.325C346.604 494.369 342.768 497.755 339.237 501.445C335.763 505.189 332.603 509.214 329.79 513.478C328.551 515.472 327.339 517.358 326.387 519.225C325.902 520.123 325.372 521.021 324.959 521.919L323.774 524.344C322.966 525.933 322.427 527.46 321.879 528.762C321.619 529.427 321.358 530.028 321.152 530.558L320.613 532.13C320.299 533.028 320.047 533.764 319.859 534.303C319.782 534.559 319.683 534.809 319.562 535.048C319.609 534.785 319.678 534.527 319.769 534.276C319.93 533.728 320.155 533.001 320.442 532.076L320.936 530.486C321.134 529.912 321.385 529.301 321.637 528.636C322.166 527.316 322.678 525.781 323.433 524.146L324.6 521.596C325.004 520.698 325.498 519.8 326.01 518.902C326.908 517.025 328.156 515.122 329.395 513.101C332.204 508.804 335.37 504.752 338.86 500.987C342.412 497.277 346.279 493.882 350.418 490.84C352.366 489.493 354.189 488.146 356.021 487.14C356.919 486.61 357.772 486.044 358.643 485.595L361.131 484.293C362.702 483.395 364.211 482.838 365.504 482.246C366.15 481.967 366.752 481.689 367.3 481.464L368.862 480.899L371.036 480.126C371.303 480.053 371.577 480.002 371.853 479.974Z" fill="white"/>
<g opacity="0.3">
<path d="M289.785 385.244C289.785 385.244 310.537 446.083 317.73 450.457C324.923 454.83 350.436 445.688 350.436 445.688L351.819 437.166L305.311 380.88L289.785 385.244Z" fill="black"/>
</g>
<path d="M277.527 561.665L272.633 559.501C272.633 559.501 232.052 575.665 225.937 570.735L280.293 511.26L298.693 537.652C286.48 542.69 282.69 547.692 277.527 561.665Z" fill="#263238"/>
<g opacity="0.6">
<path d="M287.782 530.63C288.126 529.887 288.187 529.044 287.952 528.26C287.717 527.476 287.203 526.805 286.507 526.373C285.79 525.988 284.951 525.895 284.167 526.112C283.382 526.33 282.712 526.841 282.295 527.541C281.532 528.969 282.169 531.384 283.669 532.031C285.169 532.677 287.522 531.905 287.908 530.334" fill="white"/>
</g>
<g opacity="0.6">
<path d="M280.32 511.26L284.001 516.469L231.208 571.193C231.208 571.193 227.616 572.764 226 570.735L280.32 511.26Z" fill="white"/>
</g>
<path d="M270.235 560.075C269.948 559.797 271.133 558.226 271.501 555.927C271.869 553.628 271.313 551.742 271.672 551.58C272.031 551.419 273.342 553.376 272.866 556.178C272.39 558.98 270.451 560.39 270.235 560.075Z" fill="#455A64"/>
<path d="M263.078 562.482C262.737 562.293 263.383 560.578 263.033 558.45C262.683 556.322 261.632 554.858 261.902 554.553C262.171 554.247 264.021 555.612 264.398 558.27C264.775 560.929 263.365 562.734 263.078 562.482Z" fill="#455A64"/>
<path d="M252.652 558.872C252.832 558.549 254.682 559.492 255.616 561.719C256.55 563.946 255.948 565.885 255.616 565.787C255.283 565.688 255.167 564.054 254.367 562.24C253.568 560.426 252.419 559.186 252.652 558.872Z" fill="#455A64"/>
<path d="M456.391 279.908C453.903 278.256 452.978 275.023 452.888 272.033C452.799 269.043 453.337 266.043 452.951 263.053C452.637 260.673 453.077 258.177 453.266 255.779C453.625 251.074 456.409 250.391 458.402 246.099C460.396 241.806 457.405 240.711 458.474 238.915C458.995 238.017 460.468 238.34 461.384 238.798C462.272 239.311 463.043 240.006 463.646 240.836C466.87 244.707 469.663 249.448 469.214 254.468C468.981 256.965 467.966 259.308 467.418 261.76C466.583 265.594 466.879 269.842 464.922 273.209C463.126 276.388 459.677 278.238 456.427 279.926" fill="#455A64"/>
<path d="M452.323 295.013C453.319 288.475 450.14 280.474 445.39 275.867C443.378 273.91 440.9 272.275 439.544 269.878C437.955 267.067 437.999 263.538 436.329 260.781C433.833 256.65 428.4 255.528 423.587 255.249C418.773 254.971 408.617 249.305 409.712 252.025C413.304 262.335 412.514 261.751 425.293 271.207C430.537 275.086 425.742 286.661 440.262 291.151C444.258 292.391 449.162 292.301 452.224 295.129" fill="#455A64"/>
<path d="M469.349 343.604C461.901 346.529 455.642 351.854 451.559 358.735L449.853 361.59C450.58 360.549 452.188 360.459 453.508 360.306C455.985 360 458.298 358.9 460.099 357.172C461.11 355.986 462.218 354.887 463.413 353.886C464.621 353.171 465.893 352.57 467.211 352.09C470.094 350.806 472.474 348.587 475.293 347.214C478.113 345.84 481.472 345.328 484.615 344.52C487.758 343.711 490.954 342.499 493.029 340.03C485.153 340.416 476.739 340.766 469.349 343.604Z" fill="#455A64"/>
<path d="M480.736 303.436C478.042 304.693 476.147 307.306 473.489 308.653C471.082 309.866 468.289 309.938 465.676 310.575C459.39 312.093 451.649 323.713 447.429 329.532C449.126 329.442 452.502 328.023 455.618 328.068C458.735 328.113 462.847 327.233 465.945 326.91C476.129 325.85 481.023 320.893 488.728 314.338C493.361 310.395 498.938 308.806 501.874 303.472C495.31 306.372 487.246 300.428 480.736 303.436Z" fill="#455A64"/>
<path d="M452.287 300.607C455.879 290.208 465.218 282.216 475.096 277.403C485.125 272.58 496.648 271.89 507.181 275.481C501.264 283.258 495.265 284.237 485.746 286.491C484.112 286.877 480.017 285.656 477.044 287.793C475.85 288.646 475.572 292.085 468.675 293.36C461.778 294.636 456.103 295.992 452.287 300.607Z" fill="#455A64"/>
<path d="M459.803 258.078C459.817 258.188 459.817 258.3 459.803 258.41C459.803 258.662 459.803 258.985 459.803 259.407C459.803 259.829 459.803 260.386 459.803 261.023C459.803 261.661 459.74 262.397 459.695 263.224C459.366 267.896 458.654 272.533 457.567 277.089C456.274 282.881 454.19 289.661 451.883 297.105C449.307 305.192 447.193 313.419 445.552 321.746C442.602 336.889 441.322 352.311 441.735 367.733C441.87 373.651 442.301 378.419 442.552 381.724C442.723 383.349 442.849 384.624 442.938 385.513C442.938 385.926 443.001 386.259 443.019 386.501C443.029 386.615 443.029 386.729 443.019 386.842C442.096 380.514 441.553 374.135 441.394 367.742C440.877 352.29 442.112 336.83 445.076 321.656C446.72 313.314 448.848 305.074 451.452 296.979C453.786 289.508 455.897 282.782 457.226 277.017C458.338 272.479 459.098 267.861 459.498 263.206C459.551 262.388 459.605 261.652 459.65 261.014C459.695 260.377 459.65 259.847 459.704 259.407C459.758 258.967 459.704 258.662 459.704 258.41C459.731 258.298 459.764 258.187 459.803 258.078Z" fill="#263238"/>
<path d="M496.846 276.783C496.651 276.826 496.452 276.85 496.253 276.855C495.867 276.855 495.301 276.855 494.565 276.963C493.101 277.071 490.973 277.286 488.395 277.726C485.368 278.236 482.383 278.977 479.469 279.944C475.893 281.104 472.471 282.693 469.277 284.677C463.535 288.402 458.431 293.029 454.164 298.38C452.529 300.437 451.317 302.179 450.518 303.409C450.096 304.02 449.808 304.514 449.62 304.828C449.521 305.002 449.404 305.165 449.27 305.313C449.344 305.129 449.434 304.952 449.539 304.783C449.728 304.442 449.997 303.939 450.392 303.319C451.472 301.538 452.653 299.82 453.93 298.174C458.154 292.726 463.267 288.029 469.052 284.282C472.277 282.277 475.741 280.684 479.362 279.54C482.292 278.583 485.295 277.866 488.342 277.394C490.399 277.07 492.474 276.866 494.556 276.783C495.292 276.783 495.867 276.783 496.253 276.783C496.45 276.76 496.649 276.76 496.846 276.783Z" fill="#263238"/>
<path d="M420.237 260.413C420.403 260.425 420.566 260.461 420.722 260.521C421.036 260.61 421.494 260.754 422.078 260.961C423.731 261.548 425.324 262.291 426.837 263.179C427.911 263.779 428.869 264.567 429.666 265.504C430.485 266.637 431.203 267.839 431.812 269.096C432.486 270.473 433.086 271.885 433.608 273.326C434.074 274.887 434.623 276.421 435.251 277.924C436.778 280.914 439.535 282.755 441.852 284.488C443.97 285.996 445.958 287.678 447.796 289.517C449.031 290.781 450.175 292.131 451.218 293.558L452.026 294.725C452.136 294.854 452.224 294.999 452.286 295.156C452.161 295.044 452.05 294.918 451.954 294.779L451.056 293.666C449.973 292.305 448.812 291.006 447.581 289.777C445.723 287.989 443.729 286.347 441.618 284.865C440.355 283.989 439.138 283.048 437.972 282.046C436.696 280.96 435.636 279.644 434.847 278.166C434.215 276.643 433.664 275.087 433.195 273.506C432.669 272.078 432.07 270.678 431.399 269.312C430.813 268.076 430.122 266.892 429.334 265.774C428.572 264.863 427.661 264.088 426.64 263.484C425.153 262.582 423.594 261.804 421.979 261.158L420.659 260.637C420.511 260.576 420.37 260.501 420.237 260.413Z" fill="#263238"/>
<path d="M487.946 308.546C487.822 308.668 487.687 308.78 487.542 308.878L486.339 309.776C485.288 310.521 483.762 311.572 481.804 312.847C479.521 314.314 477.118 315.585 474.62 316.646C471.773 317.822 468.532 318.738 465.2 319.851C459.51 321.798 454.179 324.668 449.422 328.347C447.563 329.72 446.091 330.87 445.067 331.66C444.582 332.019 444.169 332.316 443.881 332.558C443.746 332.67 443.598 332.766 443.441 332.846C443.551 332.708 443.678 332.584 443.819 332.477L444.95 331.516C445.947 330.69 447.384 329.496 449.225 328.086C453.948 324.298 459.292 321.357 465.02 319.393C468.37 318.271 471.612 317.373 474.422 316.224C476.912 315.191 479.315 313.96 481.606 312.542C483.573 311.347 485.127 310.306 486.213 309.605L487.461 308.797C487.609 308.689 487.773 308.604 487.946 308.546Z" fill="#263238"/>
<path d="M441.852 326.784C437.128 321.737 438.323 312.919 433.267 308.213C430.124 305.295 425.329 304.783 422.042 302.008C419.896 300.212 418.585 297.581 416.546 295.659C412.703 292.067 406.991 291.439 401.72 291.026C402.207 296.118 404.015 300.994 406.967 305.171C409.919 309.349 413.912 312.682 418.549 314.841C420.776 315.846 423.218 316.637 424.925 318.379C426.11 319.6 426.828 321.207 427.915 322.519C429.67 324.499 432.004 325.875 434.587 326.452C437.149 327.025 439.765 327.326 442.391 327.35" fill="#455A64"/>
<path d="M411.311 297.383C411.356 297.383 411.607 297.958 412.209 298.937C413.067 300.313 414.102 301.569 415.289 302.673C417.066 304.306 418.973 305.793 420.991 307.118C423.245 308.653 425.76 310.342 428.175 312.353C432.322 315.818 436.164 319.63 439.661 323.749C441.017 325.32 442.068 326.622 442.786 327.529C443.118 327.951 443.379 328.302 443.603 328.58C443.703 328.703 443.79 328.835 443.864 328.975C443.864 328.975 443.729 328.867 443.531 328.643L442.633 327.646L439.4 323.964C435.848 319.929 431.993 316.171 427.87 312.721C425.446 310.71 422.967 309.031 420.686 307.468C418.661 306.12 416.759 304.597 415.002 302.915C413.818 301.768 412.802 300.459 411.985 299.027C411.759 298.641 411.564 298.239 411.401 297.824C411.346 297.683 411.316 297.534 411.311 297.383Z" fill="#263238"/>
<path d="M436.392 352.88C436.248 349.144 435.072 345.211 431.956 343.199C430.627 342.301 429.064 341.817 427.879 340.757C426.831 339.618 425.926 338.354 425.185 336.994C422.68 333.277 418.675 330.897 414.804 328.643L410.224 325.949C409.795 325.618 409.256 325.46 408.716 325.509C408.467 325.585 408.243 325.726 408.066 325.917C407.89 326.107 407.767 326.342 407.71 326.595C407.611 327.109 407.611 327.636 407.71 328.149C408.079 331.255 408.679 334.328 409.506 337.344C410.215 339.958 411.158 342.616 413.098 344.528C415.235 346.657 418.279 347.546 420.875 349.081C423.084 350.374 425.023 352.17 427.439 353.042C430.232 354.047 433.509 353.275 436.419 352.862" fill="#455A64"/>
<path d="M413.664 333.779C413.992 334.117 414.292 334.48 414.562 334.866L416.986 337.91C419.581 341.293 422.64 344.292 426.074 346.818C428.071 348.049 430.13 349.176 432.243 350.195C434.183 351.183 435.907 352.117 437.308 352.988C438.425 353.662 439.48 354.434 440.46 355.296C440.729 355.528 440.982 355.78 441.214 356.05C441.304 356.135 441.383 356.232 441.448 356.337C441.448 356.337 441.062 356.005 440.343 355.439C439.332 354.636 438.26 353.912 437.137 353.275C435.727 352.449 433.994 351.551 432.046 350.581C429.906 349.575 427.825 348.448 425.814 347.205C422.333 344.66 419.264 341.595 416.717 338.117C415.72 336.815 414.921 335.728 414.409 334.983C414.125 334.604 413.876 334.202 413.664 333.779Z" fill="#263238"/>
<path d="M468.352 346.935C467.955 347.24 467.532 347.507 467.086 347.734C466.664 347.968 466.188 348.264 465.577 348.632C464.967 349.001 464.329 349.387 463.62 349.881C462.174 350.779 460.521 352.018 458.743 353.428C456.828 354.978 454.999 356.633 453.266 358.385C451.547 360.149 449.926 362.004 448.407 363.943C447.025 365.739 445.848 367.427 444.941 368.882C444.456 369.601 444.043 370.283 443.729 370.867C443.415 371.451 443.082 371.962 442.831 372.384C442.616 372.837 442.357 373.267 442.059 373.669C442.225 373.198 442.429 372.742 442.669 372.304C442.876 371.864 443.145 371.334 443.477 370.732C443.81 370.13 444.178 369.439 444.636 368.712C445.682 366.977 446.818 365.299 448.039 363.683C449.554 361.716 451.179 359.836 452.906 358.052C454.655 356.29 456.508 354.634 458.456 353.095C460.047 351.841 461.704 350.675 463.422 349.602C464.14 349.126 464.832 348.749 465.425 348.408C466.017 348.067 466.538 347.788 466.978 347.573C467.419 347.324 467.878 347.111 468.352 346.935Z" fill="#263238"/>
<path d="M453.598 391.135C452.344 387.783 450.843 384.53 449.108 381.4C447.365 378.428 444.833 375.492 441.421 375.114C440.14 375.034 438.857 375.228 437.658 375.685C436.459 376.142 435.372 376.851 434.47 377.763C432.679 379.596 431.167 381.68 429.98 383.951C427.807 387.65 425.631 391.35 423.452 395.05L427.044 399.926C433.538 402.426 440.643 402.877 447.401 401.219C450.634 400.411 454.253 398.48 454.505 395.158C454.513 393.765 454.203 392.389 453.598 391.135Z" fill="#A87058"/>
<path d="M444.51 388.809C444.51 388.809 438.547 386.699 436.132 386.169C433.716 385.639 423.066 385.513 421.548 385.639C420.031 385.765 403.983 396.972 403.983 396.972L409.91 410.594L413.206 409.364C413.206 409.364 426.676 412.534 432.486 413.163C438.296 413.791 445.058 414.061 448.21 413.163C451.362 412.265 457.441 408.502 457.441 408.502C457.441 408.502 457.693 406.706 454.271 406.85C450.85 406.993 447.554 407.99 446.028 407.99C444.501 407.99 438.925 407.487 438.925 407.487L451.227 406.347L461.105 399.693L460.09 397.466C460.09 397.466 462.371 396.074 462.12 394.924C461.868 393.775 460.216 392.518 458.061 392.769C455.906 393.021 449.081 394.296 449.081 394.296C449.081 394.296 439.203 394.799 434.497 394.044C429.792 393.29 428.023 392.14 428.023 392.14L434.875 392.015C434.875 392.015 440.074 393.532 443.118 392.266C446.162 391 444.51 388.809 444.51 388.809Z" fill="#FFBF9D"/>
<path d="M435.728 401.803C436.05 401.723 436.383 401.686 436.715 401.695L439.409 401.534C441.681 401.381 444.797 401.076 448.237 400.51C451.676 399.944 454.72 399.208 456.92 398.615L459.525 397.897C459.836 397.78 460.163 397.708 460.494 397.681C460.211 397.847 459.91 397.98 459.596 398.076C459.004 398.301 458.124 398.597 457.028 398.974C451.317 400.701 445.408 401.685 439.445 401.902C438.296 401.902 437.371 401.902 436.751 401.902C436.407 401.907 436.064 401.874 435.728 401.803Z" fill="#FF9A6C"/>
<path d="M285.914 360.19C285.914 360.19 311.058 443.802 325.085 445.625C339.112 447.448 409.883 410.603 409.883 410.603L403.983 396.981L338.591 414.231C338.591 414.231 324.51 362.471 322.247 353.841C319.984 345.211 308.625 323.865 300.444 327.044C292.263 330.223 282.735 343.388 285.914 360.19Z" fill="#FFBF9D"/>
<path d="M286.48 386.169L331.434 373.543C331.434 373.543 318.862 313.79 292.82 328.338C274.59 338.458 286.48 386.169 286.48 386.169Z" fill="#455A64"/>
<path d="M286.157 386.725L286.049 386.277C284.129 377.997 282.907 369.571 282.394 361.088C281.451 343.397 284.882 332.244 292.586 327.942C297.48 325.248 302.258 324.871 306.793 326.937C313.833 330.143 320.209 338.952 325.723 353.131C328.264 359.756 330.32 366.557 331.874 373.48L331.964 373.893L286.157 386.725ZM300.794 326.506C298.049 326.564 295.364 327.328 292.999 328.724C276.252 338.081 285.672 380.745 286.812 385.612L330.886 373.229C329.334 366.509 327.312 359.908 324.834 353.473C321.107 343.882 314.875 331.642 306.38 327.781C304.631 326.96 302.726 326.525 300.794 326.506Z" fill="#263238"/>
<defs>
<linearGradient id="paint0_linear_192_3" x1="419.45" y1="69.8956" x2="250.453" y2="675.453" gradientUnits="userSpaceOnUse">
<stop stop-color="#59C785"/>
<stop offset="0.9998" stop-color="#487D5D" stop-opacity="0.759611"/>
<stop offset="0.9999" stop-color="#2C7348" stop-opacity="0.759611"/>
<stop offset="1" stop-color="#385845"/>
</linearGradient>
</defs>
</svg>
