<svg width="208" height="232" viewBox="0 0 208 232" fill="none" xmlns="http://www.w3.org/2000/svg">
<g filter="url(#filter0_d_261_36)">
<path d="M22.7865 107.513C32.0609 79.298 91.6036 31.5075 123.731 29.2722C155.859 27.037 173.758 30.6318 187.382 47.0356C201.006 63.4395 182.804 191.375 136.327 209.908C89.8503 228.441 51.953 196.162 40.8512 183.263C29.7495 170.364 13.5121 135.729 22.7865 107.513Z" fill="#EDEDED"/>
</g>
<path d="M97.4078 128.345C98.5837 128.056 99.7249 127.611 100.807 127.02C104.7 124.807 106.101 119.857 108.593 116.697C113.069 111.135 120.802 111.324 123.294 111.383C131.754 111.601 137.398 117.09 140.447 120.119C144.444 124.021 153.864 133.223 152.125 145.453C150.451 157.101 140.019 162.794 138.696 163.508L97.784 162.823C94.0601 156.446 90.3102 153.884 87.4037 152.762C84.9049 152.091 82.564 150.825 80.5397 149.05C79.028 147.715 77.8371 145.979 77.0753 143.997C75.622 139.906 76.2837 134.257 79.2032 131.213C83.2645 126.977 91.3353 128.302 92.8015 128.462C94.3307 128.734 95.8911 128.694 97.4078 128.345Z" fill="#999999"/>
<path d="M139.007 164.905H138.708L97.0963 164.206L96.72 163.566C93.8654 158.659 90.6086 155.47 87.0403 154.087L86.1191 153.752C83.7916 153.057 81.6236 151.811 79.7611 150.098C78.0621 148.623 76.7231 146.689 75.8685 144.478C74.1168 139.556 75.1678 133.368 78.3208 130.092C82.2135 125.986 89.1942 126.365 92.9831 126.962C94.3439 127.227 95.7355 127.227 97.0963 126.962C98.1798 126.73 99.2312 126.338 100.223 125.797C102.429 124.53 103.766 122.201 105.167 119.74C105.911 118.352 106.753 117.032 107.684 115.794C112.576 109.723 120.66 109.97 123.397 109.97C132.312 110.203 138.189 115.925 141.355 119.012C145.534 123.074 155.33 132.597 153.449 145.672C151.723 157.669 141.355 163.711 139.292 164.803L139.007 164.905ZM98.5106 161.324L138.436 161.979C140.785 160.683 149.413 155.281 150.866 145.162C152.514 133.689 143.496 124.909 139.643 121.167C136.723 118.255 131.299 113.042 123.32 112.839C120.932 112.839 113.692 112.591 109.605 117.673C108.764 118.792 108.005 119.985 107.334 121.24C105.881 123.788 104.22 126.685 101.391 128.316C100.205 128.975 98.9493 129.464 97.6543 129.772C96.0442 130.111 94.3944 130.141 92.7755 129.859C87.0274 128.957 82.3951 129.859 80.1504 132.218C77.9056 134.577 76.9844 139.585 78.3468 143.4C79.0255 145.161 80.0927 146.7 81.4479 147.87C83.0455 149.33 84.904 150.388 86.8976 150.971L87.8967 151.335C91.8412 152.879 95.4095 156.228 98.5106 161.324Z" fill="#0A0A0A"/>
<path d="M58.9747 138.392C58.1246 138.568 57.3368 139.012 56.704 139.673C55.6548 141.196 55.1858 143.123 55.3998 145.034C55.6138 146.944 56.4933 148.681 57.8459 149.865C59.0976 150.719 60.5744 151.059 62.0248 150.828C63.4751 150.597 64.8092 149.809 65.7998 148.598C66.6587 147.601 67.2267 146.335 67.4283 144.966C67.63 143.598 67.4557 142.194 66.9286 140.94C65.2808 137.62 61.0637 137.78 58.9747 138.392Z" fill="#CFAB74"/>
<path d="M61.0247 151.641C59.7669 151.657 58.5335 151.252 57.4824 150.476C56.724 149.837 56.0885 149.033 55.6138 148.111C55.1391 147.19 54.8351 146.171 54.72 145.114C54.6049 144.058 54.6811 142.986 54.944 141.964C55.2068 140.941 55.6509 139.989 56.2497 139.163C56.9738 138.411 57.874 137.906 58.8448 137.707C61.0376 137.052 65.6569 136.819 67.5383 140.619C68.1311 142.008 68.3307 143.568 68.1104 145.088C67.89 146.608 67.2602 148.016 66.3057 149.122C65.6272 149.927 64.808 150.567 63.8993 151C62.9906 151.433 62.012 151.652 61.0247 151.641ZM61.5178 138.77C60.7167 138.767 59.9187 138.88 59.1432 139.105C58.4074 139.245 57.7228 139.619 57.171 140.182C56.2388 141.543 55.8247 143.263 56.0192 144.966C56.2138 146.668 57.0011 148.215 58.209 149.268C59.3303 150.031 60.6533 150.332 61.9508 150.119C63.2483 149.907 64.4394 149.194 65.3196 148.103C66.0798 147.217 66.5862 146.096 66.7735 144.884C66.9608 143.672 66.8205 142.425 66.3706 141.304C65.8343 140.437 65.1023 139.745 64.2496 139.3C63.3969 138.855 62.4542 138.672 61.5178 138.77Z" fill="#0A0A0A"/>
<path d="M57.2876 148.933L56.1328 148.263C57.2197 145.886 58.5905 143.687 60.2071 141.726C61.4319 140.245 62.8031 138.926 64.2944 137.795L65.021 139.003C63.6031 140.073 62.2973 141.318 61.1284 142.716C59.6015 144.582 58.3093 146.674 57.2876 148.933Z" fill="#0A0A0A"/>
<path d="M151.995 142.92C151.623 141.494 151.044 140.146 150.283 138.93L149.803 138.028C147.817 134.138 144.729 131.104 141.031 129.408C138.538 128.405 135.888 127.989 133.246 128.185C131.783 128.023 130.314 128.424 129.081 129.321C128.705 129.633 128.373 130.006 128.095 130.427C122.99 136.908 115.964 141.093 108.32 142.206C103.539 142.708 98.7245 141.81 94.3455 139.6C90.7227 137.849 87.5244 135.154 85.0162 131.738C84.1345 130.508 83.3528 129.193 82.6807 127.807L83.8225 127.108C84.4559 128.418 85.1942 129.66 86.0283 130.82C88.4099 134.057 91.443 136.612 94.8776 138.275C99.0477 140.369 103.627 141.227 108.177 140.765C115.464 139.707 122.164 135.731 127.044 129.568C127.412 129.016 127.849 128.526 128.341 128.112C129.8 127.038 131.531 126.527 133.272 126.656C136.053 126.469 138.839 126.919 141.459 127.981C145.433 129.781 148.748 133.034 150.867 137.212L151.36 138.115C152.193 139.443 152.821 140.92 153.215 142.483L151.995 142.92Z" fill="#0A0A0A"/>
<path d="M125.058 133.601C122.779 132.785 120.7 131.384 118.986 129.51C117.688 128.141 114.458 124.487 115.327 120.774C115.638 119.449 116.352 118.91 118.999 116.886L121.399 115.052C123.251 113.617 125.185 112.318 127.186 111.164L128.082 113.101C126.149 114.211 124.285 115.466 122.502 116.857L120.089 118.692C117.857 120.395 117.325 120.818 117.208 121.327C116.637 123.788 119.44 126.904 120.361 127.923C121.857 129.555 123.669 130.776 125.655 131.49L125.058 133.601Z" fill="#0A0A0A"/>
<path d="M97.5376 161.484L96.3699 159.737L104.96 152.457C105.011 152.414 105.054 152.359 105.085 152.297C105.116 152.234 105.136 152.164 105.141 152.093L106.205 141.318L108.139 141.566L107.075 152.34C107.04 152.708 106.939 153.063 106.775 153.384C106.612 153.705 106.392 153.984 106.127 154.204L97.5376 161.484Z" fill="#0A0A0A"/>
<path d="M125.448 164.6L124.15 162.984L135.724 151.176C135.942 150.952 136.203 150.789 136.487 150.698C136.77 150.607 137.069 150.591 137.359 150.651C137.64 150.719 137.902 150.857 138.127 151.057C138.352 151.256 138.534 151.511 138.657 151.802L142.653 160.756L140.914 161.732L136.918 152.777L125.448 164.6Z" fill="#0A0A0A"/>
<path d="M74.9214 95.9493C74.9214 95.9493 64.541 113.421 65.8386 115.795C67.1361 118.168 77.0493 124.341 77.0493 124.341L91.1406 99.4874L74.9214 95.9493Z" fill="#5350C2"/>
<path d="M77.2698 125.302L76.7378 124.982C75.6997 124.341 66.565 118.706 65.2675 116.158C63.97 113.61 71.2102 100.885 74.3503 95.5413L74.5968 95.1482L92.1785 98.9775L77.2698 125.302ZM75.2197 96.7498C70.5096 104.743 65.8384 114.047 66.3964 115.43C67.2138 117.017 72.8841 120.919 76.7767 123.38L90.0246 99.9967L75.2197 96.7498Z" fill="#0A0A0A"/>
<path d="M92.2003 98.4275C92.3799 97.2383 88.5735 95.5226 83.6984 94.5953C78.8233 93.6681 74.7256 93.8805 74.546 95.0697C74.3663 96.259 78.1728 97.9747 83.0479 98.9019C87.923 99.8291 92.0207 99.6167 92.2003 98.4275Z" fill="#A9A7E0" stroke="#FF0000" stroke-miterlimit="10"/>
<path d="M88.5457 100.128C86.6495 100.094 84.7585 99.8989 82.8884 99.5456C81.9152 99.3563 73.4293 97.6674 73.8056 94.8719C74.1819 92.0764 82.7456 93.6197 83.7058 93.809C84.666 93.9983 93.1649 95.6872 92.7887 98.4827C92.6329 99.764 90.6996 100.128 88.5457 100.128ZM75.181 95.134C75.6351 95.7892 78.4248 97.2306 83.096 98.046C87.7671 98.8613 90.8812 98.6138 91.4521 98.1479C90.998 97.4927 88.2083 96.0512 83.5372 95.2359C78.866 94.4205 75.8427 94.668 75.2199 95.134H75.181Z" fill="#0A0A0A"/>
<path d="M83.8743 97.114L82.8232 96.2404L90.2582 85L100.911 85.8736L100.82 87.3296L90.868 86.5142L83.8743 97.114Z" fill="#0A0A0A"/>
<defs>
<filter id="filter0_d_261_36" x="16.0347" y="28.6718" width="179.757" height="194.842" filterUnits="userSpaceOnUse" color-interpolation-filters="sRGB">
<feFlood flood-opacity="0" result="BackgroundImageFix"/>
<feColorMatrix in="SourceAlpha" type="matrix" values="0 0 0 0 0 0 0 0 0 0 0 0 0 0 0 0 0 0 127 0" result="hardAlpha"/>
<feOffset dy="4"/>
<feGaussianBlur stdDeviation="2"/>
<feComposite in2="hardAlpha" operator="out"/>
<feColorMatrix type="matrix" values="0 0 0 0 0 0 0 0 0 0 0 0 0 0 0 0 0 0 0.25 0"/>
<feBlend mode="normal" in2="BackgroundImageFix" result="effect1_dropShadow_261_36"/>
<feBlend mode="normal" in="SourceGraphic" in2="effect1_dropShadow_261_36" result="shape"/>
</filter>
</defs>
</svg>
