<svg id="Camada_1" data-name="Camada 1" xmlns="http://www.w3.org/2000/svg" viewBox="0 0 187.85 79.7"><defs><style>.cls-1{fill:#3a3a3a;}.cls-2{fill:#616161;}</style></defs><path class="cls-1" d="M158.23,63.88h12L151,14.88h-6.61a5.1,5.1,0,0,0-4.74,3.21l-6.22,15.73a19.05,19.05,0,0,0,.28-3.34,15.8,15.8,0,0,0-7.87-13.93,16.07,16.07,0,0,0-8.23-2.1H101A4.55,4.55,0,0,0,96.49,19v7.46h.11a3.37,3.37,0,0,0,2.49-.64,5.24,5.24,0,0,0,1.56-2.91c.23-.86.63-2.3,2.08-2.3h0a2.17,2.17,0,0,1,1.68,1c1.15,1.5,1.9,4.85,1.17,7.88-1.12,4.61-5.37,7.3-9.13,8.5v3.47A14.17,14.17,0,0,1,99,43.29,16.15,16.15,0,0,1,100.52,45a7.32,7.32,0,0,0,2.08,2,10.93,10.93,0,0,0,2.87,1.23c.93.29,2.21.69,2.31,2a2.18,2.18,0,0,1-.65,1.63C106,53.05,103.34,54,101,54h-.17a10.28,10.28,0,0,1-4.38-1.13V60.7a2.75,2.75,0,0,0,2.75,2.75h6.37a2.78,2.78,0,0,0,2.78-2.79V47.07h9.24a15.73,15.73,0,0,0,8.23-2.17,16,16,0,0,0,5.25-5.16l-8.2,20.71a2.51,2.51,0,0,0,2.33,3.43h8.07l4.38-11.74,16.14-.1ZM120.78,33.77a5.92,5.92,0,0,1-2,2.1,5.29,5.29,0,0,1-2.8.77h-7.77v-7A4.68,4.68,0,0,1,112.86,25H116a5.62,5.62,0,0,1,2.8.7,5.37,5.37,0,0,1,2,2,5.73,5.73,0,0,1,.77,3.08A6,6,0,0,1,120.78,33.77Zm19.54,13c-.94,0,.18-2.21.51-3.09l1.72-4.62c.38-1.17.77-2.3,1.19-3.4s.81-2.19,1.16-3.29l.93-3c.3,1,.61,1.95.92,3,.38,1.19.75,2.35,1.12,3.47s.75,2.17,1.12,3.14l1.82,4.89a1.21,1.21,0,0,1-1.13,1.63Z"/><path class="cls-1" d="M55.6,54.08c.33-.61.66-1.24,1-1.9.67-1.29,1.39-2.67,2.18-4.07.11-.19.22-.37.33-.57a43.14,43.14,0,0,1,3.44-5.15,31.29,31.29,0,0,1,2.16-2.47,23.23,23.23,0,0,1,6-4.44V24.6H86.87a3.26,3.26,0,0,0,3.25-3.25V17.13a2.68,2.68,0,0,0-2.68-2.68H59.11V33.66L52.94,18a5.6,5.6,0,0,0-5.21-3.54H45.3A5.63,5.63,0,0,0,40.05,18l-18,45.43H33.83l3.48-9.33,18,0Zm-14-6.76a1.5,1.5,0,0,1-1.07-2l2.49-6.67c.37-1.17.77-2.3,1.19-3.4s.8-2.19,1.15-3.29.63-2,.94-3c.3,1,.6,1.95.92,3,.37,1.19.75,2.35,1.12,3.47s.75,2.17,1.12,3.15l3.87,9.48A1.21,1.21,0,0,1,52,49.71Z"/><path class="cls-1" d="M70.66,47.37A24.07,24.07,0,0,0,66,51a45.37,45.37,0,0,0-6.84,9v2a1.43,1.43,0,0,0,1.44,1.43l10.24-.12,18.14-.21a1.21,1.21,0,0,0,1.19-1.21V54.53a1.23,1.23,0,0,0-1.23-1.23H70.66Z"/><path class="cls-2" d="M60.68,54.07l.34-.45A36,36,0,0,1,65.15,49a25.64,25.64,0,0,1,4.79-3.55l.72-.37c3.42-1.77,7.25-2.74,12.3-3.57s9.13-2.71,9.19-3.21c.08-.65-6.78-3.22-12.22-3.22a13.73,13.73,0,0,0-2,.14,19.8,19.8,0,0,0-7.3,2.55,22.77,22.77,0,0,0-6,5.14c-.45.54-.89,1.09-1.3,1.65a50.3,50.3,0,0,0-3.66,5.93l-.64,1.2c-.43.82-.85,1.62-1.24,2.38l-.51,1c-.16.3-.55,1.17-1,2.11-.5,1.13-1,2.37-1.22,2.79a11.22,11.22,0,0,0-.92,3.56.16.16,0,0,0,.11,0c.44,0,1.36-1.75,2.84-4.23.55-.92,1.18-1.94,1.89-3C59.59,55.57,60.11,54.83,60.68,54.07Z"/><path class="cls-2" d="M101.15,52.24h.13c2.32,0,4.71-1.2,4.66-1.91s-1.82-.52-4-1.87c-1.8-1.14-2-2.12-3.42-3.43a12.4,12.4,0,0,0-6.59-3.13,1.18,1.18,0,0,0-.93.3c-.88,1.08,2,6.42,6.22,8.84A8.31,8.31,0,0,0,101.15,52.24Z"/><path class="cls-2" d="M93.1,36.24a3.23,3.23,0,0,0,.46,0,12,12,0,0,0,3.63-.71c2.76-1,5.82-2.93,6.63-6.3.72-2.93-.49-6-1.23-6h0c-.68,0-.39,2.64-2.33,4.22a4.35,4.35,0,0,1-3.07.84,4.42,4.42,0,0,0-3.08.93c-.74.6-1.33,1.9-2.5,4.52a2,2,0,0,0-.22,1.72C91.73,36.1,92.71,36.2,93.1,36.24Z"/></svg>