<svg id="Camada_1" data-name="Camada 1" xmlns="http://www.w3.org/2000/svg" viewBox="0 0 187.85 79.7"><defs><style>.cls-1{fill:#019e59;}.cls-2{fill:#017a45;}</style></defs><path class="cls-1" d="M156,64.7h12l-19.25-49h-6.62a5.1,5.1,0,0,0-4.74,3.22L131.2,34.65a19,19,0,0,0,.29-3.34,15.83,15.83,0,0,0-7.88-13.93,16,16,0,0,0-8.22-2.1H98.8a4.54,4.54,0,0,0-4.55,4.54v7.47h.1a3.45,3.45,0,0,0,2.5-.64,5.28,5.28,0,0,0,1.55-2.91c.24-.86.63-2.3,2.09-2.3h0a2.17,2.17,0,0,1,1.69,1c1.15,1.49,1.9,4.85,1.16,7.88-1.12,4.6-5.36,7.3-9.12,8.49v3.47a14.66,14.66,0,0,1,2.49,1.88,15.43,15.43,0,0,1,1.54,1.71,7.4,7.4,0,0,0,2.07,2A11.07,11.07,0,0,0,103.22,49c.94.29,2.22.68,2.31,2a2.12,2.12,0,0,1-.64,1.63c-1.12,1.19-3.79,2.12-6.09,2.12h-.17a10.35,10.35,0,0,1-4.38-1.13v7.85A2.75,2.75,0,0,0,97,64.28h6.36a2.79,2.79,0,0,0,2.79-2.79V47.9h9.24a15.67,15.67,0,0,0,8.22-2.17,16,16,0,0,0,5.25-5.17l-8.2,20.72A2.5,2.5,0,0,0,123,64.7h8.08L135.44,53l16.15-.1ZM118.54,34.6a6,6,0,0,1-2,2.1,5.31,5.31,0,0,1-2.8.77h-7.77v-7a4.67,4.67,0,0,1,4.67-4.67h3.1a5.65,5.65,0,0,1,2.8.7,5.45,5.45,0,0,1,2,2,5.82,5.82,0,0,1,.77,3.08A6.1,6.1,0,0,1,118.54,34.6Zm19.54,13c-.94,0,.17-2.21.5-3.09l1.73-4.63c.37-1.16.77-2.29,1.19-3.39s.8-2.19,1.15-3.29.63-2,.94-3c.3,1,.6,2,.92,3,.37,1.19.74,2.34,1.12,3.46s.74,2.17,1.12,3.15l1.81,4.88a1.21,1.21,0,0,1-1.13,1.63Z"/><path class="cls-1" d="M53.36,54.91l1-1.9c.67-1.29,1.38-2.67,2.18-4.07.1-.19.21-.38.32-.57a44.39,44.39,0,0,1,3.44-5.15,29.6,29.6,0,0,1,2.16-2.47,23.18,23.18,0,0,1,5.95-4.44V25.43H84.62a3.25,3.25,0,0,0,3.25-3.25V18a2.68,2.68,0,0,0-2.68-2.68H56.86V34.49L50.69,18.82a5.59,5.59,0,0,0-5.21-3.54H43.05a5.65,5.65,0,0,0-5.25,3.56l-18,45.44H31.58L35.06,55l18,0Zm-14-6.76a1.5,1.5,0,0,1-1.06-2l2.48-6.66c.38-1.17.77-2.3,1.19-3.4s.81-2.19,1.16-3.29l.93-3c.3,1,.61,1.95.92,3,.38,1.19.75,2.35,1.12,3.47s.75,2.17,1.12,3.15l3.87,9.48a1.21,1.21,0,0,1-1.39,1.63Z"/><path class="cls-1" d="M68.41,48.2a24.32,24.32,0,0,0-4.71,3.65,46.49,46.49,0,0,0-6.84,9v1.95a1.44,1.44,0,0,0,1.45,1.43l10.23-.12,18.14-.22a1.19,1.19,0,0,0,1.19-1.2V55.35a1.23,1.23,0,0,0-1.23-1.22H68.41Z"/><path class="cls-2" d="M58.43,54.9c.11-.15.22-.31.34-.46a36.75,36.75,0,0,1,4.14-4.6,24.59,24.59,0,0,1,4.79-3.55c.23-.13.47-.25.71-.37,3.42-1.78,7.25-2.75,12.3-3.57s9.14-2.71,9.2-3.21-6.79-3.22-12.23-3.22a13.87,13.87,0,0,0-2,.13,19.87,19.87,0,0,0-7.3,2.56,23.26,23.26,0,0,0-5.95,5.13c-.45.54-.89,1.09-1.3,1.66a51.66,51.66,0,0,0-3.66,5.93c-.22.4-.43.8-.64,1.2L55.62,54.9c-.17.33-.34.66-.51,1s-.54,1.17-1,2.11c-.49,1.13-1,2.37-1.21,2.79A11.29,11.29,0,0,0,52,64.33a.15.15,0,0,0,.11,0c.45,0,1.36-1.74,2.84-4.22.55-.92,1.18-1.95,1.89-3C57.35,56.4,57.87,55.65,58.43,54.9Z"/><path class="cls-2" d="M98.91,53.07H99c2.33,0,4.71-1.2,4.66-1.92s-1.82-.51-4-1.87c-1.81-1.13-2-2.11-3.42-3.43a12.21,12.21,0,0,0-1.31-1,10.93,10.93,0,0,0-5.29-2.08,1.18,1.18,0,0,0-.93.3c-.88,1.08,2,6.42,6.22,8.84A8.35,8.35,0,0,0,98.91,53.07Z"/><path class="cls-2" d="M90.85,37.07a3.39,3.39,0,0,0,.46,0,11.84,11.84,0,0,0,3.63-.7c2.76-1,5.82-2.93,6.64-6.3.71-2.93-.5-6-1.23-6h0c-.67,0-.39,2.64-2.33,4.22a4.33,4.33,0,0,1-3.07.84,4.43,4.43,0,0,0-3.07.92c-.75.61-1.33,1.91-2.5,4.52a2.06,2.06,0,0,0-.23,1.73C89.49,36.93,90.46,37,90.85,37.07Z"/></svg>