<?xml version="1.0" encoding="utf-8"?>
<!-- Generator: Adobe Illustrator 26.0.0, SVG Export Plug-In . SVG Version: 6.00 Build 0)  -->
<svg version="1.1" id="Camada_1" xmlns="http://www.w3.org/2000/svg" xmlns:xlink="http://www.w3.org/1999/xlink" x="0px" y="0px"
	 viewBox="0 0 35.7 36.7" style="enable-background:new 0 0 35.7 36.7;" xml:space="preserve">
<path d="M33.6,31.7L23.3,21.3c1.7-2.1,2.7-4.7,2.7-7.5c0-3.2-1.2-6.2-3.5-8.5c-2.3-2.3-5.3-3.5-8.5-3.5S7.8,3.1,5.5,5.3
	S2,10.6,2,13.8s1.2,6.2,3.5,8.5s5.3,3.5,8.5,3.5c2.8,0,5.4-0.9,7.5-2.7l10.4,10.4c0.2,0.2,0.6,0.4,0.9,0.4s0.7-0.1,0.9-0.4
	C34.1,33,34.1,32.2,33.6,31.7z M7.3,20.4c-3.7-3.7-3.7-9.7,0-13.3c1.8-1.8,4.1-2.8,6.7-2.8c2.5,0,4.9,1,6.7,2.8s2.8,4.1,2.8,6.7
	s-1,4.9-2.8,6.7s-4.1,2.8-6.7,2.8C11.4,23.2,9.1,22.2,7.3,20.4z"/>
</svg>
