<svg width="205" height="229" viewBox="0 0 205 229" fill="none" xmlns="http://www.w3.org/2000/svg">
<g filter="url(#filter0_d_262_38)">
<path d="M22.46 106.341C31.6006 78.5329 90.2838 31.4323 121.948 29.2293C153.611 27.0263 171.252 30.5693 184.679 46.7363C198.107 62.9033 180.168 188.992 134.362 207.258C88.5557 225.523 51.2055 193.711 40.264 180.997C29.3225 168.284 13.3195 134.149 22.46 106.341Z" fill="#EDEDED"/>
</g>
<path d="M106.313 61.3706C105.034 61.3706 74.3423 90.0704 74.3423 90.0704V128.973L105.034 156.08L130.61 134.555L134.446 87.2004L106.313 61.3706Z" fill="#7FA896"/>
<path d="M105.034 157.888L73.0635 129.676V89.3961L73.5238 88.9656C104.573 59.9358 105.75 59.9358 106.313 59.9358H106.773L135.725 86.5691L131.787 135.359L105.034 157.888ZM75.6211 128.284L105.034 154.272L129.331 133.795L133.065 87.875L106.159 63.0928C102.642 65.7332 86.1713 80.8866 75.6211 90.7449V128.284Z" fill="#0A0A0A"/>
<path d="M105.673 79.71H103.115V182.068H105.673V79.71Z" fill="#0A0A0A"/>
<path d="M85.2715 96.09L83.874 98.4937L103.699 113.007L105.096 110.603L85.2715 96.09Z" fill="#0A0A0A"/>
<path d="M120.662 110.595L104.184 127.651L105.918 129.761L122.396 112.705L120.662 110.595Z" fill="#0A0A0A"/>
<path d="M87.693 142.075L86.5676 141.386C91.3269 131.886 93.9327 121.22 94.1557 110.325C94.3787 99.4304 92.212 88.641 87.8464 78.9065L88.9974 78.2751C93.4549 88.2144 95.6694 99.2297 95.4464 110.354C95.2234 121.478 92.5698 132.37 87.7186 142.075H87.693Z" fill="#0A0A0A"/>
<path d="M132.784 115.039C124.396 108.103 118.078 98.4768 114.663 87.4302C112.545 80.4228 111.676 73.0164 112.106 65.6327L113.384 65.7189C112.986 72.9226 113.855 80.1438 115.942 86.971C119.265 97.7276 125.402 107.11 133.551 113.891L132.784 115.039Z" fill="#0A0A0A"/>
<defs>
<filter id="filter0_d_262_38" x="15.748" y="28.6375" width="177.277" height="192.145" filterUnits="userSpaceOnUse" color-interpolation-filters="sRGB">
<feFlood flood-opacity="0" result="BackgroundImageFix"/>
<feColorMatrix in="SourceAlpha" type="matrix" values="0 0 0 0 0 0 0 0 0 0 0 0 0 0 0 0 0 0 127 0" result="hardAlpha"/>
<feOffset dy="4"/>
<feGaussianBlur stdDeviation="2"/>
<feComposite in2="hardAlpha" operator="out"/>
<feColorMatrix type="matrix" values="0 0 0 0 0 0 0 0 0 0 0 0 0 0 0 0 0 0 0.25 0"/>
<feBlend mode="normal" in2="BackgroundImageFix" result="effect1_dropShadow_262_38"/>
<feBlend mode="normal" in="SourceGraphic" in2="effect1_dropShadow_262_38" result="shape"/>
</filter>
</defs>
</svg>
