
<svg class="animated" id="freepik_stories-seeding" xmlns="http://www.w3.org/2000/svg" viewBox="0 0 500 500" version="1.1" xmlns:xlink="http://www.w3.org/1999/xlink" xmlns:svgjs="http://svgjs.com/svgjs"><g id="freepik--background-complete--inject-75" class="animable" style="transform-origin: 244.518px 245.048px;"><path d="M122.76,157.86c.62-4.57-5.82-8.33-10.66-8.72-2.31-.18-4.71.17-6.9-.59-4.74-1.66-6.64-7.78-11.26-9.73-3.46-1.46-7.44-.16-10.79,1.53s-6.67,3.81-10.42,4.05c-3.25.21-6.79-1-9.64.59-2.13,1.18-3.24,3.63-5.2,5.08s-4.41,1.71-6.79,1.84-4.84.15-7,1.14-4,3.28-3.5,5.62Z" style="fill: rgb(235, 235, 235); transform-origin: 81.6594px 148.429px;" id="ellmkxszhip8s" class="animable"></path><path d="M456.29,108.06c.68-5-6.34-9.07-11.63-9.5-2.51-.2-5.13.18-7.52-.65-5.16-1.8-7.23-8.48-12.27-10.61-3.77-1.59-8.12-.17-11.77,1.67s-7.27,4.16-11.35,4.42c-3.56.22-7.42-1.09-10.52.64-2.32,1.3-3.53,4-5.67,5.54s-4.81,1.87-7.4,2-5.28.16-7.64,1.24-4.31,3.58-3.82,6.13Z" style="fill: rgb(245, 245, 245); transform-origin: 411.48px 97.7758px;" id="el55foexvy5ne" class="animable"></path><path d="M363.37,162.6c.69-5-6.34-9.07-11.62-9.5-2.52-.2-5.14.18-7.52-.65-5.17-1.8-7.24-8.48-12.28-10.61-3.77-1.59-8.11-.17-11.77,1.67s-7.27,4.16-11.35,4.42c-3.56.22-7.41-1.09-10.52.64-2.32,1.3-3.53,4-5.67,5.54s-4.81,1.87-7.4,2-5.27.16-7.63,1.24-4.32,3.58-3.83,6.13Z" style="fill: rgb(245, 245, 245); transform-origin: 318.561px 152.316px;" id="elih1od6f5xui" class="animable"></path><path d="M305.31,78.06c1-6.93-8.83-12.64-16.18-13.23-3.51-.28-7.15.25-10.47-.9-7.2-2.51-10.08-11.81-17.1-14.77-5.25-2.22-11.3-.25-16.39,2.32s-10.12,5.78-15.81,6.15c-4.94.31-10.31-1.52-14.64.89-3.23,1.8-4.92,5.52-7.89,7.71s-6.7,2.6-10.31,2.8-7.34.23-10.63,1.74-6,5-5.32,8.52Z" style="fill: rgb(235, 235, 235); transform-origin: 242.923px 63.7431px;" id="el5m6fmp1ns1b" class="animable"></path><path d="M86.31,326.08c2.63-1.74,3.6-5.16,3.7-8.31s-.47-6.32-.06-9.45c.33-2.51-.13-5.15-.33-7.68-.39-5-3.32-5.7-5.43-10.22s1-5.65-.07-7.54c-.56-.93-2.11-.61-3.07-.13a8,8,0,0,0-2.4,2.15c-3.39,4.09-6.35,9.1-5.86,14.39.23,2.64,1.31,5.12,1.87,7.7.89,4.05.58,8.49,2.64,12.09,1.93,3.35,5.54,5.3,9,7.09" style="fill: rgb(235, 235, 235); transform-origin: 81.4012px 304.227px;" id="el3oysb5gx08s" class="animable"></path><path d="M90.61,342c-1-6.91,2.3-15.35,7.32-20.22,2.12-2.06,4.71-3.75,6.17-6.32,1.68-3,1.63-6.69,3.39-9.6,2.64-4.36,8.37-5.54,13.46-5.84s15.8-6.28,14.64-3.4c-3.77,10.88-3,10.26-16.45,20.25-5.53,4.1-.47,16.31-15.8,21.05-4.21,1.31-9.39,1.21-12.63,4.2" style="fill: rgb(235, 235, 235); transform-origin: 113.054px 318.979px;" id="el9ltbdqw4ebo" class="animable"></path><path d="M93.21,412.31a2.26,2.26,0,0,1,.16.26Z" style="fill: rgb(69, 90, 100); transform-origin: 93.29px 412.44px;" id="elkn8wsaq2vg" class="animable"></path><path d="M72.64,393.32a37,37,0,0,1,18.78,16l1.79,3c-.76-1.11-2.45-1.19-3.85-1.36a12.18,12.18,0,0,1-7-3.31,30.9,30.9,0,0,0-3.49-3.47,24.29,24.29,0,0,0-4-1.85c-3.05-1.36-5.56-3.7-8.57-5.15s-6.52-2-9.83-2.83-6.7-2.14-8.89-4.76C55.11,389.88,64.2,390.26,72.64,393.32Z" style="fill: rgb(235, 235, 235); transform-origin: 70.395px 400.955px;" id="el5uiwj2kvhtk" class="animable"></path><path d="M60.62,350.93c2.86,1.33,4.84,4.08,7.65,5.5,2.54,1.28,5.49,1.36,8.25,2,6.61,1.61,14.8,13.88,19.25,20-1.79-.09-5.34-1.59-8.64-1.54s-7.62-.88-10.9-1.22c-10.75-1.12-15.91-6.35-24.05-13.28C47.29,358.27,41.4,356.59,38.3,351,45.23,354,53.75,347.75,60.62,350.93Z" style="fill: rgb(235, 235, 235); transform-origin: 67.035px 364.215px;" id="el8dij170vssi" class="animable"></path><path d="M90.65,347.93C86.88,337,77,328.52,66.57,323.44a44.72,44.72,0,0,0-33.87-2c6.24,8.21,12.58,9.24,22.62,11.62,1.74.41,6.06-.88,9.2,1.37,1.26.91,1.55,4.54,8.83,5.89s13.24,2.77,17.3,7.64" style="fill: rgb(235, 235, 235); transform-origin: 61.675px 333.493px;" id="ellvpix9ngxy" class="animable"></path><path d="M82.71,303a1.77,1.77,0,0,1,0,.36c0,.26,0,.61.05,1.05l0,1.7c0,.67.11,1.45.17,2.31A96,96,0,0,0,85.4,323c1.42,6.08,3.64,13.18,6.1,21.07a231.69,231.69,0,0,1,6.74,26,216.09,216.09,0,0,1,3.88,48.65A168.64,168.64,0,0,1,100.4,439a1.33,1.33,0,0,1,0-.35q0-.39.09-1.05c.09-.94.23-2.29.4-4,.27-3.48.72-8.52.85-14.77a222.38,222.38,0,0,0-4-48.54,239.1,239.1,0,0,0-6.68-26c-2.44-7.89-4.64-15-6-21.13a89.61,89.61,0,0,1-2.24-14.64c0-.87-.09-1.65-.12-2.33s0-1.23,0-1.7v-1.05A1.48,1.48,0,0,1,82.71,303Z" style="fill: rgb(224, 224, 224); transform-origin: 92.4642px 371px;" id="elylp4c7ebhjn" class="animable"></path><path d="M43.61,322.78l.63,0c.41,0,1,0,1.79,0a56.25,56.25,0,0,1,6.56.64,59.15,59.15,0,0,1,9.51,2.26,48.06,48.06,0,0,1,10.88,5,64.49,64.49,0,0,1,16,14.67,57.41,57.41,0,0,1,3.74,5.43c.41.66.69,1.19.89,1.55a2.47,2.47,0,0,1,.28.56,3.67,3.67,0,0,1-.37-.51c-.23-.34-.54-.85-1-1.49-.85-1.3-2.13-3.15-3.86-5.31a67.11,67.11,0,0,0-16-14.46,49.49,49.49,0,0,0-10.76-5,63.56,63.56,0,0,0-9.42-2.35c-2.73-.46-5-.69-6.51-.8-.77-.07-1.38-.09-1.78-.12A2.49,2.49,0,0,1,43.61,322.78Z" style="fill: rgb(224, 224, 224); transform-origin: 68.75px 337.835px;" id="el07hru76gbasj" class="animable"></path><path d="M124.49,305.5a3,3,0,0,1-.48.21l-1.4.56a32.83,32.83,0,0,0-4.91,2.45,11,11,0,0,0-2.84,2.42,25.4,25.4,0,0,0-2.18,3.74c-.67,1.37-1.31,2.86-1.89,4.42a44.87,44.87,0,0,1-1.74,4.92,14.06,14.06,0,0,1-3.3,4.1c-1.27,1.13-2.6,2.07-3.85,3a52.13,52.13,0,0,0-6.3,5.18,49.49,49.49,0,0,0-3.66,4.1L91,341.76a2.25,2.25,0,0,1-.35.39,1.72,1.72,0,0,1,.27-.45l.85-1.24a41.13,41.13,0,0,1,3.57-4.24,49.3,49.3,0,0,1,6.28-5.31c2.45-1.83,5.35-3.78,7-6.92a49.33,49.33,0,0,0,1.72-4.86,46.2,46.2,0,0,1,1.94-4.47,25.67,25.67,0,0,1,2.27-3.79,11,11,0,0,1,3-2.46,28.89,28.89,0,0,1,5-2.33c.62-.22,1.1-.37,1.43-.47A1.78,1.78,0,0,1,124.49,305.5Z" style="fill: rgb(224, 224, 224); transform-origin: 107.57px 323.825px;" id="elj48gat7g0n" class="animable"></path><path d="M53,356.31a2.83,2.83,0,0,1,.48.27l1.32.85c1.15.74,2.79,1.83,4.87,3.1a53.55,53.55,0,0,0,7.58,3.88c3,1.21,6.39,2.16,9.93,3.34a55.2,55.2,0,0,1,16.68,9.18c1.94,1.49,3.46,2.75,4.51,3.63l1.19,1c.27.24.41.37.39.38a1.93,1.93,0,0,1-.46-.3l-1.25-1c-1.08-.82-2.64-2-4.6-3.48a58.07,58.07,0,0,0-16.63-9c-3.51-1.17-6.94-2.14-9.94-3.39a50.38,50.38,0,0,1-7.6-4c-2.06-1.31-3.67-2.45-4.78-3.25l-1.27-.93A2,2,0,0,1,53,356.31Z" style="fill: rgb(224, 224, 224); transform-origin: 76.4759px 369.125px;" id="elqqo407pzu3n" class="animable"></path><path d="M101.67,375.53c5-5.32,3.72-14.63,9.06-19.59,3.32-3.09,8.38-3.63,11.85-6.56,2.26-1.91,3.64-4.67,5.8-6.7,4.06-3.83,10.09-4.46,15.65-4.89a31,31,0,0,1-17.76,25.14c-2.36,1.06-4.94,1.88-6.74,3.73-1.25,1.3-2,3-3.15,4.38a13.36,13.36,0,0,1-7,4.15,39.29,39.29,0,0,1-8.24.95" style="fill: rgb(235, 235, 235); transform-origin: 122.585px 356.965px;" id="el9smgjcpjxv9" class="animable"></path><path d="M133.91,344.53a2.74,2.74,0,0,1-.17.47,9.93,9.93,0,0,1-.62,1.27,17.89,17.89,0,0,1-3.18,4.1,43.79,43.79,0,0,1-6,4.82c-2.37,1.65-5,3.42-7.55,5.54a112.77,112.77,0,0,0-12.18,11.87l-3.41,3.88-.93,1a2.19,2.19,0,0,1-.35.35s.08-.16.27-.42l.85-1.11c.76-1,1.87-2.33,3.3-4a98.22,98.22,0,0,1,12.12-12c2.58-2.14,5.23-3.91,7.61-5.54a46.39,46.39,0,0,0,6-4.68,20.2,20.2,0,0,0,3.26-3.94C133.59,345.14,133.85,344.51,133.91,344.53Z" style="fill: rgb(224, 224, 224); transform-origin: 116.715px 361.18px;" id="elbeb1ourcz59" class="animable"></path><path d="M107.43,403.12c.15-3.95,1.4-8.1,4.68-10.22,1.41-.92,3.06-1.47,4.31-2.59a20.19,20.19,0,0,0,2.86-4c2.64-3.93,6.87-6.44,10.95-8.82l4.84-2.83a2.31,2.31,0,0,1,1.6-.46,1.55,1.55,0,0,1,1.06,1.15,4.46,4.46,0,0,1,0,1.63,67,67,0,0,1-1.9,9.72c-.75,2.75-1.75,5.56-3.77,7.57-2.26,2.25-5.46,3.2-8.21,4.81-2.33,1.37-4.38,3.26-6.92,4.18-3,1.07-6.41.25-9.52-.18" style="fill: rgb(235, 235, 235); transform-origin: 122.608px 388.989px;" id="eliag2dy2667n" class="animable"></path><path d="M131.42,383a8.06,8.06,0,0,1-.82,1.27c-.56.79-1.38,1.94-2.44,3.31a43.85,43.85,0,0,1-9.59,9.61A69.28,69.28,0,0,1,112,400.7c-2,1-3.88,2-5.37,2.84a25.88,25.88,0,0,0-3.39,2.28,14.18,14.18,0,0,1-1.17.95s.07-.12.25-.31a7.08,7.08,0,0,1,.79-.8,22.74,22.74,0,0,1,3.33-2.44c1.47-.92,3.3-1.9,5.34-3a72.92,72.92,0,0,0,6.52-3.57,48.27,48.27,0,0,0,9.6-9.39c1-1.3,1.89-2.38,2.56-3.21A8.17,8.17,0,0,1,131.42,383Z" style="fill: rgb(224, 224, 224); transform-origin: 116.745px 394.885px;" id="elfygrn16miq4" class="animable"></path><path d="M73.69,396.84a10,10,0,0,1,1.44.67c.91.45,2.2,1.17,3.75,2.13a61,61,0,0,1,5.25,3.69,61.87,61.87,0,0,1,11,11.18,59.52,59.52,0,0,1,3.59,5.31c.94,1.57,1.64,2.87,2.07,3.79a7.92,7.92,0,0,1,.64,1.45,9.28,9.28,0,0,1-.81-1.35c-.49-.9-1.24-2.16-2.21-3.7s-2.2-3.31-3.66-5.21a74.15,74.15,0,0,0-5.13-5.87,72.3,72.3,0,0,0-5.78-5.23c-1.88-1.49-3.63-2.76-5.15-3.75s-2.77-1.76-3.65-2.27A9,9,0,0,1,73.69,396.84Z" style="fill: rgb(224, 224, 224); transform-origin: 87.56px 410.95px;" id="elfissqif8xqj" class="animable"></path><path d="M381.36,365.05c-1.72-1.19-2.35-3.52-2.42-5.67s.32-4.31.05-6.44a26.21,26.21,0,0,1,.21-5.23c.25-3.38,2.16-3.89,3.54-7s-.68-3.85.05-5.14c.36-.64,1.37-.42,2-.09a5.28,5.28,0,0,1,1.56,1.46c2.22,2.79,4.14,6.2,3.83,9.81A44.78,44.78,0,0,1,389,352c-.58,2.77-.37,5.79-1.72,8.25-1.25,2.28-3.61,3.61-5.85,4.82" style="fill: rgb(235, 235, 235); transform-origin: 384.572px 350.115px;" id="elj9r8sueo2a" class="animable"></path><path d="M378.55,375.91c.69-4.7-1.5-10.46-4.77-13.77-1.38-1.41-3.07-2.56-4-4.31-1.1-2-1.06-4.56-2.21-6.54-1.72-3-5.46-3.78-8.78-4s-10.3-4.28-9.55-2.32c2.46,7.41,1.93,7,10.73,13.8,3.61,2.79.3,11.11,10.3,14.34,2.75.89,6.13.83,8.24,2.86" style="fill: rgb(235, 235, 235); transform-origin: 363.931px 360.203px;" id="el1ogh5o6ykjyi" class="animable"></path><path d="M376.86,423.8a1.62,1.62,0,0,0-.1.18Z" style="fill: rgb(69, 90, 100); transform-origin: 376.81px 423.89px;" id="el0gpvc7wa6vpj" class="animable"></path><path d="M390.28,410.86A24.46,24.46,0,0,0,378,421.74l-1.17,2.06c.5-.75,1.6-.81,2.51-.93a7.8,7.8,0,0,0,4.54-2.25,18.87,18.87,0,0,1,2.28-2.36A15.32,15.32,0,0,1,388.8,417c2-.93,3.63-2.53,5.59-3.52a32,32,0,0,1,6.41-1.92,10.63,10.63,0,0,0,5.8-3.25C401.71,408.52,395.78,408.78,390.28,410.86Z" style="fill: rgb(235, 235, 235); transform-origin: 391.715px 416.055px;" id="elefu5qwx3ge" class="animable"></path><path d="M398.11,382c-1.86.9-3.15,2.78-5,3.75-1.65.87-3.57.92-5.37,1.38-4.32,1.09-9.66,9.45-12.56,13.63,1.17-.06,3.49-1.08,5.64-1.05a63.29,63.29,0,0,0,7.1-.83c7-.76,10.38-4.33,15.68-9.05,3.2-2.83,7-4,9.06-7.81C408.15,384.08,402.59,379.81,398.11,382Z" style="fill: rgb(235, 235, 235); transform-origin: 393.92px 391.058px;" id="elrh49r3qp2x" class="animable"></path><path d="M378.53,379.93c2.46-7.48,8.9-13.22,15.7-16.69a28.08,28.08,0,0,1,22.09-1.38c-4.07,5.6-8.21,6.3-14.75,7.92-1.13.28-3.95-.6-6,.94-.82.61-1,3.09-5.76,4s-8.64,1.9-11.28,5.21" style="fill: rgb(235, 235, 235); transform-origin: 397.425px 370.079px;" id="elp4haitnl94" class="animable"></path><path d="M383.71,349.34a1.1,1.1,0,0,1,0,.24c0,.2,0,.43,0,.72,0,.62,0,1.55-.06,2.74a62.84,62.84,0,0,1-1.43,10c-1.7,8.37-6,19.41-8.26,32.18a159.86,159.86,0,0,0-2.64,33c.08,4.25.37,7.68.53,10,.1,1.15.19,2.06.24,2.73,0,.28,0,.52.05.71a.73.73,0,0,1,0,.24s0-.08-.05-.23-.06-.43-.1-.71c-.08-.66-.2-1.57-.34-2.72-.23-2.37-.57-5.8-.7-10.06a153,153,0,0,1,2.5-33.14c2.3-12.83,6.63-23.85,8.41-32.15a70.46,70.46,0,0,0,1.59-9.92c.1-1.19.14-2.11.16-2.73,0-.29,0-.52,0-.72A.75.75,0,0,1,383.71,349.34Z" style="fill: rgb(224, 224, 224); transform-origin: 377.29px 395.62px;" id="eli2ooiiamkjj" class="animable"></path><path d="M409.2,362.8a11,11,0,0,1-1.59.17,42.79,42.79,0,0,0-4.29.58,36,36,0,0,0-13.2,5.11,45.1,45.1,0,0,0-10.3,9.79c-1.11,1.45-1.94,2.68-2.49,3.55a9.94,9.94,0,0,1-.9,1.32,1.32,1.32,0,0,1,.17-.38c.12-.24.29-.61.55-1.05a39.43,39.43,0,0,1,2.37-3.66,42.55,42.55,0,0,1,10.31-10,36.13,36.13,0,0,1,17.77-5.47c.52,0,.92,0,1.19,0A1.2,1.2,0,0,1,409.2,362.8Z" style="fill: rgb(224, 224, 224); transform-origin: 392.815px 373.038px;" id="eler79jklrzxm" class="animable"></path><path d="M356.46,351a5.27,5.27,0,0,1,1.31.38,17.16,17.16,0,0,1,3.35,1.6,7.25,7.25,0,0,1,2,1.72,19.12,19.12,0,0,1,1.46,2.58,30.73,30.73,0,0,1,1.25,3,32.9,32.9,0,0,0,1.11,3.26c1,2.1,2.89,3.45,4.51,4.71a33.07,33.07,0,0,1,4.11,3.65,25.81,25.81,0,0,1,2.3,2.91,6.75,6.75,0,0,1,.7,1.16c-.09.07-1.13-1.58-3.27-3.81a34.37,34.37,0,0,0-4.14-3.53c-1.61-1.23-3.59-2.61-4.68-4.86a28.23,28.23,0,0,1-1.12-3.32c-.37-1.05-.78-2-1.21-3a18.76,18.76,0,0,0-1.38-2.53,6.88,6.88,0,0,0-1.81-1.66,22.44,22.44,0,0,0-3.22-1.73A9.38,9.38,0,0,1,356.46,351Z" style="fill: rgb(224, 224, 224); transform-origin: 367.51px 363.486px;" id="elhww4diff2ye" class="animable"></path><path d="M403.08,385.64a7.52,7.52,0,0,1-1.08.9c-.71.55-1.76,1.33-3.1,2.23a32.2,32.2,0,0,1-5,2.76c-2,.86-4.22,1.53-6.52,2.33a38,38,0,0,0-10.83,6.1l-3,2.34a7.78,7.78,0,0,1-1.13.82,7,7,0,0,1,1-1c.67-.6,1.65-1.46,2.9-2.48a35.41,35.41,0,0,1,10.88-6.3c2.33-.81,4.57-1.46,6.51-2.28a33.9,33.9,0,0,0,4.95-2.63c1.36-.85,2.43-1.59,3.18-2.08A7,7,0,0,1,403.08,385.64Z" style="fill: rgb(224, 224, 224); transform-origin: 387.75px 394.38px;" id="elta6jolwou6" class="animable"></path><path d="M371.34,398.74c-3.24-3.62-2.42-10-5.9-13.35-2.17-2.1-5.47-2.47-7.73-4.47-1.48-1.3-2.38-3.18-3.78-4.57-2.65-2.6-6.58-3-10.21-3.33a21.09,21.09,0,0,0,11.58,17.13c1.54.73,3.22,1.28,4.39,2.55.82.88,1.32,2,2.06,3a8.69,8.69,0,0,0,4.59,2.83,25.53,25.53,0,0,0,5.38.65" style="fill: rgb(235, 235, 235); transform-origin: 357.72px 386.1px;" id="elzfvh8w420of" class="animable"></path><path d="M350.32,377.62a16.61,16.61,0,0,0,2.78,3.73,30.92,30.92,0,0,0,3.94,3.19c1.56,1.11,3.31,2.33,5,3.79a64.22,64.22,0,0,1,7.89,8.23c.92,1.13,1.63,2.07,2.11,2.72a7.1,7.1,0,0,1,.71,1.06,5.56,5.56,0,0,1-.86-.93l-2.24-2.62a78.31,78.31,0,0,0-7.95-8.06c-1.67-1.45-3.39-2.66-4.94-3.8a28.47,28.47,0,0,1-3.93-3.32,12.44,12.44,0,0,1-2-2.81,8,8,0,0,1-.38-.86A1.24,1.24,0,0,1,350.32,377.62Z" style="fill: rgb(224, 224, 224); transform-origin: 361.535px 388.98px;" id="el5paqhs3g05i" class="animable"></path><path d="M367.59,417.54c-.1-2.69-.91-5.52-3-7a20.73,20.73,0,0,1-2.81-1.76,13.52,13.52,0,0,1-1.87-2.7c-1.72-2.67-4.48-4.39-7.14-6l-3.16-1.93a1.5,1.5,0,0,0-1-.31,1,1,0,0,0-.69.78,3,3,0,0,0,0,1.12,46.08,46.08,0,0,0,1.23,6.61,11.46,11.46,0,0,0,2.46,5.17c1.47,1.53,3.56,2.17,5.35,3.27,1.52.94,2.86,2.23,4.52,2.85,1.92.73,4.18.17,6.21-.12" style="fill: rgb(235, 235, 235); transform-origin: 357.779px 407.919px;" id="elxk4qt0kzqn" class="animable"></path><path d="M351.94,403.8a29.17,29.17,0,0,1,2.34,2.9,33,33,0,0,0,6.23,6.36,46.83,46.83,0,0,0,4.26,2.45c1.34.73,2.54,1.41,3.51,2.05a13.21,13.21,0,0,1,2.16,1.69,3.08,3.08,0,0,1,.65.77,27.83,27.83,0,0,0-3-2.15c-1-.59-2.18-1.23-3.54-1.93a40.24,40.24,0,0,1-4.33-2.46,28.89,28.89,0,0,1-6.22-6.56c-.68-.93-1.2-1.71-1.55-2.25A3.7,3.7,0,0,1,351.94,403.8Z" style="fill: rgb(224, 224, 224); transform-origin: 361.515px 411.91px;" id="elw827isiymr" class="animable"></path><path d="M389.59,413.26c0,.08-1.27.81-3.26,2.19a46.13,46.13,0,0,0-7.11,6.17,47.34,47.34,0,0,0-5.71,7.5c-1.26,2.06-1.93,3.41-2,3.37a4.5,4.5,0,0,1,.38-1c.27-.63.72-1.51,1.31-2.57a40.21,40.21,0,0,1,5.65-7.67,39.12,39.12,0,0,1,7.29-6.11,28.83,28.83,0,0,1,2.49-1.46A4.05,4.05,0,0,1,389.59,413.26Z" style="fill: rgb(224, 224, 224); transform-origin: 380.55px 422.875px;" id="elqmrde1jnc3d" class="animable"></path></g><g id="freepik--Floor--inject-75" class="animable" style="transform-origin: 250px 439.1px;"><path d="M469.09,439.1c0,.14-98.1.26-219.08.26s-219.1-.12-219.1-.26,98.08-.26,219.1-.26S469.09,439,469.09,439.1Z" style="fill: rgb(38, 50, 56); transform-origin: 250px 439.1px;" id="el1pqahyn3hkb" class="animable"></path></g><g id="freepik--Plant--inject-75" class="animable" style="transform-origin: 420.498px 413.466px;"><path d="M420.49,387.37a9.79,9.79,0,0,1,5.07,5.74,17.15,17.15,0,0,1,.67,7.77c-.57,5-3.44,10.13-6.52,14.16-4.25-3.7-5.22-10.17-5.51-13.48-.46-5.23,1.89-15,6.29-14.19" style="fill: rgb(255, 114, 94); transform-origin: 420.275px 401.181px;" id="ela13ftd9f02" class="animable"></path><path d="M424.65,423.37a8.34,8.34,0,0,1,2.69-7.93,11.1,11.1,0,0,1,8.17-2.55,4.65,4.65,0,0,1,3.58,1.61,3.58,3.58,0,0,1,.06,3.61,7.22,7.22,0,0,1-2.68,2.64c-3.68,2.31-7.66,3.87-11.82,2.62" style="fill: rgb(255, 114, 94); transform-origin: 432.047px 418.327px;" id="el92k3jr9nhrd" class="animable"></path><path d="M419.2,438.83a5.19,5.19,0,0,1,.15-1c.13-.73.31-1.67.51-2.8a29.28,29.28,0,0,1,2.9-8.95,17.76,17.76,0,0,1,6.42-6.82,12.3,12.3,0,0,1,2.61-1.16,6.34,6.34,0,0,1,.76-.19.76.76,0,0,1,.27,0,18.74,18.74,0,0,0-3.51,1.61,18.46,18.46,0,0,0-6.23,6.78,31.1,31.1,0,0,0-3,8.82c-.26,1.17-.47,2.12-.63,2.78A5.62,5.62,0,0,1,419.2,438.83Z" style="fill: rgb(38, 50, 56); transform-origin: 426.01px 428.364px;" id="eljmrstgyrerm" class="animable"></path><path d="M419.36,394.94a2.43,2.43,0,0,1,.05.46c0,.33,0,.76.08,1.3.06,1.13.13,2.76.19,4.78.13,4,.23,9.63.21,15.8s-.18,11.75-.35,15.79c-.08,2-.16,3.66-.23,4.78,0,.54-.06,1-.09,1.3a2.43,2.43,0,0,1-.05.46,1.7,1.7,0,0,1,0-.46c0-.34,0-.77,0-1.3,0-1.18.07-2.8.11-4.79.1-4,.21-9.62.24-15.79s0-11.74-.1-15.78c0-2-.06-3.61-.07-4.79,0-.53,0-1,0-1.3A2.35,2.35,0,0,1,419.36,394.94Z" style="fill: rgb(38, 50, 56); transform-origin: 419.523px 417.275px;" id="eln2y5wplvoo" class="animable"></path><path d="M417.3,426.44a19.53,19.53,0,0,0-10.65-14.29c-1.42-.68-3.27-1.12-4.44-.07s-.91,3-.34,4.43a16.66,16.66,0,0,0,15.33,10.34" style="fill: rgb(255, 114, 94); transform-origin: 409.344px 419.151px;" id="elhz07t5ofybm" class="animable"></path><path d="M407.34,416.93a5.33,5.33,0,0,1,.9.4,9.62,9.62,0,0,1,1,.54c.38.24.84.47,1.29.81A18.11,18.11,0,0,1,412,419.8a20.15,20.15,0,0,1,1.57,1.43,21.57,21.57,0,0,1,3,3.86,21.05,21.05,0,0,1,2,4.46,18.86,18.86,0,0,1,.5,2.08,16.77,16.77,0,0,1,.25,1.84,14.21,14.21,0,0,1,.07,1.53,10.11,10.11,0,0,1,0,1.15,6.19,6.19,0,0,1-.11,1c-.08,0,.06-1.41-.19-3.64a17.12,17.12,0,0,0-.29-1.8c-.12-.65-.32-1.33-.52-2a20.73,20.73,0,0,0-4.9-8.18c-.52-.52-1-1-1.53-1.44a18,18,0,0,0-1.44-1.13C408.58,417.59,407.3,417,407.34,416.93Z" style="fill: rgb(38, 50, 56); transform-origin: 413.373px 427.04px;" id="elevwq3c34xw5" class="animable"></path></g><g id="freepik--Hearts--inject-75" class="animable" style="transform-origin: 342.343px 227.22px;"><path d="M287.28,251.89a3.65,3.65,0,0,0-.81-2.06,3.5,3.5,0,0,0-1.76-1.25,2.86,2.86,0,0,0-3.23,1.26,2.72,2.72,0,0,0-.78-1,2.9,2.9,0,0,0-2.2-.59,3.56,3.56,0,0,0-1.91,1,3.72,3.72,0,0,0-1.07,1.93,4.55,4.55,0,0,0,.37,2.79,6.47,6.47,0,0,0,2.05,2.18c1.36.95,3.16,2.14,3.16,2.14s1.66-1.08,3.14-1.84a6.27,6.27,0,0,0,2.31-1.9A4.45,4.45,0,0,0,287.28,251.89Z" style="fill: rgb(255, 114, 94); transform-origin: 281.365px 253.255px;" id="el9gdgef3rf7a" class="animable"></path><path d="M409.24,199.81a3.69,3.69,0,0,0-.81-2.05,3.49,3.49,0,0,0-1.77-1.25,2.85,2.85,0,0,0-3.22,1.25,3,3,0,0,0-.79-1,2.87,2.87,0,0,0-2.19-.58,3.53,3.53,0,0,0-1.91,1,3.58,3.58,0,0,0-1.07,1.93,4.44,4.44,0,0,0,.37,2.78,6.26,6.26,0,0,0,2,2.18c1.37.95,3.17,2.15,3.17,2.15s1.66-1.08,3.13-1.85a6.26,6.26,0,0,0,2.31-1.89A4.47,4.47,0,0,0,409.24,199.81Z" style="fill: rgb(255, 114, 94); transform-origin: 403.322px 201.185px;" id="el67bfmv67yuc" class="animable"></path></g><g id="freepik--Stars--inject-75" class="animable" style="transform-origin: 330.139px 192.946px;"><path d="M389.06,126.2l1.76,1a.37.37,0,0,1,0,.65l-1.75,1a.29.29,0,0,0-.15.14l-.95,1.76a.37.37,0,0,1-.65,0l-1-1.75a.36.36,0,0,0-.15-.15l-1.76-1a.37.37,0,0,1,0-.65l1.75-1a.4.4,0,0,0,.14-.15l1-1.76a.37.37,0,0,1,.65,0l1,1.75A.4.4,0,0,0,389.06,126.2Z" style="fill: rgb(255, 114, 94); transform-origin: 387.615px 127.52px;" id="el8msr6182gn5" class="animable"></path><path d="M282.48,199.17l1.75,1a.38.38,0,0,1,0,.66l-1.75,1a.34.34,0,0,0-.15.14l-.95,1.76a.37.37,0,0,1-.65,0l-1-1.75a.31.31,0,0,0-.15-.15l-1.76-.95a.37.37,0,0,1,0-.65l1.75-1a.54.54,0,0,0,.15-.15l.95-1.76a.37.37,0,0,1,.65,0l1,1.75A.29.29,0,0,0,282.48,199.17Z" style="fill: rgb(255, 114, 94); transform-origin: 281.024px 200.525px;" id="elrbq8wr05jg" class="animable"></path><path d="M271.76,188.48l.92.5a.19.19,0,0,1,0,.34l-.91.5a.2.2,0,0,0-.08.08l-.49.91a.19.19,0,0,1-.34,0l-.51-.91a.12.12,0,0,0-.07-.07l-.92-.5a.2.2,0,0,1,0-.34l.91-.5a.3.3,0,0,0,.08-.08l.49-.92a.2.2,0,0,1,.34,0l.51.91A.14.14,0,0,0,271.76,188.48Z" style="fill: rgb(255, 114, 94); transform-origin: 271.025px 189.155px;" id="elhf8i5hzw8b6" class="animable"></path><path d="M369.5,259.36l.92.5a.2.2,0,0,1,0,.34l-.91.5a.2.2,0,0,0-.08.08l-.49.91a.19.19,0,0,1-.34,0l-.51-.92a.19.19,0,0,0-.08-.07l-.91-.5a.19.19,0,0,1,0-.34l.91-.5a.18.18,0,0,0,.07-.08l.5-.91a.19.19,0,0,1,.34,0l.5.91A.2.2,0,0,0,369.5,259.36Z" style="fill: rgb(255, 114, 94); transform-origin: 368.755px 260.03px;" id="elizib5i6xy8a" class="animable"></path></g><g id="freepik--Sun--inject-75" class="animable" style="transform-origin: 78.05px 54.545px;"><ellipse cx="77.65" cy="54.43" rx="15.81" ry="15.39" style="fill: rgb(255, 114, 94); transform-origin: 77.65px 54.43px;" id="elm0ihhtv95o" class="animable"></ellipse><path d="M75.4,88.84a57.68,57.68,0,0,1-.17-6.35,57.53,57.53,0,0,1,.17-6.35,62.52,62.52,0,0,1,.16,6.35A62.68,62.68,0,0,1,75.4,88.84Z" style="fill: rgb(255, 114, 94); transform-origin: 75.3936px 82.49px;" id="eldriz6d8ihvu" class="animable"></path><path d="M66.29,72.57c.08,0-1.41,2.69-3.32,5.92s-3.53,5.8-3.61,5.76,1.41-2.7,3.32-5.93A67.5,67.5,0,0,1,66.29,72.57Z" style="fill: rgb(255, 114, 94); transform-origin: 62.825px 78.4102px;" id="elrwyp8bhtxz" class="animable"></path><path d="M56.94,66.9A35.46,35.46,0,0,1,53.25,70a34.25,34.25,0,0,1-3.9,2.81A34.2,34.2,0,0,1,53,69.71,35.83,35.83,0,0,1,56.94,66.9Z" style="fill: rgb(255, 114, 94); transform-origin: 53.145px 69.855px;" id="eld6u02myp9uu" class="animable"></path><path d="M91.17,82.58A8.48,8.48,0,0,1,90.75,81c-.23-1-.55-2.3-1-3.76s-.82-2.78-1.12-3.73A8.26,8.26,0,0,1,88.24,72a7.3,7.3,0,0,1,.66,1.48c.36.93.81,2.24,1.22,3.71S90.81,80,91,81A7.33,7.33,0,0,1,91.17,82.58Z" style="fill: rgb(255, 114, 94); transform-origin: 89.705px 77.29px;" id="elppfhrhdx8bi" class="animable"></path><path d="M107.2,71.51a55.67,55.67,0,0,1-4.67-3.76,57,57,0,0,1-4.46-4,54.24,54.24,0,0,1,4.68,3.76A53.43,53.43,0,0,1,107.2,71.51Z" style="fill: rgb(255, 114, 94); transform-origin: 102.635px 67.63px;" id="elnadbqb8b8cm" class="animable"></path><path d="M113.34,56.29a12,12,0,0,1-1.91-.26c-1.17-.19-2.79-.44-4.58-.64s-3.44-.32-4.62-.39a12.35,12.35,0,0,1-1.92-.16,10.54,10.54,0,0,1,1.93-.07c1.19,0,2.84.1,4.64.3s3.43.48,4.6.73A10.24,10.24,0,0,1,113.34,56.29Z" style="fill: rgb(255, 114, 94); transform-origin: 106.825px 55.5219px;" id="elozq5vsy3nun" class="animable"></path><path d="M113.36,41.33c0,.09-3.4,1-7.64,2S98,45.06,98,45s3.4-1,7.65-2S113.34,41.24,113.36,41.33Z" style="fill: rgb(255, 114, 94); transform-origin: 105.68px 43.1631px;" id="eloro5b3y9iym" class="animable"></path><path d="M95.5,23.89c.07.05-1.56,2.6-3.66,5.68s-3.86,5.55-3.93,5.5,1.56-2.59,3.65-5.68S95.42,23.85,95.5,23.89Z" style="fill: rgb(255, 114, 94); transform-origin: 91.705px 29.4801px;" id="el5c4bnm03iay" class="animable"></path><path d="M77.77,20.25a14.21,14.21,0,0,1,0,2.11c0,1.31,0,3.11,0,5.09s0,3.79.06,5.09a14.13,14.13,0,0,1,0,2.11,11,11,0,0,1-.22-2.1c-.08-1.3-.15-3.1-.15-5.1s.06-3.79.14-5.09A13.13,13.13,0,0,1,77.77,20.25Z" style="fill: rgb(255, 114, 94); transform-origin: 77.6647px 27.45px;" id="elqb6555103vc" class="animable"></path><path d="M64.35,36.53c-.08,0-1.75-2.47-3.72-5.62s-3.51-5.73-3.44-5.78a66.79,66.79,0,0,1,3.72,5.61A66.83,66.83,0,0,1,64.35,36.53Z" style="fill: rgb(255, 114, 94); transform-origin: 60.7689px 30.83px;" id="elkqa8vj9pvao" class="animable"></path><path d="M56.33,43.16a8.35,8.35,0,0,1-1.68-.26c-1-.21-2.44-.55-4-1s-2.91-.9-3.89-1.27A7.27,7.27,0,0,1,45.23,40a11.06,11.06,0,0,1,1.63.46c1,.31,2.37.73,3.91,1.17s2.92.81,3.93,1.08A8.8,8.8,0,0,1,56.33,43.16Z" style="fill: rgb(255, 114, 94); transform-origin: 50.78px 41.58px;" id="elvalxl8805k" class="animable"></path><path d="M52.82,55a40,40,0,0,1-5,.63,38.9,38.9,0,0,1-5.08.32,39.14,39.14,0,0,1,5-.64A39.83,39.83,0,0,1,52.82,55Z" style="fill: rgb(255, 114, 94); transform-origin: 47.78px 55.475px;" id="elpp7wm6awzsc" class="animable"></path></g><g id="freepik--Character--inject-75" class="animable animator-active" style="transform-origin: 246.725px 289.309px;"><path d="M190.61,188.17l-44.39-69.59a5.44,5.44,0,0,0-5.91,6.2c-7.43.36-13.79,7.68-13.1,15.09A18.34,18.34,0,0,0,112,165.19a12.4,12.4,0,0,0,11.34,18.29,13.18,13.18,0,0,0,20.48,14.9,13.3,13.3,0,0,0,20.32,4.29,10.93,10.93,0,0,0,14-.85c1.3-1.3,2.28-3,3.87-3.89s3.37-1,5-1.7A6.89,6.89,0,0,0,190.61,188.17Z" style="fill: rgb(38, 50, 56); transform-origin: 150.689px 162.124px;" id="el122vy7jqjy5" class="animable"></path><path d="M178.57,181.83a6.57,6.57,0,1,1-6.57-6.57A6.57,6.57,0,0,1,178.57,181.83Z" style="fill: rgb(255, 114, 94); transform-origin: 172px 181.83px;" id="el4wp3zyvgw9l" class="animable"></path><path d="M169.64,184.66a27.45,27.45,0,0,0-.86,28.51,68.84,68.84,0,0,0,3-13.32c.4-4.55.09-11.22-2.16-15.19" style="fill: rgb(255, 114, 94); transform-origin: 168.566px 198.915px;" id="el0k7v6mmtcfj" class="animable"></path><path d="M155.35,146.22a11.09,11.09,0,0,1,.49-14.21c-2.12-2.48-1.53-6.43.44-9s5-4.14,7.88-5.61c1.36-7.5,22.27-19,29.74-17.45.33-3.23,9.33-2.9,10.7,1.54h0A6.38,6.38,0,0,1,211.07,99c11,1.7,9.69,8.57,9.69,8.57s3.35-1.34,6.8,2.44c3.18,3.47,1.91,5.75,1.91,5.75a10.72,10.72,0,0,1,4.38,7.77c.2,2.6-.53,5.39.65,7.71.59,1.17,1.62,2.09,2.09,3.31,1.36,3.53-2.47,7.32-1.61,11,.18.75.55,1.44.78,2.18a6.6,6.6,0,0,1-.24,4.63c-.49,1.12-1.31,2.15-1.33,3.37a10.72,10.72,0,0,0,.63,2.69c.53,2.2-3.95,10.91-5.82,12.18l-57.19,2.53a10.7,10.7,0,0,1-8.6-8.92,3.79,3.79,0,0,0-.61-2.08,4.43,4.43,0,0,0-1.59-1c-3.76-1.85-4.38-6.89-4.14-11.07a4.9,4.9,0,0,0-.09-1.75A6.24,6.24,0,0,0,155.35,146.22Z" style="fill: rgb(38, 50, 56); transform-origin: 194.948px 135.465px;" id="el9ced79gzvx4" class="animable"></path><path d="M171.75,145.72c-.53-10.12,5.41-22,15.3-27.28,6.23-3.34,11.17-3.54,14.49-4a23.13,23.13,0,0,1,13.59,2.35c3.18.63,15.11,10.81,16.12,22.27,1.11,12.73,2,28.32.69,37.87-2.57,19.21-17.17,22-17.17,22s2.48,31.69,2.48,31.69l-39.7-14Z" style="fill: rgb(255, 191, 157); transform-origin: 202.155px 172.43px;" id="el6rse1hu552" class="animable"></path><path d="M204.71,175a3.8,3.8,0,0,1,1.11-2.41,3.83,3.83,0,0,1,4.62-.63c1.48.86,1.79,2.49,1.67,4.36h0c-.7,1.15-1.2,2.27-2.52,2.49-.21,0-.42.06-.63.07a4.23,4.23,0,0,1-2.9-.89A3.73,3.73,0,0,1,204.71,175Z" style="fill: rgb(255, 154, 108); transform-origin: 208.421px 175.173px;" id="elbihboq1mo39" class="animable"></path><path d="M224.64,154.54a2.45,2.45,0,0,1-2.3,2.54,2.35,2.35,0,0,1-2.58-2.15,2.45,2.45,0,0,1,2.3-2.54A2.35,2.35,0,0,1,224.64,154.54Z" style="fill: rgb(38, 50, 56); transform-origin: 222.2px 154.735px;" id="el2joowrvzuqp" class="animable"></path><path d="M227,146.47c-.29.32-2.19-1-4.83-.93s-4.54,1.44-4.83,1.12c-.15-.14.15-.73,1-1.36a6.76,6.76,0,0,1,3.86-1.3,6.48,6.48,0,0,1,3.85,1.15C226.89,145.75,227.18,146.32,227,146.47Z" style="fill: rgb(38, 50, 56); transform-origin: 222.177px 145.353px;" id="eldydmytgx36" class="animable"></path><path d="M212.09,167.7c0-.15,1.62-.48,4.27-.88.68-.09,1.31-.24,1.41-.7a3.4,3.4,0,0,0-.5-2c-.67-1.61-1.37-3.31-2.12-5.08-2.94-7.25-5.09-13.21-4.8-13.32s2.92,5.66,5.87,12.9q1.07,2.67,2,5.12a3.84,3.84,0,0,1,.42,2.63,1.72,1.72,0,0,1-1.09,1,4.76,4.76,0,0,1-1.14.18C213.77,167.79,212.11,167.85,212.09,167.7Z" style="fill: rgb(38, 50, 56); transform-origin: 214.519px 156.75px;" id="elk4mk7et4w6" class="animable"></path><path d="M214.77,198.89a48.92,48.92,0,0,1-25.88-6.2S196,206,215.15,203.75Z" style="fill: rgb(255, 154, 108); transform-origin: 202.02px 198.348px;" id="elzxcbqanpdy" class="animable"></path><path d="M225,136c-.43.66-2.46.28-4.82.53s-4.3.92-4.83.36c-.24-.28,0-.92.81-1.59a7.16,7.16,0,0,1,3.79-1.44,7.05,7.05,0,0,1,4,.73C224.88,135.05,225.22,135.63,225,136Z" style="fill: rgb(38, 50, 56); transform-origin: 220.163px 135.462px;" id="elfzalxc9kklt" class="animable"></path><path d="M197,155.66A2.47,2.47,0,0,0,199.5,158a2.35,2.35,0,0,0,2.39-2.36,2.46,2.46,0,0,0-2.51-2.33A2.35,2.35,0,0,0,197,155.66Z" style="fill: rgb(38, 50, 56); transform-origin: 199.445px 155.655px;" id="elqa08g10u2sc" class="animable"></path><path d="M190.93,148.39c.33.3,2.1-1.19,4.73-1.35s4.65,1.05,4.92.7c.13-.15-.21-.7-1.09-1.27a6.81,6.81,0,0,0-4-.95,6.41,6.41,0,0,0-3.74,1.47C191,147.66,190.77,148.25,190.93,148.39Z" style="fill: rgb(38, 50, 56); transform-origin: 195.744px 146.966px;" id="el1ewtdbi1sx4" class="animable"></path><path d="M190.57,138c.55.57,2.55-.18,5-.36s4.54.12,5-.54c.19-.31-.17-.89-1.11-1.4a7.57,7.57,0,0,0-4.13-.73,7.43,7.43,0,0,0-3.91,1.45C190.56,137.13,190.32,137.76,190.57,138Z" style="fill: rgb(38, 50, 56); transform-origin: 195.548px 136.569px;" id="el8ikc82u1r84" class="animable"></path><path d="M175.27,163.78c0-1.43-1.77-4.74-3.18-4.93-3.77-.49-10.54,0-10.37,9.52.24,13,13.29,10.12,13.3,9.74S175.4,168.7,175.27,163.78Z" style="fill: rgb(255, 191, 157); transform-origin: 168.507px 168.683px;" id="elkgmi9yaqfp9" class="animable"></path><path d="M171.34,173.41c-.06,0-.22.17-.61.35a2.21,2.21,0,0,1-1.69.06c-1.39-.48-2.59-2.64-2.7-5a7.63,7.63,0,0,1,.58-3.27,2.61,2.61,0,0,1,1.68-1.77,1.14,1.14,0,0,1,1.35.59c.18.37.11.63.18.65s.27-.22.16-.76a1.45,1.45,0,0,0-.53-.81,1.71,1.71,0,0,0-1.26-.31,3.19,3.19,0,0,0-2.34,2.07,7.58,7.58,0,0,0-.72,3.65c.13,2.62,1.52,5.06,3.41,5.57a2.46,2.46,0,0,0,2.07-.38C171.32,173.73,171.39,173.44,171.34,173.41Z" style="fill: rgb(255, 154, 108); transform-origin: 168.392px 168.817px;" id="el03uvkosi502b" class="animable"></path><path d="M234.14,139.13c-2.67-1.58-4.41-3.78-4.32-6.89-1.74.56-3.57-1.64-4.63-3.13s-2.32-2.22-2.29-4a2,2,0,0,0-.16-1.06c-.27-.49-.9-.64-1.44-.79a8.75,8.75,0,0,1-5.91-5.93,18.59,18.59,0,0,1-8.9,1.7,7.07,7.07,0,0,1-12-.22,6.35,6.35,0,0,1-4.16,3.23,18.8,18.8,0,0,1-5.4.43,7.49,7.49,0,0,1-4.72,8.6c-.46.15-1,.31-1.19.75a1.86,1.86,0,0,0,.24,1.45,5.89,5.89,0,0,1-3.76,7.59,4.39,4.39,0,0,1-.22,6.89c-.47.3-1.08.66-1,1.21a1.24,1.24,0,0,0,.3.55,8.56,8.56,0,0,1,2.16,4.25c.16,1.61-.88,3.45-2.49,3.56a4.2,4.2,0,0,1,1.73,2.81c0,1.14-1.07,2.32-2.14,1.94-.46-.16-7-1.28-7.28-1.66-3.82-4.92.69-10.57.9-16.79a40.31,40.31,0,0,1,5.19-17.76,29.51,29.51,0,0,1,4.48-6.41,39.75,39.75,0,0,1,7-5.46c3.25-2.13,6.59-4.26,10.34-5.25,7-1.84,14.38.54,21,3.41a30.27,30.27,0,0,1,7.19,4,27.73,27.73,0,0,1,6.17,7.64A34.58,34.58,0,0,1,234,137" style="fill: rgb(38, 50, 56); transform-origin: 199.585px 135.118px;" id="elzplsw2y2lvo" class="animable"></path><path d="M204.22,172.54c.32-.21,1.61,2,4.37,2.38s4.92-1.18,5.12-.89c.11.12-.26.73-1.22,1.33a6.23,6.23,0,0,1-4.2.86,5.41,5.41,0,0,1-3.52-2.07C204.15,173.3,204.07,172.62,204.22,172.54Z" style="fill: rgb(38, 50, 56); transform-origin: 208.942px 174.408px;" id="el5282c3l7063" class="animable"></path><path d="M142.47,111.24c0,17.59,12.28,46.2,22.62,47.86l-.1-.75c-.48-11.16-.92-22.63,2.72-33.19,4.08-11.82,14.67-20.38,26.19-25.23-17.3-3.74-41.25,4.94-51.43,11.31" style="fill: rgb(255, 114, 94); transform-origin: 168.185px 129.063px;" id="el4joyo9jlidj" class="animable"></path><path d="M187.33,99.1a11.26,11.26,0,0,0-8.31,8.3A11.13,11.13,0,0,0,170.09,119a9.71,9.71,0,0,0-5.19,14.51,11.6,11.6,0,0,0-.71,12.75A8,8,0,0,0,165.47,159l4.57.06-.16-18.94L173.12,129,180,116.9l7.08-6.47L198.41,103A11.27,11.27,0,0,0,187.33,99.1Z" style="fill: rgb(38, 50, 56); transform-origin: 180.007px 128.957px;" id="elrf4fnnj8s4c" class="animable"></path><path d="M169.46,182.82c-1.21-2.61-7.2-3.85-11.88-2.8a20.84,20.84,0,0,0-11.68,7.85,33.76,33.76,0,0,0-5.77,13c11.85.2,23.71-7.66,29.33-18.09" style="fill: rgb(255, 114, 94); transform-origin: 154.795px 190.26px;" id="el2fi33fgcs3h" class="animable"></path><path d="M175.15,187.72s-.18.17-.59.37a5.88,5.88,0,0,1-1.87.48,6.6,6.6,0,0,1-7.12-8.33,5.53,5.53,0,0,1,.76-1.77c.25-.37.43-.55.46-.53a12.17,12.17,0,0,0-.86,2.38,6.44,6.44,0,0,0,6.74,7.88A12.66,12.66,0,0,0,175.15,187.72Z" style="fill: rgb(38, 50, 56); transform-origin: 170.239px 183.276px;" id="elwm3kuskvjv" class="animable"></path><path d="M155,187.49a22.07,22.07,0,0,1,10.43-4.29c0,.16-2.42.76-5.3,2S155,187.63,155,187.49Z" style="fill: rgb(38, 50, 56); transform-origin: 160.215px 185.351px;" id="el2y4ob5l5j3h" class="animable"></path><path d="M168.82,200.16a45.82,45.82,0,0,1,0-6.14,48.29,48.29,0,0,1,.32-6.13,30,30,0,0,1,.2,6.15A30,30,0,0,1,168.82,200.16Z" style="fill: rgb(38, 50, 56); transform-origin: 169.066px 194.025px;" id="elbj3yazbx5ua" class="animable"></path><path d="M159.15,111.3a16.91,16.91,0,0,1-.72,1.91,46.18,46.18,0,0,0-1.7,5.25,44.52,44.52,0,0,0,5.21,35A48.73,48.73,0,0,0,165.1,158a18.29,18.29,0,0,1,1.25,1.61,2.26,2.26,0,0,1-.38-.36c-.24-.25-.6-.61-1-1.12a39.48,39.48,0,0,1-3.32-4.46,43.33,43.33,0,0,1-5.26-35.33,41.63,41.63,0,0,1,1.87-5.24c.26-.61.5-1.06.65-1.37A3.24,3.24,0,0,1,159.15,111.3Z" style="fill: rgb(38, 50, 56); transform-origin: 160.544px 135.455px;" id="elwh2ssvonub" class="animable"></path><path d="M146.5,466.06h20.67l.6-26.19s-9.39-1.69-14.44,4.93S146.5,466.06,146.5,466.06Z" style="fill: rgb(255, 114, 94); transform-origin: 157.135px 452.868px;" id="eluymq66xfxg" class="animable"></path><path d="M139.72,382.36c0,15.36,1.81,52.39,49.23,56H167.27l-.92,32s133.48,3.26,137.64,3.32c8,.13,27.22-9.58,30.83-33.52S318.56,408.56,312.69,404s-71.81-27.55-97.1-32.06l-74.06,7.22Z" style="fill: rgb(38, 50, 56); transform-origin: 237.488px 422.811px;" id="elk04drhv34up" class="animable"></path><path d="M333.34,293.33A20.77,20.77,0,0,0,319.23,285a45.49,45.49,0,0,0-30.83,6.56c-14.66,9.41-71.29,83.31-71.29,83.31l96.18,37.08S337,339,339.75,326.7C342.07,316.4,341.54,304.58,333.34,293.33Z" style="fill: rgb(38, 50, 56); transform-origin: 279.027px 348.239px;" id="elfwh0ts1xtwv" class="animable"></path><path d="M266.53,386.37a4.81,4.81,0,0,1,.18-.87c.15-.61.36-1.44.61-2.48s.61-2.39,1.07-3.91.91-3.24,1.54-5.12,1.27-4,2.08-6.16,1.68-4.52,2.63-7c2-4.86,4.35-10.13,7.13-15.52s5.76-10.34,8.6-14.76c1.45-2.19,2.83-4.27,4.21-6.15s2.67-3.64,3.88-5.21,2.36-3,3.35-4.18,1.89-2.25,2.63-3.08l1.7-1.9a7.69,7.69,0,0,1,.62-.64,4.57,4.57,0,0,1-.54.71l-1.63,2c-.71.84-1.59,1.88-2.55,3.12s-2.13,2.62-3.29,4.22-2.5,3.31-3.82,5.24-2.72,4-4.15,6.16c-2.82,4.42-5.76,9.37-8.55,14.74s-5.14,10.62-7.14,15.46c-1,2.44-1.91,4.74-2.68,6.94s-1.51,4.24-2.13,6.12-1.15,3.59-1.62,5.1-.84,2.8-1.14,3.87-.54,1.85-.71,2.45A7.64,7.64,0,0,1,266.53,386.37Z" style="fill: rgb(69, 90, 100); transform-origin: 286.645px 347.88px;" id="eluwj7nfkw96p" class="animable"></path><path d="M151.38,327.69s-3.08-51.51-4-64.27S145.66,226,156.22,215s17.91-12.77,17.91-12.77l43,19.15s24.41,34.61,24.41,50S225.6,333,225.6,333Z" style="fill: rgb(69, 90, 100); transform-origin: 194.211px 267.615px;" id="elp2y0oglj3t" class="animable"></path><path d="M202.8,258.28l-.23-1.92,39,1.28s4.3,14.16-1.8,37.11c-2.44,9.18-11.3,43.5-11.3,43.5L233,366.13l31.84,19.95s-21.71,2-34.48,16.5-22,38.73-22,38.73-70.58.37-69.65-44.73a69.13,69.13,0,0,1,3-20.18L152.26,344l1.28-16.13s22.71-2.46,25.58-10.72S202.8,258.28,202.8,258.28Z" style="fill: rgb(255, 114, 94); transform-origin: 201.77px 348.835px;" id="el25glpgzvwp" class="animable"></path><path d="M319.36,408.39a4,4,0,0,1-.58-.23l-1.59-.74c-1.39-.65-3.4-1.58-5.91-2.67-5-2.21-12-5-19.82-8s-14.93-5.51-20.09-7.34l-6.1-2.18-1.66-.61a2.65,2.65,0,0,1-.56-.25,2.33,2.33,0,0,1,.6.15l1.68.52c1.46.46,3.57,1.14,6.16,2,5.19,1.75,12.34,4.24,20.16,7.2s14.81,5.86,19.78,8.15c2.5,1.14,4.48,2.12,5.84,2.83.64.33,1.16.61,1.56.83A2.44,2.44,0,0,1,319.36,408.39Z" style="fill: rgb(69, 90, 100); transform-origin: 291.205px 397.38px;" id="el5swvafu27gt" class="animable"></path><path d="M281.37,446c0,.14-16.32-1.1-36.42-2.78s-36.4-3.16-36.38-3.3,16.31,1.1,36.42,2.78S281.38,445.81,281.37,446Z" style="fill: rgb(69, 90, 100); transform-origin: 244.97px 442.96px;" id="el3ui83txssqq" class="animable"></path><path d="M183.78,391.05a2.15,2.15,0,0,1,.31-.5l1-1.36c.43-.6,1-1.3,1.62-2.12s1.38-1.74,2.23-2.74a46.15,46.15,0,0,1,26.45-16.61,67.48,67.48,0,0,1,9.1-1.38l3.53-.23,2.67,0h1.69a2.39,2.39,0,0,1,.58,0,2.45,2.45,0,0,1-.58.07l-1.68.09-2.66.11-3.51.31a71.26,71.26,0,0,0-9,1.48A51.26,51.26,0,0,0,205,371.93a52,52,0,0,0-15.76,12.64c-.86,1-1.63,1.87-2.28,2.68s-1.24,1.49-1.69,2.06l-1.06,1.31A3.07,3.07,0,0,1,183.78,391.05Z" style="fill: rgb(38, 50, 56); transform-origin: 208.37px 378.571px;" id="el4blovt1coin" class="animable"></path><path d="M153.18,344.72c.12.12-.93,1.48-3.14,3.67a73,73,0,0,1-10.21,8.31c-1.15.79-2.39,1.57-3.69,2.36-.65.39-1.33.78-2,1.17a13.09,13.09,0,0,1-2.34,1.11,5.54,5.54,0,0,1-1.5.27,3.84,3.84,0,0,1-1.69-.31,3.8,3.8,0,0,1-1.44-1.08,3,3,0,0,1-.67-1.93,3.35,3.35,0,0,1,.66-1.83,8,8,0,0,1,1-1.16l2-1.87a48.75,48.75,0,0,1,9.23-7.22,21.38,21.38,0,0,1,12.52-3l.2,0-.5,2.55a126.44,126.44,0,0,1-22.31-8.46c-.41-.2-.82-.4-1.22-.61s-.81-.39-1.28-.68a3.71,3.71,0,0,1-1.34-1.38,2.75,2.75,0,0,1-.16-2.13,3.48,3.48,0,0,1,1-1.57,4.18,4.18,0,0,1,1.52-.81,8.69,8.69,0,0,1,2.77-.28,24.16,24.16,0,0,1,9.12,1.88,24.44,24.44,0,0,1,10.46,8.12c1.83,2.57,2.33,4.26,2.21,4.31s-1-1.41-3-3.67A25.54,25.54,0,0,0,139,333.45a22.86,22.86,0,0,0-8.44-1.43,6.77,6.77,0,0,0-2.11.24,1.8,1.8,0,0,0-.69.38,1.23,1.23,0,0,0-.35.55.49.49,0,0,0,0,.39,1.61,1.61,0,0,0,.53.46c.28.17.68.35,1.09.55l1.21.57a136.83,136.83,0,0,0,22,8.11l-.49,2.55-.17,0a19.06,19.06,0,0,0-11,2.64,48,48,0,0,0-8.84,6.74l-2,1.83c-.64.56-1,1.09-1,1.37s.23.66.72.88a1.64,1.64,0,0,0,.74.16,3.36,3.36,0,0,0,.91-.14,11,11,0,0,0,2-.89c.68-.36,1.35-.71,2-1.07,1.31-.72,2.54-1.44,3.7-2.16a102.67,102.67,0,0,0,10.54-7.53C151.75,345.7,153.05,344.58,153.18,344.72Z" style="fill: rgb(255, 114, 94); transform-origin: 139.173px 345.719px;" id="el7a5btxo3o53" class="animable"></path><path d="M168.7,204.53c0-.08.19-.23.64-.44a5.31,5.31,0,0,1,.86-.34l1.23-.29a14.45,14.45,0,0,1,7.89,1.25,33,33,0,0,1,9.63,6.71,65.3,65.3,0,0,1,9,11,89.36,89.36,0,0,1,10.85,23.26c1.85,6.33,2.22,10.4,1.9,10.46s-1.39-3.82-3.65-9.87a113.68,113.68,0,0,0-11.28-22.42c-5.35-8.16-11.64-14.67-17.24-17.51a15.7,15.7,0,0,0-7-1.9l-1.17,0c-.34,0-.62.07-.86.08C169,204.64,168.73,204.62,168.7,204.53Z" style="fill: rgb(255, 114, 94); transform-origin: 189.752px 229.746px;" id="el5sgib9xfa9l" class="animable"></path><path d="M231.09,354.69h-.28l-.83-.05c-.73,0-1.81-.15-3.2-.18a90.9,90.9,0,0,0-11.73.24,93.68,93.68,0,0,0-17.12,3.07c-3.15.89-6.43,1.94-9.75,3.24s-6.69,2.81-10.06,4.52A99.11,99.11,0,0,0,141,399c-.79,1.15-1.33,2.08-1.73,2.69l-.46.7a1.29,1.29,0,0,1-.17.23l.13-.26.41-.72c.38-.63.88-1.58,1.65-2.75a90.36,90.36,0,0,1,6.91-9.53,96.59,96.59,0,0,1,30.12-24.24c3.39-1.73,6.78-3.23,10.12-4.54a102.71,102.71,0,0,1,9.81-3.22,91.16,91.16,0,0,1,17.21-3,84.58,84.58,0,0,1,11.78-.07c1.39.06,2.46.22,3.19.28l.82.09Z" style="fill: rgb(255, 255, 255); transform-origin: 184.865px 378.369px;" id="el1au0o9552srh" class="animable"></path><path d="M229.29,343.63a7.65,7.65,0,0,1-.83.08l-2.39.13c-1,.05-2.31.12-3.78.22s-3.15.19-5,.36c-3.71.27-8.11.72-13,1.29s-10.22,1.38-15.8,2.36-10.87,2.09-15.66,3.19-9.07,2.21-12.65,3.21c-1.8.48-3.4,1-4.82,1.38s-2.64.78-3.63,1.09l-2.29.68a4.26,4.26,0,0,1-.81.21,4.77,4.77,0,0,1,.77-.31l2.27-.78c1-.34,2.19-.74,3.6-1.17s3-.95,4.81-1.45c3.57-1.06,7.85-2.18,12.64-3.33s10.09-2.24,15.68-3.24,11-1.73,15.83-2.31,9.31-1,13-1.19c1.86-.14,3.54-.21,5-.28s2.75-.11,3.79-.13l2.4,0A4.36,4.36,0,0,1,229.29,343.63Z" style="fill: rgb(255, 255, 255); transform-origin: 188.96px 350.721px;" id="el722ytaq6ck" class="animable"></path><path d="M228.84,334.36c0,.15-17.06.73-38.11,1.31s-38.13.93-38.14.78,17.06-.73,38.12-1.3S228.84,334.22,228.84,334.36Z" style="fill: rgb(255, 255, 255); transform-origin: 190.715px 335.407px;" id="el6a14exlwtqb" class="animable"></path><path d="M231.13,317.64c0,.14-12.2,1-27.25,1.87s-27.27,1.48-27.28,1.34,12.19-1,27.25-1.86S231.12,317.5,231.13,317.64Z" style="fill: rgb(255, 255, 255); transform-origin: 203.865px 319.245px;" id="elyh4uzigpmk" class="animable"></path><path d="M243.15,268.87c0,.14-9.1.12-20.32-.05s-20.32-.43-20.32-.58,9.1-.12,20.33.06S243.16,268.72,243.15,268.87Z" style="fill: rgb(255, 255, 255); transform-origin: 222.83px 268.553px;" id="elu2n9y0jjik" class="animable"></path><path d="M241.61,282.34a9.82,9.82,0,0,1-1.68.1c-1.08,0-2.64.05-4.57.05-3.87,0-9.21-.11-15.09-.44s-11.22-.79-15.06-1.21c-1.92-.21-3.47-.4-4.54-.55A9.21,9.21,0,0,1,199,280a10.54,10.54,0,0,1,1.68.08l4.56.39c3.85.32,9.16.73,15,1s11.21.5,15.07.59l4.57.12A11.34,11.34,0,0,1,241.61,282.34Z" style="fill: rgb(255, 255, 255); transform-origin: 220.305px 281.242px;" id="elzl9atpadga" class="animable"></path><path d="M239.67,296c0,.15-11-.09-24.59-.53s-24.57-.92-24.57-1.06,11,.1,24.59.54S239.67,295.81,239.67,296Z" style="fill: rgb(255, 255, 255); transform-origin: 215.09px 295.207px;" id="elml6z6avlh6f" class="animable"></path><path d="M197.66,375.31a4.24,4.24,0,0,1-.58.4l-1.69,1.07c-.74.46-1.64,1-2.66,1.72s-2.21,1.45-3.47,2.37l-2,1.42-2.1,1.61c-1.47,1.09-3,2.36-4.54,3.66-3.12,2.68-6.44,5.75-9.71,9.18a131.85,131.85,0,0,0-8.63,10.2c-1.2,1.67-2.39,3.22-3.38,4.76l-1.46,2.2c-.45.72-.87,1.41-1.28,2.08-.84,1.31-1.51,2.55-2.12,3.62s-1.11,2-1.5,2.79-.7,1.32-.93,1.77a3.57,3.57,0,0,1-.36.61,2.91,2.91,0,0,1,.26-.65l.85-1.82c.36-.8.83-1.75,1.43-2.84s1.23-2.35,2.05-3.67l1.26-2.1c.45-.73.94-1.46,1.44-2.23,1-1.55,2.16-3.12,3.36-4.8a123,123,0,0,1,8.63-10.28,129,129,0,0,1,9.78-9.19c1.6-1.29,3.1-2.55,4.59-3.63.73-.55,1.43-1.09,2.12-1.59l2-1.4c1.27-.91,2.48-1.64,3.52-2.31s2-1.22,2.71-1.65l1.75-1A2.92,2.92,0,0,1,197.66,375.31Z" style="fill: rgb(255, 255, 255); transform-origin: 174.455px 400.04px;" id="el4167gbqsun5" class="animable"></path><path d="M238.2,369.89a.85.85,0,0,1-.22.12l-.68.28-2.61,1-1.88.74-2.2,1c-1.57.73-3.39,1.49-5.29,2.55l-3,1.59c-1,.56-2.09,1.23-3.19,1.87-2.23,1.26-4.47,2.84-6.86,4.43a113.17,113.17,0,0,0-26.6,26.11c-1.63,2.37-3.25,4.57-4.54,6.79-.66,1.09-1.34,2.13-1.92,3.16l-1.63,3c-1.08,1.89-1.86,3.7-2.6,5.26l-1,2.18-.76,1.89-1.06,2.59-.29.67a1.09,1.09,0,0,1-.12.23,1.9,1.9,0,0,1,.07-.24c.06-.19.14-.41.24-.69l1-2.64.72-1.9c.28-.69.63-1.42,1-2.21.72-1.58,1.48-3.41,2.55-5.31l1.6-3c.58-1,1.25-2.08,1.9-3.19,1.28-2.23,2.89-4.46,4.52-6.84A111.09,111.09,0,0,1,212,383.11c2.41-1.59,4.67-3.17,6.92-4.41,1.11-.64,2.16-1.3,3.22-1.86l3.05-1.56c1.92-1,3.76-1.78,5.34-2.48.8-.35,1.53-.68,2.22-1l1.91-.7,2.65-.95L238,370Z" style="fill: rgb(255, 255, 255); transform-origin: 204.975px 402.62px;" id="el2hkth3fspnu" class="animable"></path><path d="M252.62,378.59a6.76,6.76,0,0,1-.82.37l-2.38,1-1.72.67c-.62.26-1.28.59-2,.91-1.42.68-3.08,1.36-4.81,2.34l-2.74,1.47c-1,.51-1.89,1.14-2.89,1.74-2,1.17-4,2.64-6.19,4.14a101,101,0,0,0-12.77,11.27,103.34,103.34,0,0,0-10.52,13.4c-1.38,2.22-2.73,4.32-3.79,6.4-.54,1-1.13,2-1.59,3L199.08,428c-.9,1.77-1.5,3.47-2.11,4.92-.29.74-.58,1.41-.81,2l-.6,1.75c-.35,1-.63,1.82-.84,2.42a5.09,5.09,0,0,1-.33.83,5.13,5.13,0,0,1,.23-.86c.18-.61.43-1.42.75-2.45l.55-1.77c.22-.64.5-1.32.78-2.06.59-1.47,1.16-3.18,2-5l1.3-2.84c.45-1,1-2,1.57-3,1-2.09,2.39-4.21,3.77-6.46a101.59,101.59,0,0,1,10.54-13.49,99,99,0,0,1,12.87-11.3c2.17-1.5,4.2-3,6.24-4.12,1-.59,1.95-1.22,2.92-1.72l2.77-1.45c1.75-1,3.43-1.62,4.87-2.28.72-.31,1.39-.62,2-.87l1.74-.63,2.42-.86A5.53,5.53,0,0,1,252.62,378.59Z" style="fill: rgb(255, 255, 255); transform-origin: 223.505px 409.255px;" id="elbh2gnza4khh" class="animable"></path><g id="elgtw6hufepgc"><g style="opacity: 0.3; transform-origin: 195.77px 307.64px;" class="animable"><path d="M161.23,273.1s23.11,67.75,31.12,72.62,36.42-5.31,36.42-5.31l1.54-9.49-51.79-62.68Z" id="elf3qggbb8cgv" class="animable" style="transform-origin: 195.77px 307.64px;"></path></g></g><path d="M147.58,469.56l-5.45-2.41s-45.19,18-52,12.51l60.53-66.23,20.49,29.39C157.55,448.43,153.33,454,147.58,469.56Z" style="fill: rgb(38, 50, 56); transform-origin: 130.64px 447.066px;" id="elsaa0evfe05p" class="animable"></path><g id="el5b4uoy5p8qe"><g style="opacity: 0.6; transform-origin: 155.938px 433.328px;" class="animable"><path d="M159,435a3.73,3.73,0,0,0-1.42-4.74,3.52,3.52,0,0,0-4.69,1.3c-.85,1.59-.14,4.28,1.53,5s4.29-.14,4.72-1.89" style="fill: rgb(255, 255, 255); transform-origin: 155.938px 433.328px;" id="elxz0jqluy48" class="animable"></path></g></g><g id="elfplhdpnyucc"><g style="opacity: 0.6; transform-origin: 122.495px 447.123px;" class="animable"><path d="M150.69,413.43l4.1,5.8L96,480.17s-4,1.75-5.8-.51Z" style="fill: rgb(255, 255, 255); transform-origin: 122.495px 447.123px;" id="elxdf06qpwrxl" class="animable"></path></g></g><path d="M139.46,467.79c-.32-.31,1-2.06,1.41-4.62s-.21-4.66.19-4.84,1.86,2,1.33,5.12S139.7,468.14,139.46,467.79Z" style="fill: rgb(69, 90, 100); transform-origin: 140.957px 463.079px;" id="elblp1x5dtvi" class="animable"></path><path d="M131.49,470.47c-.38-.21.34-2.12-.05-4.49s-1.56-4-1.26-4.34,2.36,1.18,2.78,4.14S131.81,470.75,131.49,470.47Z" style="fill: rgb(69, 90, 100); transform-origin: 131.581px 466.045px;" id="elnq1oswjmco" class="animable"></path><path d="M119.88,466.45c.2-.36,2.26.69,3.3,3.17s.37,4.64,0,4.53-.5-1.93-1.39-3.95S119.62,466.8,119.88,466.45Z" style="fill: rgb(69, 90, 100); transform-origin: 121.791px 470.268px;" id="elkx2pa04aih" class="animable"></path><path d="M346.76,155.8c-2.77-1.84-3.8-5.44-3.9-8.77s.5-6.67.07-10c-.35-2.65.14-5.43.35-8.1.4-5.24,3.5-6,5.72-10.78s-1.11-6,.08-8c.58-1,2.22-.64,3.24-.13a8.15,8.15,0,0,1,2.52,2.27c3.59,4.31,6.7,9.59,6.2,15.18-.26,2.78-1.39,5.39-2,8.12-.93,4.27-.6,9-2.78,12.75-2,3.54-5.84,5.6-9.46,7.48" style="fill: rgb(69, 90, 100); transform-origin: 351.95px 132.668px;" id="elcnhxozfzww" class="animable"></path><path d="M342.23,172.62c1.11-7.28-2.43-16.19-7.72-21.32-2.24-2.18-5-4-6.51-6.67-1.77-3.13-1.72-7.06-3.58-10.13-2.78-4.6-8.83-5.85-14.19-6.16s-16.67-6.62-15.45-3.59c4,11.48,3.12,10.83,17.35,21.36,5.84,4.32.5,17.21,16.67,22.21,4.45,1.38,9.91,1.28,13.32,4.43" style="fill: rgb(69, 90, 100); transform-origin: 318.561px 148.34px;" id="elc22v0x1192g" class="animable"></path><path d="M339.48,246.76l-.16.27Z" style="fill: rgb(69, 90, 100); transform-origin: 339.4px 246.895px;" id="elfeecuuhvkbu" class="animable"></path><path d="M361.19,226.73a40.07,40.07,0,0,0-19.81,16.85l-1.9,3.18c.81-1.16,2.6-1.26,4.07-1.43a12.89,12.89,0,0,0,7.34-3.49,31.1,31.1,0,0,1,3.69-3.66,25.41,25.41,0,0,1,4.23-2c3.21-1.43,5.86-3.9,9-5.43s6.88-2.1,10.38-3,7.06-2.25,9.37-5C378.79,223.18,369.42,223.57,361.19,226.73Z" style="fill: rgb(69, 90, 100); transform-origin: 363.52px 234.755px;" id="elwqdk8a1jnt" class="animable"></path><path d="M373.87,182c-3,1.4-5.11,4.31-8.07,5.81-2.68,1.35-5.79,1.43-8.7,2.14-7,1.69-15.62,14.63-20.32,21.11,1.89-.1,5.65-1.68,9.12-1.63s8.05-.93,11.5-1.29c11.34-1.18,16.79-6.7,25.37-14,5.16-4.39,11.37-6.16,14.64-12.1C390.1,185.27,381.12,178.65,373.87,182Z" style="fill: rgb(69, 90, 100); transform-origin: 367.095px 196.042px;" id="el6m32jrktxgd" class="animable"></path><path d="M342.19,178.85c4-11.58,14.4-20.48,25.4-25.84a47.26,47.26,0,0,1,35.73-2.14c-6.59,8.66-13.27,9.75-23.87,12.26-1.82.43-6.38-.93-9.69,1.45-1.33.95-1.64,4.78-9.32,6.2s-14,2.93-18.25,8.07" style="fill: rgb(69, 90, 100); transform-origin: 372.755px 163.596px;" id="el9xuj6ejic8o" class="animable"></path><path d="M350.56,131.49a1.46,1.46,0,0,1,0,.37c0,.28,0,.64,0,1.11s0,1.09,0,1.8-.07,1.53-.12,2.45a95.32,95.32,0,0,1-2.37,15.44c-1.44,6.45-3.76,14-6.33,22.29a249.16,249.16,0,0,0-7.05,27.44,234.89,234.89,0,0,0-4.25,51.21c.15,6.59.63,11.9.91,15.58.19,1.81.33,3.23.43,4.22,0,.46.07.83.09,1.1a2.17,2.17,0,0,1,0,.38,178,178,0,0,1-1.81-21.27,227.9,227.9,0,0,1,4.1-51.32,243.56,243.56,0,0,1,7.1-27.48c2.6-8.32,4.95-15.81,6.43-22.23a100.83,100.83,0,0,0,2.53-15.38c.06-.91.12-1.73.17-2.44s0-1.3.06-1.79,0-.83,0-1.11A3.35,3.35,0,0,1,350.56,131.49Z" style="fill: rgb(38, 50, 56); transform-origin: 340.252px 203.185px;" id="el3lih00w7wx9" class="animable"></path><path d="M391.81,152.32a3.55,3.55,0,0,1-.66.08c-.43,0-1.06,0-1.88.12-1.63.12-4,.36-6.87.85a66.68,66.68,0,0,0-9.94,2.47,51.81,51.81,0,0,0-11.35,5.27,70.82,70.82,0,0,0-16.83,15.26c-1.82,2.29-3.17,4.23-4.06,5.6-.47.68-.79,1.23-1,1.58a3,3,0,0,1-.39.54,3.93,3.93,0,0,1,.3-.59c.21-.38.51-.94.95-1.63a60.48,60.48,0,0,1,3.94-5.73,68.29,68.29,0,0,1,16.84-15.47,50.66,50.66,0,0,1,11.48-5.28,63.52,63.52,0,0,1,10-2.39,59.91,59.91,0,0,1,6.92-.68c.82,0,1.46,0,1.89,0A2.82,2.82,0,0,1,391.81,152.32Z" style="fill: rgb(38, 50, 56); transform-origin: 365.32px 168.195px;" id="el5uya1phs53o" class="animable"></path><path d="M306.5,134.09a1.87,1.87,0,0,1,.54.12c.35.1.86.26,1.51.49a31,31,0,0,1,5.3,2.47,11.48,11.48,0,0,1,3.15,2.59,26.6,26.6,0,0,1,2.39,4,47.64,47.64,0,0,1,2,4.71,51.26,51.26,0,0,0,1.83,5.12c1.7,3.33,4.77,5.38,7.35,7.31a52,52,0,0,1,6.62,5.6A41.42,41.42,0,0,1,341,171l.9,1.3a1.71,1.71,0,0,1,.29.48,2.38,2.38,0,0,1-.37-.42l-1-1.24a51,51,0,0,0-3.87-4.33,55.75,55.75,0,0,0-6.64-5.47,49.45,49.45,0,0,1-4.06-3.14,14.84,14.84,0,0,1-3.48-4.32,52.43,52.43,0,0,1-1.84-5.19,48.91,48.91,0,0,0-2-4.67,26.71,26.71,0,0,0-2.3-3.94,11.61,11.61,0,0,0-3-2.55,35.13,35.13,0,0,0-5.19-2.59l-1.47-.58A2.79,2.79,0,0,1,306.5,134.09Z" style="fill: rgb(38, 50, 56); transform-origin: 324.345px 153.435px;" id="elrh24q4z1g3b" class="animable"></path><path d="M381.9,187.69a3.21,3.21,0,0,1-.45.37l-1.34,1c-1.17.83-2.87,2-5.05,3.42a53.4,53.4,0,0,1-8,4.23c-3.17,1.31-6.78,2.33-10.49,3.57A61,61,0,0,0,339,209.74c-2.07,1.53-3.71,2.81-4.85,3.69-.54.4-1,.73-1.32,1a2.62,2.62,0,0,1-.49.32,2.36,2.36,0,0,1,.42-.41l1.26-1.07c1.11-.92,2.71-2.25,4.76-3.82a58.36,58.36,0,0,1,17.59-9.68c3.73-1.25,7.34-2.25,10.47-3.53a55.87,55.87,0,0,0,8-4.1c2.19-1.33,3.92-2.49,5.13-3.27l1.39-.9A2,2,0,0,1,381.9,187.69Z" style="fill: rgb(38, 50, 56); transform-origin: 357.12px 201.22px;" id="el3zqlas5sxsv" class="animable"></path><path d="M330.57,208c-5.26-5.62-3.93-15.44-9.56-20.68-3.5-3.25-8.84-3.82-12.5-6.91-2.39-2-3.85-4.93-6.12-7.07-4.28-4-10.64-4.7-16.51-5.16a32.68,32.68,0,0,0,18.74,26.52c2.48,1.12,5.2,2,7.1,3.94,1.32,1.36,2.12,3.15,3.33,4.61a14,14,0,0,0,7.43,4.38,41.51,41.51,0,0,0,8.69,1" style="fill: rgb(69, 90, 100); transform-origin: 308.525px 188.405px;" id="elzaq3olg3zh" class="animable"></path><path d="M296.56,175.26c.05,0,.33.64,1,1.73a20.47,20.47,0,0,0,3.43,4.16,49.62,49.62,0,0,0,6.35,4.95c2.51,1.71,5.31,3.59,8,5.83a105.62,105.62,0,0,1,12.79,12.69c1.51,1.75,2.68,3.2,3.48,4.21.37.47.66.86.91,1.17a2.65,2.65,0,0,1,.29.44s-.15-.12-.37-.37l-1-1.11-3.6-4.1A117.89,117.89,0,0,0,315,192.34c-2.7-2.24-5.46-4.11-8-5.85a46.17,46.17,0,0,1-6.33-5.07,19.45,19.45,0,0,1-3.36-4.33,9.62,9.62,0,0,1-.65-1.34A1.5,1.5,0,0,1,296.56,175.26Z" style="fill: rgb(38, 50, 56); transform-origin: 314.685px 192.85px;" id="elk32xtxpmuk" class="animable"></path><path d="M324.49,237.06c-.16-4.16-1.47-8.54-4.94-10.78-1.48-1-3.22-1.54-4.54-2.72a21.08,21.08,0,0,1-3-4.19c-2.79-4.14-7.25-6.79-11.56-9.3l-5.1-3a2.4,2.4,0,0,0-1.68-.49,1.64,1.64,0,0,0-1.12,1.21,4.57,4.57,0,0,0,0,1.73,69.92,69.92,0,0,0,2,10.24c.79,2.91,1.84,5.87,4,8,2.38,2.37,5.77,3.36,8.66,5.07,2.46,1.44,4.62,3.44,7.31,4.41,3.11,1.12,6.76.26,10-.2" style="fill: rgb(69, 90, 100); transform-origin: 308.494px 222.181px;" id="el0c14ohgsvvzo" class="animable"></path><path d="M299.18,215.79a9.67,9.67,0,0,1,1,1.21l2.7,3.39A50.37,50.37,0,0,0,313,230.31a75.9,75.9,0,0,0,6.87,3.76c2.16,1.1,4.08,2.14,5.64,3.11a24.52,24.52,0,0,1,3.51,2.57,8.11,8.11,0,0,1,.84.84,1.57,1.57,0,0,1,.26.32s-.43-.37-1.23-1a27.82,27.82,0,0,0-3.57-2.41c-1.57-.92-3.5-1.92-5.67-3a69.25,69.25,0,0,1-6.94-3.76,46.74,46.74,0,0,1-10.13-10.12c-1.11-1.45-2-2.66-2.57-3.49A8.92,8.92,0,0,1,299.18,215.79Z" style="fill: rgb(38, 50, 56); transform-origin: 314.65px 228.35px;" id="el5rkwr83nffa" class="animable"></path><path d="M360.08,230.44a9.09,9.09,0,0,1-1.41.89c-.47.26-1,.59-1.68,1s-1.39.84-2.18,1.39c-1.61,1-3.45,2.38-5.43,3.95a74.61,74.61,0,0,0-6.1,5.52,76.17,76.17,0,0,0-5.41,6.19c-1.54,2-2.85,3.88-3.86,5.5-.54.8-1,1.56-1.35,2.21s-.72,1.22-1,1.69a8.58,8.58,0,0,1-.86,1.43,10.38,10.38,0,0,1,.68-1.52c.23-.49.53-1.08.9-1.75s.78-1.44,1.29-2.25a64.81,64.81,0,0,1,3.79-5.6,73.39,73.39,0,0,1,5.42-6.27,68.56,68.56,0,0,1,6.18-5.52,61.9,61.9,0,0,1,5.53-3.89c.8-.53,1.57-.95,2.23-1.33s1.24-.69,1.73-.93A10.71,10.71,0,0,1,360.08,230.44Z" style="fill: rgb(38, 50, 56); transform-origin: 345.44px 245.325px;" id="elz0u6kfq34x" class="animable"></path><path d="M343.65,279.66a80.6,80.6,0,0,0-5-10.84c-1.94-3.31-4.76-6.58-8.56-7a10,10,0,0,0-7.74,2.95,29.21,29.21,0,0,0-5,6.89q-3.63,6.18-7.27,12.36l4,5.43a37.94,37.94,0,0,0,22.67,1.44c3.6-.9,7.63-3.05,7.91-6.75A10.16,10.16,0,0,0,343.65,279.66Z" style="fill: rgb(168, 112, 88); transform-origin: 327.37px 276.892px;" id="el4xif9i2b8iy" class="animable"></path><path d="M333.53,277.07s-6.64-2.35-9.33-2.94-14.55-.73-16.24-.59-19.56,12.62-19.56,12.62L295,301.33l3.67-1.37s15,3.53,21.47,4.23,14,1,17.51,0S347.93,299,347.93,299s.28-2-3.53-1.84-7.48,1.27-9.18,1.27-7.91-.56-7.91-.56l13.7-1.27,11-7.41-1.13-2.48s2.54-1.55,2.26-2.83-2.12-2.68-4.52-2.4-10,1.7-10,1.7-11,.56-16.24-.28-7.21-2.12-7.21-2.12l7.63-.14s5.79,1.69,9.18.28S333.53,277.07,333.53,277.07Z" style="fill: rgb(255, 191, 157); transform-origin: 320.781px 289.161px;" id="elz04as2fquw" class="animable"></path><path d="M323.75,291.54a4.11,4.11,0,0,1,1.1-.12l3-.18c2.53-.17,6-.51,9.83-1.14s7.22-1.45,9.67-2.11l2.9-.8a4,4,0,0,1,1.08-.24,4.72,4.72,0,0,1-1,.44c-.66.25-1.64.58-2.86,1a77.33,77.33,0,0,1-19.58,3.26c-1.28,0-2.31,0-3,0A5.09,5.09,0,0,1,323.75,291.54Z" style="fill: rgb(255, 154, 108); transform-origin: 337.54px 289.3px;" id="elbo7o574riva" class="animable"></path><path d="M156.92,245.2s28,93.11,43.62,95.14,94.43-39,94.43-39l-6.57-15.17-72.82,19.21s-15.68-57.64-18.2-67.25-15.17-33.38-24.28-29.84S153.38,226.49,156.92,245.2Z" style="fill: rgb(255, 191, 157); transform-origin: 225.596px 274.173px;" id="elx1t081pkrw9" class="animable"></path><path d="M157.55,274.13l50.06-14.06s-14-66.54-43-50.34C144.31,221,157.55,274.13,157.55,274.13Z" style="fill: rgb(69, 90, 100); transform-origin: 180.459px 240.659px;" id="elggdngh653p" class="animable"></path><path d="M157.19,274.75l-.12-.5A169.42,169.42,0,0,1,153,246.2c-1.05-19.7,2.77-32.12,11.35-36.91,5.45-3,10.77-3.42,15.82-1.12,7.84,3.57,14.94,13.38,21.08,29.17A162.76,162.76,0,0,1,208.1,260l.1.46Zm16.3-67.06a17.83,17.83,0,0,0-8.68,2.47c-18.65,10.42-8.16,57.93-6.89,63.35L207,259.72a163.76,163.76,0,0,0-6.74-22c-4.15-10.68-11.09-24.31-20.55-28.61A15,15,0,0,0,173.49,207.69Z" style="fill: rgb(38, 50, 56); transform-origin: 180.515px 240.725px;" id="elur8gqazbkv" class="animable"></path></g><defs>     <filter id="active" height="200%">         <feMorphology in="SourceAlpha" result="DILATED" operator="dilate" radius="2"></feMorphology>                <feFlood flood-color="#32DFEC" flood-opacity="1" result="PINK"></feFlood>        <feComposite in="PINK" in2="DILATED" operator="in" result="OUTLINE"></feComposite>        <feMerge>            <feMergeNode in="OUTLINE"></feMergeNode>            <feMergeNode in="SourceGraphic"></feMergeNode>        </feMerge>    </filter>    <filter id="hover" height="200%">        <feMorphology in="SourceAlpha" result="DILATED" operator="dilate" radius="2"></feMorphology>                <feFlood flood-color="#ff0000" flood-opacity="0.5" result="PINK"></feFlood>        <feComposite in="PINK" in2="DILATED" operator="in" result="OUTLINE"></feComposite>        <feMerge>            <feMergeNode in="OUTLINE"></feMergeNode>            <feMergeNode in="SourceGraphic"></feMergeNode>        </feMerge>            <feColorMatrix type="matrix" values="0   0   0   0   0                0   1   0   0   0                0   0   0   0   0                0   0   0   1   0 "></feColorMatrix>    </filter></defs></svg>