<svg width="210" height="233" viewBox="0 0 210 233" fill="none" xmlns="http://www.w3.org/2000/svg">
<g filter="url(#filter0_d_262_37)">
<path d="M23.4435 107.477C32.7571 79.1427 92.5508 31.1507 124.814 28.906C157.077 26.6613 175.051 30.2714 188.733 46.7443C202.414 63.2173 184.136 191.692 137.463 210.304C90.79 228.915 52.733 196.5 41.5844 183.546C30.4358 170.592 14.13 135.811 23.4435 107.477Z" fill="#EDEDED"/>
</g>
<path d="M105.404 108.789L121.04 66.3865L135.373 123.41L109.313 140.956L81.95 124.872L93.6771 95.6293L105.404 108.789Z" fill="#E12600"/>
<path d="M109.313 142.637L80.2168 125.53L93.2469 93.0998L104.974 106.259L121.275 62L136.911 124.156L109.313 142.637ZM83.6047 124.214L109.313 139.274L133.888 122.737L120.858 70.846L105.912 111.377L94.1851 98.2173L83.6047 124.214Z" fill="#0A0A0A"/>
<path d="M120.362 124.989L108.831 123.132L118.317 94.7375L126.435 114.769L120.362 124.989ZM112.401 120.764L119.112 121.831L123.464 114.52L118.551 102.385L112.401 120.764Z" fill="#121211"/>
<path d="M106.029 133.25L90.6018 122.43L96.3872 111.596L106.029 133.25ZM94.146 121.465L99.5665 125.267L96.1787 117.678L94.146 121.465Z" fill="#070707"/>
<path d="M100.192 73.6974C98.7812 75.5532 97.4756 77.5066 96.283 79.546L101.495 91.2431L105.404 81.0081L100.192 73.6974Z" fill="#941900"/>
<path d="M101.586 94.723L94.7844 79.4436L95.2014 78.7418C96.4327 76.6137 97.7909 74.5815 99.2668 72.6592L100.296 71.5042L106.915 80.7742L101.586 94.723ZM97.7944 79.6629L101.404 87.7632L103.893 81.242L100.192 75.9929C99.358 77.1334 98.4068 78.6394 97.7944 79.6629Z" fill="#0A0A0A"/>
<path d="M89.768 143.88C98.1985 142.608 131.464 159.466 135.373 161.426C135.725 165.52 134.07 169.073 131.464 170.198C130.2 170.699 128.82 170.699 127.555 170.198L84.556 152.653C84.556 152.653 83.683 148.895 84.556 146.804C85.429 144.713 88.6214 144.055 89.768 143.88Z" fill="#553200"/>
<path d="M129.601 172.041C128.768 172.031 127.942 171.878 127.151 171.588L82.4187 153.34L83.1484 152.302C82.6924 150.278 82.7739 148.148 83.3829 146.176C84.6859 143.178 88.2432 142.637 89.5983 142.432C97.9115 141.19 127.151 155.592 135.907 160.095L136.598 160.446L136.676 161.279C137.08 165.958 135.126 170.184 131.933 171.514C131.192 171.851 130.401 172.03 129.601 172.041ZM85.6762 151.571L127.998 168.839C128.969 169.216 130.024 169.216 130.995 168.839C132.897 168.005 134.135 165.373 134.122 162.391C117.3 153.866 95.931 144.436 89.9371 145.327C89.0641 145.459 86.3929 145.868 85.7284 147.433C85.3961 148.78 85.3781 150.2 85.6762 151.556V151.571Z" fill="#0A0A0A"/>
<path d="M128.598 142.418C120.936 140.956 90.693 160.329 87.201 162.581C86.8882 167.303 88.4127 171.354 90.7582 172.67C91.3146 172.954 91.9188 173.101 92.5303 173.101C93.1417 173.101 93.7459 172.954 94.3023 172.67L133.328 152.507C133.328 152.507 134.122 148.12 133.328 145.781C132.455 143.163 129.64 142.622 128.598 142.418Z" fill="#7A540C"/>
<path d="M92.4392 174.585C91.6572 174.592 90.885 174.391 90.185 174C87.2662 172.392 85.5462 167.771 85.911 162.493V161.718L86.4974 161.338C94.524 156.191 121.158 139.494 128.858 140.956C129.992 141.175 133.458 141.833 134.592 145.255C135.104 147.487 135.162 149.821 134.761 152.083L135.452 153.018L94.8498 174.015C94.0867 174.378 93.268 174.572 92.4392 174.585ZM88.5301 163.473C88.4259 167.581 89.8331 170.52 91.3837 171.368C91.7729 171.574 92.1979 171.681 92.6281 171.681C93.0584 171.681 93.4833 171.574 93.8725 171.368L132.22 151.542C132.547 149.821 132.547 148.042 132.22 146.322C131.621 144.494 129.353 144.056 128.493 143.895C123.36 142.9 104.831 152.96 88.465 163.473H88.5301Z" fill="#0A0A0A"/>
<defs>
<filter id="filter0_d_262_37" x="16.6802" y="28.303" width="180.481" height="195.629" filterUnits="userSpaceOnUse" color-interpolation-filters="sRGB">
<feFlood flood-opacity="0" result="BackgroundImageFix"/>
<feColorMatrix in="SourceAlpha" type="matrix" values="0 0 0 0 0 0 0 0 0 0 0 0 0 0 0 0 0 0 127 0" result="hardAlpha"/>
<feOffset dy="4"/>
<feGaussianBlur stdDeviation="2"/>
<feComposite in2="hardAlpha" operator="out"/>
<feColorMatrix type="matrix" values="0 0 0 0 0 0 0 0 0 0 0 0 0 0 0 0 0 0 0.25 0"/>
<feBlend mode="normal" in2="BackgroundImageFix" result="effect1_dropShadow_262_37"/>
<feBlend mode="normal" in="SourceGraphic" in2="effect1_dropShadow_262_37" result="shape"/>
</filter>
</defs>
</svg>
