<svg width="1440" height="296" viewBox="0 0 1440 296" fill="none" xmlns="http://www.w3.org/2000/svg">
<path d="M-565.952 173.161C-728.169 171.558 -899 200.11 -899 200.11L-885.621 35.3553C-885.621 35.3553 -697.874 -11.7002 -511.071 3.46941C-324.267 18.639 -134.156 94.3023 131.815 83.5632C397.786 72.8242 713.834 -23.1474 1104.25 40.5978C1494.67 104.343 1610.2 124.109 1790.72 128.088C1971.24 132.067 2070.56 73.0836 2070.56 73.0836L2059.26 212.197C2059.26 212.197 2084.67 278.935 1804.97 294.196C1525.28 309.458 1203.71 207.692 988.913 195.59C774.118 183.487 396.855 261.434 149.625 256.488C-97.6044 251.541 -403.734 174.764 -565.952 173.161Z" fill="#FEFEFE"/>
</svg>
