<svg width="2795" height="910" viewBox="0 0 2795 910" fill="none" xmlns="http://www.w3.org/2000/svg">
<path d="M2473.07 779.4C2625.64 810.394 2781.55 909.115 2781.55 909.115L2794.97 546.244C2794.97 546.244 2626.1 403.492 2448.3 396.915C2270.51 390.339 2080.06 515.252 1832.01 435.224C1583.96 355.196 1302.34 78.2669 925.687 134.539C549.039 190.812 437.439 209.435 267.306 179.741C97.174 150.048 13.2154 0.0354054 13.2154 0.0354054L1.88296 306.431C1.88296 306.431 -32.4984 446.866 227.725 539.695C487.948 632.523 805.945 478.527 1009.54 497.758C1213.14 516.989 1555.09 767.548 1788.02 809.315C2020.94 851.081 2320.5 748.405 2473.07 779.4Z" fill="#ECECEC" fill-opacity="0.52"/>
</svg>
