<svg id="Camada_1" data-name="Camada 1" xmlns="http://www.w3.org/2000/svg" viewBox="0 0 186.56 78.23"><defs><style>.cls-1{fill:#fff;}.cls-2{fill:#dedede;}</style></defs><path class="cls-1" d="M151.87,62.84h12l-19.25-49H138a5.1,5.1,0,0,0-4.74,3.22l-6.22,15.73a19,19,0,0,0,.29-3.34,15.89,15.89,0,0,0-2.14-8.19,15.72,15.72,0,0,0-5.74-5.74,16,16,0,0,0-8.23-2.1H94.67A4.55,4.55,0,0,0,90.12,18v7.46h.11a3.45,3.45,0,0,0,2.5-.64,5.28,5.28,0,0,0,1.55-2.91c.23-.86.63-2.3,2.08-2.3h0a2.2,2.2,0,0,1,1.69,1c1.15,1.49,1.9,4.85,1.16,7.88-1.12,4.61-5.36,7.3-9.13,8.5v3.47a13.66,13.66,0,0,1,4,3.58,7.45,7.45,0,0,0,2.08,2,11.07,11.07,0,0,0,2.87,1.23c.94.29,2.22.68,2.31,2a2.1,2.1,0,0,1-.65,1.63C99.65,52,97,53,94.67,53h-.16a10.43,10.43,0,0,1-4.39-1.13v7.85a2.76,2.76,0,0,0,2.76,2.75h6.36A2.79,2.79,0,0,0,102,59.63V46h9.23a15.71,15.71,0,0,0,8.23-2.17,16.08,16.08,0,0,0,5.25-5.16l-8.2,20.71a2.5,2.5,0,0,0,2.33,3.42H127l4.37-11.73,16.14-.1Zm-37.46-30.1a5.92,5.92,0,0,1-2,2.1,5.29,5.29,0,0,1-2.8.77h-7.76v-7a4.67,4.67,0,0,1,4.67-4.67h3.09a5.62,5.62,0,0,1,2.8.7,5.37,5.37,0,0,1,2,2,5.73,5.73,0,0,1,.77,3.08A6,6,0,0,1,114.41,32.74Zm19.54,13c-.93,0,.18-2.21.51-3.09l1.72-4.63c.38-1.16.77-2.29,1.19-3.39s.81-2.19,1.16-3.29.62-2,.94-3c.29,1,.6,1.95.91,3,.38,1.19.75,2.34,1.12,3.46s.75,2.17,1.12,3.15l1.82,4.88a1.21,1.21,0,0,1-1.13,1.63Z"/><path class="cls-1" d="M49.24,53.05l1-1.9c.67-1.29,1.39-2.67,2.18-4.07l.33-.57a43.14,43.14,0,0,1,3.44-5.15,29.6,29.6,0,0,1,2.16-2.47,23.41,23.41,0,0,1,6-4.44V23.57H80.5a3.25,3.25,0,0,0,3.25-3.25V16.1a2.68,2.68,0,0,0-2.68-2.68H52.74V32.63L46.57,17a5.6,5.6,0,0,0-5.21-3.54H38.93A5.63,5.63,0,0,0,33.68,17l-18,45.43H27.46l3.48-9.33,18,0Zm-14-6.76a1.5,1.5,0,0,1-1.07-2l2.49-6.67c.37-1.17.77-2.3,1.19-3.4s.81-2.19,1.16-3.29L40,28c.3,1,.6,2,.92,3,.37,1.19.75,2.35,1.12,3.47s.75,2.17,1.12,3.15L47,47.05a1.21,1.21,0,0,1-1.39,1.63Z"/><path class="cls-1" d="M64.29,46.34A23.69,23.69,0,0,0,59.58,50a45.37,45.37,0,0,0-6.84,9V61a1.43,1.43,0,0,0,1.45,1.43l10.23-.12,18.14-.22a1.19,1.19,0,0,0,1.19-1.2V53.5a1.23,1.23,0,0,0-1.23-1.23H64.29Z"/><path class="cls-2" d="M54.31,53l.34-.46A36,36,0,0,1,58.79,48a25,25,0,0,1,4.79-3.55c.23-.13.47-.25.71-.37,3.42-1.77,7.25-2.74,12.3-3.57s9.13-2.71,9.2-3.21S79,34.06,73.56,34.06a13.73,13.73,0,0,0-2,.14,19.68,19.68,0,0,0-7.3,2.55,22.92,22.92,0,0,0-6,5.13c-.45.55-.89,1.1-1.3,1.66a51.66,51.66,0,0,0-3.66,5.93c-.22.4-.43.8-.64,1.2L51.5,53c-.17.33-.34.66-.51,1s-.54,1.17-1,2.11c-.5,1.13-1,2.37-1.22,2.79a11.16,11.16,0,0,0-.92,3.56.16.16,0,0,0,.11.05c.45,0,1.36-1.75,2.84-4.23.55-.92,1.18-1.95,1.89-3C53.22,54.54,53.75,53.79,54.31,53Z"/><path class="cls-2" d="M94.78,51.21h.13c2.33,0,4.71-1.2,4.66-1.92s-1.82-.51-4-1.86c-1.8-1.14-2-2.12-3.41-3.43a10.14,10.14,0,0,0-1.31-1,10.86,10.86,0,0,0-5.29-2.09,1.18,1.18,0,0,0-.93.3c-.88,1.08,2,6.42,6.22,8.84A8.31,8.31,0,0,0,94.78,51.21Z"/><path class="cls-2" d="M86.73,35.21a3.32,3.32,0,0,0,.46,0,11.84,11.84,0,0,0,3.63-.7c2.76-1,5.82-2.93,6.64-6.3.71-2.93-.5-6-1.24-6h0c-.67,0-.39,2.64-2.33,4.22a4.35,4.35,0,0,1-3.07.84,4.42,4.42,0,0,0-3.07.92c-.75.61-1.34,1.91-2.51,4.52A2.06,2.06,0,0,0,85,34.42C85.37,35.07,86.34,35.17,86.73,35.21Z"/></svg>